<svg width="600" height="296" viewBox="0 0 600 296" fill="none" xmlns="http://www.w3.org/2000/svg">
<rect x="26" y="32" width="548" height="232" rx="16" fill="#181924"/>
<path d="M79.714 80.8576C92.9686 80.8576 103.713 76.4925 103.713 71.1077C103.713 65.723 92.9686 61.3578 79.714 61.3578C66.4595 61.3578 55.7146 65.723 55.7146 71.1077C55.7146 76.4925 66.4595 80.8576 79.714 80.8576Z" stroke="#E862FE" stroke-width="2.3"/>
<path d="M55.7152 90.6078C55.7152 90.6078 55.7152 98.223 55.7152 103.608C55.7152 108.993 66.4601 113.358 79.7143 113.358C92.9687 113.358 103.715 108.993 103.715 103.608C103.715 100.92 103.715 90.6078 103.715 90.6078" stroke="#E862FE" stroke-width="2.3" stroke-linecap="square"/>
<path d="M55.7152 71.1078C55.7152 71.1078 55.7152 81.973 55.7152 87.3576C55.7152 92.7424 66.4601 97.1077 79.7143 97.1077C92.9687 97.1077 103.715 92.7424 103.715 87.3576C103.715 84.6699 103.715 71.1078 103.715 71.1078" stroke="#E862FE" stroke-width="2.3"/>
<path d="M139.216 86.312C138.08 86.312 137.012 86.088 136.012 85.64C135.012 85.184 134.132 84.56 133.372 83.768C132.62 82.968 132.028 82.04 131.596 80.984C131.172 79.928 130.96 78.8 130.96 77.6C130.96 76.4 131.172 75.272 131.596 74.216C132.028 73.16 132.62 72.236 133.372 71.444C134.132 70.644 135.012 70.02 136.012 69.572C137.012 69.116 138.08 68.888 139.216 68.888C140.576 68.888 141.828 69.204 142.972 69.836C144.116 70.468 145.064 71.308 145.816 72.356L144.328 73.16C143.736 72.368 142.984 71.74 142.072 71.276C141.168 70.804 140.216 70.568 139.216 70.568C138.296 70.568 137.436 70.756 136.636 71.132C135.844 71.5 135.148 72.008 134.548 72.656C133.948 73.304 133.48 74.052 133.144 74.9C132.808 75.748 132.64 76.648 132.64 77.6C132.64 78.568 132.808 79.476 133.144 80.324C133.488 81.172 133.96 81.92 134.56 82.568C135.168 83.216 135.868 83.724 136.66 84.092C137.46 84.452 138.312 84.632 139.216 84.632C140.256 84.632 141.22 84.396 142.108 83.924C143.004 83.444 143.744 82.82 144.328 82.052L145.816 82.856C145.064 83.904 144.116 84.744 142.972 85.376C141.828 86 140.576 86.312 139.216 86.312ZM148.652 86V69.2H150.332V86H148.652ZM159.625 69.2L154.765 87.344H153.085L157.945 69.2H159.625ZM169.802 86.312C168.666 86.312 167.598 86.088 166.598 85.64C165.598 85.184 164.718 84.56 163.958 83.768C163.206 82.968 162.614 82.04 162.182 80.984C161.758 79.928 161.546 78.8 161.546 77.6C161.546 76.4 161.758 75.272 162.182 74.216C162.614 73.16 163.206 72.236 163.958 71.444C164.718 70.644 165.598 70.02 166.598 69.572C167.598 69.116 168.666 68.888 169.802 68.888C171.162 68.888 172.414 69.204 173.558 69.836C174.702 70.468 175.65 71.308 176.402 72.356L174.914 73.16C174.322 72.368 173.57 71.74 172.658 71.276C171.754 70.804 170.802 70.568 169.802 70.568C168.882 70.568 168.022 70.756 167.222 71.132C166.43 71.5 165.734 72.008 165.134 72.656C164.534 73.304 164.066 74.052 163.73 74.9C163.394 75.748 163.226 76.648 163.226 77.6C163.226 78.568 163.394 79.476 163.73 80.324C164.074 81.172 164.546 81.92 165.146 82.568C165.754 83.216 166.454 83.724 167.246 84.092C168.046 84.452 168.898 84.632 169.802 84.632C170.842 84.632 171.806 84.396 172.694 83.924C173.59 83.444 174.33 82.82 174.914 82.052L176.402 82.856C175.65 83.904 174.702 84.744 173.558 85.376C172.414 86 171.162 86.312 169.802 86.312ZM178.878 86V69.2H184.434C185.594 69.2 186.682 69.42 187.698 69.86C188.714 70.292 189.606 70.896 190.374 71.672C191.142 72.44 191.742 73.332 192.174 74.348C192.614 75.356 192.834 76.44 192.834 77.6C192.834 78.76 192.614 79.848 192.174 80.864C191.742 81.872 191.142 82.764 190.374 83.54C189.606 84.308 188.714 84.912 187.698 85.352C186.682 85.784 185.594 86 184.434 86H178.878ZM180.558 84.32H184.434C185.362 84.32 186.23 84.148 187.038 83.804C187.854 83.452 188.57 82.968 189.186 82.352C189.802 81.736 190.282 81.024 190.626 80.216C190.978 79.4 191.154 78.528 191.154 77.6C191.154 76.672 190.978 75.804 190.626 74.996C190.282 74.18 189.798 73.464 189.174 72.848C188.558 72.232 187.846 71.752 187.038 71.408C186.23 71.056 185.362 70.88 184.434 70.88H180.558V84.32ZM200.768 86V69.2H206.144C207.04 69.2 207.848 69.42 208.568 69.86C209.288 70.292 209.86 70.88 210.284 71.624C210.716 72.36 210.932 73.188 210.932 74.108C210.932 75.036 210.712 75.872 210.272 76.616C209.84 77.36 209.26 77.948 208.532 78.38C207.812 78.812 207.016 79.028 206.144 79.028H202.448V86H200.768ZM202.448 77.348H206.012C206.604 77.348 207.144 77.204 207.632 76.916C208.128 76.62 208.52 76.224 208.808 75.728C209.104 75.224 209.252 74.656 209.252 74.024C209.252 73.392 209.104 72.828 208.808 72.332C208.52 71.828 208.128 71.432 207.632 71.144C207.144 70.848 206.604 70.7 206.012 70.7H202.448V77.348ZM213.096 74H214.776V86H213.096V74ZM213.948 71.9C213.676 71.9 213.444 71.812 213.252 71.636C213.068 71.452 212.976 71.224 212.976 70.952C212.976 70.68 213.068 70.456 213.252 70.28C213.444 70.096 213.676 70.004 213.948 70.004C214.212 70.004 214.436 70.096 214.62 70.28C214.812 70.456 214.908 70.68 214.908 70.952C214.908 71.224 214.816 71.452 214.632 71.636C214.448 71.812 214.22 71.9 213.948 71.9ZM219.253 92H217.573V74H219.253V76.244C219.669 75.484 220.237 74.868 220.957 74.396C221.677 73.924 222.533 73.688 223.525 73.688C224.397 73.688 225.213 73.852 225.973 74.18C226.741 74.508 227.413 74.964 227.989 75.548C228.565 76.124 229.017 76.792 229.345 77.552C229.673 78.312 229.837 79.128 229.837 80C229.837 80.872 229.673 81.692 229.345 82.46C229.017 83.228 228.565 83.904 227.989 84.488C227.413 85.064 226.741 85.516 225.973 85.844C225.213 86.172 224.397 86.336 223.525 86.336C222.533 86.336 221.677 86.1 220.957 85.628C220.237 85.156 219.669 84.54 219.253 83.78V92ZM223.513 75.32C222.673 75.32 221.941 75.532 221.317 75.956C220.701 76.372 220.225 76.932 219.889 77.636C219.553 78.34 219.385 79.128 219.385 80C219.385 80.856 219.549 81.64 219.877 82.352C220.213 83.064 220.689 83.632 221.305 84.056C221.929 84.48 222.665 84.692 223.513 84.692C224.345 84.692 225.109 84.484 225.805 84.068C226.509 83.652 227.073 83.092 227.497 82.388C227.921 81.676 228.133 80.88 228.133 80C228.133 79.144 227.925 78.364 227.509 77.66C227.093 76.948 226.537 76.38 225.841 75.956C225.145 75.532 224.369 75.32 223.513 75.32ZM237.033 86.312C235.929 86.312 234.921 86.028 234.009 85.46C233.105 84.892 232.381 84.132 231.837 83.18C231.301 82.22 231.033 81.16 231.033 80C231.033 79.12 231.189 78.3 231.501 77.54C231.813 76.772 232.241 76.1 232.785 75.524C233.337 74.94 233.977 74.484 234.705 74.156C235.433 73.828 236.209 73.664 237.033 73.664C237.921 73.664 238.737 73.84 239.481 74.192C240.233 74.544 240.877 75.036 241.413 75.668C241.957 76.3 242.365 77.04 242.637 77.888C242.917 78.736 243.033 79.652 242.984 80.636H232.809C232.905 81.396 233.145 82.076 233.529 82.676C233.921 83.276 234.417 83.752 235.017 84.104C235.625 84.448 236.297 84.624 237.033 84.632C237.833 84.632 238.553 84.424 239.193 84.008C239.841 83.592 240.361 83.02 240.753 82.292L242.457 82.688C241.977 83.752 241.253 84.624 240.285 85.304C239.317 85.976 238.233 86.312 237.033 86.312ZM232.761 79.28H241.293C241.237 78.536 241.009 77.856 240.609 77.24C240.217 76.616 239.709 76.12 239.085 75.752C238.461 75.376 237.777 75.188 237.033 75.188C236.289 75.188 235.609 75.372 234.993 75.74C234.377 76.1 233.873 76.592 233.48 77.216C233.089 77.832 232.849 78.52 232.761 79.28ZM244.948 86V68H246.628V86H244.948ZM249.518 74H251.198V86H249.518V74ZM250.37 71.9C250.098 71.9 249.866 71.812 249.674 71.636C249.49 71.452 249.398 71.224 249.398 70.952C249.398 70.68 249.49 70.456 249.674 70.28C249.866 70.096 250.098 70.004 250.37 70.004C250.634 70.004 250.858 70.096 251.042 70.28C251.234 70.456 251.33 70.68 251.33 70.952C251.33 71.224 251.238 71.452 251.054 71.636C250.87 71.812 250.642 71.9 250.37 71.9ZM264.506 78.572V86H262.826V78.908C262.826 78.252 262.666 77.656 262.346 77.12C262.026 76.584 261.598 76.156 261.062 75.836C260.526 75.516 259.93 75.356 259.274 75.356C258.626 75.356 258.03 75.516 257.486 75.836C256.95 76.156 256.522 76.584 256.202 77.12C255.882 77.656 255.722 78.252 255.722 78.908V86H254.042V74H255.722V75.656C256.146 75.048 256.698 74.564 257.378 74.204C258.058 73.844 258.798 73.664 259.598 73.664C260.502 73.664 261.326 73.884 262.07 74.324C262.814 74.764 263.406 75.356 263.846 76.1C264.286 76.844 264.506 77.668 264.506 78.572ZM271.954 86.312C270.85 86.312 269.842 86.028 268.93 85.46C268.026 84.892 267.302 84.132 266.758 83.18C266.222 82.22 265.954 81.16 265.954 80C265.954 79.12 266.11 78.3 266.422 77.54C266.734 76.772 267.162 76.1 267.706 75.524C268.258 74.94 268.898 74.484 269.626 74.156C270.354 73.828 271.13 73.664 271.954 73.664C272.842 73.664 273.658 73.84 274.402 74.192C275.154 74.544 275.798 75.036 276.334 75.668C276.878 76.3 277.286 77.04 277.558 77.888C277.838 78.736 277.954 79.652 277.906 80.636H267.73C267.826 81.396 268.066 82.076 268.45 82.676C268.842 83.276 269.338 83.752 269.938 84.104C270.546 84.448 271.218 84.624 271.954 84.632C272.754 84.632 273.474 84.424 274.114 84.008C274.762 83.592 275.282 83.02 275.674 82.292L277.378 82.688C276.898 83.752 276.174 84.624 275.206 85.304C274.238 85.976 273.154 86.312 271.954 86.312ZM267.682 79.28H276.214C276.158 78.536 275.93 77.856 275.53 77.24C275.138 76.616 274.63 76.12 274.006 75.752C273.382 75.376 272.698 75.188 271.954 75.188C271.21 75.188 270.53 75.372 269.914 75.74C269.298 76.1 268.794 76.592 268.402 77.216C268.01 77.832 267.77 78.52 267.682 79.28ZM293.634 86.312C292.482 86.312 291.402 86.088 290.394 85.64C289.394 85.184 288.518 84.556 287.766 83.756C287.014 82.948 286.426 82.02 286.002 80.972C285.578 79.916 285.366 78.788 285.366 77.588C285.366 76.364 285.586 75.224 286.026 74.168C286.466 73.112 287.07 72.192 287.838 71.408C288.606 70.616 289.486 70 290.478 69.56C291.478 69.12 292.538 68.9 293.658 68.9C294.946 68.9 296.162 69.2 297.306 69.8C298.458 70.4 299.434 71.252 300.234 72.356L298.734 73.172C298.094 72.332 297.322 71.688 296.418 71.24C295.522 70.792 294.598 70.568 293.646 70.568C292.742 70.568 291.89 70.752 291.09 71.12C290.298 71.48 289.598 71.984 288.99 72.632C288.382 73.28 287.906 74.028 287.562 74.876C287.218 75.724 287.046 76.636 287.046 77.612C287.046 78.58 287.218 79.488 287.562 80.336C287.906 81.184 288.378 81.932 288.978 82.58C289.586 83.22 290.29 83.724 291.09 84.092C291.89 84.452 292.746 84.632 293.658 84.632C294.41 84.632 295.122 84.504 295.794 84.248C296.474 83.984 297.094 83.616 297.654 83.144C298.214 82.672 298.686 82.12 299.07 81.488C299.462 80.856 299.746 80.168 299.922 79.424H295.386V77.9H301.878C301.854 79.06 301.622 80.148 301.182 81.164C300.742 82.18 300.142 83.076 299.382 83.852C298.63 84.62 297.762 85.224 296.778 85.664C295.802 86.096 294.754 86.312 293.634 86.312ZM309.384 86.312C308.28 86.312 307.272 86.028 306.36 85.46C305.456 84.892 304.732 84.132 304.188 83.18C303.652 82.22 303.384 81.16 303.384 80C303.384 79.12 303.54 78.3 303.852 77.54C304.164 76.772 304.592 76.1 305.136 75.524C305.688 74.94 306.328 74.484 307.056 74.156C307.784 73.828 308.56 73.664 309.384 73.664C310.272 73.664 311.088 73.84 311.832 74.192C312.584 74.544 313.228 75.036 313.764 75.668C314.308 76.3 314.716 77.04 314.988 77.888C315.268 78.736 315.384 79.652 315.336 80.636H305.16C305.256 81.396 305.496 82.076 305.88 82.676C306.272 83.276 306.768 83.752 307.368 84.104C307.976 84.448 308.648 84.624 309.384 84.632C310.184 84.632 310.904 84.424 311.544 84.008C312.192 83.592 312.712 83.02 313.104 82.292L314.808 82.688C314.328 83.752 313.604 84.624 312.636 85.304C311.668 85.976 310.584 86.312 309.384 86.312ZM305.112 79.28H313.644C313.588 78.536 313.36 77.856 312.96 77.24C312.568 76.616 312.06 76.12 311.436 75.752C310.812 75.376 310.128 75.188 309.384 75.188C308.64 75.188 307.96 75.372 307.344 75.74C306.728 76.1 306.224 76.592 305.832 77.216C305.44 77.832 305.2 78.52 305.112 79.28ZM327.857 78.572V86H326.177V78.908C326.177 78.252 326.017 77.656 325.697 77.12C325.377 76.584 324.949 76.156 324.413 75.836C323.877 75.516 323.281 75.356 322.625 75.356C321.977 75.356 321.381 75.516 320.837 75.836C320.301 76.156 319.873 76.584 319.553 77.12C319.233 77.656 319.073 78.252 319.073 78.908V86H317.393V74H319.073V75.656C319.497 75.048 320.049 74.564 320.729 74.204C321.409 73.844 322.149 73.664 322.949 73.664C323.853 73.664 324.677 73.884 325.421 74.324C326.165 74.764 326.757 75.356 327.197 76.1C327.637 76.844 327.857 77.668 327.857 78.572ZM335.306 86.312C334.202 86.312 333.194 86.028 332.282 85.46C331.378 84.892 330.654 84.132 330.11 83.18C329.574 82.22 329.306 81.16 329.306 80C329.306 79.12 329.462 78.3 329.774 77.54C330.086 76.772 330.514 76.1 331.058 75.524C331.61 74.94 332.25 74.484 332.978 74.156C333.706 73.828 334.482 73.664 335.306 73.664C336.194 73.664 337.01 73.84 337.754 74.192C338.506 74.544 339.15 75.036 339.686 75.668C340.23 76.3 340.638 77.04 340.91 77.888C341.19 78.736 341.306 79.652 341.258 80.636H331.082C331.178 81.396 331.418 82.076 331.802 82.676C332.194 83.276 332.69 83.752 333.29 84.104C333.898 84.448 334.57 84.624 335.306 84.632C336.106 84.632 336.826 84.424 337.466 84.008C338.114 83.592 338.634 83.02 339.026 82.292L340.73 82.688C340.25 83.752 339.526 84.624 338.558 85.304C337.59 85.976 336.506 86.312 335.306 86.312ZM331.034 79.28H339.566C339.51 78.536 339.282 77.856 338.882 77.24C338.49 76.616 337.982 76.12 337.358 75.752C336.734 75.376 336.05 75.188 335.306 75.188C334.562 75.188 333.882 75.372 333.266 75.74C332.65 76.1 332.146 76.592 331.754 77.216C331.362 77.832 331.122 78.52 331.034 79.28ZM343.315 86V74H344.995V75.656C345.419 75.048 345.971 74.564 346.651 74.204C347.331 73.844 348.071 73.664 348.871 73.664C349.335 73.664 349.783 73.724 350.215 73.844L349.531 75.512C349.195 75.408 348.867 75.356 348.547 75.356C347.899 75.356 347.303 75.516 346.759 75.836C346.223 76.156 345.795 76.584 345.475 77.12C345.155 77.656 344.995 78.252 344.995 78.908V86H343.315ZM360.96 74H362.64V86H360.96L360.9 83.768C360.508 84.528 359.96 85.144 359.256 85.616C358.552 86.08 357.712 86.312 356.736 86.312C355.856 86.312 355.032 86.148 354.264 85.82C353.496 85.484 352.82 85.024 352.236 84.44C351.652 83.856 351.196 83.18 350.868 82.412C350.54 81.644 350.376 80.82 350.376 79.94C350.376 79.076 350.536 78.264 350.856 77.504C351.184 76.744 351.632 76.076 352.2 75.5C352.776 74.924 353.44 74.476 354.192 74.156C354.952 73.828 355.764 73.664 356.628 73.664C357.628 73.664 358.5 73.904 359.244 74.384C359.988 74.856 360.58 75.476 361.02 76.244L360.96 74ZM356.7 84.68C357.556 84.68 358.292 84.472 358.908 84.056C359.524 83.632 359.996 83.064 360.324 82.352C360.66 81.64 360.828 80.856 360.828 80C360.828 79.12 360.66 78.328 360.324 77.624C359.988 76.912 359.512 76.348 358.896 75.932C358.28 75.516 357.548 75.308 356.7 75.308C355.852 75.308 355.076 75.52 354.372 75.944C353.676 76.36 353.12 76.924 352.704 77.636C352.296 78.348 352.092 79.136 352.092 80C352.092 80.872 352.304 81.664 352.728 82.376C353.152 83.08 353.712 83.64 354.408 84.056C355.112 84.472 355.876 84.68 356.7 84.68ZM371.174 75.68H368.306L368.294 86H366.614L366.626 75.68H364.454V74H366.626L366.614 70.232H368.294L368.306 74H371.174V75.68ZM378.267 86.312C377.163 86.312 376.155 86.028 375.243 85.46C374.339 84.892 373.615 84.132 373.071 83.18C372.535 82.22 372.267 81.16 372.267 80C372.267 79.12 372.423 78.3 372.735 77.54C373.047 76.772 373.475 76.1 374.019 75.524C374.571 74.94 375.211 74.484 375.939 74.156C376.667 73.828 377.443 73.664 378.267 73.664C379.155 73.664 379.971 73.84 380.715 74.192C381.467 74.544 382.111 75.036 382.647 75.668C383.191 76.3 383.599 77.04 383.871 77.888C384.151 78.736 384.267 79.652 384.219 80.636H374.043C374.139 81.396 374.379 82.076 374.763 82.676C375.155 83.276 375.651 83.752 376.251 84.104C376.859 84.448 377.531 84.624 378.267 84.632C379.067 84.632 379.787 84.424 380.427 84.008C381.075 83.592 381.595 83.02 381.987 82.292L383.691 82.688C383.211 83.752 382.487 84.624 381.519 85.304C380.551 85.976 379.467 86.312 378.267 86.312ZM373.995 79.28H382.527C382.471 78.536 382.243 77.856 381.843 77.24C381.451 76.616 380.943 76.12 380.319 75.752C379.695 75.376 379.011 75.188 378.267 75.188C377.523 75.188 376.843 75.372 376.227 75.74C375.611 76.1 375.107 76.592 374.715 77.216C374.323 77.832 374.083 78.52 373.995 79.28Z" fill="white"/>
<line opacity="0.12" x1="58" y1="147.5" x2="530" y2="147.5" stroke="white"/>
<path d="M79.714 196.858C92.9686 196.858 103.713 192.492 103.713 187.108C103.713 181.723 92.9686 177.358 79.714 177.358C66.4595 177.358 55.7146 181.723 55.7146 187.108C55.7146 192.492 66.4595 196.858 79.714 196.858Z" stroke="#7534FF" stroke-width="2.3"/>
<path d="M55.7152 206.608C55.7152 206.608 55.7152 214.223 55.7152 219.608C55.7152 224.993 66.4601 229.358 79.7143 229.358C92.9687 229.358 103.715 224.993 103.715 219.608C103.715 216.92 103.715 206.608 103.715 206.608" stroke="#7534FF" stroke-width="2.3" stroke-linecap="square"/>
<path d="M55.7152 187.108C55.7152 187.108 55.7152 197.973 55.7152 203.358C55.7152 208.742 66.4601 213.108 79.7143 213.108C92.9687 213.108 103.715 208.742 103.715 203.358C103.715 200.67 103.715 187.108 103.715 187.108" stroke="#7534FF" stroke-width="2.3"/>
<path d="M131.44 202V185.2H137.116C137.932 185.2 138.672 185.368 139.336 185.704C140.008 186.032 140.54 186.516 140.932 187.156C141.332 187.788 141.532 188.556 141.532 189.46C141.532 189.972 141.44 190.46 141.256 190.924C141.072 191.388 140.832 191.784 140.536 192.112C140.24 192.432 139.92 192.64 139.576 192.736C140.072 192.864 140.5 193.088 140.86 193.408C141.22 193.72 141.516 194.092 141.748 194.524C141.98 194.948 142.148 195.396 142.252 195.868C142.364 196.34 142.42 196.804 142.42 197.26C142.42 198.204 142.212 199.032 141.796 199.744C141.388 200.456 140.84 201.012 140.152 201.412C139.464 201.804 138.7 202 137.86 202H131.44ZM133.12 200.5H137.728C138.312 200.5 138.84 200.348 139.312 200.044C139.792 199.74 140.172 199.324 140.452 198.796C140.74 198.268 140.884 197.672 140.884 197.008C140.884 196.416 140.74 195.86 140.452 195.34C140.172 194.812 139.792 194.388 139.312 194.068C138.84 193.74 138.312 193.576 137.728 193.576H133.12V200.5ZM133.12 192.1H136.972C137.764 192.1 138.44 191.872 139 191.416C139.568 190.952 139.852 190.296 139.852 189.448C139.852 188.52 139.568 187.832 139 187.384C138.44 186.928 137.764 186.7 136.972 186.7H133.12V192.1ZM144.132 197.404V190H145.812V197.068C145.812 197.724 145.972 198.32 146.292 198.856C146.612 199.392 147.04 199.82 147.576 200.14C148.12 200.46 148.716 200.62 149.364 200.62C150.02 200.62 150.612 200.46 151.14 200.14C151.676 199.82 152.104 199.392 152.424 198.856C152.744 198.32 152.904 197.724 152.904 197.068V190H154.584L154.596 202H152.916L152.904 200.32C152.48 200.928 151.928 201.412 151.248 201.772C150.576 202.132 149.84 202.312 149.04 202.312C148.136 202.312 147.312 202.092 146.568 201.652C145.824 201.212 145.232 200.62 144.792 199.876C144.352 199.132 144.132 198.308 144.132 197.404ZM156.987 190H158.667V202H156.987V190ZM157.839 187.9C157.567 187.9 157.335 187.812 157.143 187.636C156.959 187.452 156.867 187.224 156.867 186.952C156.867 186.68 156.959 186.456 157.143 186.28C157.335 186.096 157.567 186.004 157.839 186.004C158.103 186.004 158.327 186.096 158.511 186.28C158.703 186.456 158.799 186.68 158.799 186.952C158.799 187.224 158.707 187.452 158.523 187.636C158.339 187.812 158.111 187.9 157.839 187.9ZM161.651 202V184H163.331V202H161.651ZM176.004 184H177.684V202H176.004V199.756C175.588 200.524 175.016 201.144 174.288 201.616C173.568 202.08 172.712 202.312 171.72 202.312C170.848 202.312 170.032 202.148 169.272 201.82C168.512 201.492 167.84 201.04 167.256 200.464C166.68 199.88 166.228 199.208 165.9 198.448C165.572 197.688 165.408 196.872 165.408 196C165.408 195.128 165.572 194.312 165.9 193.552C166.228 192.784 166.68 192.112 167.256 191.536C167.84 190.952 168.512 190.496 169.272 190.168C170.032 189.84 170.848 189.676 171.72 189.676C172.712 189.676 173.568 189.912 174.288 190.384C175.016 190.848 175.588 191.46 176.004 192.22V184ZM171.732 200.68C172.588 200.68 173.324 200.472 173.94 200.056C174.556 199.632 175.028 199.064 175.356 198.352C175.692 197.64 175.86 196.856 175.86 196C175.86 195.12 175.692 194.328 175.356 193.624C175.02 192.912 174.544 192.348 173.928 191.932C173.312 191.516 172.58 191.308 171.732 191.308C170.884 191.308 170.112 191.52 169.416 191.944C168.72 192.36 168.164 192.924 167.748 193.636C167.332 194.348 167.124 195.136 167.124 196C167.124 196.872 167.336 197.664 167.76 198.376C168.184 199.08 168.744 199.64 169.44 200.056C170.144 200.472 170.908 200.68 171.732 200.68ZM192.391 185.2L187.531 203.344H185.851L190.711 185.2H192.391ZM200.557 202V185.2H206.113C207.273 185.2 208.361 185.42 209.377 185.86C210.393 186.292 211.285 186.896 212.053 187.672C212.821 188.44 213.421 189.332 213.853 190.348C214.293 191.356 214.513 192.44 214.513 193.6C214.513 194.76 214.293 195.848 213.853 196.864C213.421 197.872 212.821 198.764 212.053 199.54C211.285 200.308 210.393 200.912 209.377 201.352C208.361 201.784 207.273 202 206.113 202H200.557ZM202.237 200.32H206.113C207.041 200.32 207.909 200.148 208.717 199.804C209.533 199.452 210.249 198.968 210.865 198.352C211.481 197.736 211.961 197.024 212.305 196.216C212.657 195.4 212.833 194.528 212.833 193.6C212.833 192.672 212.657 191.804 212.305 190.996C211.961 190.18 211.477 189.464 210.853 188.848C210.237 188.232 209.525 187.752 208.717 187.408C207.909 187.056 207.041 186.88 206.113 186.88H202.237V200.32ZM221.798 202.312C220.694 202.312 219.686 202.028 218.774 201.46C217.87 200.892 217.146 200.132 216.602 199.18C216.066 198.22 215.798 197.16 215.798 196C215.798 195.12 215.954 194.3 216.266 193.54C216.578 192.772 217.006 192.1 217.55 191.524C218.102 190.94 218.742 190.484 219.47 190.156C220.198 189.828 220.974 189.664 221.798 189.664C222.686 189.664 223.502 189.84 224.246 190.192C224.998 190.544 225.642 191.036 226.178 191.668C226.722 192.3 227.13 193.04 227.402 193.888C227.682 194.736 227.798 195.652 227.75 196.636H217.574C217.67 197.396 217.91 198.076 218.294 198.676C218.686 199.276 219.182 199.752 219.782 200.104C220.39 200.448 221.062 200.624 221.798 200.632C222.598 200.632 223.318 200.424 223.958 200.008C224.606 199.592 225.126 199.02 225.518 198.292L227.222 198.688C226.742 199.752 226.018 200.624 225.05 201.304C224.082 201.976 222.998 202.312 221.798 202.312ZM217.526 195.28H226.058C226.002 194.536 225.774 193.856 225.374 193.24C224.982 192.616 224.474 192.12 223.85 191.752C223.226 191.376 222.542 191.188 221.798 191.188C221.054 191.188 220.374 191.372 219.758 191.74C219.142 192.1 218.638 192.592 218.246 193.216C217.854 193.832 217.614 194.52 217.526 195.28ZM231.487 208H229.807V190H231.487V192.244C231.903 191.484 232.471 190.868 233.191 190.396C233.911 189.924 234.767 189.688 235.759 189.688C236.631 189.688 237.447 189.852 238.207 190.18C238.975 190.508 239.647 190.964 240.223 191.548C240.799 192.124 241.251 192.792 241.579 193.552C241.907 194.312 242.071 195.128 242.071 196C242.071 196.872 241.907 197.692 241.579 198.46C241.251 199.228 240.799 199.904 240.223 200.488C239.647 201.064 238.975 201.516 238.207 201.844C237.447 202.172 236.631 202.336 235.759 202.336C234.767 202.336 233.911 202.1 233.191 201.628C232.471 201.156 231.903 200.54 231.487 199.78V208ZM235.747 191.32C234.907 191.32 234.175 191.532 233.551 191.956C232.935 192.372 232.459 192.932 232.123 193.636C231.787 194.34 231.619 195.128 231.619 196C231.619 196.856 231.783 197.64 232.111 198.352C232.447 199.064 232.923 199.632 233.539 200.056C234.163 200.48 234.899 200.692 235.747 200.692C236.579 200.692 237.343 200.484 238.039 200.068C238.743 199.652 239.307 199.092 239.731 198.388C240.155 197.676 240.367 196.88 240.367 196C240.367 195.144 240.159 194.364 239.743 193.66C239.327 192.948 238.771 192.38 238.075 191.956C237.379 191.532 236.603 191.32 235.747 191.32ZM244.01 202V184H245.69V202H244.01ZM253.767 202.312C252.663 202.312 251.655 202.028 250.743 201.46C249.839 200.892 249.115 200.132 248.571 199.18C248.035 198.22 247.767 197.16 247.767 196C247.767 195.12 247.923 194.3 248.235 193.54C248.547 192.772 248.975 192.1 249.519 191.524C250.071 190.94 250.711 190.484 251.439 190.156C252.167 189.828 252.943 189.664 253.767 189.664C254.871 189.664 255.875 189.948 256.779 190.516C257.691 191.084 258.415 191.848 258.951 192.808C259.495 193.768 259.767 194.832 259.767 196C259.767 196.872 259.611 197.688 259.299 198.448C258.987 199.208 258.555 199.88 258.003 200.464C257.459 201.04 256.823 201.492 256.095 201.82C255.375 202.148 254.599 202.312 253.767 202.312ZM253.767 200.632C254.583 200.632 255.315 200.42 255.963 199.996C256.619 199.564 257.135 198.996 257.511 198.292C257.895 197.588 258.087 196.824 258.087 196C258.087 195.16 257.895 194.388 257.511 193.684C257.127 192.972 256.607 192.404 255.951 191.98C255.303 191.556 254.575 191.344 253.767 191.344C252.951 191.344 252.215 191.56 251.559 191.992C250.911 192.416 250.395 192.98 250.011 193.684C249.635 194.388 249.447 195.16 249.447 196C249.447 196.864 249.643 197.648 250.035 198.352C250.427 199.048 250.951 199.604 251.607 200.02C252.263 200.428 252.983 200.632 253.767 200.632ZM269.41 190H271.186L264.622 208H262.834L265.018 202L260.71 190H262.546L265.858 199.684L269.41 190ZM273.378 202V190H275.058V191.656C275.49 191.048 276.042 190.564 276.714 190.204C277.386 189.844 278.122 189.664 278.922 189.664C279.826 189.664 280.654 189.888 281.406 190.336C282.158 190.776 282.746 191.364 283.17 192.1C283.594 191.364 284.178 190.776 284.922 190.336C285.666 189.888 286.49 189.664 287.394 189.664C288.298 189.664 289.122 189.884 289.866 190.324C290.61 190.764 291.202 191.356 291.642 192.1C292.082 192.844 292.302 193.668 292.302 194.572V202H290.622V194.944C290.622 194.304 290.466 193.712 290.154 193.168C289.842 192.624 289.422 192.188 288.894 191.86C288.374 191.524 287.794 191.356 287.154 191.356C286.514 191.356 285.93 191.512 285.402 191.824C284.882 192.128 284.466 192.552 284.154 193.096C283.842 193.632 283.686 194.248 283.686 194.944V202H282.006V194.944C282.006 194.248 281.85 193.632 281.538 193.096C281.226 192.552 280.806 192.128 280.278 191.824C279.75 191.512 279.166 191.356 278.526 191.356C277.894 191.356 277.314 191.524 276.786 191.86C276.258 192.188 275.838 192.624 275.526 193.168C275.214 193.712 275.058 194.304 275.058 194.944V202H273.378ZM305.17 194.572V202H303.49V194.908C303.49 194.252 303.33 193.656 303.01 193.12C302.69 192.584 302.262 192.156 301.726 191.836C301.19 191.516 300.594 191.356 299.938 191.356C299.29 191.356 298.694 191.516 298.15 191.836C297.614 192.156 297.186 192.584 296.866 193.12C296.546 193.656 296.386 194.252 296.386 194.908V202H294.706V190H296.386V191.656C296.81 191.048 297.362 190.564 298.042 190.204C298.722 189.844 299.462 189.664 300.262 189.664C301.166 189.664 301.99 189.884 302.734 190.324C303.478 190.764 304.07 191.356 304.51 192.1C304.95 192.844 305.17 193.668 305.17 194.572ZM312.618 202.312C311.514 202.312 310.506 202.028 309.594 201.46C308.69 200.892 307.966 200.132 307.422 199.18C306.886 198.22 306.618 197.16 306.618 196C306.618 195.12 306.774 194.3 307.086 193.54C307.398 192.772 307.826 192.1 308.37 191.524C308.922 190.94 309.562 190.484 310.29 190.156C311.018 189.828 311.794 189.664 312.618 189.664C313.506 189.664 314.322 189.84 315.066 190.192C315.818 190.544 316.462 191.036 316.998 191.668C317.542 192.3 317.95 193.04 318.222 193.888C318.502 194.736 318.618 195.652 318.57 196.636H308.394C308.49 197.396 308.73 198.076 309.114 198.676C309.506 199.276 310.002 199.752 310.602 200.104C311.21 200.448 311.882 200.624 312.618 200.632C313.418 200.632 314.138 200.424 314.778 200.008C315.426 199.592 315.946 199.02 316.338 198.292L318.042 198.688C317.562 199.752 316.838 200.624 315.87 201.304C314.902 201.976 313.818 202.312 312.618 202.312ZM308.346 195.28H316.878C316.822 194.536 316.594 193.856 316.194 193.24C315.802 192.616 315.294 192.12 314.67 191.752C314.046 191.376 313.362 191.188 312.618 191.188C311.874 191.188 311.194 191.372 310.578 191.74C309.962 192.1 309.458 192.592 309.066 193.216C308.674 193.832 308.434 194.52 308.346 195.28ZM331.092 194.572V202H329.412V194.908C329.412 194.252 329.252 193.656 328.932 193.12C328.612 192.584 328.184 192.156 327.648 191.836C327.112 191.516 326.516 191.356 325.86 191.356C325.212 191.356 324.616 191.516 324.072 191.836C323.536 192.156 323.108 192.584 322.788 193.12C322.468 193.656 322.308 194.252 322.308 194.908V202H320.628V190H322.308V191.656C322.732 191.048 323.284 190.564 323.964 190.204C324.644 189.844 325.384 189.664 326.184 189.664C327.088 189.664 327.912 189.884 328.656 190.324C329.4 190.764 329.992 191.356 330.432 192.1C330.872 192.844 331.092 193.668 331.092 194.572ZM339.627 191.68H336.759L336.747 202H335.067L335.079 191.68H332.907V190H335.079L335.067 186.232H336.747L336.759 190H339.627V191.68Z" fill="white"/>
</svg>
