<svg width="600" height="296" viewBox="0 0 600 296" fill="none" xmlns="http://www.w3.org/2000/svg">
<rect x="26" y="32" width="548" height="232" rx="16" fill="#181924"/>
<path d="M79.7141 80.8576C92.9686 80.8576 103.714 76.4925 103.714 71.1077C103.714 65.723 92.9686 61.3578 79.7141 61.3578C66.4595 61.3578 55.7146 65.723 55.7146 71.1077C55.7146 76.4925 66.4595 80.8576 79.7141 80.8576Z" stroke="#E862FE" stroke-width="2.3"/>
<path d="M55.7152 90.6078C55.7152 90.6078 55.7152 98.223 55.7152 103.608C55.7152 108.993 66.4602 113.358 79.7143 113.358C92.9687 113.358 103.715 108.993 103.715 103.608C103.715 100.92 103.715 90.6078 103.715 90.6078" stroke="#E862FE" stroke-width="2.3" stroke-linecap="square"/>
<path d="M55.7152 71.1078C55.7152 71.1078 55.7152 81.973 55.7152 87.3576C55.7152 92.7424 66.4602 97.1077 79.7143 97.1077C92.9687 97.1077 103.715 92.7424 103.715 87.3576C103.715 84.6699 103.715 71.1078 103.715 71.1078" stroke="#E862FE" stroke-width="2.3"/>
<path d="M139.228 86.312C138.076 86.312 136.996 86.088 135.988 85.64C134.988 85.184 134.112 84.556 133.36 83.756C132.608 82.948 132.02 82.02 131.596 80.972C131.172 79.916 130.96 78.788 130.96 77.588C130.96 76.364 131.18 75.224 131.62 74.168C132.06 73.112 132.664 72.192 133.432 71.408C134.2 70.616 135.08 70 136.072 69.56C137.072 69.12 138.132 68.9 139.252 68.9C140.54 68.9 141.756 69.2 142.9 69.8C144.052 70.4 145.028 71.252 145.828 72.356L144.328 73.172C143.688 72.332 142.916 71.688 142.012 71.24C141.116 70.792 140.192 70.568 139.24 70.568C138.336 70.568 137.484 70.752 136.684 71.12C135.892 71.48 135.192 71.984 134.584 72.632C133.976 73.28 133.5 74.028 133.156 74.876C132.812 75.724 132.64 76.636 132.64 77.612C132.64 78.58 132.812 79.488 133.156 80.336C133.5 81.184 133.972 81.932 134.572 82.58C135.18 83.22 135.884 83.724 136.684 84.092C137.484 84.452 138.34 84.632 139.252 84.632C140.004 84.632 140.716 84.504 141.388 84.248C142.068 83.984 142.688 83.616 143.248 83.144C143.808 82.672 144.28 82.12 144.664 81.488C145.056 80.856 145.34 80.168 145.516 79.424H140.98V77.9H147.472C147.448 79.06 147.216 80.148 146.776 81.164C146.336 82.18 145.736 83.076 144.976 83.852C144.224 84.62 143.356 85.224 142.372 85.664C141.396 86.096 140.348 86.312 139.228 86.312ZM154.978 86.312C153.874 86.312 152.866 86.028 151.954 85.46C151.05 84.892 150.326 84.132 149.782 83.18C149.246 82.22 148.978 81.16 148.978 80C148.978 79.12 149.134 78.3 149.446 77.54C149.758 76.772 150.186 76.1 150.73 75.524C151.282 74.94 151.922 74.484 152.65 74.156C153.378 73.828 154.154 73.664 154.978 73.664C155.866 73.664 156.682 73.84 157.426 74.192C158.178 74.544 158.822 75.036 159.358 75.668C159.902 76.3 160.31 77.04 160.582 77.888C160.862 78.736 160.978 79.652 160.93 80.636H150.754C150.85 81.396 151.09 82.076 151.474 82.676C151.866 83.276 152.362 83.752 152.962 84.104C153.57 84.448 154.242 84.624 154.978 84.632C155.778 84.632 156.498 84.424 157.138 84.008C157.786 83.592 158.306 83.02 158.698 82.292L160.402 82.688C159.922 83.752 159.198 84.624 158.23 85.304C157.262 85.976 156.178 86.312 154.978 86.312ZM150.706 79.28H159.238C159.182 78.536 158.954 77.856 158.554 77.24C158.162 76.616 157.654 76.12 157.03 75.752C156.406 75.376 155.722 75.188 154.978 75.188C154.234 75.188 153.554 75.372 152.938 75.74C152.322 76.1 151.818 76.592 151.426 77.216C151.034 77.832 150.794 78.52 150.706 79.28ZM173.451 78.572V86H171.771V78.908C171.771 78.252 171.611 77.656 171.291 77.12C170.971 76.584 170.543 76.156 170.007 75.836C169.471 75.516 168.875 75.356 168.219 75.356C167.571 75.356 166.975 75.516 166.431 75.836C165.895 76.156 165.467 76.584 165.147 77.12C164.827 77.656 164.667 78.252 164.667 78.908V86H162.987V74H164.667V75.656C165.091 75.048 165.643 74.564 166.323 74.204C167.003 73.844 167.743 73.664 168.543 73.664C169.447 73.664 170.271 73.884 171.015 74.324C171.759 74.764 172.351 75.356 172.791 76.1C173.231 76.844 173.451 77.668 173.451 78.572ZM180.9 86.312C179.796 86.312 178.788 86.028 177.876 85.46C176.972 84.892 176.248 84.132 175.704 83.18C175.168 82.22 174.9 81.16 174.9 80C174.9 79.12 175.056 78.3 175.368 77.54C175.68 76.772 176.108 76.1 176.652 75.524C177.204 74.94 177.844 74.484 178.572 74.156C179.3 73.828 180.076 73.664 180.9 73.664C181.788 73.664 182.604 73.84 183.348 74.192C184.1 74.544 184.744 75.036 185.28 75.668C185.824 76.3 186.232 77.04 186.504 77.888C186.784 78.736 186.9 79.652 186.852 80.636H176.676C176.772 81.396 177.012 82.076 177.396 82.676C177.788 83.276 178.284 83.752 178.884 84.104C179.492 84.448 180.164 84.624 180.9 84.632C181.7 84.632 182.42 84.424 183.06 84.008C183.708 83.592 184.228 83.02 184.62 82.292L186.324 82.688C185.844 83.752 185.12 84.624 184.152 85.304C183.184 85.976 182.1 86.312 180.9 86.312ZM176.628 79.28H185.16C185.104 78.536 184.876 77.856 184.476 77.24C184.084 76.616 183.576 76.12 182.952 75.752C182.328 75.376 181.644 75.188 180.9 75.188C180.156 75.188 179.476 75.372 178.86 75.74C178.244 76.1 177.74 76.592 177.348 77.216C176.956 77.832 176.716 78.52 176.628 79.28ZM188.909 86V74H190.589V75.656C191.013 75.048 191.565 74.564 192.245 74.204C192.925 73.844 193.665 73.664 194.465 73.664C194.929 73.664 195.377 73.724 195.809 73.844L195.125 75.512C194.789 75.408 194.461 75.356 194.141 75.356C193.493 75.356 192.897 75.516 192.353 75.836C191.817 76.156 191.389 76.584 191.069 77.12C190.749 77.656 190.589 78.252 190.589 78.908V86H188.909ZM206.554 74H208.234V86H206.554L206.494 83.768C206.102 84.528 205.554 85.144 204.85 85.616C204.146 86.08 203.306 86.312 202.33 86.312C201.45 86.312 200.626 86.148 199.858 85.82C199.09 85.484 198.414 85.024 197.83 84.44C197.246 83.856 196.79 83.18 196.462 82.412C196.134 81.644 195.97 80.82 195.97 79.94C195.97 79.076 196.13 78.264 196.45 77.504C196.778 76.744 197.226 76.076 197.794 75.5C198.37 74.924 199.034 74.476 199.786 74.156C200.546 73.828 201.358 73.664 202.222 73.664C203.222 73.664 204.094 73.904 204.838 74.384C205.582 74.856 206.174 75.476 206.614 76.244L206.554 74ZM202.294 84.68C203.15 84.68 203.886 84.472 204.502 84.056C205.118 83.632 205.59 83.064 205.918 82.352C206.254 81.64 206.422 80.856 206.422 80C206.422 79.12 206.254 78.328 205.918 77.624C205.582 76.912 205.106 76.348 204.49 75.932C203.874 75.516 203.142 75.308 202.294 75.308C201.446 75.308 200.67 75.52 199.966 75.944C199.27 76.36 198.714 76.924 198.298 77.636C197.89 78.348 197.686 79.136 197.686 80C197.686 80.872 197.898 81.664 198.322 82.376C198.746 83.08 199.306 83.64 200.002 84.056C200.706 84.472 201.47 84.68 202.294 84.68ZM216.767 75.68H213.899L213.887 86H212.207L212.219 75.68H210.047V74H212.219L212.207 70.232H213.887L213.899 74H216.767V75.68ZM223.861 86.312C222.757 86.312 221.749 86.028 220.837 85.46C219.933 84.892 219.209 84.132 218.665 83.18C218.129 82.22 217.861 81.16 217.861 80C217.861 79.12 218.017 78.3 218.329 77.54C218.641 76.772 219.069 76.1 219.613 75.524C220.165 74.94 220.805 74.484 221.533 74.156C222.261 73.828 223.037 73.664 223.861 73.664C224.749 73.664 225.565 73.84 226.309 74.192C227.061 74.544 227.705 75.036 228.241 75.668C228.785 76.3 229.193 77.04 229.465 77.888C229.745 78.736 229.861 79.652 229.813 80.636H219.637C219.733 81.396 219.973 82.076 220.357 82.676C220.749 83.276 221.245 83.752 221.845 84.104C222.453 84.448 223.125 84.624 223.861 84.632C224.661 84.632 225.381 84.424 226.021 84.008C226.669 83.592 227.189 83.02 227.581 82.292L229.285 82.688C228.805 83.752 228.081 84.624 227.113 85.304C226.145 85.976 225.061 86.312 223.861 86.312ZM219.589 79.28H228.121C228.065 78.536 227.837 77.856 227.437 77.24C227.045 76.616 226.537 76.12 225.913 75.752C225.289 75.376 224.605 75.188 223.861 75.188C223.117 75.188 222.437 75.372 221.821 75.74C221.205 76.1 220.701 76.592 220.309 77.216C219.917 77.832 219.677 78.52 219.589 79.28ZM250.461 69.2V70.88H244.701V86H243.021V70.88H237.273V69.2H250.461ZM256.275 86.312C255.171 86.312 254.163 86.028 253.251 85.46C252.347 84.892 251.623 84.132 251.079 83.18C250.543 82.22 250.275 81.16 250.275 80C250.275 79.12 250.431 78.3 250.743 77.54C251.055 76.772 251.483 76.1 252.027 75.524C252.579 74.94 253.219 74.484 253.947 74.156C254.675 73.828 255.451 73.664 256.275 73.664C257.163 73.664 257.979 73.84 258.723 74.192C259.475 74.544 260.119 75.036 260.655 75.668C261.199 76.3 261.607 77.04 261.879 77.888C262.159 78.736 262.275 79.652 262.227 80.636H252.051C252.147 81.396 252.387 82.076 252.771 82.676C253.163 83.276 253.659 83.752 254.259 84.104C254.867 84.448 255.539 84.624 256.275 84.632C257.075 84.632 257.795 84.424 258.435 84.008C259.083 83.592 259.603 83.02 259.995 82.292L261.699 82.688C261.219 83.752 260.495 84.624 259.527 85.304C258.559 85.976 257.475 86.312 256.275 86.312ZM252.003 79.28H260.535C260.479 78.536 260.251 77.856 259.851 77.24C259.459 76.616 258.951 76.12 258.327 75.752C257.703 75.376 257.019 75.188 256.275 75.188C255.531 75.188 254.851 75.372 254.235 75.74C253.619 76.1 253.115 76.592 252.723 77.216C252.331 77.832 252.091 78.52 252.003 79.28ZM268.015 86.228C267.359 86.212 266.719 86.092 266.095 85.868C265.471 85.644 264.927 85.34 264.463 84.956C263.999 84.572 263.667 84.136 263.467 83.648L264.919 83.024C265.047 83.336 265.283 83.624 265.627 83.888C265.979 84.144 266.379 84.352 266.827 84.512C267.275 84.664 267.719 84.74 268.159 84.74C268.647 84.74 269.103 84.66 269.527 84.5C269.951 84.34 270.295 84.112 270.559 83.816C270.831 83.512 270.967 83.156 270.967 82.748C270.967 82.308 270.823 81.964 270.535 81.716C270.247 81.46 269.883 81.26 269.443 81.116C269.003 80.964 268.551 80.82 268.087 80.684C267.239 80.452 266.491 80.196 265.843 79.916C265.195 79.636 264.687 79.28 264.319 78.848C263.959 78.408 263.779 77.844 263.779 77.156C263.779 76.428 263.983 75.8 264.391 75.272C264.807 74.736 265.347 74.324 266.011 74.036C266.683 73.74 267.399 73.592 268.159 73.592C269.135 73.592 270.023 73.804 270.823 74.228C271.631 74.652 272.215 75.216 272.575 75.92L271.219 76.724C271.075 76.396 270.847 76.112 270.535 75.872C270.223 75.632 269.867 75.444 269.467 75.308C269.075 75.172 268.675 75.1 268.267 75.092C267.755 75.084 267.279 75.16 266.839 75.32C266.399 75.472 266.043 75.7 265.771 76.004C265.507 76.308 265.375 76.68 265.375 77.12C265.375 77.56 265.507 77.896 265.771 78.128C266.035 78.352 266.391 78.536 266.839 78.68C267.295 78.816 267.807 78.976 268.375 79.16C269.103 79.392 269.787 79.656 270.427 79.952C271.067 80.248 271.583 80.616 271.975 81.056C272.367 81.496 272.559 82.052 272.551 82.724C272.551 83.444 272.335 84.072 271.903 84.608C271.471 85.144 270.911 85.556 270.223 85.844C269.535 86.124 268.799 86.252 268.015 86.228ZM280.752 75.68H277.884L277.872 86H276.192L276.204 75.68H274.032V74H276.204L276.192 70.232H277.872L277.884 74H280.752V75.68ZM296.435 86.312C295.299 86.312 294.231 86.088 293.231 85.64C292.231 85.184 291.351 84.56 290.591 83.768C289.839 82.968 289.247 82.04 288.815 80.984C288.391 79.928 288.179 78.8 288.179 77.6C288.179 76.4 288.391 75.272 288.815 74.216C289.247 73.16 289.839 72.236 290.591 71.444C291.351 70.644 292.231 70.02 293.231 69.572C294.231 69.116 295.299 68.888 296.435 68.888C297.795 68.888 299.047 69.204 300.191 69.836C301.335 70.468 302.283 71.308 303.035 72.356L301.547 73.16C300.955 72.368 300.203 71.74 299.291 71.276C298.387 70.804 297.435 70.568 296.435 70.568C295.515 70.568 294.655 70.756 293.855 71.132C293.063 71.5 292.367 72.008 291.767 72.656C291.167 73.304 290.699 74.052 290.363 74.9C290.027 75.748 289.859 76.648 289.859 77.6C289.859 78.568 290.027 79.476 290.363 80.324C290.707 81.172 291.179 81.92 291.779 82.568C292.387 83.216 293.087 83.724 293.879 84.092C294.679 84.452 295.531 84.632 296.435 84.632C297.475 84.632 298.439 84.396 299.327 83.924C300.223 83.444 300.963 82.82 301.547 82.052L303.035 82.856C302.283 83.904 301.335 84.744 300.191 85.376C299.047 86 297.795 86.312 296.435 86.312ZM314.695 74H316.375V86H314.695L314.635 83.768C314.243 84.528 313.695 85.144 312.991 85.616C312.287 86.08 311.447 86.312 310.471 86.312C309.591 86.312 308.767 86.148 307.999 85.82C307.231 85.484 306.555 85.024 305.971 84.44C305.387 83.856 304.931 83.18 304.603 82.412C304.275 81.644 304.111 80.82 304.111 79.94C304.111 79.076 304.271 78.264 304.591 77.504C304.919 76.744 305.367 76.076 305.935 75.5C306.511 74.924 307.175 74.476 307.927 74.156C308.687 73.828 309.499 73.664 310.363 73.664C311.363 73.664 312.235 73.904 312.979 74.384C313.723 74.856 314.315 75.476 314.755 76.244L314.695 74ZM310.435 84.68C311.291 84.68 312.027 84.472 312.643 84.056C313.259 83.632 313.731 83.064 314.059 82.352C314.395 81.64 314.563 80.856 314.563 80C314.563 79.12 314.395 78.328 314.059 77.624C313.723 76.912 313.247 76.348 312.631 75.932C312.015 75.516 311.283 75.308 310.435 75.308C309.587 75.308 308.811 75.52 308.107 75.944C307.411 76.36 306.855 76.924 306.439 77.636C306.031 78.348 305.827 79.136 305.827 80C305.827 80.872 306.039 81.664 306.463 82.376C306.887 83.08 307.447 83.64 308.143 84.056C308.847 84.472 309.611 84.68 310.435 84.68ZM322.484 86.228C321.828 86.212 321.188 86.092 320.564 85.868C319.94 85.644 319.396 85.34 318.932 84.956C318.468 84.572 318.136 84.136 317.936 83.648L319.388 83.024C319.516 83.336 319.752 83.624 320.096 83.888C320.448 84.144 320.848 84.352 321.296 84.512C321.744 84.664 322.188 84.74 322.628 84.74C323.116 84.74 323.572 84.66 323.996 84.5C324.42 84.34 324.764 84.112 325.028 83.816C325.3 83.512 325.436 83.156 325.436 82.748C325.436 82.308 325.292 81.964 325.004 81.716C324.716 81.46 324.352 81.26 323.912 81.116C323.472 80.964 323.02 80.82 322.556 80.684C321.708 80.452 320.96 80.196 320.312 79.916C319.664 79.636 319.156 79.28 318.788 78.848C318.428 78.408 318.248 77.844 318.248 77.156C318.248 76.428 318.452 75.8 318.86 75.272C319.276 74.736 319.816 74.324 320.48 74.036C321.152 73.74 321.868 73.592 322.628 73.592C323.604 73.592 324.492 73.804 325.292 74.228C326.1 74.652 326.684 75.216 327.044 75.92L325.688 76.724C325.544 76.396 325.316 76.112 325.004 75.872C324.692 75.632 324.336 75.444 323.936 75.308C323.544 75.172 323.144 75.1 322.736 75.092C322.224 75.084 321.748 75.16 321.308 75.32C320.868 75.472 320.512 75.7 320.24 76.004C319.976 76.308 319.844 76.68 319.844 77.12C319.844 77.56 319.976 77.896 320.24 78.128C320.504 78.352 320.86 78.536 321.308 78.68C321.764 78.816 322.276 78.976 322.844 79.16C323.572 79.392 324.256 79.656 324.896 79.952C325.536 80.248 326.052 80.616 326.444 81.056C326.836 81.496 327.028 82.052 327.02 82.724C327.02 83.444 326.804 84.072 326.372 84.608C325.94 85.144 325.38 85.556 324.692 85.844C324.004 86.124 323.268 86.252 322.484 86.228ZM334.275 86.312C333.171 86.312 332.163 86.028 331.251 85.46C330.347 84.892 329.623 84.132 329.079 83.18C328.543 82.22 328.275 81.16 328.275 80C328.275 79.12 328.431 78.3 328.743 77.54C329.055 76.772 329.483 76.1 330.027 75.524C330.579 74.94 331.219 74.484 331.947 74.156C332.675 73.828 333.451 73.664 334.275 73.664C335.163 73.664 335.979 73.84 336.723 74.192C337.475 74.544 338.119 75.036 338.655 75.668C339.199 76.3 339.607 77.04 339.879 77.888C340.159 78.736 340.275 79.652 340.227 80.636H330.051C330.147 81.396 330.387 82.076 330.771 82.676C331.163 83.276 331.659 83.752 332.259 84.104C332.867 84.448 333.539 84.624 334.275 84.632C335.075 84.632 335.795 84.424 336.435 84.008C337.083 83.592 337.603 83.02 337.995 82.292L339.699 82.688C339.219 83.752 338.495 84.624 337.527 85.304C336.559 85.976 335.475 86.312 334.275 86.312ZM330.003 79.28H338.535C338.479 78.536 338.251 77.856 337.851 77.24C337.459 76.616 336.951 76.12 336.327 75.752C335.703 75.376 335.019 75.188 334.275 75.188C333.531 75.188 332.851 75.372 332.235 75.74C331.619 76.1 331.115 76.592 330.723 77.216C330.331 77.832 330.091 78.52 330.003 79.28ZM346.015 86.228C345.359 86.212 344.719 86.092 344.095 85.868C343.471 85.644 342.927 85.34 342.463 84.956C341.999 84.572 341.667 84.136 341.467 83.648L342.919 83.024C343.047 83.336 343.283 83.624 343.627 83.888C343.979 84.144 344.379 84.352 344.827 84.512C345.275 84.664 345.719 84.74 346.159 84.74C346.647 84.74 347.103 84.66 347.527 84.5C347.951 84.34 348.295 84.112 348.559 83.816C348.831 83.512 348.967 83.156 348.967 82.748C348.967 82.308 348.823 81.964 348.535 81.716C348.247 81.46 347.883 81.26 347.443 81.116C347.003 80.964 346.551 80.82 346.087 80.684C345.239 80.452 344.491 80.196 343.843 79.916C343.195 79.636 342.687 79.28 342.319 78.848C341.959 78.408 341.779 77.844 341.779 77.156C341.779 76.428 341.983 75.8 342.391 75.272C342.807 74.736 343.347 74.324 344.011 74.036C344.683 73.74 345.399 73.592 346.159 73.592C347.135 73.592 348.023 73.804 348.823 74.228C349.631 74.652 350.215 75.216 350.575 75.92L349.219 76.724C349.075 76.396 348.847 76.112 348.535 75.872C348.223 75.632 347.867 75.444 347.467 75.308C347.075 75.172 346.675 75.1 346.267 75.092C345.755 75.084 345.279 75.16 344.839 75.32C344.399 75.472 344.043 75.7 343.771 76.004C343.507 76.308 343.375 76.68 343.375 77.12C343.375 77.56 343.507 77.896 343.771 78.128C344.035 78.352 344.391 78.536 344.839 78.68C345.295 78.816 345.807 78.976 346.375 79.16C347.103 79.392 347.787 79.656 348.427 79.952C349.067 80.248 349.583 80.616 349.975 81.056C350.367 81.496 350.559 82.052 350.551 82.724C350.551 83.444 350.335 84.072 349.903 84.608C349.471 85.144 348.911 85.556 348.223 85.844C347.535 86.124 346.799 86.252 346.015 86.228Z" fill="white"/>
<line opacity="0.12" x1="58" y1="147.5" x2="530" y2="147.5" stroke="white"/>
<path d="M79.7141 196.858C92.9686 196.858 103.714 192.492 103.714 187.108C103.714 181.723 92.9686 177.358 79.7141 177.358C66.4595 177.358 55.7146 181.723 55.7146 187.108C55.7146 192.492 66.4595 196.858 79.7141 196.858Z" stroke="#7534FF" stroke-width="2.3"/>
<path d="M55.7152 206.608C55.7152 206.608 55.7152 214.223 55.7152 219.608C55.7152 224.993 66.4602 229.358 79.7143 229.358C92.9687 229.358 103.715 224.993 103.715 219.608C103.715 216.92 103.715 206.608 103.715 206.608" stroke="#7534FF" stroke-width="2.3" stroke-linecap="square"/>
<path d="M55.7152 187.108C55.7152 187.108 55.7152 197.973 55.7152 203.358C55.7152 208.742 66.4602 213.108 79.7143 213.108C92.9687 213.108 103.715 208.742 103.715 203.358C103.715 200.67 103.715 187.108 103.715 187.108" stroke="#7534FF" stroke-width="2.3"/>
<path d="M139.216 202.312C138.08 202.312 137.012 202.088 136.012 201.64C135.012 201.184 134.132 200.56 133.372 199.768C132.62 198.968 132.028 198.04 131.596 196.984C131.172 195.928 130.96 194.8 130.96 193.6C130.96 192.4 131.172 191.272 131.596 190.216C132.028 189.16 132.62 188.236 133.372 187.444C134.132 186.644 135.012 186.02 136.012 185.572C137.012 185.116 138.08 184.888 139.216 184.888C140.576 184.888 141.828 185.204 142.972 185.836C144.116 186.468 145.064 187.308 145.816 188.356L144.328 189.16C143.736 188.368 142.984 187.74 142.072 187.276C141.168 186.804 140.216 186.568 139.216 186.568C138.296 186.568 137.436 186.756 136.636 187.132C135.844 187.5 135.148 188.008 134.548 188.656C133.948 189.304 133.48 190.052 133.144 190.9C132.808 191.748 132.64 192.648 132.64 193.6C132.64 194.568 132.808 195.476 133.144 196.324C133.488 197.172 133.96 197.92 134.56 198.568C135.168 199.216 135.868 199.724 136.66 200.092C137.46 200.452 138.312 200.632 139.216 200.632C140.256 200.632 141.22 200.396 142.108 199.924C143.004 199.444 143.744 198.82 144.328 198.052L145.816 198.856C145.064 199.904 144.116 200.744 142.972 201.376C141.828 202 140.576 202.312 139.216 202.312ZM152.892 202.312C151.788 202.312 150.78 202.028 149.868 201.46C148.964 200.892 148.24 200.132 147.696 199.18C147.16 198.22 146.892 197.16 146.892 196C146.892 195.12 147.048 194.3 147.36 193.54C147.672 192.772 148.1 192.1 148.644 191.524C149.196 190.94 149.836 190.484 150.564 190.156C151.292 189.828 152.068 189.664 152.892 189.664C153.996 189.664 155 189.948 155.904 190.516C156.816 191.084 157.54 191.848 158.076 192.808C158.62 193.768 158.892 194.832 158.892 196C158.892 196.872 158.736 197.688 158.424 198.448C158.112 199.208 157.68 199.88 157.128 200.464C156.584 201.04 155.948 201.492 155.22 201.82C154.5 202.148 153.724 202.312 152.892 202.312ZM152.892 200.632C153.708 200.632 154.44 200.42 155.088 199.996C155.744 199.564 156.26 198.996 156.636 198.292C157.02 197.588 157.212 196.824 157.212 196C157.212 195.16 157.02 194.388 156.636 193.684C156.252 192.972 155.732 192.404 155.076 191.98C154.428 191.556 153.7 191.344 152.892 191.344C152.076 191.344 151.34 191.56 150.684 191.992C150.036 192.416 149.52 192.98 149.136 193.684C148.76 194.388 148.572 195.16 148.572 196C148.572 196.864 148.768 197.648 149.16 198.352C149.552 199.048 150.076 199.604 150.732 200.02C151.388 200.428 152.108 200.632 152.892 200.632ZM170.683 184H172.363V202H170.683V199.756C170.267 200.524 169.695 201.144 168.967 201.616C168.247 202.08 167.391 202.312 166.399 202.312C165.527 202.312 164.711 202.148 163.951 201.82C163.191 201.492 162.519 201.04 161.935 200.464C161.359 199.88 160.907 199.208 160.579 198.448C160.251 197.688 160.087 196.872 160.087 196C160.087 195.128 160.251 194.312 160.579 193.552C160.907 192.784 161.359 192.112 161.935 191.536C162.519 190.952 163.191 190.496 163.951 190.168C164.711 189.84 165.527 189.676 166.399 189.676C167.391 189.676 168.247 189.912 168.967 190.384C169.695 190.848 170.267 191.46 170.683 192.22V184ZM166.411 200.68C167.267 200.68 168.003 200.472 168.619 200.056C169.235 199.632 169.707 199.064 170.035 198.352C170.371 197.64 170.539 196.856 170.539 196C170.539 195.12 170.371 194.328 170.035 193.624C169.699 192.912 169.223 192.348 168.607 191.932C167.991 191.516 167.259 191.308 166.411 191.308C165.563 191.308 164.791 191.52 164.095 191.944C163.399 192.36 162.843 192.924 162.427 193.636C162.011 194.348 161.803 195.136 161.803 196C161.803 196.872 162.015 197.664 162.439 198.376C162.863 199.08 163.423 199.64 164.119 200.056C164.823 200.472 165.587 200.68 166.411 200.68ZM180.431 202.312C179.327 202.312 178.319 202.028 177.407 201.46C176.503 200.892 175.779 200.132 175.235 199.18C174.699 198.22 174.431 197.16 174.431 196C174.431 195.12 174.587 194.3 174.899 193.54C175.211 192.772 175.639 192.1 176.183 191.524C176.735 190.94 177.375 190.484 178.103 190.156C178.831 189.828 179.607 189.664 180.431 189.664C181.319 189.664 182.135 189.84 182.879 190.192C183.631 190.544 184.275 191.036 184.811 191.668C185.355 192.3 185.763 193.04 186.035 193.888C186.315 194.736 186.431 195.652 186.383 196.636H176.207C176.303 197.396 176.543 198.076 176.927 198.676C177.319 199.276 177.815 199.752 178.415 200.104C179.023 200.448 179.695 200.624 180.431 200.632C181.231 200.632 181.951 200.424 182.591 200.008C183.239 199.592 183.759 199.02 184.151 198.292L185.855 198.688C185.375 199.752 184.651 200.624 183.683 201.304C182.715 201.976 181.631 202.312 180.431 202.312ZM176.159 195.28H184.691C184.635 194.536 184.407 193.856 184.007 193.24C183.615 192.616 183.107 192.12 182.483 191.752C181.859 191.376 181.175 191.188 180.431 191.188C179.687 191.188 179.007 191.372 178.391 191.74C177.775 192.1 177.271 192.592 176.879 193.216C176.487 193.832 176.247 194.52 176.159 195.28ZM199.951 185.2H202.039L208.159 202H206.371L205.063 198.4H196.939L195.631 202H193.843L199.951 185.2ZM197.551 196.72H204.439L200.995 187.264L197.551 196.72ZM220.795 194.572V202H219.115V194.908C219.115 194.252 218.955 193.656 218.635 193.12C218.315 192.584 217.887 192.156 217.351 191.836C216.815 191.516 216.219 191.356 215.563 191.356C214.915 191.356 214.319 191.516 213.775 191.836C213.239 192.156 212.811 192.584 212.491 193.12C212.171 193.656 212.011 194.252 212.011 194.908V202H210.331V190H212.011V191.656C212.435 191.048 212.987 190.564 213.667 190.204C214.347 189.844 215.087 189.664 215.887 189.664C216.791 189.664 217.615 189.884 218.359 190.324C219.103 190.764 219.695 191.356 220.135 192.1C220.575 192.844 220.795 193.668 220.795 194.572ZM232.827 190H234.507V202H232.827L232.767 199.768C232.375 200.528 231.827 201.144 231.123 201.616C230.419 202.08 229.579 202.312 228.603 202.312C227.723 202.312 226.899 202.148 226.131 201.82C225.363 201.484 224.687 201.024 224.103 200.44C223.519 199.856 223.063 199.18 222.735 198.412C222.407 197.644 222.243 196.82 222.243 195.94C222.243 195.076 222.403 194.264 222.723 193.504C223.051 192.744 223.499 192.076 224.067 191.5C224.643 190.924 225.307 190.476 226.059 190.156C226.819 189.828 227.631 189.664 228.495 189.664C229.495 189.664 230.367 189.904 231.111 190.384C231.855 190.856 232.447 191.476 232.887 192.244L232.827 190ZM228.567 200.68C229.423 200.68 230.159 200.472 230.775 200.056C231.391 199.632 231.863 199.064 232.191 198.352C232.527 197.64 232.695 196.856 232.695 196C232.695 195.12 232.527 194.328 232.191 193.624C231.855 192.912 231.379 192.348 230.763 191.932C230.147 191.516 229.415 191.308 228.567 191.308C227.719 191.308 226.943 191.52 226.239 191.944C225.543 192.36 224.987 192.924 224.571 193.636C224.163 194.348 223.959 195.136 223.959 196C223.959 196.872 224.171 197.664 224.595 198.376C225.019 199.08 225.579 199.64 226.275 200.056C226.979 200.472 227.743 200.68 228.567 200.68ZM237.073 202V184H238.753V202H237.073ZM249.512 190H251.288L244.724 208H242.936L245.12 202L240.812 190H242.648L245.96 199.684L249.512 190ZM257.07 202.228C256.414 202.212 255.774 202.092 255.15 201.868C254.526 201.644 253.982 201.34 253.518 200.956C253.054 200.572 252.722 200.136 252.522 199.648L253.974 199.024C254.102 199.336 254.338 199.624 254.682 199.888C255.034 200.144 255.434 200.352 255.882 200.512C256.33 200.664 256.774 200.74 257.214 200.74C257.702 200.74 258.158 200.66 258.582 200.5C259.006 200.34 259.35 200.112 259.614 199.816C259.886 199.512 260.022 199.156 260.022 198.748C260.022 198.308 259.878 197.964 259.59 197.716C259.302 197.46 258.938 197.26 258.498 197.116C258.058 196.964 257.606 196.82 257.142 196.684C256.294 196.452 255.546 196.196 254.898 195.916C254.25 195.636 253.742 195.28 253.374 194.848C253.014 194.408 252.834 193.844 252.834 193.156C252.834 192.428 253.038 191.8 253.446 191.272C253.862 190.736 254.402 190.324 255.066 190.036C255.738 189.74 256.454 189.592 257.214 189.592C258.19 189.592 259.078 189.804 259.878 190.228C260.686 190.652 261.27 191.216 261.63 191.92L260.274 192.724C260.13 192.396 259.902 192.112 259.59 191.872C259.278 191.632 258.922 191.444 258.522 191.308C258.13 191.172 257.73 191.1 257.322 191.092C256.81 191.084 256.334 191.16 255.894 191.32C255.454 191.472 255.098 191.7 254.826 192.004C254.562 192.308 254.43 192.68 254.43 193.12C254.43 193.56 254.562 193.896 254.826 194.128C255.09 194.352 255.446 194.536 255.894 194.68C256.35 194.816 256.862 194.976 257.43 195.16C258.158 195.392 258.842 195.656 259.482 195.952C260.122 196.248 260.638 196.616 261.03 197.056C261.422 197.496 261.614 198.052 261.606 198.724C261.606 199.444 261.39 200.072 260.958 200.608C260.526 201.144 259.966 201.556 259.278 201.844C258.59 202.124 257.854 202.252 257.07 202.228ZM263.557 190H265.237V202H263.557V190ZM264.409 187.9C264.137 187.9 263.905 187.812 263.713 187.636C263.529 187.452 263.437 187.224 263.437 186.952C263.437 186.68 263.529 186.456 263.713 186.28C263.905 186.096 264.137 186.004 264.409 186.004C264.673 186.004 264.897 186.096 265.081 186.28C265.273 186.456 265.369 186.68 265.369 186.952C265.369 187.224 265.277 187.452 265.093 187.636C264.909 187.812 264.681 187.9 264.409 187.9ZM271.742 202.228C271.086 202.212 270.446 202.092 269.822 201.868C269.198 201.644 268.654 201.34 268.19 200.956C267.726 200.572 267.394 200.136 267.194 199.648L268.646 199.024C268.774 199.336 269.01 199.624 269.354 199.888C269.706 200.144 270.106 200.352 270.554 200.512C271.002 200.664 271.446 200.74 271.886 200.74C272.374 200.74 272.83 200.66 273.254 200.5C273.678 200.34 274.022 200.112 274.286 199.816C274.558 199.512 274.694 199.156 274.694 198.748C274.694 198.308 274.55 197.964 274.262 197.716C273.974 197.46 273.61 197.26 273.17 197.116C272.73 196.964 272.278 196.82 271.814 196.684C270.966 196.452 270.218 196.196 269.57 195.916C268.922 195.636 268.414 195.28 268.046 194.848C267.686 194.408 267.506 193.844 267.506 193.156C267.506 192.428 267.71 191.8 268.118 191.272C268.534 190.736 269.074 190.324 269.738 190.036C270.41 189.74 271.126 189.592 271.886 189.592C272.862 189.592 273.75 189.804 274.55 190.228C275.358 190.652 275.942 191.216 276.302 191.92L274.946 192.724C274.802 192.396 274.574 192.112 274.262 191.872C273.95 191.632 273.594 191.444 273.194 191.308C272.802 191.172 272.402 191.1 271.994 191.092C271.482 191.084 271.006 191.16 270.566 191.32C270.126 191.472 269.77 191.7 269.498 192.004C269.234 192.308 269.102 192.68 269.102 193.12C269.102 193.56 269.234 193.896 269.498 194.128C269.762 194.352 270.118 194.536 270.566 194.68C271.022 194.816 271.534 194.976 272.102 195.16C272.83 195.392 273.514 195.656 274.154 195.952C274.794 196.248 275.31 196.616 275.702 197.056C276.094 197.496 276.286 198.052 276.278 198.724C276.278 199.444 276.062 200.072 275.63 200.608C275.198 201.144 274.638 201.556 273.95 201.844C273.262 202.124 272.526 202.252 271.742 202.228Z" fill="white"/>
</svg>
