<svg width="244" height="224" viewBox="0 0 244 224" fill="none" xmlns="http://www.w3.org/2000/svg">
<g filter="url(#filter0_f_6_51)">
<path d="M24.262 162.298C-2.24768 116.381 27.8731 58.7801 78.4402 29.5852C129.007 0.390278 191.49 13.9455 218 59.8616C244.51 105.778 225.007 166.667 174.44 195.862C123.873 225.057 50.7717 208.214 24.262 162.298Z" stroke="url(#paint0_linear_6_51)" stroke-width="9"/>
<path d="M24.262 162.298C-2.24768 116.381 27.8731 58.7801 78.4402 29.5852C129.007 0.390278 191.49 13.9455 218 59.8616C244.51 105.778 225.007 166.667 174.44 195.862C123.873 225.057 50.7717 208.214 24.262 162.298Z" stroke="url(#paint1_linear_6_51)" stroke-opacity="0.2" stroke-width="9"/>
</g>
<defs>
<filter id="filter0_f_6_51" x="0.929443" y="0.701172" width="242.426" height="223.14" filterUnits="userSpaceOnUse" color-interpolation-filters="sRGB">
<feFlood flood-opacity="0" result="BackgroundImageFix"/>
<feBlend mode="normal" in="SourceGraphic" in2="BackgroundImageFix" result="shape"/>
<feGaussianBlur stdDeviation="4.5" result="effect1_foregroundBlur_6_51"/>
</filter>
<linearGradient id="paint0_linear_6_51" x1="170.08" y1="198.379" x2="74.0802" y2="32.1024" gradientUnits="userSpaceOnUse">
<stop stop-color="#A056F7"/>
<stop offset="1" stop-color="#20C1E4"/>
</linearGradient>
<linearGradient id="paint1_linear_6_51" x1="207.959" y1="66.3834" x2="14.9361" y2="90.445" gradientUnits="userSpaceOnUse">
<stop offset="0.0104167" stop-color="#0A05F8" stop-opacity="0.33"/>
<stop offset="1" stop-color="white" stop-opacity="0.15"/>
</linearGradient>
</defs>
</svg>
