<svg width="220" height="245" viewBox="0 0 220 245" fill="none" xmlns="http://www.w3.org/2000/svg">
<g filter="url(#filter0_f_6_55)">
<path d="M132.682 14.602C185.254 21.4788 212.664 80.418 205.091 138.315C197.518 196.211 148.761 237.571 96.1891 230.694C43.6176 223.817 7.13943 171.308 14.7128 113.411C22.2862 55.5149 80.1107 7.72522 132.682 14.602Z" stroke="url(#paint0_linear_6_55)" stroke-width="9"/>
<path d="M132.682 14.602C185.254 21.4788 212.664 80.418 205.091 138.315C197.518 196.211 148.761 237.571 96.1891 230.694C43.6176 223.817 7.13943 171.308 14.7128 113.411C22.2862 55.5149 80.1107 7.72522 132.682 14.602Z" stroke="url(#paint1_linear_6_55)" stroke-opacity="0.2" stroke-width="9"/>
</g>
<defs>
<filter id="filter0_f_6_55" x="0.221191" y="0.440796" width="219.612" height="244.504" filterUnits="userSpaceOnUse" color-interpolation-filters="sRGB">
<feFlood flood-opacity="0" result="BackgroundImageFix"/>
<feBlend mode="normal" in="SourceGraphic" in2="BackgroundImageFix" result="shape"/>
<feGaussianBlur stdDeviation="4.5" result="effect1_foregroundBlur_6_55"/>
</filter>
<linearGradient id="paint0_linear_6_55" x1="15.3658" y1="108.42" x2="205.744" y2="133.323" gradientUnits="userSpaceOnUse">
<stop offset="0.463542" stop-color="#7B0BFF"/>
<stop offset="1" stop-color="#01D1FF"/>
</linearGradient>
<linearGradient id="paint1_linear_6_55" x1="97.1178" y1="218.757" x2="195.394" y2="50.8923" gradientUnits="userSpaceOnUse">
<stop stop-color="#0A05F8" stop-opacity="0.33"/>
<stop offset="1" stop-color="white" stop-opacity="0.53"/>
</linearGradient>
</defs>
</svg>
