<svg width="1181" height="61" viewBox="0 0 1181 61" fill="none" xmlns="http://www.w3.org/2000/svg">
<path d="M0.625 46V3.16797H7.65625V46H0.625ZM36.366 12.9531C40.0184 12.9531 42.8602 13.9004 44.8914 15.7949C46.9422 17.6699 47.9676 20.6875 47.9676 24.8477V46H41.0828V26.1367C41.0828 23.6172 40.5652 21.7324 39.5301 20.4824C38.4949 19.2129 36.8934 18.5781 34.7254 18.5781C31.5809 18.5781 29.3934 19.5449 28.1629 21.4785C26.952 23.4121 26.3465 26.2148 26.3465 29.8867V46H19.4617V13.5684H24.823L25.7898 17.9629H26.1707C26.8738 16.8301 27.743 15.9023 28.7781 15.1797C29.8328 14.4375 31.0047 13.8809 32.2938 13.5098C33.6023 13.1387 34.9598 12.9531 36.366 12.9531ZM70.8766 41.0195C71.775 41.0195 72.6637 40.9414 73.5426 40.7852C74.4215 40.6094 75.2223 40.4043 75.9449 40.1699V45.3848C75.1832 45.7168 74.1969 46 72.9859 46.2344C71.775 46.4688 70.5152 46.5859 69.2066 46.5859C67.3707 46.5859 65.7203 46.2832 64.2555 45.6777C62.7906 45.0527 61.6285 43.9883 60.7691 42.4844C59.9098 40.9805 59.4801 38.9004 59.4801 36.2441V18.8125H55.0563V15.7363L59.8023 13.3047L62.0582 6.36133H66.3941V13.5684H75.6813V18.8125H66.3941V36.1562C66.3941 37.7969 66.8043 39.0176 67.6246 39.8184C68.4449 40.6191 69.5289 41.0195 70.8766 41.0195ZM96.6566 12.9531C99.5473 12.9531 102.028 13.5488 104.098 14.7402C106.168 15.9316 107.76 17.6211 108.873 19.8086C109.987 21.9961 110.543 24.6133 110.543 27.6602V31.3516H88.893C88.9711 34.4961 89.8109 36.918 91.4125 38.6172C93.0336 40.3164 95.2992 41.166 98.2094 41.166C100.28 41.166 102.135 40.9707 103.776 40.5801C105.436 40.1699 107.145 39.5742 108.903 38.793V44.3887C107.282 45.1504 105.631 45.707 103.952 46.0586C102.272 46.4102 100.26 46.5859 97.9164 46.5859C94.7328 46.5859 91.9301 45.9707 89.5082 44.7402C87.1059 43.4902 85.2211 41.6348 83.8539 39.1738C82.5062 36.7129 81.8324 33.6562 81.8324 30.0039C81.8324 26.3711 82.4477 23.2852 83.6781 20.7461C84.9086 18.207 86.6371 16.2734 88.8637 14.9453C91.0902 13.6172 93.6879 12.9531 96.6566 12.9531ZM96.6566 18.1387C94.4887 18.1387 92.7309 18.8418 91.3832 20.248C90.0551 21.6543 89.2738 23.7148 89.0395 26.4297H103.805C103.786 24.8086 103.512 23.373 102.985 22.123C102.477 20.873 101.696 19.8965 100.641 19.1934C99.6059 18.4902 98.2777 18.1387 96.6566 18.1387ZM128.765 60.4141C124.37 60.4141 121.001 59.623 118.657 58.041C116.314 56.459 115.142 54.2422 115.142 51.3906C115.142 49.3984 115.767 47.709 117.017 46.3223C118.267 44.9551 120.054 44.0078 122.378 43.4805C121.499 43.0898 120.738 42.4844 120.093 41.6641C119.468 40.8242 119.155 39.8965 119.155 38.8809C119.155 37.6699 119.497 36.6348 120.181 35.7754C120.864 34.916 121.89 34.0859 123.257 33.2852C121.558 32.5625 120.191 31.3906 119.155 29.7695C118.14 28.1289 117.632 26.2051 117.632 23.998C117.632 21.6543 118.13 19.6621 119.126 18.0215C120.122 16.3613 121.577 15.1016 123.491 14.2422C125.405 13.3633 127.72 12.9238 130.435 12.9238C131.021 12.9238 131.655 12.9629 132.339 13.041C133.042 13.0996 133.687 13.1777 134.273 13.2754C134.878 13.3535 135.337 13.4414 135.65 13.5391H146.87V17.377L141.363 18.4023C141.89 19.1445 142.31 19.9941 142.622 20.9512C142.935 21.8887 143.091 22.9141 143.091 24.0273C143.091 27.3867 141.929 30.0332 139.605 31.9668C137.3 33.8809 134.116 34.8379 130.054 34.8379C129.077 34.7988 128.13 34.7207 127.212 34.6035C126.509 35.0332 125.972 35.5117 125.601 36.0391C125.23 36.5469 125.044 37.123 125.044 37.7676C125.044 38.2949 125.23 38.7246 125.601 39.0566C125.972 39.3691 126.519 39.6035 127.241 39.7598C127.984 39.916 128.882 39.9941 129.937 39.9941H135.532C139.087 39.9941 141.802 40.7461 143.677 42.25C145.552 43.7539 146.489 45.9609 146.489 48.8711C146.489 52.5625 144.966 55.4043 141.919 57.3965C138.872 59.4082 134.488 60.4141 128.765 60.4141ZM129.029 55.5801C131.431 55.5801 133.452 55.3457 135.093 54.877C136.734 54.4082 137.974 53.7344 138.814 52.8555C139.654 51.9961 140.073 50.9707 140.073 49.7793C140.073 48.7246 139.81 47.9141 139.282 47.3477C138.755 46.7812 137.964 46.3906 136.909 46.1758C135.855 45.9609 134.546 45.8535 132.984 45.8535H127.886C126.616 45.8535 125.493 46.0488 124.517 46.4395C123.54 46.8496 122.779 47.4355 122.232 48.1973C121.704 48.959 121.441 49.877 121.441 50.9512C121.441 52.4355 122.095 53.5781 123.404 54.3789C124.732 55.1797 126.607 55.5801 129.029 55.5801ZM130.376 30.3262C132.388 30.3262 133.882 29.7793 134.859 28.6855C135.835 27.5723 136.323 26.0098 136.323 23.998C136.323 21.8105 135.816 20.1699 134.8 19.0762C133.804 17.9824 132.32 17.4355 130.347 17.4355C128.413 17.4355 126.939 17.9922 125.923 19.1055C124.927 20.2188 124.429 21.8691 124.429 24.0566C124.429 26.0293 124.927 27.5723 125.923 28.6855C126.939 29.7793 128.423 30.3262 130.376 30.3262ZM170.424 12.9531C170.971 12.9531 171.566 12.9824 172.211 13.041C172.855 13.0996 173.412 13.1777 173.881 13.2754L173.236 19.7207C172.826 19.6035 172.318 19.5156 171.713 19.457C171.127 19.3984 170.6 19.3691 170.131 19.3691C168.9 19.3691 167.729 19.5742 166.615 19.9844C165.502 20.375 164.516 20.9805 163.656 21.8008C162.797 22.6016 162.123 23.6074 161.635 24.8184C161.146 26.0293 160.902 27.4355 160.902 29.0371V46H153.988V13.5684H159.379L160.316 19.2812H160.639C161.283 18.1289 162.084 17.0742 163.041 16.1172C163.998 15.1602 165.092 14.3984 166.322 13.832C167.572 13.2461 168.939 12.9531 170.424 12.9531ZM193.802 12.9531C197.903 12.9531 200.999 13.8613 203.089 15.6777C205.198 17.4941 206.253 20.3262 206.253 24.1738V46H201.36L200.042 41.4004H199.807C198.889 42.5723 197.942 43.5391 196.966 44.3008C195.989 45.0625 194.856 45.6289 193.567 46C192.298 46.3906 190.745 46.5859 188.909 46.5859C186.975 46.5859 185.247 46.2344 183.723 45.5312C182.2 44.8086 180.999 43.7148 180.12 42.25C179.241 40.7852 178.802 38.9297 178.802 36.6836C178.802 33.3438 180.042 30.834 182.522 29.1543C185.022 27.4746 188.792 26.5469 193.831 26.3711L199.456 26.166V24.4668C199.456 22.2207 198.929 20.6191 197.874 19.6621C196.839 18.7051 195.374 18.2266 193.479 18.2266C191.858 18.2266 190.286 18.4609 188.762 18.9297C187.239 19.3984 185.755 19.9746 184.309 20.6582L182.083 15.7949C183.665 14.9551 185.462 14.2715 187.473 13.7441C189.505 13.2168 191.614 12.9531 193.802 12.9531ZM199.427 30.502L195.237 30.6484C191.8 30.7656 189.387 31.3516 188.001 32.4062C186.614 33.4609 185.921 34.9062 185.921 36.7422C185.921 38.3438 186.399 39.5156 187.356 40.2578C188.313 40.9805 189.573 41.3418 191.136 41.3418C193.518 41.3418 195.491 40.668 197.054 39.3203C198.636 37.9531 199.427 35.9512 199.427 33.3145V30.502ZM229.162 41.0195C230.06 41.0195 230.949 40.9414 231.828 40.7852C232.707 40.6094 233.507 40.4043 234.23 40.1699V45.3848C233.468 45.7168 232.482 46 231.271 46.2344C230.06 46.4688 228.8 46.5859 227.492 46.5859C225.656 46.5859 224.005 46.2832 222.541 45.6777C221.076 45.0527 219.914 43.9883 219.054 42.4844C218.195 40.9805 217.765 38.9004 217.765 36.2441V18.8125H213.341V15.7363L218.087 13.3047L220.343 6.36133H224.679V13.5684H233.966V18.8125H224.679V36.1562C224.679 37.7969 225.089 39.0176 225.91 39.8184C226.73 40.6191 227.814 41.0195 229.162 41.0195ZM254.942 12.9531C257.832 12.9531 260.313 13.5488 262.383 14.7402C264.454 15.9316 266.045 17.6211 267.159 19.8086C268.272 21.9961 268.829 24.6133 268.829 27.6602V31.3516H247.178C247.256 34.4961 248.096 36.918 249.698 38.6172C251.319 40.3164 253.584 41.166 256.495 41.166C258.565 41.166 260.42 40.9707 262.061 40.5801C263.721 40.1699 265.43 39.5742 267.188 38.793V44.3887C265.567 45.1504 263.916 45.707 262.237 46.0586C260.557 46.4102 258.545 46.5859 256.202 46.5859C253.018 46.5859 250.215 45.9707 247.793 44.7402C245.391 43.4902 243.506 41.6348 242.139 39.1738C240.791 36.7129 240.118 33.6562 240.118 30.0039C240.118 26.3711 240.733 23.2852 241.963 20.7461C243.194 18.207 244.922 16.2734 247.149 14.9453C249.375 13.6172 251.973 12.9531 254.942 12.9531ZM254.942 18.1387C252.774 18.1387 251.016 18.8418 249.668 20.248C248.34 21.6543 247.559 23.7148 247.325 26.4297H262.09C262.071 24.8086 261.797 23.373 261.27 22.123C260.762 20.873 259.981 19.8965 258.926 19.1934C257.891 18.4902 256.563 18.1387 254.942 18.1387ZM321.824 46L317.635 34.1055H301.258L297.068 46H289.656L305.594 2.99219H313.387L329.295 46H321.824ZM315.818 28.0703L311.746 16.3516C311.59 15.8438 311.365 15.1309 311.072 14.2129C310.779 13.2754 310.486 12.3281 310.193 11.3711C309.9 10.3945 309.656 9.57422 309.461 8.91016C309.266 9.71094 309.021 10.6094 308.729 11.6055C308.455 12.582 308.182 13.5 307.908 14.3594C307.654 15.2188 307.459 15.8828 307.322 16.3516L303.221 28.0703H315.818ZM336.149 46V3.16797H343.18V46H336.149ZM387.329 46H380.268V9.14453H367.729V3.16797H399.838V9.14453H387.329V46ZM413.782 0.414062V11.8691C413.782 13.0605 413.743 14.2227 413.665 15.3555C413.607 16.4883 413.538 17.3672 413.46 17.9922H413.841C414.525 16.8594 415.364 15.9316 416.361 15.209C417.357 14.4668 418.47 13.9102 419.7 13.5391C420.95 13.168 422.279 12.9824 423.685 12.9824C426.165 12.9824 428.275 13.4023 430.013 14.2422C431.751 15.0625 433.079 16.3418 433.997 18.0801C434.935 19.8184 435.404 22.0742 435.404 24.8477V46H428.519V26.1367C428.519 23.6172 428.001 21.7324 426.966 20.4824C425.931 19.2129 424.329 18.5781 422.161 18.5781C420.071 18.5781 418.411 19.0176 417.181 19.8965C415.97 20.7559 415.101 22.0352 414.573 23.7344C414.046 25.4141 413.782 27.4648 413.782 29.8867V46H406.898V0.414062H413.782ZM462.678 12.9531C463.225 12.9531 463.82 12.9824 464.465 13.041C465.109 13.0996 465.666 13.1777 466.135 13.2754L465.49 19.7207C465.08 19.6035 464.572 19.5156 463.967 19.457C463.381 19.3984 462.854 19.3691 462.385 19.3691C461.154 19.3691 459.982 19.5742 458.869 19.9844C457.756 20.375 456.77 20.9805 455.91 21.8008C455.051 22.6016 454.377 23.6074 453.889 24.8184C453.4 26.0293 453.156 27.4355 453.156 29.0371V46H446.242V13.5684H451.633L452.57 19.2812H452.893C453.537 18.1289 454.338 17.0742 455.295 16.1172C456.252 15.1602 457.346 14.3984 458.576 13.832C459.826 13.2461 461.193 12.9531 462.678 12.9531ZM502.052 29.7109C502.052 32.4062 501.7 34.7988 500.997 36.8887C500.294 38.9785 499.268 40.7461 497.921 42.1914C496.573 43.6172 494.952 44.7109 493.057 45.4727C491.163 46.2148 489.024 46.5859 486.641 46.5859C484.415 46.5859 482.374 46.2148 480.518 45.4727C478.663 44.7109 477.052 43.6172 475.684 42.1914C474.337 40.7461 473.292 38.9785 472.55 36.8887C471.807 34.7988 471.436 32.4062 471.436 29.7109C471.436 26.1367 472.052 23.1094 473.282 20.6289C474.532 18.1289 476.309 16.2246 478.614 14.916C480.919 13.6074 483.663 12.9531 486.846 12.9531C489.835 12.9531 492.471 13.6074 494.757 14.916C497.042 16.2246 498.829 18.1289 500.118 20.6289C501.407 23.1289 502.052 26.1562 502.052 29.7109ZM478.526 29.7109C478.526 32.0742 478.809 34.0957 479.376 35.7754C479.962 37.4551 480.86 38.7441 482.071 39.6426C483.282 40.5215 484.845 40.9609 486.759 40.9609C488.673 40.9609 490.235 40.5215 491.446 39.6426C492.657 38.7441 493.546 37.4551 494.112 35.7754C494.679 34.0957 494.962 32.0742 494.962 29.7109C494.962 27.3477 494.679 25.3457 494.112 23.7051C493.546 22.0449 492.657 20.7852 491.446 19.9258C490.235 19.0469 488.663 18.6074 486.729 18.6074C483.878 18.6074 481.798 19.5645 480.489 21.4785C479.18 23.3926 478.526 26.1367 478.526 29.7109ZM539.433 13.5684V46H534.013L533.076 41.6348H532.695C532.011 42.748 531.142 43.6758 530.087 44.418C529.033 45.1406 527.861 45.6777 526.572 46.0293C525.283 46.4004 523.925 46.5859 522.5 46.5859C520.058 46.5859 517.968 46.1758 516.23 45.3555C514.511 44.5156 513.193 43.2266 512.275 41.4883C511.357 39.75 510.898 37.5039 510.898 34.75V13.5684H517.812V33.4609C517.812 35.9805 518.32 37.8652 519.336 39.1152C520.371 40.3652 521.972 40.9902 524.14 40.9902C526.23 40.9902 527.89 40.5605 529.121 39.7012C530.351 38.8418 531.22 37.5723 531.728 35.8926C532.255 34.2129 532.519 32.1523 532.519 29.7109V13.5684H539.433ZM559.764 60.4141C555.37 60.4141 552 59.623 549.657 58.041C547.313 56.459 546.141 54.2422 546.141 51.3906C546.141 49.3984 546.766 47.709 548.016 46.3223C549.266 44.9551 551.053 44.0078 553.377 43.4805C552.498 43.0898 551.737 42.4844 551.092 41.6641C550.467 40.8242 550.155 39.8965 550.155 38.8809C550.155 37.6699 550.496 36.6348 551.18 35.7754C551.864 34.916 552.889 34.0859 554.256 33.2852C552.557 32.5625 551.19 31.3906 550.155 29.7695C549.139 28.1289 548.631 26.2051 548.631 23.998C548.631 21.6543 549.129 19.6621 550.125 18.0215C551.121 16.3613 552.577 15.1016 554.491 14.2422C556.405 13.3633 558.719 12.9238 561.434 12.9238C562.02 12.9238 562.655 12.9629 563.338 13.041C564.041 13.0996 564.686 13.1777 565.272 13.2754C565.877 13.3535 566.336 13.4414 566.649 13.5391H577.87V17.377L572.362 18.4023C572.889 19.1445 573.309 19.9941 573.621 20.9512C573.934 21.8887 574.09 22.9141 574.09 24.0273C574.09 27.3867 572.928 30.0332 570.604 31.9668C568.299 33.8809 565.116 34.8379 561.053 34.8379C560.077 34.7988 559.129 34.7207 558.211 34.6035C557.508 35.0332 556.971 35.5117 556.6 36.0391C556.229 36.5469 556.043 37.123 556.043 37.7676C556.043 38.2949 556.229 38.7246 556.6 39.0566C556.971 39.3691 557.518 39.6035 558.241 39.7598C558.983 39.916 559.881 39.9941 560.936 39.9941H566.532C570.086 39.9941 572.801 40.7461 574.676 42.25C576.551 43.7539 577.489 45.9609 577.489 48.8711C577.489 52.5625 575.965 55.4043 572.918 57.3965C569.871 59.4082 565.487 60.4141 559.764 60.4141ZM560.028 55.5801C562.43 55.5801 564.452 55.3457 566.092 54.877C567.733 54.4082 568.973 53.7344 569.813 52.8555C570.653 51.9961 571.073 50.9707 571.073 49.7793C571.073 48.7246 570.809 47.9141 570.282 47.3477C569.754 46.7812 568.963 46.3906 567.909 46.1758C566.854 45.9609 565.545 45.8535 563.983 45.8535H558.885C557.616 45.8535 556.493 46.0488 555.516 46.4395C554.539 46.8496 553.778 47.4355 553.231 48.1973C552.703 48.959 552.44 49.877 552.44 50.9512C552.44 52.4355 553.094 53.5781 554.403 54.3789C555.731 55.1797 557.606 55.5801 560.028 55.5801ZM561.375 30.3262C563.387 30.3262 564.881 29.7793 565.858 28.6855C566.834 27.5723 567.323 26.0098 567.323 23.998C567.323 21.8105 566.815 20.1699 565.799 19.0762C564.803 17.9824 563.319 17.4355 561.346 17.4355C559.412 17.4355 557.938 17.9922 556.922 19.1055C555.926 20.2188 555.428 21.8691 555.428 24.0566C555.428 26.0293 555.926 27.5723 556.922 28.6855C557.938 29.7793 559.422 30.3262 561.375 30.3262ZM591.872 0.414062V11.8691C591.872 13.0605 591.833 14.2227 591.755 15.3555C591.696 16.4883 591.628 17.3672 591.55 17.9922H591.931C592.614 16.8594 593.454 15.9316 594.45 15.209C595.446 14.4668 596.56 13.9102 597.79 13.5391C599.04 13.168 600.368 12.9824 601.775 12.9824C604.255 12.9824 606.364 13.4023 608.103 14.2422C609.841 15.0625 611.169 16.3418 612.087 18.0801C613.025 19.8184 613.493 22.0742 613.493 24.8477V46H606.609V26.1367C606.609 23.6172 606.091 21.7324 605.056 20.4824C604.021 19.2129 602.419 18.5781 600.251 18.5781C598.161 18.5781 596.501 19.0176 595.271 19.8965C594.06 20.7559 593.191 22.0352 592.663 23.7344C592.136 25.4141 591.872 27.4648 591.872 29.8867V46H584.987V0.414062H591.872ZM653.043 29.7109C653.043 32.4062 652.691 34.7988 651.988 36.8887C651.285 38.9785 650.26 40.7461 648.912 42.1914C647.564 43.6172 645.943 44.7109 644.049 45.4727C642.154 46.2148 640.016 46.5859 637.633 46.5859C635.406 46.5859 633.365 46.2148 631.51 45.4727C629.654 44.7109 628.043 43.6172 626.676 42.1914C625.328 40.7461 624.283 38.9785 623.541 36.8887C622.799 34.7988 622.428 32.4062 622.428 29.7109C622.428 26.1367 623.043 23.1094 624.273 20.6289C625.523 18.1289 627.301 16.2246 629.605 14.916C631.91 13.6074 634.654 12.9531 637.838 12.9531C640.826 12.9531 643.463 13.6074 645.748 14.916C648.033 16.2246 649.82 18.1289 651.109 20.6289C652.398 23.1289 653.043 26.1562 653.043 29.7109ZM629.518 29.7109C629.518 32.0742 629.801 34.0957 630.367 35.7754C630.953 37.4551 631.852 38.7441 633.062 39.6426C634.273 40.5215 635.836 40.9609 637.75 40.9609C639.664 40.9609 641.227 40.5215 642.438 39.6426C643.648 38.7441 644.537 37.4551 645.104 35.7754C645.67 34.0957 645.953 32.0742 645.953 29.7109C645.953 27.3477 645.67 25.3457 645.104 23.7051C644.537 22.0449 643.648 20.7852 642.438 19.9258C641.227 19.0469 639.654 18.6074 637.721 18.6074C634.869 18.6074 632.789 19.5645 631.48 21.4785C630.172 23.3926 629.518 26.1367 629.518 29.7109ZM690.425 13.5684V46H685.005L684.067 41.6348H683.686C683.003 42.748 682.134 43.6758 681.079 44.418C680.024 45.1406 678.852 45.6777 677.563 46.0293C676.274 46.4004 674.917 46.5859 673.491 46.5859C671.05 46.5859 668.96 46.1758 667.221 45.3555C665.503 44.5156 664.184 43.2266 663.266 41.4883C662.348 39.75 661.889 37.5039 661.889 34.75V13.5684H668.804V33.4609C668.804 35.9805 669.311 37.8652 670.327 39.1152C671.362 40.3652 672.964 40.9902 675.132 40.9902C677.221 40.9902 678.882 40.5605 680.112 39.7012C681.343 38.8418 682.212 37.5723 682.72 35.8926C683.247 34.2129 683.511 32.1523 683.511 29.7109V13.5684H690.425ZM713.568 41.0195C714.466 41.0195 715.355 40.9414 716.234 40.7852C717.113 40.6094 717.914 40.4043 718.636 40.1699V45.3848C717.875 45.7168 716.888 46 715.677 46.2344C714.466 46.4688 713.207 46.5859 711.898 46.5859C710.062 46.5859 708.412 46.2832 706.947 45.6777C705.482 45.0527 704.32 43.9883 703.461 42.4844C702.601 40.9805 702.172 38.9004 702.172 36.2441V18.8125H697.748V15.7363L702.494 13.3047L704.75 6.36133H709.086V13.5684H718.373V18.8125H709.086V36.1562C709.086 37.7969 709.496 39.0176 710.316 39.8184C711.136 40.6191 712.22 41.0195 713.568 41.0195ZM756.046 22.709L766.212 3.16797H773.8L759.562 29.3594V46H752.56V29.623L738.292 3.16797H745.939L756.046 22.709ZM808.633 29.7109C808.633 32.4062 808.281 34.7988 807.578 36.8887C806.875 38.9785 805.85 40.7461 804.502 42.1914C803.154 43.6172 801.533 44.7109 799.639 45.4727C797.744 46.2148 795.605 46.5859 793.223 46.5859C790.996 46.5859 788.955 46.2148 787.1 45.4727C785.244 44.7109 783.633 43.6172 782.266 42.1914C780.918 40.7461 779.873 38.9785 779.131 36.8887C778.389 34.7988 778.018 32.4062 778.018 29.7109C778.018 26.1367 778.633 23.1094 779.863 20.6289C781.113 18.1289 782.891 16.2246 785.195 14.916C787.5 13.6074 790.244 12.9531 793.428 12.9531C796.416 12.9531 799.053 13.6074 801.338 14.916C803.623 16.2246 805.41 18.1289 806.699 20.6289C807.988 23.1289 808.633 26.1562 808.633 29.7109ZM785.107 29.7109C785.107 32.0742 785.391 34.0957 785.957 35.7754C786.543 37.4551 787.441 38.7441 788.652 39.6426C789.863 40.5215 791.426 40.9609 793.34 40.9609C795.254 40.9609 796.816 40.5215 798.027 39.6426C799.238 38.7441 800.127 37.4551 800.693 35.7754C801.26 34.0957 801.543 32.0742 801.543 29.7109C801.543 27.3477 801.26 25.3457 800.693 23.7051C800.127 22.0449 799.238 20.7852 798.027 19.9258C796.816 19.0469 795.244 18.6074 793.311 18.6074C790.459 18.6074 788.379 19.5645 787.07 21.4785C785.762 23.3926 785.107 26.1367 785.107 29.7109ZM846.014 13.5684V46H840.595L839.657 41.6348H839.276C838.593 42.748 837.723 43.6758 836.669 44.418C835.614 45.1406 834.442 45.6777 833.153 46.0293C831.864 46.4004 830.507 46.5859 829.081 46.5859C826.639 46.5859 824.55 46.1758 822.811 45.3555C821.093 44.5156 819.774 43.2266 818.856 41.4883C817.938 39.75 817.479 37.5039 817.479 34.75V13.5684H824.393V33.4609C824.393 35.9805 824.901 37.8652 825.917 39.1152C826.952 40.3652 828.554 40.9902 830.721 40.9902C832.811 40.9902 834.471 40.5605 835.702 39.7012C836.932 38.8418 837.802 37.5723 838.309 35.8926C838.837 34.2129 839.1 32.1523 839.1 29.7109V13.5684H846.014ZM873.523 12.9531C874.07 12.9531 874.666 12.9824 875.31 13.041C875.955 13.0996 876.511 13.1777 876.98 13.2754L876.336 19.7207C875.925 19.6035 875.418 19.5156 874.812 19.457C874.226 19.3984 873.699 19.3691 873.23 19.3691C872 19.3691 870.828 19.5742 869.714 19.9844C868.601 20.375 867.615 20.9805 866.755 21.8008C865.896 22.6016 865.222 23.6074 864.734 24.8184C864.246 26.0293 864.002 27.4355 864.002 29.0371V46H857.088V13.5684H862.478L863.416 19.2812H863.738C864.382 18.1289 865.183 17.0742 866.14 16.1172C867.097 15.1602 868.191 14.3984 869.422 13.832C870.672 13.2461 872.039 12.9531 873.523 12.9531ZM952.329 3.16797L941.138 46H933.462L926.314 20.3359C926.138 19.7109 925.943 18.9688 925.728 18.1094C925.513 17.25 925.298 16.3711 925.083 15.4727C924.888 14.5742 924.712 13.7539 924.556 13.0117C924.419 12.25 924.321 11.6641 924.263 11.2539C924.224 11.6641 924.136 12.2402 923.999 12.9824C923.862 13.7246 923.696 14.5449 923.501 15.4434C923.325 16.3223 923.13 17.2012 922.915 18.0801C922.7 18.9395 922.505 19.7012 922.329 20.3652L915.298 46H907.652L896.489 3.16797H903.55L909.732 28.2754C909.927 29.0762 910.122 29.9453 910.318 30.8828C910.532 31.8008 910.728 32.7285 910.904 33.666C911.099 34.6035 911.275 35.5215 911.431 36.4199C911.587 37.2988 911.714 38.0996 911.812 38.8223C911.909 38.0801 912.036 37.2598 912.193 36.3613C912.349 35.4434 912.515 34.5156 912.691 33.5781C912.886 32.6211 913.081 31.7031 913.277 30.8242C913.491 29.9453 913.706 29.1543 913.921 28.4512L920.894 3.16797H927.749L934.868 28.5391C935.083 29.2617 935.288 30.0723 935.484 30.9707C935.698 31.8691 935.904 32.7871 936.099 33.7246C936.294 34.6621 936.47 35.5703 936.626 36.4492C936.782 37.3281 936.909 38.1191 937.007 38.8223C937.144 37.8652 937.32 36.7715 937.534 35.541C937.749 34.3105 937.993 33.0605 938.267 31.791C938.54 30.5215 938.814 29.3496 939.087 28.2754L945.239 3.16797H952.329ZM987.602 29.7109C987.602 32.4062 987.25 34.7988 986.547 36.8887C985.844 38.9785 984.818 40.7461 983.471 42.1914C982.123 43.6172 980.502 44.7109 978.607 45.4727C976.713 46.2148 974.574 46.5859 972.191 46.5859C969.965 46.5859 967.924 46.2148 966.068 45.4727C964.213 44.7109 962.602 43.6172 961.234 42.1914C959.887 40.7461 958.842 38.9785 958.1 36.8887C957.357 34.7988 956.986 32.4062 956.986 29.7109C956.986 26.1367 957.602 23.1094 958.832 20.6289C960.082 18.1289 961.859 16.2246 964.164 14.916C966.469 13.6074 969.213 12.9531 972.396 12.9531C975.385 12.9531 978.021 13.6074 980.307 14.916C982.592 16.2246 984.379 18.1289 985.668 20.6289C986.957 23.1289 987.602 26.1562 987.602 29.7109ZM964.076 29.7109C964.076 32.0742 964.359 34.0957 964.926 35.7754C965.512 37.4551 966.41 38.7441 967.621 39.6426C968.832 40.5215 970.395 40.9609 972.309 40.9609C974.223 40.9609 975.785 40.5215 976.996 39.6426C978.207 38.7441 979.096 37.4551 979.662 35.7754C980.229 34.0957 980.512 32.0742 980.512 29.7109C980.512 27.3477 980.229 25.3457 979.662 23.7051C979.096 22.0449 978.207 20.7852 976.996 19.9258C975.785 19.0469 974.213 18.6074 972.279 18.6074C969.428 18.6074 967.348 19.5645 966.039 21.4785C964.73 23.3926 964.076 26.1367 964.076 29.7109ZM1013.15 12.9531C1013.69 12.9531 1014.29 12.9824 1014.93 13.041C1015.58 13.0996 1016.14 13.1777 1016.6 13.2754L1015.96 19.7207C1015.55 19.6035 1015.04 19.5156 1014.44 19.457C1013.85 19.3984 1013.32 19.3691 1012.85 19.3691C1011.62 19.3691 1010.45 19.5742 1009.34 19.9844C1008.23 20.375 1007.24 20.9805 1006.38 21.8008C1005.52 22.6016 1004.85 23.6074 1004.36 24.8184C1003.87 26.0293 1003.63 27.4355 1003.63 29.0371V46H996.712V13.5684H1002.1L1003.04 19.2812H1003.36C1004.01 18.1289 1004.81 17.0742 1005.76 16.1172C1006.72 15.1602 1007.82 14.3984 1009.05 13.832C1010.3 13.2461 1011.66 12.9531 1013.15 12.9531ZM1030.69 0.414062V22.4453C1030.69 23.4414 1030.66 24.5352 1030.58 25.7266C1030.5 26.8984 1030.42 28.002 1030.34 29.0371H1030.49C1031 28.3535 1031.6 27.5527 1032.31 26.6348C1033.03 25.7168 1033.71 24.916 1034.36 24.2324L1044.26 13.5684H1052.17L1039.19 27.5137L1053.02 46H1044.93L1034.56 31.7617L1030.69 35.0723V46H1023.81V0.414062H1030.69ZM1075.61 18.8125H1067.72V46H1060.84V18.8125H1055.54V15.502L1060.84 13.4805V11.2246C1060.84 8.4707 1061.27 6.2832 1062.13 4.66211C1063.01 3.04102 1064.26 1.87891 1065.88 1.17578C1067.52 0.453125 1069.47 0.0917969 1071.74 0.0917969C1073.22 0.0917969 1074.58 0.21875 1075.81 0.472656C1077.04 0.707031 1078.08 0.980469 1078.92 1.29297L1077.13 6.50781C1076.47 6.29297 1075.72 6.09766 1074.9 5.92188C1074.08 5.72656 1073.2 5.62891 1072.27 5.62891C1070.7 5.62891 1069.55 6.11719 1068.81 7.09375C1068.09 8.07031 1067.72 9.49609 1067.72 11.3711V13.5684H1075.61V18.8125ZM1088.03 46H1081.11V0.414062H1088.03V46ZM1127.75 29.7109C1127.75 32.4062 1127.4 34.7988 1126.7 36.8887C1126 38.9785 1124.97 40.7461 1123.62 42.1914C1122.27 43.6172 1120.65 44.7109 1118.76 45.4727C1116.86 46.2148 1114.73 46.5859 1112.34 46.5859C1110.12 46.5859 1108.08 46.2148 1106.22 45.4727C1104.36 44.7109 1102.75 43.6172 1101.39 42.1914C1100.04 40.7461 1098.99 38.9785 1098.25 36.8887C1097.51 34.7988 1097.14 32.4062 1097.14 29.7109C1097.14 26.1367 1097.75 23.1094 1098.98 20.6289C1100.23 18.1289 1102.01 16.2246 1104.32 14.916C1106.62 13.6074 1109.36 12.9531 1112.55 12.9531C1115.54 12.9531 1118.17 13.6074 1120.46 14.916C1122.74 16.2246 1124.53 18.1289 1125.82 20.6289C1127.11 23.1289 1127.75 26.1562 1127.75 29.7109ZM1104.23 29.7109C1104.23 32.0742 1104.51 34.0957 1105.08 35.7754C1105.66 37.4551 1106.56 38.7441 1107.77 39.6426C1108.98 40.5215 1110.55 40.9609 1112.46 40.9609C1114.37 40.9609 1115.94 40.5215 1117.15 39.6426C1118.36 38.7441 1119.25 37.4551 1119.81 35.7754C1120.38 34.0957 1120.66 32.0742 1120.66 29.7109C1120.66 27.3477 1120.38 25.3457 1119.81 23.7051C1119.25 22.0449 1118.36 20.7852 1117.15 19.9258C1115.94 19.0469 1114.36 18.6074 1112.43 18.6074C1109.58 18.6074 1107.5 19.5645 1106.19 21.4785C1104.88 23.3926 1104.23 26.1367 1104.23 29.7109ZM1163.38 45.9707L1159.28 30.8828C1159.08 30.1406 1158.85 29.2422 1158.57 28.1875C1158.3 27.1328 1158.03 26.0488 1157.75 24.9355C1157.48 23.8027 1157.22 22.7578 1156.99 21.8008C1156.78 20.8438 1156.61 20.1016 1156.49 19.5742H1156.26C1156.16 20.1016 1156 20.8438 1155.79 21.8008C1155.57 22.7578 1155.33 23.8027 1155.06 24.9355C1154.78 26.0684 1154.51 27.1719 1154.24 28.2461C1153.98 29.3203 1153.75 30.2383 1153.53 31L1149.23 45.9707H1141.67L1132.59 13.5391H1139.56L1143.78 29.6523C1144.05 30.7461 1144.31 31.9277 1144.57 33.1973C1144.84 34.4668 1145.08 35.6777 1145.27 36.8301C1145.47 37.9824 1145.61 38.9297 1145.71 39.6719H1145.95C1146.02 39.1445 1146.13 38.4805 1146.27 37.6797C1146.4 36.8594 1146.56 36.0098 1146.74 35.1309C1146.91 34.2324 1147.09 33.3926 1147.26 32.6113C1147.44 31.8105 1147.61 31.166 1147.76 30.6777L1152.74 13.5391H1160.27L1165.05 30.6777C1165.26 31.4199 1165.5 32.3574 1165.75 33.4902C1166 34.6035 1166.23 35.7266 1166.42 36.8594C1166.64 37.9727 1166.78 38.9004 1166.83 39.6426H1167.07C1167.15 38.9785 1167.28 38.0801 1167.48 36.9473C1167.69 35.7949 1167.94 34.5742 1168.21 33.2852C1168.48 31.9766 1168.77 30.7656 1169.06 29.6523L1173.37 13.5391H1180.22L1171.08 45.9707H1163.38Z" fill="url(#paint0_linear_1_9)"/>
<defs>
<linearGradient id="paint0_linear_1_9" x1="-5" y1="23" x2="1181" y2="22.9999" gradientUnits="userSpaceOnUse">
<stop stop-color="#FF3BFF"/>
<stop offset="0.380208" stop-color="#ECBFBF"/>
<stop offset="0.758263" stop-color="#5C24FF"/>
<stop offset="1" stop-color="#D94FD5"/>
</linearGradient>
</defs>
</svg>
