<svg width="696" height="63" viewBox="0 0 696 63" fill="none" xmlns="http://www.w3.org/2000/svg">
<path d="M7.58185 23L2.55499 5.41309H2.44171C2.47947 6.04557 2.50779 6.6167 2.52667 7.12646C2.55499 7.62679 2.57387 8.06104 2.58331 8.4292C2.59275 8.79736 2.59747 9.09945 2.59747 9.33545V23H0.45929V2.29785H3.64532L8.58722 19.5166H8.67218L13.6282 2.29785H16.8568V23H14.6478V9.39209C14.6478 9.13721 14.6525 8.82096 14.6619 8.44336C14.6714 8.06576 14.6855 7.62679 14.7044 7.12646C14.7327 6.6167 14.7563 6.04557 14.7752 5.41309H14.6761L9.64923 23H7.58185ZM25.7188 7.16895C27.1537 7.16895 28.178 7.62679 28.7916 8.54248C29.4052 9.45817 29.712 10.7845 29.712 12.5215V23H28.0553L27.7296 20.791H27.6729C27.4275 21.3197 27.1349 21.7728 26.795 22.1504C26.4552 22.5186 26.0681 22.8018 25.6339 23C25.1996 23.1888 24.6993 23.2832 24.1329 23.2832C23.3305 23.2832 22.6744 23.0708 22.1646 22.646C21.6549 22.2212 21.2773 21.6642 21.0318 20.9751C20.7864 20.2765 20.6637 19.526 20.6637 18.7236C20.6637 17.1849 21.1074 15.9907 21.9947 15.1411C22.8821 14.2915 24.1423 13.8289 25.7755 13.7534L27.5455 13.6401V12.5781C27.5455 11.332 27.3756 10.4211 27.0357 9.84521C26.6959 9.26937 26.1484 8.98145 25.3932 8.98145C24.9589 8.98145 24.5011 9.05697 24.0196 9.20801C23.5476 9.35905 23.0331 9.59977 22.4762 9.93018L21.7823 8.2876C22.3676 7.90999 22.9907 7.63151 23.6515 7.45215C24.3217 7.26335 25.0108 7.16895 25.7188 7.16895ZM27.5738 15.2402L26.1295 15.3394C25.0344 15.4054 24.2179 15.717 23.6798 16.2739C23.1511 16.8215 22.8868 17.6191 22.8868 18.667C22.8868 19.6393 23.0615 20.3568 23.4107 20.8193C23.76 21.2819 24.2415 21.5132 24.8551 21.5132C25.7141 21.5132 26.3796 21.0978 26.8517 20.2671C27.3331 19.4364 27.5738 18.2894 27.5738 16.8262V15.2402ZM36.3793 0.966797V11.9692C36.3793 12.5168 36.3698 13.0501 36.3509 13.5693C36.3321 14.0885 36.299 14.6125 36.2518 15.1411H36.3509C36.5114 14.8201 36.6719 14.5133 36.8324 14.2207C36.9929 13.9281 37.1628 13.6449 37.3422 13.3711L40.8964 7.45215H43.2469L39.4945 13.4277L43.516 23H41.1796L38.0218 15.1836L36.3793 17.2368V23H34.1986V0.966797H36.3793ZM50.5231 7.19727C51.5804 7.19727 52.4489 7.50407 53.1286 8.11768C53.8177 8.73128 54.3275 9.55729 54.6579 10.5957C54.9977 11.6341 55.1676 12.7905 55.1676 14.0649V15.6084H47.7619C47.7807 17.5436 48.0781 18.9974 48.654 19.9697C49.2392 20.9421 50.1172 21.4282 51.2877 21.4282C51.8447 21.4282 52.3922 21.3433 52.9303 21.1733C53.4684 21.0034 54.0254 20.7297 54.6012 20.3521V22.3062C54.0631 22.6366 53.5015 22.882 52.9162 23.0425C52.3309 23.203 51.7078 23.2832 51.047 23.2832C49.7537 23.2832 48.7059 22.9386 47.9035 22.2495C47.1011 21.5509 46.5158 20.6022 46.1476 19.4033C45.7889 18.195 45.6095 16.8309 45.6095 15.311C45.6095 13.5741 45.7936 12.1014 46.1618 10.8931C46.5299 9.68473 47.0775 8.76904 47.8043 8.146C48.5407 7.51351 49.4469 7.19727 50.5231 7.19727ZM50.5231 8.98145C49.7018 8.98145 49.0599 9.38265 48.5973 10.1851C48.1348 10.978 47.8657 12.2052 47.7902 13.8667H53.1286C53.1286 12.9888 53.0342 12.1816 52.8454 11.4453C52.666 10.6995 52.3828 10.1048 51.9958 9.66113C51.6182 9.20801 51.1273 8.98145 50.5231 8.98145ZM70.697 7.16895C72.1885 7.16895 73.3166 7.83919 74.0813 9.17969C74.8553 10.5107 75.2424 12.5168 75.2424 15.1978C75.2424 16.9253 75.0678 18.3932 74.7185 19.6016C74.3786 20.8005 73.8783 21.7161 73.2175 22.3486C72.5567 22.9717 71.7543 23.2832 70.8103 23.2832C70.2816 23.2832 69.7907 23.1841 69.3376 22.9858C68.8845 22.7782 68.4833 22.4902 68.134 22.1221C67.7847 21.7445 67.4921 21.3055 67.2561 20.8052H67.1569C67.1758 21.1828 67.1947 21.5462 67.2136 21.8955C67.2419 22.2448 67.2561 22.5752 67.2561 22.8867V29.9385H65.0754V7.45215H66.8454L67.1145 9.73193H67.2419C67.5062 9.15609 67.8083 8.67936 68.1482 8.30176C68.4974 7.92415 68.8845 7.64095 69.3093 7.45215C69.7341 7.26335 70.1967 7.16895 70.697 7.16895ZM70.2297 9.05225C69.5689 9.05225 69.0166 9.25993 68.573 9.67529C68.1387 10.0907 67.8083 10.7184 67.5817 11.5586C67.3646 12.3893 67.2561 13.4372 67.2561 14.7021V15.4526C67.2561 16.7931 67.3646 17.9023 67.5817 18.7803C67.8083 19.6582 68.1434 20.3096 68.5871 20.7344C69.0402 21.1592 69.5972 21.3716 70.258 21.3716C70.8622 21.3716 71.3672 21.1545 71.7732 20.7202C72.1885 20.286 72.5 19.6157 72.7077 18.7095C72.9154 17.8032 73.0192 16.6421 73.0192 15.2261C73.0192 13.1776 72.8021 11.6388 72.3679 10.6099C71.9431 9.57145 71.2303 9.05225 70.2297 9.05225ZM84.2744 7.18311C84.4915 7.18311 84.7087 7.20199 84.9258 7.23975C85.1429 7.26807 85.3695 7.31999 85.6055 7.39551L85.2656 9.63281C85.0957 9.55729 84.9163 9.50537 84.7275 9.47705C84.5387 9.44873 84.3358 9.43457 84.1186 9.43457C83.6938 9.43457 83.3021 9.57617 82.9434 9.85938C82.5941 10.1331 82.292 10.5202 82.0371 11.0205C81.7822 11.5208 81.584 12.1014 81.4424 12.7622C81.3102 13.423 81.2489 14.1357 81.2583 14.9004V23H79.0776V7.45215H80.7768L81.0742 10.2134H81.2158C81.4329 9.61865 81.6878 9.09473 81.9805 8.6416C82.2731 8.18848 82.6082 7.83447 82.9858 7.57959C83.3729 7.31527 83.8024 7.18311 84.2744 7.18311ZM98.135 15.2119C98.135 16.4391 98.0312 17.5483 97.8235 18.5396C97.6158 19.5308 97.2996 20.3804 96.8748 21.0884C96.45 21.7964 95.9119 22.3392 95.2605 22.7168C94.6092 23.0944 93.8398 23.2832 92.9524 23.2832C92.1028 23.2832 91.357 23.0944 90.7151 22.7168C90.0732 22.3392 89.5398 21.8011 89.115 21.1025C88.6902 20.3945 88.3692 19.5449 88.1521 18.5537C87.935 17.5531 87.8264 16.4391 87.8264 15.2119C87.8264 13.4938 88.0105 12.04 88.3787 10.8506C88.7468 9.65169 89.3133 8.74072 90.0779 8.11768C90.8426 7.48519 91.8149 7.16895 92.9949 7.16895C94.0994 7.16895 95.034 7.47575 95.7986 8.08936C96.5633 8.69352 97.1438 9.59505 97.5403 10.7939C97.9368 11.9834 98.135 13.4561 98.135 15.2119ZM90.0496 15.2119C90.0496 16.5618 90.1534 17.6947 90.3611 18.6104C90.5688 19.526 90.8898 20.2152 91.324 20.6777C91.7677 21.1403 92.3294 21.3716 93.0091 21.3716C93.6793 21.3716 94.2268 21.145 94.6516 20.6919C95.0859 20.2388 95.4068 19.5591 95.6145 18.6528C95.8222 17.7371 95.926 16.5902 95.926 15.2119C95.926 13.862 95.8222 12.7339 95.6145 11.8276C95.4068 10.9119 95.0859 10.2275 94.6516 9.77441C94.2268 9.31185 93.6746 9.08057 92.9949 9.08057C91.9565 9.08057 91.206 9.59505 90.7434 10.624C90.2809 11.6436 90.0496 13.1729 90.0496 15.2119ZM106.473 23.2832C105.331 23.2832 104.377 22.9858 103.613 22.3911C102.858 21.7964 102.291 20.909 101.914 19.729C101.536 18.549 101.347 17.0858 101.347 15.3394C101.347 13.6307 101.536 12.1675 101.914 10.9497C102.301 9.73193 102.881 8.79736 103.655 8.146C104.429 7.49463 105.397 7.16895 106.558 7.16895C107.143 7.16895 107.667 7.23031 108.13 7.35303C108.602 7.47575 109.041 7.65039 109.447 7.87695L108.753 9.67529C108.404 9.48649 108.054 9.34489 107.705 9.25049C107.365 9.15609 107.03 9.10889 106.7 9.10889C106.02 9.10889 105.449 9.34489 104.986 9.81689C104.524 10.2795 104.17 10.9686 103.924 11.8843C103.688 12.8 103.57 13.9422 103.57 15.311C103.57 16.6421 103.684 17.756 103.91 18.6528C104.146 19.5496 104.495 20.2293 104.958 20.6919C105.43 21.145 106.015 21.3716 106.714 21.3716C107.129 21.3716 107.549 21.3149 107.974 21.2017C108.408 21.0789 108.843 20.9043 109.277 20.6777V22.5186C108.88 22.764 108.418 22.9528 107.889 23.085C107.37 23.2171 106.898 23.2832 106.473 23.2832ZM116.95 7.19727C118.007 7.19727 118.875 7.50407 119.555 8.11768C120.244 8.73128 120.754 9.55729 121.084 10.5957C121.424 11.6341 121.594 12.7905 121.594 14.0649V15.6084H114.188C114.207 17.5436 114.505 18.9974 115.08 19.9697C115.666 20.9421 116.544 21.4282 117.714 21.4282C118.271 21.4282 118.819 21.3433 119.357 21.1733C119.895 21.0034 120.452 20.7297 121.028 20.3521V22.3062C120.49 22.6366 119.928 22.882 119.343 23.0425C118.757 23.203 118.134 23.2832 117.473 23.2832C116.18 23.2832 115.132 22.9386 114.33 22.2495C113.528 21.5509 112.942 20.6022 112.574 19.4033C112.215 18.195 112.036 16.8309 112.036 15.311C112.036 13.5741 112.22 12.1014 112.588 10.8931C112.956 9.68473 113.504 8.76904 114.231 8.146C114.967 7.51351 115.873 7.19727 116.95 7.19727ZM116.95 8.98145C116.128 8.98145 115.486 9.38265 115.024 10.1851C114.561 10.978 114.292 12.2052 114.217 13.8667H119.555C119.555 12.9888 119.461 12.1816 119.272 11.4453C119.092 10.6995 118.809 10.1048 118.422 9.66113C118.045 9.20801 117.554 8.98145 116.95 8.98145ZM132.311 18.8936C132.311 19.8281 132.141 20.6258 131.801 21.2866C131.462 21.938 130.966 22.4336 130.315 22.7734C129.673 23.1133 128.889 23.2832 127.964 23.2832C127.247 23.2832 126.59 23.1982 125.996 23.0283C125.401 22.8584 124.896 22.6554 124.481 22.4194V20.1538C124.896 20.4937 125.41 20.7769 126.024 21.0034C126.638 21.2205 127.261 21.3291 127.893 21.3291C128.62 21.3291 129.177 21.1214 129.564 20.7061C129.961 20.2907 130.159 19.7101 130.159 18.9644C130.159 18.5207 130.079 18.1383 129.918 17.8174C129.758 17.487 129.498 17.1755 129.139 16.8828C128.79 16.5807 128.327 16.2645 127.752 15.9341C127.11 15.5376 126.539 15.127 126.038 14.7021C125.547 14.2773 125.165 13.7912 124.891 13.2437C124.617 12.6867 124.481 12.0117 124.481 11.2188C124.481 10.0104 124.872 9.03337 125.656 8.2876C126.449 7.54183 127.492 7.16895 128.785 7.16895C129.437 7.16895 130.05 7.25391 130.626 7.42383C131.211 7.58431 131.764 7.82975 132.283 8.16016L131.462 9.91602C131.065 9.64225 130.64 9.42513 130.187 9.26465C129.743 9.10417 129.286 9.02393 128.814 9.02393C128.124 9.02393 127.577 9.21745 127.171 9.60449C126.775 9.99154 126.576 10.5107 126.576 11.1621C126.576 11.5964 126.657 11.9692 126.817 12.2808C126.977 12.5923 127.242 12.8944 127.61 13.187C127.978 13.4797 128.464 13.8101 129.068 14.1782C129.71 14.5841 130.272 14.9995 130.754 15.4243C131.244 15.8397 131.627 16.3211 131.9 16.8687C132.174 17.4162 132.311 18.0911 132.311 18.8936ZM142.773 18.8936C142.773 19.8281 142.603 20.6258 142.264 21.2866C141.924 21.938 141.428 22.4336 140.777 22.7734C140.135 23.1133 139.351 23.2832 138.426 23.2832C137.709 23.2832 137.053 23.1982 136.458 23.0283C135.863 22.8584 135.358 22.6554 134.943 22.4194V20.1538C135.358 20.4937 135.873 20.7769 136.486 21.0034C137.1 21.2205 137.723 21.3291 138.355 21.3291C139.082 21.3291 139.639 21.1214 140.026 20.7061C140.423 20.2907 140.621 19.7101 140.621 18.9644C140.621 18.5207 140.541 18.1383 140.38 17.8174C140.22 17.487 139.96 17.1755 139.601 16.8828C139.252 16.5807 138.79 16.2645 138.214 15.9341C137.572 15.5376 137.001 15.127 136.5 14.7021C136.009 14.2773 135.627 13.7912 135.353 13.2437C135.08 12.6867 134.943 12.0117 134.943 11.2188C134.943 10.0104 135.335 9.03337 136.118 8.2876C136.911 7.54183 137.954 7.16895 139.247 7.16895C139.899 7.16895 140.512 7.25391 141.088 7.42383C141.674 7.58431 142.226 7.82975 142.745 8.16016L141.924 9.91602C141.527 9.64225 141.102 9.42513 140.649 9.26465C140.206 9.10417 139.748 9.02393 139.276 9.02393C138.587 9.02393 138.039 9.21745 137.633 9.60449C137.237 9.99154 137.038 10.5107 137.038 11.1621C137.038 11.5964 137.119 11.9692 137.279 12.2808C137.44 12.5923 137.704 12.8944 138.072 13.187C138.44 13.4797 138.926 13.8101 139.531 14.1782C140.173 14.5841 140.734 14.9995 141.216 15.4243C141.707 15.8397 142.089 16.3211 142.363 16.8687C142.636 17.4162 142.773 18.0911 142.773 18.8936ZM150.602 7.19727C151.659 7.19727 152.528 7.50407 153.207 8.11768C153.896 8.73128 154.406 9.55729 154.736 10.5957C155.076 11.6341 155.246 12.7905 155.246 14.0649V15.6084H147.84C147.859 17.5436 148.157 18.9974 148.733 19.9697C149.318 20.9421 150.196 21.4282 151.366 21.4282C151.923 21.4282 152.471 21.3433 153.009 21.1733C153.547 21.0034 154.104 20.7297 154.68 20.3521V22.3062C154.142 22.6366 153.58 22.882 152.995 23.0425C152.41 23.203 151.786 23.2832 151.126 23.2832C149.832 23.2832 148.785 22.9386 147.982 22.2495C147.18 21.5509 146.594 20.6022 146.226 19.4033C145.868 18.195 145.688 16.8309 145.688 15.311C145.688 13.5741 145.872 12.1014 146.24 10.8931C146.609 9.68473 147.156 8.76904 147.883 8.146C148.619 7.51351 149.526 7.19727 150.602 7.19727ZM150.602 8.98145C149.78 8.98145 149.139 9.38265 148.676 10.1851C148.213 10.978 147.944 12.2052 147.869 13.8667H153.207C153.207 12.9888 153.113 12.1816 152.924 11.4453C152.745 10.6995 152.461 10.1048 152.074 9.66113C151.697 9.20801 151.206 8.98145 150.602 8.98145ZM165.963 18.8936C165.963 19.8281 165.793 20.6258 165.454 21.2866C165.114 21.938 164.618 22.4336 163.967 22.7734C163.325 23.1133 162.541 23.2832 161.616 23.2832C160.899 23.2832 160.243 23.1982 159.648 23.0283C159.053 22.8584 158.548 22.6554 158.133 22.4194V20.1538C158.548 20.4937 159.063 20.7769 159.676 21.0034C160.29 21.2205 160.913 21.3291 161.545 21.3291C162.272 21.3291 162.829 21.1214 163.216 20.7061C163.613 20.2907 163.811 19.7101 163.811 18.9644C163.811 18.5207 163.731 18.1383 163.57 17.8174C163.41 17.487 163.15 17.1755 162.791 16.8828C162.442 16.5807 161.98 16.2645 161.404 15.9341C160.762 15.5376 160.191 15.127 159.69 14.7021C159.199 14.2773 158.817 13.7912 158.543 13.2437C158.27 12.6867 158.133 12.0117 158.133 11.2188C158.133 10.0104 158.525 9.03337 159.308 8.2876C160.101 7.54183 161.144 7.16895 162.437 7.16895C163.089 7.16895 163.702 7.25391 164.278 7.42383C164.864 7.58431 165.416 7.82975 165.935 8.16016L165.114 9.91602C164.717 9.64225 164.292 9.42513 163.839 9.26465C163.396 9.10417 162.938 9.02393 162.466 9.02393C161.777 9.02393 161.229 9.21745 160.823 9.60449C160.427 9.99154 160.228 10.5107 160.228 11.1621C160.228 11.5964 160.309 11.9692 160.469 12.2808C160.63 12.5923 160.894 12.8944 161.262 13.187C161.63 13.4797 162.116 13.8101 162.721 14.1782C163.363 14.5841 163.924 14.9995 164.406 15.4243C164.897 15.8397 165.279 16.3211 165.553 16.8687C165.826 17.4162 165.963 18.0911 165.963 18.8936ZM184.778 23L182.909 13.3569C182.862 13.0926 182.814 12.8188 182.767 12.5356C182.72 12.2524 182.673 11.9692 182.626 11.686C182.588 11.4028 182.55 11.1243 182.512 10.8506C182.474 10.5674 182.437 10.2936 182.399 10.0293H182.328C182.29 10.3031 182.248 10.5863 182.201 10.8789C182.163 11.1621 182.12 11.4453 182.073 11.7285C182.035 12.0117 181.993 12.2902 181.946 12.564C181.899 12.8377 181.851 13.1021 181.804 13.3569L179.822 23H177.33L173.974 7.45215H176.154L177.811 15.5518C177.905 16.0615 178 16.5854 178.094 17.1235C178.189 17.6522 178.278 18.1855 178.363 18.7236C178.448 19.2523 178.528 19.7809 178.604 20.3096H178.689C178.736 19.9792 178.783 19.6346 178.831 19.2759C178.887 18.9077 178.944 18.5301 179.001 18.1431C179.067 17.7466 179.137 17.3407 179.213 16.9253C179.288 16.5005 179.373 16.071 179.468 15.6367L181.153 7.45215H183.574L185.245 15.6792C185.33 16.0379 185.41 16.4533 185.486 16.9253C185.571 17.3973 185.656 17.9165 185.741 18.4829C185.826 19.0493 185.915 19.6582 186.01 20.3096H186.095C186.123 20.0264 186.161 19.7196 186.208 19.3892C186.255 19.0588 186.312 18.7 186.378 18.313C186.444 17.9165 186.52 17.4964 186.605 17.0527L188.587 7.45215H190.711L187.284 23H184.778ZM195.764 0.966797V7.36719C195.764 7.78255 195.75 8.18376 195.721 8.5708C195.703 8.9484 195.665 9.30713 195.608 9.64697H195.764C195.953 9.13721 196.212 8.69824 196.543 8.33008C196.883 7.96191 197.274 7.67871 197.718 7.48047C198.162 7.27279 198.638 7.16895 199.148 7.16895C200.017 7.16895 200.729 7.37191 201.286 7.77783C201.843 8.17432 202.254 8.76432 202.518 9.54785C202.783 10.3219 202.915 11.2848 202.915 12.4365V23H200.734V12.8613C200.734 11.5208 200.574 10.5627 200.253 9.98682C199.932 9.41097 199.413 9.12305 198.695 9.12305C198.034 9.12305 197.487 9.32601 197.053 9.73193C196.618 10.1379 196.293 10.7656 196.075 11.6152C195.868 12.4554 195.764 13.5363 195.764 14.8579V23H193.583V0.966797H195.764ZM211.664 7.19727C212.721 7.19727 213.589 7.50407 214.269 8.11768C214.958 8.73128 215.468 9.55729 215.798 10.5957C216.138 11.6341 216.308 12.7905 216.308 14.0649V15.6084H208.902C208.921 17.5436 209.219 18.9974 209.795 19.9697C210.38 20.9421 211.258 21.4282 212.428 21.4282C212.985 21.4282 213.533 21.3433 214.071 21.1733C214.609 21.0034 215.166 20.7297 215.742 20.3521V22.3062C215.204 22.6366 214.642 22.882 214.057 23.0425C213.471 23.203 212.848 23.2832 212.188 23.2832C210.894 23.2832 209.846 22.9386 209.044 22.2495C208.242 21.5509 207.656 20.6022 207.288 19.4033C206.929 18.195 206.75 16.8309 206.75 15.311C206.75 13.5741 206.934 12.1014 207.302 10.8931C207.67 9.68473 208.218 8.76904 208.945 8.146C209.681 7.51351 210.587 7.19727 211.664 7.19727ZM211.664 8.98145C210.842 8.98145 210.2 9.38265 209.738 10.1851C209.275 10.978 209.006 12.2052 208.931 13.8667H214.269C214.269 12.9888 214.175 12.1816 213.986 11.4453C213.807 10.6995 213.523 10.1048 213.136 9.66113C212.759 9.20801 212.268 8.98145 211.664 8.98145ZM225.312 7.18311C225.529 7.18311 225.746 7.20199 225.963 7.23975C226.18 7.26807 226.407 7.31999 226.643 7.39551L226.303 9.63281C226.133 9.55729 225.954 9.50537 225.765 9.47705C225.576 9.44873 225.373 9.43457 225.156 9.43457C224.731 9.43457 224.34 9.57617 223.981 9.85938C223.632 10.1331 223.329 10.5202 223.075 11.0205C222.82 11.5208 222.621 12.1014 222.48 12.7622C222.348 13.423 222.286 14.1357 222.296 14.9004V23H220.115V7.45215H221.814L222.112 10.2134H222.253C222.47 9.61865 222.725 9.09473 223.018 8.6416C223.311 8.18848 223.646 7.83447 224.023 7.57959C224.41 7.31527 224.84 7.18311 225.312 7.18311ZM233.806 7.19727C234.863 7.19727 235.732 7.50407 236.411 8.11768C237.1 8.73128 237.61 9.55729 237.941 10.5957C238.28 11.6341 238.45 12.7905 238.45 14.0649V15.6084H231.045C231.063 17.5436 231.361 18.9974 231.937 19.9697C232.522 20.9421 233.4 21.4282 234.57 21.4282C235.127 21.4282 235.675 21.3433 236.213 21.1733C236.751 21.0034 237.308 20.7297 237.884 20.3521V22.3062C237.346 22.6366 236.784 22.882 236.199 23.0425C235.614 23.203 234.991 23.2832 234.33 23.2832C233.036 23.2832 231.989 22.9386 231.186 22.2495C230.384 21.5509 229.798 20.6022 229.43 19.4033C229.072 18.195 228.892 16.8309 228.892 15.311C228.892 13.5741 229.076 12.1014 229.444 10.8931C229.813 9.68473 230.36 8.76904 231.087 8.146C231.823 7.51351 232.73 7.19727 233.806 7.19727ZM233.806 8.98145C232.985 8.98145 232.343 9.38265 231.88 10.1851C231.417 10.978 231.148 12.2052 231.073 13.8667H236.411C236.411 12.9888 236.317 12.1816 236.128 11.4453C235.949 10.6995 235.666 10.1048 235.278 9.66113C234.901 9.20801 234.41 8.98145 233.806 8.98145ZM256.897 23L255.339 16.3447H250.425L248.868 23H246.461L251.459 2.29785H254.192L259.29 23H256.897ZM254.914 14.2632L253.328 7.23975C253.262 6.89046 253.196 6.55062 253.13 6.22021C253.073 5.88037 253.017 5.55469 252.96 5.24316C252.913 4.9222 252.866 4.61068 252.819 4.30859C252.79 4.61068 252.752 4.9222 252.705 5.24316C252.658 5.56413 252.601 5.88981 252.535 6.22021C252.469 6.54118 252.398 6.87158 252.323 7.21143L250.779 14.2632H254.914ZM262.148 23V2.29785H264.399V23H262.148ZM279.702 23.2832C278.56 23.2832 277.606 22.9858 276.842 22.3911C276.087 21.7964 275.52 20.909 275.143 19.729C274.765 18.549 274.576 17.0858 274.576 15.3394C274.576 13.6307 274.765 12.1675 275.143 10.9497C275.53 9.73193 276.11 8.79736 276.884 8.146C277.658 7.49463 278.626 7.16895 279.787 7.16895C280.372 7.16895 280.896 7.23031 281.359 7.35303C281.831 7.47575 282.27 7.65039 282.676 7.87695L281.982 9.67529C281.633 9.48649 281.283 9.34489 280.934 9.25049C280.594 9.15609 280.259 9.10889 279.929 9.10889C279.249 9.10889 278.678 9.34489 278.215 9.81689C277.753 10.2795 277.399 10.9686 277.153 11.8843C276.917 12.8 276.799 13.9422 276.799 15.311C276.799 16.6421 276.913 17.756 277.139 18.6528C277.375 19.5496 277.724 20.2293 278.187 20.6919C278.659 21.145 279.244 21.3716 279.943 21.3716C280.358 21.3716 280.778 21.3149 281.203 21.2017C281.637 21.0789 282.072 20.9043 282.506 20.6777V22.5186C282.109 22.764 281.647 22.9528 281.118 23.085C280.599 23.2171 280.127 23.2832 279.702 23.2832ZM295.545 15.2119C295.545 16.4391 295.441 17.5483 295.234 18.5396C295.026 19.5308 294.71 20.3804 294.285 21.0884C293.86 21.7964 293.322 22.3392 292.671 22.7168C292.019 23.0944 291.25 23.2832 290.363 23.2832C289.513 23.2832 288.767 23.0944 288.125 22.7168C287.483 22.3392 286.95 21.8011 286.525 21.1025C286.1 20.3945 285.779 19.5449 285.562 18.5537C285.345 17.5531 285.237 16.4391 285.237 15.2119C285.237 13.4938 285.421 12.04 285.789 10.8506C286.157 9.65169 286.723 8.74072 287.488 8.11768C288.253 7.48519 289.225 7.16895 290.405 7.16895C291.51 7.16895 292.444 7.47575 293.209 8.08936C293.973 8.69352 294.554 9.59505 294.951 10.7939C295.347 11.9834 295.545 13.4561 295.545 15.2119ZM287.46 15.2119C287.46 16.5618 287.564 17.6947 287.771 18.6104C287.979 19.526 288.3 20.2152 288.734 20.6777C289.178 21.1403 289.74 21.3716 290.419 21.3716C291.089 21.3716 291.637 21.145 292.062 20.6919C292.496 20.2388 292.817 19.5591 293.025 18.6528C293.232 17.7371 293.336 16.5902 293.336 15.2119C293.336 13.862 293.232 12.7339 293.025 11.8276C292.817 10.9119 292.496 10.2275 292.062 9.77441C291.637 9.31185 291.085 9.08057 290.405 9.08057C289.367 9.08057 288.616 9.59505 288.154 10.624C287.691 11.6436 287.46 13.1729 287.46 15.2119ZM301.575 23H299.395V0.966797H301.575V23ZM308.243 23H306.062V0.966797H308.243V23ZM316.892 7.16895C318.327 7.16895 319.351 7.62679 319.965 8.54248C320.579 9.45817 320.885 10.7845 320.885 12.5215V23H319.229L318.903 20.791H318.846C318.601 21.3197 318.308 21.7728 317.968 22.1504C317.629 22.5186 317.242 22.8018 316.807 23C316.373 23.1888 315.873 23.2832 315.306 23.2832C314.504 23.2832 313.848 23.0708 313.338 22.646C312.828 22.2212 312.451 21.6642 312.205 20.9751C311.96 20.2765 311.837 19.526 311.837 18.7236C311.837 17.1849 312.281 15.9907 313.168 15.1411C314.055 14.2915 315.316 13.8289 316.949 13.7534L318.719 13.6401V12.5781C318.719 11.332 318.549 10.4211 318.209 9.84521C317.869 9.26937 317.322 8.98145 316.567 8.98145C316.132 8.98145 315.674 9.05697 315.193 9.20801C314.721 9.35905 314.207 9.59977 313.65 9.93018L312.956 8.2876C313.541 7.90999 314.164 7.63151 314.825 7.45215C315.495 7.26335 316.184 7.16895 316.892 7.16895ZM318.747 15.2402L317.303 15.3394C316.208 15.4054 315.391 15.717 314.853 16.2739C314.325 16.8215 314.06 17.6191 314.06 18.667C314.06 19.6393 314.235 20.3568 314.584 20.8193C314.933 21.2819 315.415 21.5132 316.028 21.5132C316.888 21.5132 317.553 21.0978 318.025 20.2671C318.507 19.4364 318.747 18.2894 318.747 16.8262V15.2402ZM327.553 0.966797V7.45215C327.553 7.75423 327.543 8.09408 327.524 8.47168C327.515 8.83984 327.501 9.23161 327.482 9.64697H327.581C327.968 8.83512 328.449 8.22624 329.025 7.82031C329.611 7.40495 330.276 7.19727 331.022 7.19727C332.504 7.19727 333.627 7.87695 334.392 9.23633C335.166 10.5863 335.553 12.5734 335.553 15.1978C335.553 16.9347 335.379 18.4074 335.029 19.6157C334.689 20.8146 334.184 21.7256 333.514 22.3486C332.853 22.9717 332.041 23.2832 331.079 23.2832C330.314 23.2832 329.644 23.0944 329.068 22.7168C328.492 22.3298 327.996 21.735 327.581 20.9326H327.454L327.142 23H325.372V0.966797H327.553ZM330.555 9.10889C329.762 9.10889 329.148 9.36377 328.714 9.87354C328.28 10.3739 327.977 11.063 327.808 11.9409C327.638 12.8188 327.553 13.8195 327.553 14.9429V15.6084C327.553 17.5719 327.803 19.0304 328.303 19.9839C328.813 20.9279 329.568 21.3999 330.569 21.3999C331.494 21.3999 332.183 20.8949 332.636 19.8848C333.089 18.8747 333.316 17.3029 333.316 15.1694C333.316 13.1681 333.094 11.6577 332.65 10.6382C332.216 9.61865 331.518 9.10889 330.555 9.10889ZM349.017 15.2119C349.017 16.4391 348.913 17.5483 348.706 18.5396C348.498 19.5308 348.182 20.3804 347.757 21.0884C347.332 21.7964 346.794 22.3392 346.143 22.7168C345.491 23.0944 344.722 23.2832 343.835 23.2832C342.985 23.2832 342.239 23.0944 341.597 22.7168C340.955 22.3392 340.422 21.8011 339.997 21.1025C339.572 20.3945 339.252 19.5449 339.034 18.5537C338.817 17.5531 338.709 16.4391 338.709 15.2119C338.709 13.4938 338.893 12.04 339.261 10.8506C339.629 9.65169 340.196 8.74072 340.96 8.11768C341.725 7.48519 342.697 7.16895 343.877 7.16895C344.982 7.16895 345.916 7.47575 346.681 8.08936C347.446 8.69352 348.026 9.59505 348.423 10.7939C348.819 11.9834 349.017 13.4561 349.017 15.2119ZM340.932 15.2119C340.932 16.5618 341.036 17.6947 341.243 18.6104C341.451 19.526 341.772 20.2152 342.206 20.6777C342.65 21.1403 343.212 21.3716 343.891 21.3716C344.562 21.3716 345.109 21.145 345.534 20.6919C345.968 20.2388 346.289 19.5591 346.497 18.6528C346.704 17.7371 346.808 16.5902 346.808 15.2119C346.808 13.862 346.704 12.7339 346.497 11.8276C346.289 10.9119 345.968 10.2275 345.534 9.77441C345.109 9.31185 344.557 9.08057 343.877 9.08057C342.839 9.08057 342.088 9.59505 341.626 10.624C341.163 11.6436 340.932 13.1729 340.932 15.2119ZM358.063 7.18311C358.281 7.18311 358.498 7.20199 358.715 7.23975C358.932 7.26807 359.159 7.31999 359.395 7.39551L359.055 9.63281C358.885 9.55729 358.705 9.50537 358.517 9.47705C358.328 9.44873 358.125 9.43457 357.908 9.43457C357.483 9.43457 357.091 9.57617 356.732 9.85938C356.383 10.1331 356.081 10.5202 355.826 11.0205C355.571 11.5208 355.373 12.1014 355.231 12.7622C355.099 13.423 355.038 14.1357 355.047 14.9004V23H352.867V7.45215H354.566L354.863 10.2134H355.005C355.222 9.61865 355.477 9.09473 355.77 8.6416C356.062 8.18848 356.397 7.83447 356.775 7.57959C357.162 7.31527 357.591 7.18311 358.063 7.18311ZM366.444 7.16895C367.879 7.16895 368.903 7.62679 369.517 8.54248C370.13 9.45817 370.437 10.7845 370.437 12.5215V23H368.781L368.455 20.791H368.398C368.153 21.3197 367.86 21.7728 367.52 22.1504C367.18 22.5186 366.793 22.8018 366.359 23C365.925 23.1888 365.425 23.2832 364.858 23.2832C364.056 23.2832 363.4 23.0708 362.89 22.646C362.38 22.2212 362.003 21.6642 361.757 20.9751C361.512 20.2765 361.389 19.526 361.389 18.7236C361.389 17.1849 361.833 15.9907 362.72 15.1411C363.607 14.2915 364.868 13.8289 366.501 13.7534L368.271 13.6401V12.5781C368.271 11.332 368.101 10.4211 367.761 9.84521C367.421 9.26937 366.874 8.98145 366.118 8.98145C365.684 8.98145 365.226 9.05697 364.745 9.20801C364.273 9.35905 363.758 9.59977 363.201 9.93018L362.508 8.2876C363.093 7.90999 363.716 7.63151 364.377 7.45215C365.047 7.26335 365.736 7.16895 366.444 7.16895ZM368.299 15.2402L366.855 15.3394C365.76 15.4054 364.943 15.717 364.405 16.2739C363.876 16.8215 363.612 17.6191 363.612 18.667C363.612 19.6393 363.787 20.3568 364.136 20.8193C364.485 21.2819 364.967 21.5132 365.58 21.5132C366.439 21.5132 367.105 21.0978 367.577 20.2671C368.058 19.4364 368.299 18.2894 368.299 16.8262V15.2402ZM378.577 21.3574C378.813 21.3574 379.049 21.3338 379.285 21.2866C379.521 21.23 379.748 21.1545 379.965 21.0601V22.8442C379.672 22.9764 379.356 23.0802 379.016 23.1558C378.676 23.2407 378.299 23.2832 377.883 23.2832C377.213 23.2832 376.661 23.1322 376.227 22.8301C375.802 22.528 375.486 22.0796 375.278 21.4849C375.08 20.8807 374.981 20.1255 374.981 19.2192V9.27881H373.536V8.08936L375.08 7.50879L375.66 3.92627H377.161V7.45215H379.795V9.27881H377.161V18.9644C377.161 19.7668 377.256 20.3662 377.444 20.7627C377.643 21.1592 378.02 21.3574 378.577 21.3574ZM387.284 7.19727C388.341 7.19727 389.209 7.50407 389.889 8.11768C390.578 8.73128 391.088 9.55729 391.418 10.5957C391.758 11.6341 391.928 12.7905 391.928 14.0649V15.6084H384.522C384.541 17.5436 384.839 18.9974 385.414 19.9697C386 20.9421 386.878 21.4282 388.048 21.4282C388.605 21.4282 389.153 21.3433 389.691 21.1733C390.229 21.0034 390.786 20.7297 391.362 20.3521V22.3062C390.824 22.6366 390.262 22.882 389.677 23.0425C389.091 23.203 388.468 23.2832 387.807 23.2832C386.514 23.2832 385.466 22.9386 384.664 22.2495C383.862 21.5509 383.276 20.6022 382.908 19.4033C382.549 18.195 382.37 16.8309 382.37 15.311C382.37 13.5741 382.554 12.1014 382.922 10.8931C383.29 9.68473 383.838 8.76904 384.565 8.146C385.301 7.51351 386.207 7.19727 387.284 7.19727ZM387.284 8.98145C386.462 8.98145 385.82 9.38265 385.358 10.1851C384.895 10.978 384.626 12.2052 384.551 13.8667H389.889C389.889 12.9888 389.795 12.1816 389.606 11.4453C389.426 10.6995 389.143 10.1048 388.756 9.66113C388.379 9.20801 387.888 8.98145 387.284 8.98145ZM402.645 18.8936C402.645 19.8281 402.475 20.6258 402.135 21.2866C401.796 21.938 401.3 22.4336 400.649 22.7734C400.007 23.1133 399.223 23.2832 398.298 23.2832C397.581 23.2832 396.924 23.1982 396.33 23.0283C395.735 22.8584 395.23 22.6554 394.815 22.4194V20.1538C395.23 20.4937 395.744 20.7769 396.358 21.0034C396.972 21.2205 397.595 21.3291 398.227 21.3291C398.954 21.3291 399.511 21.1214 399.898 20.7061C400.295 20.2907 400.493 19.7101 400.493 18.9644C400.493 18.5207 400.413 18.1383 400.252 17.8174C400.092 17.487 399.832 17.1755 399.473 16.8828C399.124 16.5807 398.661 16.2645 398.086 15.9341C397.444 15.5376 396.873 15.127 396.372 14.7021C395.881 14.2773 395.499 13.7912 395.225 13.2437C394.951 12.6867 394.815 12.0117 394.815 11.2188C394.815 10.0104 395.206 9.03337 395.99 8.2876C396.783 7.54183 397.826 7.16895 399.119 7.16895C399.771 7.16895 400.384 7.25391 400.96 7.42383C401.545 7.58431 402.098 7.82975 402.617 8.16016L401.796 9.91602C401.399 9.64225 400.974 9.42513 400.521 9.26465C400.077 9.10417 399.62 9.02393 399.148 9.02393C398.458 9.02393 397.911 9.21745 397.505 9.60449C397.109 9.99154 396.91 10.5107 396.91 11.1621C396.91 11.5964 396.991 11.9692 397.151 12.2808C397.311 12.5923 397.576 12.8944 397.944 13.187C398.312 13.4797 398.798 13.8101 399.402 14.1782C400.044 14.5841 400.606 14.9995 401.088 15.4243C401.578 15.8397 401.961 16.3211 402.234 16.8687C402.508 17.4162 402.645 18.0911 402.645 18.8936ZM421.46 23L419.591 13.3569C419.543 13.0926 419.496 12.8188 419.449 12.5356C419.402 12.2524 419.355 11.9692 419.307 11.686C419.27 11.4028 419.232 11.1243 419.194 10.8506C419.156 10.5674 419.119 10.2936 419.081 10.0293H419.01C418.972 10.3031 418.93 10.5863 418.883 10.8789C418.845 11.1621 418.802 11.4453 418.755 11.7285C418.717 12.0117 418.675 12.2902 418.628 12.564C418.58 12.8377 418.533 13.1021 418.486 13.3569L416.504 23H414.011L410.655 7.45215H412.836L414.493 15.5518C414.587 16.0615 414.682 16.5854 414.776 17.1235C414.87 17.6522 414.96 18.1855 415.045 18.7236C415.13 19.2523 415.21 19.7809 415.286 20.3096H415.371C415.418 19.9792 415.465 19.6346 415.512 19.2759C415.569 18.9077 415.626 18.5301 415.682 18.1431C415.748 17.7466 415.819 17.3407 415.895 16.9253C415.97 16.5005 416.055 16.071 416.15 15.6367L417.835 7.45215H420.256L421.927 15.6792C422.012 16.0379 422.092 16.4533 422.168 16.9253C422.253 17.3973 422.338 17.9165 422.423 18.4829C422.508 19.0493 422.597 19.6582 422.692 20.3096H422.777C422.805 20.0264 422.843 19.7196 422.89 19.3892C422.937 19.0588 422.994 18.7 423.06 18.313C423.126 17.9165 423.201 17.4964 423.286 17.0527L425.269 7.45215H427.393L423.966 23H421.46ZM432.46 7.45215V23H430.293V7.45215H432.46ZM431.412 1.61816C431.856 1.61816 432.177 1.75977 432.375 2.04297C432.583 2.32617 432.686 2.71794 432.686 3.21826C432.686 3.70915 432.578 4.09619 432.361 4.37939C432.144 4.6626 431.827 4.8042 431.412 4.8042C431.006 4.8042 430.685 4.6626 430.449 4.37939C430.213 4.09619 430.095 3.70915 430.095 3.21826C430.095 2.69906 430.208 2.30257 430.435 2.02881C430.662 1.75505 430.987 1.61816 431.412 1.61816ZM440.642 21.3574C440.878 21.3574 441.114 21.3338 441.35 21.2866C441.586 21.23 441.813 21.1545 442.03 21.0601V22.8442C441.737 22.9764 441.421 23.0802 441.081 23.1558C440.741 23.2407 440.364 23.2832 439.948 23.2832C439.278 23.2832 438.726 23.1322 438.292 22.8301C437.867 22.528 437.551 22.0796 437.343 21.4849C437.145 20.8807 437.046 20.1255 437.046 19.2192V9.27881H435.601V8.08936L437.145 7.50879L437.725 3.92627H439.226V7.45215H441.86V9.27881H439.226V18.9644C439.226 19.7668 439.321 20.3662 439.509 20.7627C439.708 21.1592 440.085 21.3574 440.642 21.3574ZM447.253 0.966797V7.36719C447.253 7.78255 447.239 8.18376 447.21 8.5708C447.192 8.9484 447.154 9.30713 447.097 9.64697H447.253C447.442 9.13721 447.701 8.69824 448.032 8.33008C448.372 7.96191 448.763 7.67871 449.207 7.48047C449.651 7.27279 450.127 7.16895 450.637 7.16895C451.506 7.16895 452.218 7.37191 452.775 7.77783C453.332 8.17432 453.743 8.76432 454.007 9.54785C454.272 10.3219 454.404 11.2848 454.404 12.4365V23H452.223V12.8613C452.223 11.5208 452.063 10.5627 451.742 9.98682C451.421 9.41097 450.902 9.12305 450.184 9.12305C449.523 9.12305 448.976 9.32601 448.542 9.73193C448.107 10.1379 447.782 10.7656 447.564 11.6152C447.357 12.4554 447.253 13.5363 447.253 14.8579V23H445.072V0.966797H447.253ZM463.25 7.45215H465.501L467.696 16.543C467.781 16.9395 467.861 17.3265 467.937 17.7041C468.022 18.0817 468.097 18.4593 468.163 18.8369C468.239 19.2051 468.3 19.578 468.347 19.9556H468.461C468.536 19.408 468.63 18.8558 468.744 18.2988C468.857 17.7324 468.989 17.1424 469.14 16.5288L471.278 7.45215H473.516L468.899 25.4922C468.626 26.5306 468.305 27.3802 467.937 28.041C467.568 28.7018 467.134 29.188 466.634 29.4995C466.143 29.811 465.558 29.9668 464.878 29.9668C464.651 29.9668 464.425 29.9432 464.198 29.896C463.972 29.8488 463.731 29.7922 463.476 29.7261V27.7861C463.655 27.8522 463.84 27.9041 464.028 27.9419C464.227 27.9797 464.415 27.9985 464.595 27.9985C464.954 27.9985 465.26 27.9041 465.515 27.7153C465.77 27.536 465.997 27.2339 466.195 26.8091C466.393 26.3843 466.587 25.8037 466.775 25.0674L467.328 22.8867L463.25 7.45215ZM485.904 15.2119C485.904 16.4391 485.8 17.5483 485.592 18.5396C485.384 19.5308 485.068 20.3804 484.643 21.0884C484.219 21.7964 483.681 22.3392 483.029 22.7168C482.378 23.0944 481.608 23.2832 480.721 23.2832C479.871 23.2832 479.126 23.0944 478.484 22.7168C477.842 22.3392 477.308 21.8011 476.884 21.1025C476.459 20.3945 476.138 19.5449 475.921 18.5537C475.704 17.5531 475.595 16.4391 475.595 15.2119C475.595 13.4938 475.779 12.04 476.147 10.8506C476.515 9.65169 477.082 8.74072 477.847 8.11768C478.611 7.48519 479.584 7.16895 480.764 7.16895C481.868 7.16895 482.803 7.47575 483.567 8.08936C484.332 8.69352 484.912 9.59505 485.309 10.7939C485.705 11.9834 485.904 13.4561 485.904 15.2119ZM477.818 15.2119C477.818 16.5618 477.922 17.6947 478.13 18.6104C478.337 19.526 478.658 20.2152 479.093 20.6777C479.536 21.1403 480.098 21.3716 480.778 21.3716C481.448 21.3716 481.995 21.145 482.42 20.6919C482.855 20.2388 483.175 19.5591 483.383 18.6528C483.591 17.7371 483.695 16.5902 483.695 15.2119C483.695 13.862 483.591 12.7339 483.383 11.8276C483.175 10.9119 482.855 10.2275 482.42 9.77441C481.995 9.31185 481.443 9.08057 480.764 9.08057C479.725 9.08057 478.975 9.59505 478.512 10.624C478.049 11.6436 477.818 13.1729 477.818 15.2119ZM499.028 7.45215V23H497.286L497.046 20.791H496.89C496.682 21.3008 496.408 21.7445 496.068 22.1221C495.738 22.4902 495.356 22.7782 494.922 22.9858C494.487 23.1841 494.001 23.2832 493.463 23.2832C492.557 23.2832 491.825 23.0566 491.268 22.6035C490.721 22.1504 490.319 21.5037 490.065 20.6636C489.819 19.8234 489.696 18.8228 489.696 17.6616V7.45215H491.877V17.251C491.877 18.6481 492.038 19.6771 492.359 20.3379C492.689 20.9987 493.189 21.3291 493.859 21.3291C494.586 21.3291 495.167 21.1309 495.601 20.7344C496.035 20.3285 496.352 19.7196 496.55 18.9077C496.748 18.0864 496.847 17.048 496.847 15.7925V7.45215H499.028ZM508.754 7.18311C508.971 7.18311 509.188 7.20199 509.405 7.23975C509.622 7.26807 509.849 7.31999 510.085 7.39551L509.745 9.63281C509.575 9.55729 509.396 9.50537 509.207 9.47705C509.018 9.44873 508.815 9.43457 508.598 9.43457C508.173 9.43457 507.781 9.57617 507.423 9.85938C507.073 10.1331 506.771 10.5202 506.516 11.0205C506.262 11.5208 506.063 12.1014 505.922 12.7622C505.79 13.423 505.728 14.1357 505.738 14.9004V23H503.557V7.45215H505.256L505.554 10.2134H505.695C505.912 9.61865 506.167 9.09473 506.46 8.6416C506.752 8.18848 507.088 7.83447 507.465 7.57959C507.852 7.31527 508.282 7.18311 508.754 7.18311ZM522.726 21.3574C522.962 21.3574 523.198 21.3338 523.434 21.2866C523.67 21.23 523.896 21.1545 524.113 21.0601V22.8442C523.821 22.9764 523.504 23.0802 523.165 23.1558C522.825 23.2407 522.447 23.2832 522.032 23.2832C521.361 23.2832 520.809 23.1322 520.375 22.8301C519.95 22.528 519.634 22.0796 519.426 21.4849C519.228 20.8807 519.129 20.1255 519.129 19.2192V9.27881H517.685V8.08936L519.228 7.50879L519.809 3.92627H521.31V7.45215H523.943V9.27881H521.31V18.9644C521.31 19.7668 521.404 20.3662 521.593 20.7627C521.791 21.1592 522.169 21.3574 522.726 21.3574ZM531.432 7.19727C532.489 7.19727 533.358 7.50407 534.037 8.11768C534.726 8.73128 535.236 9.55729 535.567 10.5957C535.906 11.6341 536.076 12.7905 536.076 14.0649V15.6084H528.671C528.69 17.5436 528.987 18.9974 529.563 19.9697C530.148 20.9421 531.026 21.4282 532.197 21.4282C532.753 21.4282 533.301 21.3433 533.839 21.1733C534.377 21.0034 534.934 20.7297 535.51 20.3521V22.3062C534.972 22.6366 534.41 22.882 533.825 23.0425C533.24 23.203 532.617 23.2832 531.956 23.2832C530.663 23.2832 529.615 22.9386 528.812 22.2495C528.01 21.5509 527.425 20.6022 527.056 19.4033C526.698 18.195 526.518 16.8309 526.518 15.311C526.518 13.5741 526.702 12.1014 527.071 10.8931C527.439 9.68473 527.986 8.76904 528.713 8.146C529.449 7.51351 530.356 7.19727 531.432 7.19727ZM531.432 8.98145C530.611 8.98145 529.969 9.38265 529.506 10.1851C529.044 10.978 528.774 12.2052 528.699 13.8667H534.037C534.037 12.9888 533.943 12.1816 533.754 11.4453C533.575 10.6995 533.292 10.1048 532.905 9.66113C532.527 9.20801 532.036 8.98145 531.432 8.98145ZM544.046 7.16895C545.481 7.16895 546.506 7.62679 547.119 8.54248C547.733 9.45817 548.04 10.7845 548.04 12.5215V23H546.383L546.057 20.791H546.001C545.755 21.3197 545.462 21.7728 545.123 22.1504C544.783 22.5186 544.396 22.8018 543.961 23C543.527 23.1888 543.027 23.2832 542.461 23.2832C541.658 23.2832 541.002 23.0708 540.492 22.646C539.982 22.2212 539.605 21.6642 539.359 20.9751C539.114 20.2765 538.991 19.526 538.991 18.7236C538.991 17.1849 539.435 15.9907 540.322 15.1411C541.21 14.2915 542.47 13.8289 544.103 13.7534L545.873 13.6401V12.5781C545.873 11.332 545.703 10.4211 545.363 9.84521C545.023 9.26937 544.476 8.98145 543.721 8.98145C543.287 8.98145 542.829 9.05697 542.347 9.20801C541.875 9.35905 541.361 9.59977 540.804 9.93018L540.11 8.2876C540.695 7.90999 541.318 7.63151 541.979 7.45215C542.649 7.26335 543.338 7.16895 544.046 7.16895ZM545.901 15.2402L544.457 15.3394C543.362 15.4054 542.545 15.717 542.007 16.2739C541.479 16.8215 541.214 17.6191 541.214 18.667C541.214 19.6393 541.389 20.3568 541.738 20.8193C542.088 21.2819 542.569 21.5132 543.183 21.5132C544.042 21.5132 544.707 21.0978 545.179 20.2671C545.661 19.4364 545.901 18.2894 545.901 16.8262V15.2402ZM564.732 7.16895C565.95 7.16895 566.852 7.61263 567.437 8.5C568.032 9.37793 568.329 10.7184 568.329 12.5215V23H566.148V12.9038C566.148 11.5444 565.974 10.5721 565.624 9.98682C565.284 9.39209 564.789 9.09473 564.138 9.09473C563.194 9.09473 562.519 9.53841 562.113 10.4258C561.707 11.3132 561.504 12.597 561.504 14.2773V23H559.351V12.8755C559.351 11.9504 559.276 11.214 559.125 10.6665C558.974 10.1095 558.747 9.70833 558.445 9.46289C558.152 9.21745 557.78 9.09473 557.326 9.09473C556.628 9.09473 556.09 9.33545 555.712 9.81689C555.335 10.2983 555.07 10.9591 554.919 11.7993C554.778 12.6395 554.707 13.5977 554.707 14.6738V23H552.526V7.45215H554.268L554.523 9.66113H554.65C554.848 9.13249 555.103 8.68408 555.415 8.31592C555.726 7.94775 556.095 7.66455 556.519 7.46631C556.954 7.26807 557.44 7.16895 557.978 7.16895C558.875 7.16895 559.578 7.41439 560.088 7.90527C560.607 8.38672 560.951 8.99561 561.121 9.73193H561.277C561.636 8.86344 562.084 8.22152 562.622 7.80615C563.16 7.38135 563.864 7.16895 564.732 7.16895ZM582.541 21.3574C582.777 21.3574 583.013 21.3338 583.249 21.2866C583.485 21.23 583.712 21.1545 583.929 21.0601V22.8442C583.636 22.9764 583.32 23.0802 582.98 23.1558C582.641 23.2407 582.263 23.2832 581.848 23.2832C581.177 23.2832 580.625 23.1322 580.191 22.8301C579.766 22.528 579.45 22.0796 579.242 21.4849C579.044 20.8807 578.945 20.1255 578.945 19.2192V9.27881H577.5V8.08936L579.044 7.50879L579.624 3.92627H581.125V7.45215H583.759V9.27881H581.125V18.9644C581.125 19.7668 581.22 20.3662 581.409 20.7627C581.607 21.1592 581.984 21.3574 582.541 21.3574ZM589.152 0.966797V7.36719C589.152 7.78255 589.138 8.18376 589.109 8.5708C589.091 8.9484 589.053 9.30713 588.996 9.64697H589.152C589.341 9.13721 589.6 8.69824 589.931 8.33008C590.271 7.96191 590.662 7.67871 591.106 7.48047C591.55 7.27279 592.026 7.16895 592.536 7.16895C593.405 7.16895 594.117 7.37191 594.674 7.77783C595.231 8.17432 595.642 8.76432 595.906 9.54785C596.171 10.3219 596.303 11.2848 596.303 12.4365V23H594.122V12.8613C594.122 11.5208 593.962 10.5627 593.641 9.98682C593.32 9.41097 592.801 9.12305 592.083 9.12305C591.422 9.12305 590.875 9.32601 590.441 9.73193C590.006 10.1379 589.681 10.7656 589.464 11.6152C589.256 12.4554 589.152 13.5363 589.152 14.8579V23H586.971V0.966797H589.152ZM605.972 7.18311C606.189 7.18311 606.406 7.20199 606.623 7.23975C606.841 7.26807 607.067 7.31999 607.303 7.39551L606.963 9.63281C606.793 9.55729 606.614 9.50537 606.425 9.47705C606.236 9.44873 606.033 9.43457 605.816 9.43457C605.392 9.43457 605 9.57617 604.641 9.85938C604.292 10.1331 603.99 10.5202 603.735 11.0205C603.48 11.5208 603.282 12.1014 603.14 12.7622C603.008 13.423 602.947 14.1357 602.956 14.9004V23H600.775V7.45215H602.475L602.772 10.2134H602.914C603.131 9.61865 603.386 9.09473 603.678 8.6416C603.971 8.18848 604.306 7.83447 604.684 7.57959C605.071 7.31527 605.5 7.18311 605.972 7.18311ZM619.833 15.2119C619.833 16.4391 619.729 17.5483 619.521 18.5396C619.313 19.5308 618.997 20.3804 618.572 21.0884C618.148 21.7964 617.61 22.3392 616.958 22.7168C616.307 23.0944 615.537 23.2832 614.65 23.2832C613.8 23.2832 613.055 23.0944 612.413 22.7168C611.771 22.3392 611.237 21.8011 610.813 21.1025C610.388 20.3945 610.067 19.5449 609.85 18.5537C609.633 17.5531 609.524 16.4391 609.524 15.2119C609.524 13.4938 609.708 12.04 610.076 10.8506C610.445 9.65169 611.011 8.74072 611.776 8.11768C612.54 7.48519 613.513 7.16895 614.693 7.16895C615.797 7.16895 616.732 7.47575 617.496 8.08936C618.261 8.69352 618.841 9.59505 619.238 10.7939C619.634 11.9834 619.833 13.4561 619.833 15.2119ZM611.747 15.2119C611.747 16.5618 611.851 17.6947 612.059 18.6104C612.266 19.526 612.587 20.2152 613.022 20.6777C613.465 21.1403 614.027 21.3716 614.707 21.3716C615.377 21.3716 615.924 21.145 616.349 20.6919C616.784 20.2388 617.105 19.5591 617.312 18.6528C617.52 17.7371 617.624 16.5902 617.624 15.2119C617.624 13.862 617.52 12.7339 617.312 11.8276C617.105 10.9119 616.784 10.2275 616.349 9.77441C615.924 9.31185 615.372 9.08057 614.693 9.08057C613.654 9.08057 612.904 9.59505 612.441 10.624C611.979 11.6436 611.747 13.1729 611.747 15.2119ZM632.957 7.45215V23H631.215L630.975 20.791H630.819C630.611 21.3008 630.337 21.7445 629.998 22.1221C629.667 22.4902 629.285 22.7782 628.851 22.9858C628.416 23.1841 627.93 23.2832 627.392 23.2832C626.486 23.2832 625.754 23.0566 625.197 22.6035C624.65 22.1504 624.249 21.5037 623.994 20.6636C623.748 19.8234 623.625 18.8228 623.625 17.6616V7.45215H625.806V17.251C625.806 18.6481 625.967 19.6771 626.288 20.3379C626.618 20.9987 627.118 21.3291 627.789 21.3291C628.515 21.3291 629.096 21.1309 629.53 20.7344C629.965 20.3285 630.281 19.7196 630.479 18.9077C630.677 18.0864 630.776 17.048 630.776 15.7925V7.45215H632.957ZM640.559 29.9668C639.077 29.9668 637.911 29.5892 637.061 28.834C636.212 28.0788 635.787 27.0215 635.787 25.6621C635.787 24.5954 636.042 23.7222 636.552 23.0425C637.061 22.3628 637.717 21.9097 638.52 21.6831C638.123 21.4943 637.798 21.2111 637.543 20.8335C637.297 20.4559 637.175 20.0075 637.175 19.4883C637.175 18.9596 637.297 18.4782 637.543 18.0439C637.798 17.6097 638.152 17.1943 638.605 16.7979C638.001 16.4391 637.524 15.8633 637.175 15.0703C636.825 14.2773 636.651 13.3664 636.651 12.3374C636.651 11.2801 636.821 10.3691 637.16 9.60449C637.51 8.8304 638.01 8.23096 638.661 7.80615C639.313 7.38135 640.092 7.16895 640.998 7.16895C641.281 7.16895 641.531 7.18311 641.748 7.21143C641.965 7.23975 642.159 7.27751 642.329 7.32471C642.499 7.37191 642.65 7.42855 642.782 7.49463H646.634V8.89648L644.552 9.15137C644.816 9.57617 645.01 10.0623 645.133 10.6099C645.255 11.1479 645.317 11.6955 645.317 12.2524C645.317 13.8478 644.939 15.1034 644.184 16.019C643.429 16.9253 642.362 17.3784 640.984 17.3784C640.559 17.3784 640.219 17.3359 639.964 17.251C639.709 17.487 639.483 17.756 639.284 18.0581C639.096 18.3602 639.001 18.7331 639.001 19.1768C639.001 19.4505 639.063 19.6912 639.185 19.8989C639.317 20.1066 639.506 20.2671 639.752 20.3804C639.997 20.4937 640.299 20.5503 640.658 20.5503H642.895C644.056 20.5503 644.948 20.8854 645.572 21.5557C646.204 22.2259 646.52 23.2454 646.52 24.6143C646.52 26.3135 646.006 27.6304 644.977 28.5649C643.957 29.4995 642.485 29.9668 640.559 29.9668ZM640.729 28.2393C641.55 28.2393 642.234 28.1118 642.782 27.8569C643.339 27.6115 643.754 27.2339 644.028 26.7241C644.311 26.2144 644.453 25.5819 644.453 24.8267C644.453 24.2131 644.354 23.741 644.156 23.4106C643.967 23.0802 643.693 22.8537 643.334 22.731C642.976 22.6082 642.546 22.5469 642.046 22.5469H640.191C639.756 22.5469 639.36 22.646 639.001 22.8442C638.652 23.033 638.373 23.3398 638.166 23.7646C637.958 24.1895 637.854 24.7559 637.854 25.4639C637.854 26.3796 638.109 27.0687 638.619 27.5312C639.138 28.0033 639.841 28.2393 640.729 28.2393ZM640.998 15.7642C641.677 15.7642 642.201 15.4715 642.57 14.8862C642.947 14.3009 643.136 13.4419 643.136 12.3091C643.136 11.1196 642.942 10.2323 642.555 9.64697C642.178 9.06169 641.649 8.76904 640.969 8.76904C640.309 8.76904 639.789 9.08529 639.412 9.71777C639.034 10.3408 638.845 11.2188 638.845 12.3516C638.845 13.4372 639.025 14.2773 639.384 14.8721C639.742 15.4668 640.28 15.7642 640.998 15.7642ZM651.573 0.966797V7.36719C651.573 7.78255 651.559 8.18376 651.531 8.5708C651.512 8.9484 651.474 9.30713 651.418 9.64697H651.573C651.762 9.13721 652.022 8.69824 652.352 8.33008C652.692 7.96191 653.084 7.67871 653.527 7.48047C653.971 7.27279 654.448 7.16895 654.958 7.16895C655.826 7.16895 656.539 7.37191 657.096 7.77783C657.653 8.17432 658.063 8.76432 658.328 9.54785C658.592 10.3219 658.724 11.2848 658.724 12.4365V23H656.544V12.8613C656.544 11.5208 656.383 10.5627 656.062 9.98682C655.741 9.41097 655.222 9.12305 654.504 9.12305C653.844 9.12305 653.296 9.32601 652.862 9.73193C652.428 10.1379 652.102 10.7656 651.885 11.6152C651.677 12.4554 651.573 13.5363 651.573 14.8579V23H649.393V0.966797H651.573ZM672.84 15.2119C672.84 16.4391 672.736 17.5483 672.528 18.5396C672.32 19.5308 672.004 20.3804 671.579 21.0884C671.155 21.7964 670.617 22.3392 669.965 22.7168C669.314 23.0944 668.544 23.2832 667.657 23.2832C666.807 23.2832 666.062 23.0944 665.42 22.7168C664.778 22.3392 664.244 21.8011 663.82 21.1025C663.395 20.3945 663.074 19.5449 662.857 18.5537C662.64 17.5531 662.531 16.4391 662.531 15.2119C662.531 13.4938 662.715 12.04 663.083 10.8506C663.451 9.65169 664.018 8.74072 664.783 8.11768C665.547 7.48519 666.52 7.16895 667.7 7.16895C668.804 7.16895 669.739 7.47575 670.503 8.08936C671.268 8.69352 671.848 9.59505 672.245 10.7939C672.641 11.9834 672.84 13.4561 672.84 15.2119ZM664.754 15.2119C664.754 16.5618 664.858 17.6947 665.066 18.6104C665.273 19.526 665.594 20.2152 666.029 20.6777C666.472 21.1403 667.034 21.3716 667.714 21.3716C668.384 21.3716 668.931 21.145 669.356 20.6919C669.791 20.2388 670.111 19.5591 670.319 18.6528C670.527 17.7371 670.631 16.5902 670.631 15.2119C670.631 13.862 670.527 12.7339 670.319 11.8276C670.111 10.9119 669.791 10.2275 669.356 9.77441C668.931 9.31185 668.379 9.08057 667.7 9.08057C666.661 9.08057 665.911 9.59505 665.448 10.624C664.985 11.6436 664.754 13.1729 664.754 15.2119ZM685.964 7.45215V23H684.222L683.982 20.791H683.826C683.618 21.3008 683.344 21.7445 683.005 22.1221C682.674 22.4902 682.292 22.7782 681.858 22.9858C681.423 23.1841 680.937 23.2832 680.399 23.2832C679.493 23.2832 678.761 23.0566 678.204 22.6035C677.657 22.1504 677.255 21.5037 677.001 20.6636C676.755 19.8234 676.632 18.8228 676.632 17.6616V7.45215H678.813V17.251C678.813 18.6481 678.974 19.6771 679.295 20.3379C679.625 20.9987 680.125 21.3291 680.796 21.3291C681.522 21.3291 682.103 21.1309 682.537 20.7344C682.971 20.3285 683.288 19.7196 683.486 18.9077C683.684 18.0864 683.783 17.048 683.783 15.7925V7.45215H685.964ZM694.146 21.3574C694.382 21.3574 694.618 21.3338 694.854 21.2866C695.09 21.23 695.317 21.1545 695.534 21.0601V22.8442C695.241 22.9764 694.925 23.0802 694.585 23.1558C694.245 23.2407 693.868 23.2832 693.453 23.2832C692.782 23.2832 692.23 23.1322 691.796 22.8301C691.371 22.528 691.055 22.0796 690.847 21.4849C690.649 20.8807 690.55 20.1255 690.55 19.2192V9.27881H689.105V8.08936L690.649 7.50879L691.229 3.92627H692.73V7.45215H695.364V9.27881H692.73V18.9644C692.73 19.7668 692.825 20.3662 693.014 20.7627C693.212 21.1592 693.589 21.3574 694.146 21.3574ZM180.562 54.3574C180.798 54.3574 181.034 54.3338 181.27 54.2866C181.506 54.23 181.733 54.1545 181.95 54.0601V55.8442C181.657 55.9764 181.341 56.0802 181.001 56.1558C180.661 56.2407 180.283 56.2832 179.868 56.2832C179.198 56.2832 178.646 56.1322 178.211 55.8301C177.787 55.528 177.47 55.0796 177.263 54.4849C177.064 53.8807 176.965 53.1255 176.965 52.2192V42.2788H175.521V41.0894L177.064 40.5088L177.645 36.9263H179.146V40.4521H181.78V42.2788H179.146V51.9644C179.146 52.7668 179.24 53.3662 179.429 53.7627C179.627 54.1592 180.005 54.3574 180.562 54.3574ZM187.173 33.9668V40.3672C187.173 40.7826 187.158 41.1838 187.13 41.5708C187.111 41.9484 187.073 42.3071 187.017 42.647H187.173C187.361 42.1372 187.621 41.6982 187.951 41.3301C188.291 40.9619 188.683 40.6787 189.127 40.4805C189.57 40.2728 190.047 40.1689 190.557 40.1689C191.425 40.1689 192.138 40.3719 192.695 40.7778C193.252 41.1743 193.663 41.7643 193.927 42.5479C194.191 43.3219 194.323 44.2848 194.323 45.4365V56H192.143V45.8613C192.143 44.5208 191.982 43.5627 191.661 42.9868C191.34 42.411 190.821 42.123 190.104 42.123C189.443 42.123 188.895 42.326 188.461 42.7319C188.027 43.1379 187.701 43.7656 187.484 44.6152C187.276 45.4554 187.173 46.5363 187.173 47.8579V56H184.992V33.9668H187.173ZM203.072 40.1973C204.13 40.1973 204.998 40.5041 205.678 41.1177C206.367 41.7313 206.877 42.5573 207.207 43.5957C207.547 44.6341 207.717 45.7905 207.717 47.0649V48.6084H200.311C200.33 50.5436 200.627 51.9974 201.203 52.9697C201.788 53.9421 202.666 54.4282 203.837 54.4282C204.394 54.4282 204.941 54.3433 205.479 54.1733C206.018 54.0034 206.575 53.7297 207.15 53.3521V55.3062C206.612 55.6366 206.051 55.882 205.465 56.0425C204.88 56.203 204.257 56.2832 203.596 56.2832C202.303 56.2832 201.255 55.9386 200.453 55.2495C199.65 54.5509 199.065 53.6022 198.697 52.4033C198.338 51.195 198.159 49.8309 198.159 48.311C198.159 46.5741 198.343 45.1014 198.711 43.8931C199.079 42.6847 199.627 41.769 200.354 41.146C201.09 40.5135 201.996 40.1973 203.072 40.1973ZM203.072 41.9814C202.251 41.9814 201.609 42.3826 201.146 43.1851C200.684 43.978 200.415 45.2052 200.339 46.8667H205.678C205.678 45.9888 205.583 45.1816 205.395 44.4453C205.215 43.6995 204.932 43.1048 204.545 42.6611C204.167 42.208 203.676 41.9814 203.072 41.9814ZM226.786 56L224.917 46.3569C224.87 46.0926 224.823 45.8188 224.775 45.5356C224.728 45.2524 224.681 44.9692 224.634 44.686C224.596 44.4028 224.558 44.1243 224.521 43.8506C224.483 43.5674 224.445 43.2936 224.407 43.0293H224.336C224.299 43.3031 224.256 43.5863 224.209 43.8789C224.171 44.1621 224.129 44.4453 224.082 44.7285C224.044 45.0117 224.001 45.2902 223.954 45.564C223.907 45.8377 223.86 46.1021 223.813 46.3569L221.83 56H219.338L215.982 40.4521H218.163L219.819 48.5518C219.914 49.0615 220.008 49.5854 220.103 50.1235C220.197 50.6522 220.287 51.1855 220.372 51.7236C220.457 52.2523 220.537 52.7809 220.612 53.3096H220.697C220.745 52.9792 220.792 52.6346 220.839 52.2759C220.896 51.9077 220.952 51.5301 221.009 51.1431C221.075 50.7466 221.146 50.3407 221.221 49.9253C221.297 49.5005 221.382 49.071 221.476 48.6367L223.161 40.4521H225.583L227.253 48.6792C227.338 49.0379 227.419 49.4533 227.494 49.9253C227.579 50.3973 227.664 50.9165 227.749 51.4829C227.834 52.0493 227.924 52.6582 228.018 53.3096H228.103C228.131 53.0264 228.169 52.7196 228.216 52.3892C228.264 52.0588 228.32 51.7 228.386 51.313C228.452 50.9165 228.528 50.4964 228.613 50.0527L230.595 40.4521H232.719L229.293 56H226.786ZM237.772 33.9668V40.3672C237.772 40.7826 237.758 41.1838 237.73 41.5708C237.711 41.9484 237.673 42.3071 237.617 42.647H237.772C237.961 42.1372 238.221 41.6982 238.551 41.3301C238.891 40.9619 239.283 40.6787 239.726 40.4805C240.17 40.2728 240.647 40.1689 241.157 40.1689C242.025 40.1689 242.738 40.3719 243.295 40.7778C243.852 41.1743 244.262 41.7643 244.527 42.5479C244.791 43.3219 244.923 44.2848 244.923 45.4365V56H242.743V45.8613C242.743 44.5208 242.582 43.5627 242.261 42.9868C241.94 42.411 241.421 42.123 240.703 42.123C240.043 42.123 239.495 42.326 239.061 42.7319C238.627 43.1379 238.301 43.7656 238.084 44.6152C237.876 45.4554 237.772 46.5363 237.772 47.8579V56H235.592V33.9668H237.772ZM259.039 48.2119C259.039 49.4391 258.935 50.5483 258.727 51.5396C258.519 52.5308 258.203 53.3804 257.778 54.0884C257.354 54.7964 256.816 55.3392 256.164 55.7168C255.513 56.0944 254.743 56.2832 253.856 56.2832C253.006 56.2832 252.261 56.0944 251.619 55.7168C250.977 55.3392 250.443 54.8011 250.019 54.1025C249.594 53.3945 249.273 52.5449 249.056 51.5537C248.839 50.5531 248.73 49.4391 248.73 48.2119C248.73 46.4938 248.914 45.04 249.282 43.8506C249.651 42.6517 250.217 41.7407 250.982 41.1177C251.746 40.4852 252.719 40.1689 253.899 40.1689C255.003 40.1689 255.938 40.4757 256.702 41.0894C257.467 41.6935 258.047 42.5951 258.444 43.7939C258.84 44.9834 259.039 46.4561 259.039 48.2119ZM250.953 48.2119C250.953 49.5618 251.057 50.6947 251.265 51.6104C251.472 52.526 251.793 53.2152 252.228 53.6777C252.671 54.1403 253.233 54.3716 253.913 54.3716C254.583 54.3716 255.13 54.145 255.555 53.6919C255.99 53.2388 256.311 52.5591 256.518 51.6528C256.726 50.7371 256.83 49.5902 256.83 48.2119C256.83 46.862 256.726 45.7339 256.518 44.8276C256.311 43.9119 255.99 43.2275 255.555 42.7744C255.13 42.3118 254.578 42.0806 253.899 42.0806C252.86 42.0806 252.11 42.5951 251.647 43.624C251.185 44.6436 250.953 46.1729 250.953 48.2119ZM265.069 56H262.888V33.9668H265.069V56ZM273.832 40.1973C274.889 40.1973 275.758 40.5041 276.437 41.1177C277.126 41.7313 277.636 42.5573 277.966 43.5957C278.306 44.6341 278.476 45.7905 278.476 47.0649V48.6084H271.07C271.089 50.5436 271.387 51.9974 271.963 52.9697C272.548 53.9421 273.426 54.4282 274.596 54.4282C275.153 54.4282 275.701 54.3433 276.239 54.1733C276.777 54.0034 277.334 53.7297 277.91 53.3521V55.3062C277.372 55.6366 276.81 55.882 276.225 56.0425C275.64 56.203 275.016 56.2832 274.356 56.2832C273.062 56.2832 272.015 55.9386 271.212 55.2495C270.41 54.5509 269.824 53.6022 269.456 52.4033C269.098 51.195 268.918 49.8309 268.918 48.311C268.918 46.5741 269.102 45.1014 269.47 43.8931C269.839 42.6847 270.386 41.769 271.113 41.146C271.849 40.5135 272.756 40.1973 273.832 40.1973ZM273.832 41.9814C273.01 41.9814 272.369 42.3826 271.906 43.1851C271.443 43.978 271.174 45.2052 271.099 46.8667H276.437C276.437 45.9888 276.343 45.1816 276.154 44.4453C275.975 43.6995 275.691 43.1048 275.304 42.6611C274.927 42.208 274.436 41.9814 273.832 41.9814ZM292.25 56.2832C290.768 56.2832 289.64 55.6035 288.865 54.2441C288.101 52.8753 287.719 50.8835 287.719 48.2686C287.719 45.6725 288.106 43.6759 288.88 42.2788C289.654 40.8722 290.753 40.1689 292.179 40.1689C292.679 40.1689 293.151 40.2681 293.595 40.4663C294.039 40.6551 294.435 40.9289 294.784 41.2876C295.143 41.6369 295.445 42.0617 295.691 42.562H295.79C295.771 42.1278 295.752 41.7407 295.733 41.4009C295.724 41.0516 295.719 40.7259 295.719 40.4238V33.9668H297.885V56H296.144L295.846 53.9043H295.719C295.455 54.3952 295.153 54.82 294.813 55.1787C294.482 55.5374 294.105 55.8112 293.68 56C293.265 56.1888 292.788 56.2832 292.25 56.2832ZM292.731 54.4282C293.713 54.4282 294.454 53.9704 294.954 53.0547C295.464 52.139 295.719 50.7843 295.719 48.9907V47.9287C295.719 45.9557 295.474 44.4925 294.983 43.5391C294.501 42.5856 293.741 42.1089 292.703 42.1089C291.759 42.1089 291.06 42.6375 290.607 43.6948C290.163 44.7427 289.942 46.2673 289.942 48.2686C289.942 50.2887 290.163 51.8228 290.607 52.8706C291.06 53.909 291.768 54.4282 292.731 54.4282ZM306.663 40.1973C307.72 40.1973 308.588 40.5041 309.268 41.1177C309.957 41.7313 310.467 42.5573 310.797 43.5957C311.137 44.6341 311.307 45.7905 311.307 47.0649V48.6084H303.901C303.92 50.5436 304.218 51.9974 304.793 52.9697C305.379 53.9421 306.257 54.4282 307.427 54.4282C307.984 54.4282 308.532 54.3433 309.07 54.1733C309.608 54.0034 310.165 53.7297 310.741 53.3521V55.3062C310.203 55.6366 309.641 55.882 309.056 56.0425C308.47 56.203 307.847 56.2832 307.187 56.2832C305.893 56.2832 304.845 55.9386 304.043 55.2495C303.241 54.5509 302.655 53.6022 302.287 52.4033C301.928 51.195 301.749 49.8309 301.749 48.311C301.749 46.5741 301.933 45.1014 302.301 43.8931C302.669 42.6847 303.217 41.769 303.944 41.146C304.68 40.5135 305.586 40.1973 306.663 40.1973ZM306.663 41.9814C305.841 41.9814 305.199 42.3826 304.737 43.1851C304.274 43.978 304.005 45.2052 303.93 46.8667H309.268C309.268 45.9888 309.174 45.1816 308.985 44.4453C308.806 43.6995 308.522 43.1048 308.135 42.6611C307.758 42.208 307.267 41.9814 306.663 41.9814ZM317.224 56L313.33 40.4521H315.567L317.705 49.897C317.838 50.4634 317.956 51.0439 318.059 51.6387C318.173 52.2334 318.277 52.8517 318.371 53.4937H318.484C318.531 53.1255 318.602 52.6818 318.697 52.1626C318.791 51.6434 318.914 51.0675 319.065 50.4351L321.359 40.4521H323.596L319.645 56H317.224ZM330.617 40.1973C331.675 40.1973 332.543 40.5041 333.223 41.1177C333.912 41.7313 334.422 42.5573 334.752 43.5957C335.092 44.6341 335.262 45.7905 335.262 47.0649V48.6084H327.856C327.875 50.5436 328.172 51.9974 328.748 52.9697C329.333 53.9421 330.211 54.4282 331.382 54.4282C331.939 54.4282 332.486 54.3433 333.024 54.1733C333.563 54.0034 334.12 53.7297 334.695 53.3521V55.3062C334.157 55.6366 333.596 55.882 333.01 56.0425C332.425 56.203 331.802 56.2832 331.141 56.2832C329.848 56.2832 328.8 55.9386 327.998 55.2495C327.195 54.5509 326.61 53.6022 326.242 52.4033C325.883 51.195 325.704 49.8309 325.704 48.311C325.704 46.5741 325.888 45.1014 326.256 43.8931C326.624 42.6847 327.172 41.769 327.898 41.146C328.635 40.5135 329.541 40.1973 330.617 40.1973ZM330.617 41.9814C329.796 41.9814 329.154 42.3826 328.691 43.1851C328.229 43.978 327.96 45.2052 327.884 46.8667H333.223C333.223 45.9888 333.128 45.1816 332.94 44.4453C332.76 43.6995 332.477 43.1048 332.09 42.6611C331.712 42.208 331.221 41.9814 330.617 41.9814ZM341.249 56H339.069V33.9668H341.249V56ZM355.379 48.2119C355.379 49.4391 355.275 50.5483 355.068 51.5396C354.86 52.5308 354.544 53.3804 354.119 54.0884C353.694 54.7964 353.156 55.3392 352.505 55.7168C351.853 56.0944 351.084 56.2832 350.196 56.2832C349.347 56.2832 348.601 56.0944 347.959 55.7168C347.317 55.3392 346.784 54.8011 346.359 54.1025C345.934 53.3945 345.613 52.5449 345.396 51.5537C345.179 50.5531 345.07 49.4391 345.07 48.2119C345.07 46.4938 345.255 45.04 345.623 43.8506C345.991 42.6517 346.557 41.7407 347.322 41.1177C348.087 40.4852 349.059 40.1689 350.239 40.1689C351.343 40.1689 352.278 40.4757 353.043 41.0894C353.807 41.6935 354.388 42.5951 354.784 43.7939C355.181 44.9834 355.379 46.4561 355.379 48.2119ZM347.294 48.2119C347.294 49.5618 347.397 50.6947 347.605 51.6104C347.813 52.526 348.134 53.2152 348.568 53.6777C349.012 54.1403 349.573 54.3716 350.253 54.3716C350.923 54.3716 351.471 54.145 351.896 53.6919C352.33 53.2388 352.651 52.5591 352.859 51.6528C353.066 50.7371 353.17 49.5902 353.17 48.2119C353.17 46.862 353.066 45.7339 352.859 44.8276C352.651 43.9119 352.33 43.2275 351.896 42.7744C351.471 42.3118 350.919 42.0806 350.239 42.0806C349.2 42.0806 348.45 42.5951 347.987 43.624C347.525 44.6436 347.294 46.1729 347.294 48.2119ZM364.85 40.1689C366.342 40.1689 367.47 40.8392 368.234 42.1797C369.008 43.5107 369.395 45.5168 369.395 48.1978C369.395 49.9253 369.221 51.3932 368.872 52.6016C368.532 53.8005 368.031 54.7161 367.371 55.3486C366.71 55.9717 365.907 56.2832 364.963 56.2832C364.435 56.2832 363.944 56.1841 363.491 55.9858C363.038 55.7782 362.636 55.4902 362.287 55.1221C361.938 54.7445 361.645 54.3055 361.409 53.8052H361.31C361.329 54.1828 361.348 54.5462 361.367 54.8955C361.395 55.2448 361.409 55.5752 361.409 55.8867V62.9385H359.228V40.4521H360.998L361.268 42.7319H361.395C361.659 42.1561 361.961 41.6794 362.301 41.3018C362.65 40.9242 363.038 40.641 363.462 40.4521C363.887 40.2633 364.35 40.1689 364.85 40.1689ZM364.383 42.0522C363.722 42.0522 363.17 42.2599 362.726 42.6753C362.292 43.0907 361.961 43.7184 361.735 44.5586C361.518 45.3893 361.409 46.4372 361.409 47.7021V48.4526C361.409 49.7931 361.518 50.9023 361.735 51.7803C361.961 52.6582 362.296 53.3096 362.74 53.7344C363.193 54.1592 363.75 54.3716 364.411 54.3716C365.015 54.3716 365.52 54.1545 365.926 53.7202C366.342 53.286 366.653 52.6157 366.861 51.7095C367.068 50.8032 367.172 49.6421 367.172 48.2261C367.172 46.1776 366.955 44.6388 366.521 43.6099C366.096 42.5715 365.383 42.0522 364.383 42.0522ZM385.437 40.1689C386.654 40.1689 387.556 40.6126 388.141 41.5C388.736 42.3779 389.033 43.7184 389.033 45.5215V56H386.853V45.9038C386.853 44.5444 386.678 43.5721 386.329 42.9868C385.989 42.3921 385.493 42.0947 384.842 42.0947C383.898 42.0947 383.223 42.5384 382.817 43.4258C382.411 44.3132 382.208 45.597 382.208 47.2773V56H380.056V45.8755C380.056 44.9504 379.98 44.214 379.829 43.6665C379.678 43.1095 379.452 42.7083 379.15 42.4629C378.857 42.2174 378.484 42.0947 378.031 42.0947C377.332 42.0947 376.794 42.3354 376.417 42.8169C376.039 43.2983 375.775 43.9591 375.624 44.7993C375.482 45.6395 375.411 46.5977 375.411 47.6738V56H373.231V40.4521H374.972L375.227 42.6611H375.355C375.553 42.1325 375.808 41.6841 376.119 41.3159C376.431 40.9478 376.799 40.6646 377.224 40.4663C377.658 40.2681 378.144 40.1689 378.682 40.1689C379.579 40.1689 380.282 40.4144 380.792 40.9053C381.311 41.3867 381.656 41.9956 381.826 42.7319H381.982C382.34 41.8634 382.789 41.2215 383.327 40.8062C383.865 40.3813 384.568 40.1689 385.437 40.1689ZM397.768 40.1973C398.825 40.1973 399.694 40.5041 400.374 41.1177C401.063 41.7313 401.572 42.5573 401.903 43.5957C402.243 44.6341 402.413 45.7905 402.413 47.0649V48.6084H395.007C395.026 50.5436 395.323 51.9974 395.899 52.9697C396.484 53.9421 397.362 54.4282 398.533 54.4282C399.09 54.4282 399.637 54.3433 400.175 54.1733C400.713 54.0034 401.27 53.7297 401.846 53.3521V55.3062C401.308 55.6366 400.746 55.882 400.161 56.0425C399.576 56.203 398.953 56.2832 398.292 56.2832C396.999 56.2832 395.951 55.9386 395.148 55.2495C394.346 54.5509 393.761 53.6022 393.393 52.4033C393.034 51.195 392.854 49.8309 392.854 48.311C392.854 46.5741 393.039 45.1014 393.407 43.8931C393.775 42.6847 394.322 41.769 395.049 41.146C395.786 40.5135 396.692 40.1973 397.768 40.1973ZM397.768 41.9814C396.947 41.9814 396.305 42.3826 395.842 43.1851C395.38 43.978 395.111 45.2052 395.035 46.8667H400.374C400.374 45.9888 400.279 45.1816 400.09 44.4453C399.911 43.6995 399.628 43.1048 399.241 42.6611C398.863 42.208 398.372 41.9814 397.768 41.9814ZM411.813 40.1689C413.04 40.1689 413.97 40.5985 414.602 41.4575C415.235 42.3166 415.551 43.6335 415.551 45.4082V56H413.37V45.8472C413.37 44.5916 413.205 43.6523 412.875 43.0293C412.554 42.4062 412.044 42.0947 411.345 42.0947C410.326 42.0947 409.58 42.5479 409.108 43.4541C408.636 44.3604 408.4 45.8141 408.4 47.8154V56H406.219V40.4521H407.961L408.202 42.7036H408.344C408.561 42.1844 408.839 41.736 409.179 41.3584C409.519 40.9808 409.911 40.6882 410.354 40.4805C410.798 40.2728 411.284 40.1689 411.813 40.1689ZM423.677 54.3574C423.913 54.3574 424.149 54.3338 424.385 54.2866C424.621 54.23 424.847 54.1545 425.064 54.0601V55.8442C424.772 55.9764 424.456 56.0802 424.116 56.1558C423.776 56.2407 423.398 56.2832 422.983 56.2832C422.313 56.2832 421.76 56.1322 421.326 55.8301C420.901 55.528 420.585 55.0796 420.377 54.4849C420.179 53.8807 420.08 53.1255 420.08 52.2192V42.2788H418.636V41.0894L420.179 40.5088L420.76 36.9263H422.261V40.4521H424.895V42.2788H422.261V51.9644C422.261 52.7668 422.355 53.3662 422.544 53.7627C422.742 54.1592 423.12 54.3574 423.677 54.3574ZM439.829 40.1689C441.321 40.1689 442.449 40.8392 443.213 42.1797C443.988 43.5107 444.375 45.5168 444.375 48.1978C444.375 49.9253 444.2 51.3932 443.851 52.6016C443.511 53.8005 443.011 54.7161 442.35 55.3486C441.689 55.9717 440.886 56.2832 439.942 56.2832C439.414 56.2832 438.923 56.1841 438.47 55.9858C438.017 55.7782 437.615 55.4902 437.266 55.1221C436.917 54.7445 436.624 54.3055 436.388 53.8052H436.289C436.308 54.1828 436.327 54.5462 436.346 54.8955C436.374 55.2448 436.388 55.5752 436.388 55.8867V62.9385H434.208V40.4521H435.978L436.247 42.7319H436.374C436.638 42.1561 436.941 41.6794 437.28 41.3018C437.63 40.9242 438.017 40.641 438.441 40.4521C438.866 40.2633 439.329 40.1689 439.829 40.1689ZM439.362 42.0522C438.701 42.0522 438.149 42.2599 437.705 42.6753C437.271 43.0907 436.941 43.7184 436.714 44.5586C436.497 45.3893 436.388 46.4372 436.388 47.7021V48.4526C436.388 49.7931 436.497 50.9023 436.714 51.7803C436.941 52.6582 437.276 53.3096 437.719 53.7344C438.172 54.1592 438.729 54.3716 439.39 54.3716C439.994 54.3716 440.499 54.1545 440.905 53.7202C441.321 53.286 441.632 52.6157 441.84 51.7095C442.048 50.8032 442.151 49.6421 442.151 48.2261C442.151 46.1776 441.934 44.6388 441.5 43.6099C441.075 42.5715 440.363 42.0522 439.362 42.0522ZM453.407 40.1831C453.624 40.1831 453.841 40.202 454.058 40.2397C454.275 40.2681 454.502 40.32 454.738 40.3955L454.398 42.6328C454.228 42.5573 454.049 42.5054 453.86 42.4771C453.671 42.4487 453.468 42.4346 453.251 42.4346C452.826 42.4346 452.434 42.5762 452.076 42.8594C451.726 43.1331 451.424 43.5202 451.169 44.0205C450.914 44.5208 450.716 45.1014 450.575 45.7622C450.442 46.423 450.381 47.1357 450.391 47.9004V56H448.21V40.4521H449.909L450.206 43.2134H450.348C450.565 42.6187 450.82 42.0947 451.113 41.6416C451.405 41.1885 451.74 40.8345 452.118 40.5796C452.505 40.3153 452.935 40.1831 453.407 40.1831ZM467.267 48.2119C467.267 49.4391 467.163 50.5483 466.956 51.5396C466.748 52.5308 466.432 53.3804 466.007 54.0884C465.582 54.7964 465.044 55.3392 464.393 55.7168C463.741 56.0944 462.972 56.2832 462.085 56.2832C461.235 56.2832 460.489 56.0944 459.847 55.7168C459.205 55.3392 458.672 54.8011 458.247 54.1025C457.822 53.3945 457.501 52.5449 457.284 51.5537C457.067 50.5531 456.959 49.4391 456.959 48.2119C456.959 46.4938 457.143 45.04 457.511 43.8506C457.879 42.6517 458.445 41.7407 459.21 41.1177C459.975 40.4852 460.947 40.1689 462.127 40.1689C463.232 40.1689 464.166 40.4757 464.931 41.0894C465.695 41.6935 466.276 42.5951 466.673 43.7939C467.069 44.9834 467.267 46.4561 467.267 48.2119ZM459.182 48.2119C459.182 49.5618 459.286 50.6947 459.493 51.6104C459.701 52.526 460.022 53.2152 460.456 53.6777C460.9 54.1403 461.462 54.3716 462.141 54.3716C462.812 54.3716 463.359 54.145 463.784 53.6919C464.218 53.2388 464.539 52.5591 464.747 51.6528C464.954 50.7371 465.058 49.5902 465.058 48.2119C465.058 46.862 464.954 45.7339 464.747 44.8276C464.539 43.9119 464.218 43.2275 463.784 42.7744C463.359 42.3118 462.807 42.0806 462.127 42.0806C461.089 42.0806 460.338 42.5951 459.876 43.624C459.413 44.6436 459.182 46.1729 459.182 48.2119ZM475.605 56.2832C474.463 56.2832 473.51 55.9858 472.745 55.3911C471.99 54.7964 471.423 53.909 471.046 52.729C470.668 51.549 470.479 50.0858 470.479 48.3394C470.479 46.6307 470.668 45.1675 471.046 43.9497C471.433 42.7319 472.013 41.7974 472.788 41.146C473.562 40.4946 474.529 40.1689 475.69 40.1689C476.276 40.1689 476.8 40.2303 477.262 40.353C477.734 40.4757 478.173 40.6504 478.579 40.877L477.885 42.6753C477.536 42.4865 477.187 42.3449 476.837 42.2505C476.497 42.1561 476.162 42.1089 475.832 42.1089C475.152 42.1089 474.581 42.3449 474.119 42.8169C473.656 43.2795 473.302 43.9686 473.057 44.8843C472.821 45.8 472.703 46.9422 472.703 48.311C472.703 49.6421 472.816 50.756 473.042 51.6528C473.278 52.5496 473.628 53.2293 474.09 53.6919C474.562 54.145 475.148 54.3716 475.846 54.3716C476.261 54.3716 476.682 54.3149 477.106 54.2017C477.541 54.0789 477.975 53.9043 478.409 53.6777V55.5186C478.013 55.764 477.55 55.9528 477.021 56.085C476.502 56.2171 476.03 56.2832 475.605 56.2832ZM486.082 40.1973C487.139 40.1973 488.008 40.5041 488.687 41.1177C489.376 41.7313 489.886 42.5573 490.217 43.5957C490.556 44.6341 490.726 45.7905 490.726 47.0649V48.6084H483.321C483.339 50.5436 483.637 51.9974 484.213 52.9697C484.798 53.9421 485.676 54.4282 486.846 54.4282C487.403 54.4282 487.951 54.3433 488.489 54.1733C489.027 54.0034 489.584 53.7297 490.16 53.3521V55.3062C489.622 55.6366 489.06 55.882 488.475 56.0425C487.89 56.203 487.266 56.2832 486.606 56.2832C485.312 56.2832 484.265 55.9386 483.462 55.2495C482.66 54.5509 482.074 53.6022 481.706 52.4033C481.348 51.195 481.168 49.8309 481.168 48.311C481.168 46.5741 481.352 45.1014 481.72 43.8931C482.089 42.6847 482.636 41.769 483.363 41.146C484.099 40.5135 485.006 40.1973 486.082 40.1973ZM486.082 41.9814C485.26 41.9814 484.619 42.3826 484.156 43.1851C483.693 43.978 483.424 45.2052 483.349 46.8667H488.687C488.687 45.9888 488.593 45.1816 488.404 44.4453C488.225 43.6995 487.941 43.1048 487.554 42.6611C487.177 42.208 486.686 41.9814 486.082 41.9814ZM501.443 51.8936C501.443 52.8281 501.273 53.6258 500.934 54.2866C500.594 54.938 500.098 55.4336 499.447 55.7734C498.805 56.1133 498.021 56.2832 497.096 56.2832C496.379 56.2832 495.723 56.1982 495.128 56.0283C494.533 55.8584 494.028 55.6554 493.613 55.4194V53.1538C494.028 53.4937 494.543 53.7769 495.156 54.0034C495.77 54.2205 496.393 54.3291 497.025 54.3291C497.752 54.3291 498.309 54.1214 498.696 53.7061C499.093 53.2907 499.291 52.7101 499.291 51.9644C499.291 51.5207 499.211 51.1383 499.05 50.8174C498.89 50.487 498.63 50.1755 498.271 49.8828C497.922 49.5807 497.46 49.2645 496.884 48.9341C496.242 48.5376 495.671 48.127 495.17 47.7021C494.68 47.2773 494.297 46.7912 494.023 46.2437C493.75 45.6867 493.613 45.0117 493.613 44.2188C493.613 43.0104 494.005 42.0334 494.788 41.2876C495.581 40.5418 496.624 40.1689 497.917 40.1689C498.569 40.1689 499.182 40.2539 499.758 40.4238C500.344 40.5843 500.896 40.8298 501.415 41.1602L500.594 42.916C500.197 42.6423 499.772 42.4251 499.319 42.2646C498.876 42.1042 498.418 42.0239 497.946 42.0239C497.257 42.0239 496.709 42.2174 496.303 42.6045C495.907 42.9915 495.708 43.5107 495.708 44.1621C495.708 44.5964 495.789 44.9692 495.949 45.2808C496.11 45.5923 496.374 45.8944 496.742 46.187C497.11 46.4797 497.597 46.8101 498.201 47.1782C498.843 47.5841 499.404 47.9995 499.886 48.4243C500.377 48.8397 500.759 49.3211 501.033 49.8687C501.306 50.4162 501.443 51.0911 501.443 51.8936ZM511.906 51.8936C511.906 52.8281 511.736 53.6258 511.396 54.2866C511.056 54.938 510.56 55.4336 509.909 55.7734C509.267 56.1133 508.483 56.2832 507.558 56.2832C506.841 56.2832 506.185 56.1982 505.59 56.0283C504.995 55.8584 504.49 55.6554 504.075 55.4194V53.1538C504.49 53.4937 505.005 53.7769 505.618 54.0034C506.232 54.2205 506.855 54.3291 507.488 54.3291C508.214 54.3291 508.771 54.1214 509.158 53.7061C509.555 53.2907 509.753 52.7101 509.753 51.9644C509.753 51.5207 509.673 51.1383 509.512 50.8174C509.352 50.487 509.092 50.1755 508.734 49.8828C508.384 49.5807 507.922 49.2645 507.346 48.9341C506.704 48.5376 506.133 48.127 505.633 47.7021C505.142 47.2773 504.759 46.7912 504.486 46.2437C504.212 45.6867 504.075 45.0117 504.075 44.2188C504.075 43.0104 504.467 42.0334 505.25 41.2876C506.043 40.5418 507.086 40.1689 508.38 40.1689C509.031 40.1689 509.645 40.2539 510.22 40.4238C510.806 40.5843 511.358 40.8298 511.877 41.1602L511.056 42.916C510.659 42.6423 510.235 42.4251 509.781 42.2646C509.338 42.1042 508.88 42.0239 508.408 42.0239C507.719 42.0239 507.171 42.2174 506.765 42.6045C506.369 42.9915 506.171 43.5107 506.171 44.1621C506.171 44.5964 506.251 44.9692 506.411 45.2808C506.572 45.5923 506.836 45.8944 507.204 46.187C507.573 46.4797 508.059 46.8101 508.663 47.1782C509.305 47.5841 509.866 47.9995 510.348 48.4243C510.839 48.8397 511.221 49.3211 511.495 49.8687C511.769 50.4162 511.906 51.0911 511.906 51.8936ZM515.288 54.4849C515.288 53.909 515.41 53.4701 515.656 53.168C515.911 52.8659 516.279 52.7148 516.76 52.7148C517.223 52.7148 517.586 52.8564 517.851 53.1396C518.115 53.4134 518.247 53.8618 518.247 54.4849C518.247 55.089 518.11 55.5327 517.836 55.8159C517.563 56.0991 517.204 56.2407 516.76 56.2407C516.298 56.2407 515.934 56.0944 515.67 55.8018C515.415 55.4997 515.288 55.0607 515.288 54.4849Z" fill="white"/>
</svg>
