<svg width="1280" height="127" viewBox="0 0 1280 127" fill="none" xmlns="http://www.w3.org/2000/svg">
<path d="M68.6491 51V11.8H82.5651C84.5811 11.8 86.4011 12.2107 88.0251 13.032C89.6677 13.8533 90.9651 15.0387 91.9171 16.588C92.8877 18.1187 93.3731 19.9573 93.3731 22.104C93.3731 23.1493 93.2051 24.176 92.8691 25.184C92.5331 26.192 92.0571 27.0787 91.4411 27.844C90.8251 28.6093 90.0784 29.1507 89.2011 29.468C90.3957 29.7667 91.3851 30.308 92.1691 31.092C92.9717 31.8573 93.6064 32.7533 94.0731 33.78C94.5397 34.8067 94.8664 35.8707 95.0531 36.972C95.2584 38.0733 95.3611 39.1187 95.3611 40.108C95.3611 42.1987 94.8571 44.0653 93.8491 45.708C92.8411 47.3507 91.4877 48.648 89.7891 49.6C88.1091 50.5333 86.2517 51 84.2171 51H68.6491ZM74.4731 45.96H83.6571C84.8517 45.96 85.9344 45.6613 86.9051 45.064C87.8944 44.4667 88.6784 43.6453 89.2571 42.6C89.8357 41.536 90.1251 40.3413 90.1251 39.016C90.1251 37.8587 89.8357 36.7667 89.2571 35.74C88.6784 34.6947 87.8944 33.8547 86.9051 33.22C85.9344 32.5853 84.8517 32.268 83.6571 32.268H74.4731V45.96ZM74.4731 27.312H81.9491C83.4797 27.312 84.7957 26.8453 85.8971 25.912C86.9984 24.9787 87.5491 23.7 87.5491 22.076C87.5491 20.34 86.9984 19.0427 85.8971 18.184C84.7957 17.3067 83.4797 16.868 81.9491 16.868H74.4731V27.312ZM111.977 51.728C109.401 51.728 107.049 51.0653 104.921 49.74C102.812 48.4147 101.122 46.6413 99.8529 44.42C98.6022 42.18 97.9769 39.7067 97.9769 37C97.9769 34.9467 98.3409 33.0333 99.0689 31.26C99.7969 29.468 100.796 27.9 102.065 26.556C103.353 25.1933 104.846 24.1293 106.545 23.364C108.244 22.5987 110.054 22.216 111.977 22.216C114.553 22.216 116.896 22.8787 119.005 24.204C121.133 25.5293 122.822 27.312 124.073 29.552C125.342 31.792 125.977 34.2747 125.977 37C125.977 39.0347 125.613 40.9387 124.885 42.712C124.157 44.4853 123.149 46.0533 121.861 47.416C120.592 48.76 119.108 49.8147 117.409 50.58C115.729 51.3453 113.918 51.728 111.977 51.728ZM111.977 45.904C113.526 45.904 114.917 45.4933 116.149 44.672C117.381 43.8507 118.352 42.768 119.061 41.424C119.789 40.0613 120.153 38.5867 120.153 37C120.153 35.376 119.78 33.8827 119.033 32.52C118.305 31.1573 117.325 30.0747 116.093 29.272C114.861 28.4507 113.489 28.04 111.977 28.04C110.446 28.04 109.056 28.4507 107.805 29.272C106.573 30.0933 105.593 31.1853 104.865 32.548C104.156 33.9107 103.801 35.3947 103.801 37C103.801 38.6613 104.174 40.164 104.921 41.508C105.668 42.852 106.657 43.9253 107.889 44.728C109.14 45.512 110.502 45.904 111.977 45.904ZM142.766 51.728C140.19 51.728 137.838 51.0653 135.71 49.74C133.601 48.4147 131.911 46.6413 130.642 44.42C129.391 42.18 128.766 39.7067 128.766 37C128.766 34.9467 129.13 33.0333 129.858 31.26C130.586 29.468 131.585 27.9 132.854 26.556C134.142 25.1933 135.635 24.1293 137.334 23.364C139.033 22.5987 140.843 22.216 142.766 22.216C145.342 22.216 147.685 22.8787 149.794 24.204C151.922 25.5293 153.611 27.312 154.862 29.552C156.131 31.792 156.766 34.2747 156.766 37C156.766 39.0347 156.402 40.9387 155.674 42.712C154.946 44.4853 153.938 46.0533 152.65 47.416C151.381 48.76 149.897 49.8147 148.198 50.58C146.518 51.3453 144.707 51.728 142.766 51.728ZM142.766 45.904C144.315 45.904 145.706 45.4933 146.938 44.672C148.17 43.8507 149.141 42.768 149.85 41.424C150.578 40.0613 150.942 38.5867 150.942 37C150.942 35.376 150.569 33.8827 149.822 32.52C149.094 31.1573 148.114 30.0747 146.882 29.272C145.65 28.4507 144.278 28.04 142.766 28.04C141.235 28.04 139.845 28.4507 138.594 29.272C137.362 30.0933 136.382 31.1853 135.654 32.548C134.945 33.9107 134.59 35.3947 134.59 37C134.59 38.6613 134.963 40.164 135.71 41.508C136.457 42.852 137.446 43.9253 138.678 44.728C139.929 45.512 141.291 45.904 142.766 45.904ZM169.799 51.532C168.324 51.4387 166.887 51.14 165.487 50.636C164.087 50.132 162.855 49.4507 161.791 48.592C160.746 47.7147 159.962 46.688 159.439 45.512L164.395 43.384C164.638 43.888 165.058 44.3827 165.655 44.868C166.271 45.3533 166.99 45.7547 167.811 46.072C168.632 46.3707 169.491 46.52 170.387 46.52C171.264 46.52 172.076 46.3987 172.823 46.156C173.588 45.8947 174.214 45.5027 174.699 44.98C175.184 44.4573 175.427 43.832 175.427 43.104C175.427 42.2827 175.147 41.648 174.587 41.2C174.046 40.7333 173.364 40.3787 172.543 40.136C171.722 39.8933 170.9 39.66 170.079 39.436C168.25 39.0253 166.57 38.4653 165.039 37.756C163.527 37.028 162.323 36.104 161.427 34.984C160.531 33.8453 160.083 32.4547 160.083 30.812C160.083 29.02 160.568 27.4707 161.539 26.164C162.51 24.8387 163.779 23.8213 165.347 23.112C166.934 22.4027 168.623 22.048 170.415 22.048C172.655 22.048 174.708 22.524 176.575 23.476C178.442 24.428 179.87 25.7347 180.859 27.396L176.239 30.14C175.959 29.58 175.539 29.076 174.979 28.628C174.419 28.18 173.784 27.8253 173.075 27.564C172.366 27.284 171.628 27.1253 170.863 27.088C169.911 27.0507 169.024 27.1627 168.203 27.424C167.4 27.6667 166.756 28.0587 166.271 28.6C165.786 29.1413 165.543 29.832 165.543 30.672C165.543 31.4933 165.832 32.1093 166.411 32.52C166.99 32.912 167.718 33.2293 168.595 33.472C169.491 33.7147 170.406 33.9853 171.339 34.284C173 34.8067 174.559 35.4507 176.015 36.216C177.471 36.9627 178.647 37.8867 179.543 38.988C180.439 40.0893 180.868 41.4333 180.831 43.02C180.831 44.7747 180.299 46.3147 179.235 47.64C178.19 48.9653 176.827 49.9733 175.147 50.664C173.467 51.3547 171.684 51.644 169.799 51.532ZM200.41 28.824H194.53L194.502 51H188.678L188.706 28.824H184.254V23H188.706L188.678 14.208H194.502L194.53 23H200.41V28.824ZM233.66 28.824H227.78L227.752 51H221.928L221.956 28.824H217.504V23H221.956L221.928 14.208H227.752L227.78 23H233.66V28.824ZM263.873 33.444V51H258.049V34.872C258.049 33.6213 257.741 32.4827 257.125 31.456C256.527 30.4293 255.715 29.6173 254.689 29.02C253.681 28.404 252.542 28.096 251.273 28.096C250.041 28.096 248.911 28.404 247.885 29.02C246.858 29.6173 246.037 30.4293 245.421 31.456C244.805 32.4827 244.497 33.6213 244.497 34.872V51H238.673V9H244.497V25.968C245.467 24.8107 246.662 23.896 248.081 23.224C249.499 22.552 251.03 22.216 252.673 22.216C254.745 22.216 256.63 22.72 258.329 23.728C260.027 24.736 261.371 26.0893 262.361 27.788C263.369 29.4867 263.873 31.372 263.873 33.444ZM281.235 51.728C278.659 51.728 276.307 51.0653 274.179 49.74C272.069 48.4147 270.38 46.6413 269.111 44.42C267.86 42.18 267.235 39.7067 267.235 37C267.235 34.9467 267.599 33.0333 268.327 31.26C269.055 29.468 270.053 27.9 271.323 26.556C272.611 25.1933 274.104 24.1293 275.803 23.364C277.501 22.5987 279.312 22.216 281.235 22.216C283.381 22.216 285.351 22.664 287.143 23.56C288.935 24.4373 290.465 25.66 291.735 27.228C293.004 28.7773 293.937 30.5693 294.535 32.604C295.132 34.62 295.309 36.7667 295.067 39.044H273.479C273.721 40.332 274.188 41.4987 274.879 42.544C275.588 43.5707 276.484 44.3827 277.567 44.98C278.668 45.5773 279.891 45.8853 281.235 45.904C282.653 45.904 283.941 45.5493 285.099 44.84C286.275 44.1307 287.236 43.1507 287.983 41.9L293.891 43.272C292.771 45.7547 291.081 47.7893 288.823 49.376C286.564 50.944 284.035 51.728 281.235 51.728ZM273.283 34.592H289.187C289 33.248 288.524 32.0347 287.759 30.952C287.012 29.8507 286.069 28.9827 284.931 28.348C283.811 27.6947 282.579 27.368 281.235 27.368C279.909 27.368 278.677 27.6853 277.539 28.32C276.419 28.9547 275.485 29.8227 274.739 30.924C274.011 32.0067 273.525 33.2293 273.283 34.592ZM322.049 51.532C320.574 51.4387 319.137 51.14 317.737 50.636C316.337 50.132 315.105 49.4507 314.041 48.592C312.996 47.7147 312.212 46.688 311.689 45.512L316.645 43.384C316.888 43.888 317.308 44.3827 317.905 44.868C318.521 45.3533 319.24 45.7547 320.061 46.072C320.882 46.3707 321.741 46.52 322.637 46.52C323.514 46.52 324.326 46.3987 325.073 46.156C325.838 45.8947 326.464 45.5027 326.949 44.98C327.434 44.4573 327.677 43.832 327.677 43.104C327.677 42.2827 327.397 41.648 326.837 41.2C326.296 40.7333 325.614 40.3787 324.793 40.136C323.972 39.8933 323.15 39.66 322.329 39.436C320.5 39.0253 318.82 38.4653 317.289 37.756C315.777 37.028 314.573 36.104 313.677 34.984C312.781 33.8453 312.333 32.4547 312.333 30.812C312.333 29.02 312.818 27.4707 313.789 26.164C314.76 24.8387 316.029 23.8213 317.597 23.112C319.184 22.4027 320.873 22.048 322.665 22.048C324.905 22.048 326.958 22.524 328.825 23.476C330.692 24.428 332.12 25.7347 333.109 27.396L328.489 30.14C328.209 29.58 327.789 29.076 327.229 28.628C326.669 28.18 326.034 27.8253 325.325 27.564C324.616 27.284 323.878 27.1253 323.113 27.088C322.161 27.0507 321.274 27.1627 320.453 27.424C319.65 27.6667 319.006 28.0587 318.521 28.6C318.036 29.1413 317.793 29.832 317.793 30.672C317.793 31.4933 318.082 32.1093 318.661 32.52C319.24 32.912 319.968 33.2293 320.845 33.472C321.741 33.7147 322.656 33.9853 323.589 34.284C325.25 34.8067 326.809 35.4507 328.265 36.216C329.721 36.9627 330.897 37.8867 331.793 38.988C332.689 40.0893 333.118 41.4333 333.081 43.02C333.081 44.7747 332.549 46.3147 331.485 47.64C330.44 48.9653 329.077 49.9733 327.397 50.664C325.717 51.3547 323.934 51.644 322.049 51.532ZM343.7 65H337.876V23H343.7V27.116C344.633 25.6787 345.828 24.512 347.284 23.616C348.74 22.72 350.457 22.272 352.436 22.272C354.47 22.272 356.374 22.6547 358.148 23.42C359.94 24.1853 361.508 25.2493 362.852 26.612C364.196 27.956 365.25 29.5147 366.016 31.288C366.781 33.0613 367.164 34.9653 367.164 37C367.164 39.0347 366.781 40.948 366.016 42.74C365.25 44.532 364.196 46.1093 362.852 47.472C361.508 48.816 359.94 49.8707 358.148 50.636C356.374 51.4013 354.47 51.784 352.436 51.784C350.457 51.784 348.74 51.336 347.284 50.44C345.828 49.5253 344.633 48.3587 343.7 46.94V65ZM352.38 27.9C350.756 27.9 349.328 28.3107 348.096 29.132C346.864 29.9533 345.902 31.0547 345.212 32.436C344.521 33.7987 344.176 35.32 344.176 37C344.176 38.68 344.521 40.2107 345.212 41.592C345.902 42.9733 346.864 44.0747 348.096 44.896C349.328 45.7173 350.756 46.128 352.38 46.128C353.985 46.128 355.46 45.7267 356.804 44.924C358.148 44.1027 359.221 43.0013 360.024 41.62C360.826 40.2387 361.228 38.6987 361.228 37C361.228 35.3387 360.826 33.8173 360.024 32.436C359.24 31.0547 358.176 29.9533 356.832 29.132C355.488 28.3107 354.004 27.9 352.38 27.9ZM383.993 51.728C381.417 51.728 379.065 51.0653 376.937 49.74C374.827 48.4147 373.138 46.6413 371.869 44.42C370.618 42.18 369.993 39.7067 369.993 37C369.993 34.9467 370.357 33.0333 371.085 31.26C371.813 29.468 372.811 27.9 374.081 26.556C375.369 25.1933 376.862 24.1293 378.561 23.364C380.259 22.5987 382.07 22.216 383.993 22.216C386.139 22.216 388.109 22.664 389.901 23.56C391.693 24.4373 393.223 25.66 394.493 27.228C395.762 28.7773 396.695 30.5693 397.293 32.604C397.89 34.62 398.067 36.7667 397.825 39.044H376.237C376.479 40.332 376.946 41.4987 377.637 42.544C378.346 43.5707 379.242 44.3827 380.325 44.98C381.426 45.5773 382.649 45.8853 383.993 45.904C385.411 45.904 386.699 45.5493 387.857 44.84C389.033 44.1307 389.994 43.1507 390.741 41.9L396.649 43.272C395.529 45.7547 393.839 47.7893 391.581 49.376C389.322 50.944 386.793 51.728 383.993 51.728ZM376.041 34.592H391.945C391.758 33.248 391.282 32.0347 390.517 30.952C389.77 29.8507 388.827 28.9827 387.689 28.348C386.569 27.6947 385.337 27.368 383.993 27.368C382.667 27.368 381.435 27.6853 380.297 28.32C379.177 28.9547 378.243 29.8227 377.497 30.924C376.769 32.0067 376.283 33.2293 376.041 34.592ZM414.727 51.728C412.151 51.728 409.799 51.0653 407.671 49.74C405.562 48.4147 403.872 46.6413 402.603 44.42C401.352 42.18 400.727 39.7067 400.727 37C400.727 34.9467 401.091 33.0333 401.819 31.26C402.547 29.468 403.546 27.9 404.815 26.556C406.103 25.1933 407.596 24.1293 409.295 23.364C410.994 22.5987 412.804 22.216 414.727 22.216C416.874 22.216 418.843 22.664 420.635 23.56C422.427 24.4373 423.958 25.66 425.227 27.228C426.496 28.7773 427.43 30.5693 428.027 32.604C428.624 34.62 428.802 36.7667 428.559 39.044H406.971C407.214 40.332 407.68 41.4987 408.371 42.544C409.08 43.5707 409.976 44.3827 411.059 44.98C412.16 45.5773 413.383 45.8853 414.727 45.904C416.146 45.904 417.434 45.5493 418.591 44.84C419.767 44.1307 420.728 43.1507 421.475 41.9L427.383 43.272C426.263 45.7547 424.574 47.7893 422.315 49.376C420.056 50.944 417.527 51.728 414.727 51.728ZM406.775 34.592H422.679C422.492 33.248 422.016 32.0347 421.251 30.952C420.504 29.8507 419.562 28.9827 418.423 28.348C417.303 27.6947 416.071 27.368 414.727 27.368C413.402 27.368 412.17 27.6853 411.031 28.32C409.911 28.9547 408.978 29.8227 408.231 30.924C407.503 32.0067 407.018 33.2293 406.775 34.592ZM454.953 9H460.777V51H454.953V46.884C454.039 48.34 452.844 49.516 451.369 50.412C449.895 51.2893 448.168 51.728 446.189 51.728C444.155 51.728 442.251 51.3453 440.477 50.58C438.704 49.8147 437.136 48.76 435.773 47.416C434.429 46.0533 433.375 44.4853 432.609 42.712C431.844 40.9387 431.461 39.0347 431.461 37C431.461 34.9653 431.844 33.0613 432.609 31.288C433.375 29.496 434.429 27.928 435.773 26.584C437.136 25.2213 438.704 24.1573 440.477 23.392C442.251 22.6267 444.155 22.244 446.189 22.244C448.168 22.244 449.895 22.692 451.369 23.588C452.844 24.4653 454.039 25.6227 454.953 27.06V9ZM446.245 46.1C447.888 46.1 449.325 45.6987 450.557 44.896C451.789 44.0747 452.741 42.9733 453.413 41.592C454.104 40.2107 454.449 38.68 454.449 37C454.449 35.3013 454.104 33.7613 453.413 32.38C452.723 30.9987 451.761 29.9067 450.529 29.104C449.316 28.2827 447.888 27.872 446.245 27.872C444.621 27.872 443.137 28.2827 441.793 29.104C440.468 29.9253 439.404 31.0267 438.601 32.408C437.817 33.7893 437.425 35.32 437.425 37C437.425 38.6987 437.827 40.2387 438.629 41.62C439.451 42.9827 440.524 44.0747 441.849 44.896C443.193 45.6987 444.659 46.1 446.245 46.1ZM493.258 51.728C490.682 51.728 488.33 51.0653 486.202 49.74C484.093 48.4147 482.403 46.6413 481.134 44.42C479.883 42.18 479.258 39.7067 479.258 37C479.258 34.9467 479.622 33.0333 480.35 31.26C481.078 29.468 482.077 27.9 483.346 26.556C484.634 25.1933 486.127 24.1293 487.826 23.364C489.525 22.5987 491.335 22.216 493.258 22.216C495.834 22.216 498.177 22.8787 500.286 24.204C502.414 25.5293 504.103 27.312 505.354 29.552C506.623 31.792 507.258 34.2747 507.258 37C507.258 39.0347 506.894 40.9387 506.166 42.712C505.438 44.4853 504.43 46.0533 503.142 47.416C501.873 48.76 500.389 49.8147 498.69 50.58C497.01 51.3453 495.199 51.728 493.258 51.728ZM493.258 45.904C494.807 45.904 496.198 45.4933 497.43 44.672C498.662 43.8507 499.633 42.768 500.342 41.424C501.07 40.0613 501.434 38.5867 501.434 37C501.434 35.376 501.061 33.8827 500.314 32.52C499.586 31.1573 498.606 30.0747 497.374 29.272C496.142 28.4507 494.77 28.04 493.258 28.04C491.727 28.04 490.337 28.4507 489.086 29.272C487.854 30.0933 486.874 31.1853 486.146 32.548C485.437 33.9107 485.082 35.3947 485.082 37C485.082 38.6613 485.455 40.164 486.202 41.508C486.949 42.852 487.938 43.9253 489.17 44.728C490.421 45.512 491.783 45.904 493.258 45.904ZM519.47 16.644V23H527.366V28.824H519.47V51H513.646V28.824H510.314V23H513.646V16.644C513.646 15.1133 514.019 13.7227 514.766 12.472C515.513 11.2027 516.511 10.1947 517.762 9.448C519.031 8.70133 520.441 8.328 521.99 8.328C523.11 8.328 524.202 8.552 525.266 9C526.33 9.448 527.282 10.1387 528.122 11.072L523.95 15.188C523.745 14.852 523.455 14.6 523.082 14.432C522.727 14.2453 522.363 14.152 521.99 14.152C521.299 14.152 520.702 14.3947 520.198 14.88C519.713 15.3653 519.47 15.9533 519.47 16.644ZM564.704 23H570.92L555.576 65H549.388L554.456 51L544.404 23H550.76L557.368 43.02L564.704 23ZM586.446 51.728C583.87 51.728 581.518 51.0653 579.39 49.74C577.28 48.4147 575.591 46.6413 574.322 44.42C573.071 42.18 572.446 39.7067 572.446 37C572.446 34.9467 572.81 33.0333 573.538 31.26C574.266 29.468 575.264 27.9 576.534 26.556C577.822 25.1933 579.315 24.1293 581.014 23.364C582.712 22.5987 584.523 22.216 586.446 22.216C589.022 22.216 591.364 22.8787 593.474 24.204C595.602 25.5293 597.291 27.312 598.542 29.552C599.811 31.792 600.446 34.2747 600.446 37C600.446 39.0347 600.082 40.9387 599.354 42.712C598.626 44.4853 597.618 46.0533 596.33 47.416C595.06 48.76 593.576 49.8147 591.878 50.58C590.198 51.3453 588.387 51.728 586.446 51.728ZM586.446 45.904C587.995 45.904 589.386 45.4933 590.618 44.672C591.85 43.8507 592.82 42.768 593.53 41.424C594.258 40.0613 594.622 38.5867 594.622 37C594.622 35.376 594.248 33.8827 593.502 32.52C592.774 31.1573 591.794 30.0747 590.562 29.272C589.33 28.4507 587.958 28.04 586.446 28.04C584.915 28.04 583.524 28.4507 582.274 29.272C581.042 30.0933 580.062 31.1853 579.334 32.548C578.624 33.9107 578.27 35.3947 578.27 37C578.27 38.6613 578.643 40.164 579.39 41.508C580.136 42.852 581.126 43.9253 582.358 44.728C583.608 45.512 584.971 45.904 586.446 45.904ZM603.303 40.5V23H609.127V39.072C609.127 40.3227 609.435 41.4613 610.051 42.488C610.667 43.5147 611.488 44.336 612.515 44.952C613.541 45.5493 614.671 45.848 615.903 45.848C617.153 45.848 618.283 45.5493 619.291 44.952C620.317 44.336 621.129 43.5147 621.727 42.488C622.343 41.4613 622.651 40.3227 622.651 39.072V23H628.475L628.503 51H622.679L622.651 47.976C621.699 49.1333 620.513 50.048 619.095 50.72C617.676 51.392 616.155 51.728 614.531 51.728C612.459 51.728 610.573 51.224 608.875 50.216C607.176 49.208 605.823 47.8547 604.815 46.156C603.807 44.4573 603.303 42.572 603.303 40.5ZM634.118 51V23H639.942V25.968C640.912 24.8107 642.107 23.896 643.526 23.224C644.944 22.552 646.475 22.216 648.118 22.216C649.163 22.216 650.199 22.356 651.226 22.636L648.902 28.516C648.174 28.236 647.446 28.096 646.718 28.096C645.486 28.096 644.356 28.404 643.33 29.02C642.303 29.6173 641.482 30.4293 640.866 31.456C640.25 32.4827 639.942 33.6213 639.942 34.872V51H634.118ZM690.438 9H696.262V51H690.438V46.884C689.523 48.34 688.328 49.516 686.854 50.412C685.379 51.2893 683.652 51.728 681.674 51.728C679.639 51.728 677.735 51.3453 675.962 50.58C674.188 49.8147 672.62 48.76 671.258 47.416C669.914 46.0533 668.859 44.4853 668.094 42.712C667.328 40.9387 666.946 39.0347 666.946 37C666.946 34.9653 667.328 33.0613 668.094 31.288C668.859 29.496 669.914 27.928 671.258 26.584C672.62 25.2213 674.188 24.1573 675.962 23.392C677.735 22.6267 679.639 22.244 681.674 22.244C683.652 22.244 685.379 22.692 686.854 23.588C688.328 24.4653 689.523 25.6227 690.438 27.06V9ZM681.73 46.1C683.372 46.1 684.81 45.6987 686.042 44.896C687.274 44.0747 688.226 42.9733 688.898 41.592C689.588 40.2107 689.934 38.68 689.934 37C689.934 35.3013 689.588 33.7613 688.898 32.38C688.207 30.9987 687.246 29.9067 686.014 29.104C684.8 28.2827 683.372 27.872 681.73 27.872C680.106 27.872 678.622 28.2827 677.278 29.104C675.952 29.9253 674.888 31.0267 674.086 32.408C673.302 33.7893 672.91 35.32 672.91 37C672.91 38.6987 673.311 40.2387 674.114 41.62C674.935 42.9827 676.008 44.0747 677.334 44.896C678.678 45.6987 680.143 46.1 681.73 46.1ZM714.907 51.728C712.331 51.728 709.979 51.0653 707.851 49.74C705.741 48.4147 704.052 46.6413 702.783 44.42C701.532 42.18 700.907 39.7067 700.907 37C700.907 34.9467 701.271 33.0333 701.999 31.26C702.727 29.468 703.725 27.9 704.995 26.556C706.283 25.1933 707.776 24.1293 709.475 23.364C711.173 22.5987 712.984 22.216 714.907 22.216C717.053 22.216 719.023 22.664 720.815 23.56C722.607 24.4373 724.137 25.66 725.407 27.228C726.676 28.7773 727.609 30.5693 728.207 32.604C728.804 34.62 728.981 36.7667 728.739 39.044H707.151C707.393 40.332 707.86 41.4987 708.551 42.544C709.26 43.5707 710.156 44.3827 711.239 44.98C712.34 45.5773 713.563 45.8853 714.907 45.904C716.325 45.904 717.613 45.5493 718.771 44.84C719.947 44.1307 720.908 43.1507 721.655 41.9L727.563 43.272C726.443 45.7547 724.753 47.7893 722.495 49.376C720.236 50.944 717.707 51.728 714.907 51.728ZM706.955 34.592H722.859C722.672 33.248 722.196 32.0347 721.431 30.952C720.684 29.8507 719.741 28.9827 718.603 28.348C717.483 27.6947 716.251 27.368 714.907 27.368C713.581 27.368 712.349 27.6853 711.211 28.32C710.091 28.9547 709.157 29.8227 708.411 30.924C707.683 32.0067 707.197 33.2293 706.955 34.592ZM748.079 51H740.603L730.383 22.944H736.599L744.327 44.28L752.083 22.944H758.271L748.079 51ZM773.805 51.728C771.229 51.728 768.877 51.0653 766.749 49.74C764.64 48.4147 762.95 46.6413 761.681 44.42C760.43 42.18 759.805 39.7067 759.805 37C759.805 34.9467 760.169 33.0333 760.897 31.26C761.625 29.468 762.624 27.9 763.893 26.556C765.181 25.1933 766.674 24.1293 768.373 23.364C770.072 22.5987 771.882 22.216 773.805 22.216C775.952 22.216 777.921 22.664 779.713 23.56C781.505 24.4373 783.036 25.66 784.305 27.228C785.574 28.7773 786.508 30.5693 787.105 32.604C787.702 34.62 787.88 36.7667 787.637 39.044H766.049C766.292 40.332 766.758 41.4987 767.449 42.544C768.158 43.5707 769.054 44.3827 770.137 44.98C771.238 45.5773 772.461 45.8853 773.805 45.904C775.224 45.904 776.512 45.5493 777.669 44.84C778.845 44.1307 779.806 43.1507 780.553 41.9L786.461 43.272C785.341 45.7547 783.652 47.7893 781.393 49.376C779.134 50.944 776.605 51.728 773.805 51.728ZM765.853 34.592H781.757C781.57 33.248 781.094 32.0347 780.329 30.952C779.582 29.8507 778.64 28.9827 777.501 28.348C776.381 27.6947 775.149 27.368 773.805 27.368C772.48 27.368 771.248 27.6853 770.109 28.32C768.989 28.9547 768.056 29.8227 767.309 30.924C766.581 32.0067 766.096 33.2293 765.853 34.592ZM791.891 51V9H797.715V51H791.891ZM816.352 51.728C813.776 51.728 811.424 51.0653 809.296 49.74C807.187 48.4147 805.497 46.6413 804.228 44.42C802.977 42.18 802.352 39.7067 802.352 37C802.352 34.9467 802.716 33.0333 803.444 31.26C804.172 29.468 805.171 27.9 806.44 26.556C807.728 25.1933 809.221 24.1293 810.92 23.364C812.619 22.5987 814.429 22.216 816.352 22.216C818.928 22.216 821.271 22.8787 823.38 24.204C825.508 25.5293 827.197 27.312 828.448 29.552C829.717 31.792 830.352 34.2747 830.352 37C830.352 39.0347 829.988 40.9387 829.26 42.712C828.532 44.4853 827.524 46.0533 826.236 47.416C824.967 48.76 823.483 49.8147 821.784 50.58C820.104 51.3453 818.293 51.728 816.352 51.728ZM816.352 45.904C817.901 45.904 819.292 45.4933 820.524 44.672C821.756 43.8507 822.727 42.768 823.436 41.424C824.164 40.0613 824.528 38.5867 824.528 37C824.528 35.376 824.155 33.8827 823.408 32.52C822.68 31.1573 821.7 30.0747 820.468 29.272C819.236 28.4507 817.864 28.04 816.352 28.04C814.821 28.04 813.431 28.4507 812.18 29.272C810.948 30.0933 809.968 31.1853 809.24 32.548C808.531 33.9107 808.176 35.3947 808.176 37C808.176 38.6613 808.549 40.164 809.296 41.508C810.043 42.852 811.032 43.9253 812.264 44.728C813.515 45.512 814.877 45.904 816.352 45.904ZM840.7 65H834.876V23H840.7V27.116C841.633 25.6787 842.828 24.512 844.284 23.616C845.74 22.72 847.457 22.272 849.436 22.272C851.47 22.272 853.374 22.6547 855.148 23.42C856.94 24.1853 858.508 25.2493 859.852 26.612C861.196 27.956 862.25 29.5147 863.016 31.288C863.781 33.0613 864.164 34.9653 864.164 37C864.164 39.0347 863.781 40.948 863.016 42.74C862.25 44.532 861.196 46.1093 859.852 47.472C858.508 48.816 856.94 49.8707 855.148 50.636C853.374 51.4013 851.47 51.784 849.436 51.784C847.457 51.784 845.74 51.336 844.284 50.44C842.828 49.5253 841.633 48.3587 840.7 46.94V65ZM849.38 27.9C847.756 27.9 846.328 28.3107 845.096 29.132C843.864 29.9533 842.902 31.0547 842.212 32.436C841.521 33.7987 841.176 35.32 841.176 37C841.176 38.68 841.521 40.2107 842.212 41.592C842.902 42.9733 843.864 44.0747 845.096 44.896C846.328 45.7173 847.756 46.128 849.38 46.128C850.985 46.128 852.46 45.7267 853.804 44.924C855.148 44.1027 856.221 43.0013 857.024 41.62C857.826 40.2387 858.228 38.6987 858.228 37C858.228 35.3387 857.826 33.8173 857.024 32.436C856.24 31.0547 855.176 29.9533 853.832 29.132C852.488 28.3107 851.004 27.9 849.38 27.9ZM868.727 51V23H874.551V25.968C875.522 24.8107 876.707 23.896 878.107 23.224C879.526 22.552 881.057 22.216 882.699 22.216C884.697 22.216 886.535 22.7013 888.215 23.672C889.895 24.624 891.23 25.8933 892.219 27.48C893.209 25.8933 894.525 24.624 896.167 23.672C897.829 22.7013 899.658 22.216 901.655 22.216C903.727 22.216 905.613 22.72 907.311 23.728C909.01 24.736 910.363 26.0893 911.371 27.788C912.379 29.4867 912.883 31.372 912.883 33.444V51H907.059V34.928C907.059 33.696 906.761 32.5667 906.163 31.54C905.566 30.5133 904.763 29.6827 903.755 29.048C902.747 28.4133 901.627 28.096 900.395 28.096C899.163 28.096 898.043 28.3947 897.035 28.992C896.027 29.5893 895.225 30.4013 894.627 31.428C894.03 32.4547 893.731 33.6213 893.731 34.928V51H887.907V34.928C887.907 33.6213 887.609 32.4547 887.011 31.428C886.414 30.4013 885.602 29.5893 884.575 28.992C883.567 28.3947 882.447 28.096 881.215 28.096C880.002 28.096 878.882 28.4133 877.855 29.048C876.847 29.6827 876.045 30.5133 875.447 31.54C874.85 32.5667 874.551 33.696 874.551 34.928V51H868.727ZM930.266 51.728C927.69 51.728 925.338 51.0653 923.21 49.74C921.101 48.4147 919.411 46.6413 918.142 44.42C916.891 42.18 916.266 39.7067 916.266 37C916.266 34.9467 916.63 33.0333 917.358 31.26C918.086 29.468 919.085 27.9 920.354 26.556C921.642 25.1933 923.135 24.1293 924.834 23.364C926.533 22.5987 928.343 22.216 930.266 22.216C932.413 22.216 934.382 22.664 936.174 23.56C937.966 24.4373 939.497 25.66 940.766 27.228C942.035 28.7773 942.969 30.5693 943.566 32.604C944.163 34.62 944.341 36.7667 944.098 39.044H922.51C922.753 40.332 923.219 41.4987 923.91 42.544C924.619 43.5707 925.515 44.3827 926.598 44.98C927.699 45.5773 928.922 45.8853 930.266 45.904C931.685 45.904 932.973 45.5493 934.13 44.84C935.306 44.1307 936.267 43.1507 937.014 41.9L942.922 43.272C941.802 45.7547 940.113 47.7893 937.854 49.376C935.595 50.944 933.066 51.728 930.266 51.728ZM922.314 34.592H938.218C938.031 33.248 937.555 32.0347 936.79 30.952C936.043 29.8507 935.101 28.9827 933.962 28.348C932.842 27.6947 931.61 27.368 930.266 27.368C928.941 27.368 927.709 27.6853 926.57 28.32C925.45 28.9547 924.517 29.8227 923.77 30.924C923.042 32.0067 922.557 33.2293 922.314 34.592ZM973.935 33.444V51H968.111V34.872C968.111 33.6213 967.803 32.4827 967.187 31.456C966.59 30.4293 965.778 29.6173 964.751 29.02C963.743 28.404 962.604 28.096 961.335 28.096C960.103 28.096 958.974 28.404 957.947 29.02C956.92 29.6173 956.099 30.4293 955.483 31.456C954.867 32.4827 954.559 33.6213 954.559 34.872V51H948.735V23H954.559V25.968C955.53 24.8107 956.724 23.896 958.143 23.224C959.562 22.552 961.092 22.216 962.735 22.216C964.807 22.216 966.692 22.72 968.391 23.728C970.09 24.736 971.434 26.0893 972.423 27.788C973.431 29.4867 973.935 31.372 973.935 33.444ZM994.308 28.824H988.428L988.4 51H982.576L982.604 28.824H978.152V23H982.604L982.576 14.208H988.4L988.428 23H994.308V28.824ZM1034.56 23H1040.38V51H1034.53L1034.31 46.94C1033.48 48.3773 1032.37 49.5347 1030.97 50.412C1029.57 51.2893 1027.92 51.728 1026.02 51.728C1023.96 51.728 1022.03 51.3453 1020.22 50.58C1018.41 49.796 1016.82 48.7133 1015.43 47.332C1014.07 45.9507 1013.01 44.364 1012.24 42.572C1011.48 40.7613 1011.09 38.82 1011.09 36.748C1011.09 34.7507 1011.47 32.8747 1012.21 31.12C1012.96 29.3467 1014 27.7973 1015.32 26.472C1016.65 25.1467 1018.18 24.1107 1019.91 23.364C1021.67 22.5987 1023.54 22.216 1025.54 22.216C1027.58 22.216 1029.37 22.6827 1030.92 23.616C1032.49 24.5307 1033.78 25.7067 1034.81 27.144L1034.56 23ZM1025.88 46.1C1027.52 46.1 1028.96 45.6987 1030.19 44.896C1031.42 44.0747 1032.37 42.9733 1033.05 41.592C1033.74 40.2107 1034.08 38.68 1034.08 37C1034.08 35.3013 1033.74 33.7613 1033.05 32.38C1032.36 30.9987 1031.39 29.9067 1030.16 29.104C1028.95 28.2827 1027.52 27.872 1025.88 27.872C1024.25 27.872 1022.77 28.2827 1021.43 29.104C1020.08 29.9253 1019.02 31.0267 1018.23 32.408C1017.45 33.7893 1017.06 35.32 1017.06 37C1017.06 38.6987 1017.46 40.2387 1018.26 41.62C1019.08 42.9827 1020.16 44.0747 1021.48 44.896C1022.83 45.6987 1024.29 46.1 1025.88 46.1ZM1071.17 33.444V51H1065.35V34.872C1065.35 33.6213 1065.04 32.4827 1064.42 31.456C1063.82 30.4293 1063.01 29.6173 1061.99 29.02C1060.98 28.404 1059.84 28.096 1058.57 28.096C1057.34 28.096 1056.21 28.404 1055.18 29.02C1054.15 29.6173 1053.33 30.4293 1052.72 31.456C1052.1 32.4827 1051.79 33.6213 1051.79 34.872V51H1045.97V23H1051.79V25.968C1052.76 24.8107 1053.96 23.896 1055.38 23.224C1056.8 22.552 1058.33 22.216 1059.97 22.216C1062.04 22.216 1063.93 22.72 1065.63 23.728C1067.32 24.736 1068.67 26.0893 1069.66 27.788C1070.67 29.4867 1071.17 31.372 1071.17 33.444ZM1098.02 9H1103.85V51H1098.02V46.884C1097.11 48.34 1095.91 49.516 1094.44 50.412C1092.96 51.2893 1091.24 51.728 1089.26 51.728C1087.22 51.728 1085.32 51.3453 1083.55 50.58C1081.77 49.8147 1080.21 48.76 1078.84 47.416C1077.5 46.0533 1076.44 44.4853 1075.68 42.712C1074.91 40.9387 1074.53 39.0347 1074.53 37C1074.53 34.9653 1074.91 33.0613 1075.68 31.288C1076.44 29.496 1077.5 27.928 1078.84 26.584C1080.21 25.2213 1081.77 24.1573 1083.55 23.392C1085.32 22.6267 1087.22 22.244 1089.26 22.244C1091.24 22.244 1092.96 22.692 1094.44 23.588C1095.91 24.4653 1097.11 25.6227 1098.02 27.06V9ZM1089.32 46.1C1090.96 46.1 1092.4 45.6987 1093.63 44.896C1094.86 44.0747 1095.81 42.9733 1096.48 41.592C1097.17 40.2107 1097.52 38.68 1097.52 37C1097.52 35.3013 1097.17 33.7613 1096.48 32.38C1095.79 30.9987 1094.83 29.9067 1093.6 29.104C1092.39 28.2827 1090.96 27.872 1089.32 27.872C1087.69 27.872 1086.21 28.2827 1084.86 29.104C1083.54 29.9253 1082.47 31.0267 1081.67 32.408C1080.89 33.7893 1080.5 35.32 1080.5 37C1080.5 38.6987 1080.9 40.2387 1081.7 41.62C1082.52 42.9827 1083.59 44.0747 1084.92 44.896C1086.26 45.6987 1087.73 46.1 1089.32 46.1ZM1138.79 28.824H1132.91L1132.88 51H1127.06L1127.09 28.824H1122.64V23H1127.09L1127.06 14.208H1132.88L1132.91 23H1138.79V28.824ZM1155.47 51.728C1152.89 51.728 1150.54 51.0653 1148.41 49.74C1146.3 48.4147 1144.61 46.6413 1143.35 44.42C1142.09 42.18 1141.47 39.7067 1141.47 37C1141.47 34.9467 1141.83 33.0333 1142.56 31.26C1143.29 29.468 1144.29 27.9 1145.56 26.556C1146.85 25.1933 1148.34 24.1293 1150.04 23.364C1151.74 22.5987 1153.55 22.216 1155.47 22.216C1157.62 22.216 1159.59 22.664 1161.38 23.56C1163.17 24.4373 1164.7 25.66 1165.97 27.228C1167.24 28.7773 1168.17 30.5693 1168.77 32.604C1169.37 34.62 1169.54 36.7667 1169.3 39.044H1147.71C1147.96 40.332 1148.42 41.4987 1149.11 42.544C1149.82 43.5707 1150.72 44.3827 1151.8 44.98C1152.9 45.5773 1154.13 45.8853 1155.47 45.904C1156.89 45.904 1158.18 45.5493 1159.33 44.84C1160.51 44.1307 1161.47 43.1507 1162.22 41.9L1168.13 43.272C1167.01 45.7547 1165.32 47.7893 1163.06 49.376C1160.8 50.944 1158.27 51.728 1155.47 51.728ZM1147.52 34.592H1163.42C1163.23 33.248 1162.76 32.0347 1161.99 30.952C1161.25 29.8507 1160.3 28.9827 1159.17 28.348C1158.05 27.6947 1156.81 27.368 1155.47 27.368C1154.14 27.368 1152.91 27.6853 1151.77 28.32C1150.65 28.9547 1149.72 29.8227 1148.97 30.924C1148.25 32.0067 1147.76 33.2293 1147.52 34.592ZM1182.45 51.532C1180.97 51.4387 1179.54 51.14 1178.14 50.636C1176.74 50.132 1175.5 49.4507 1174.44 48.592C1173.39 47.7147 1172.61 46.688 1172.09 45.512L1177.04 43.384C1177.29 43.888 1177.71 44.3827 1178.3 44.868C1178.92 45.3533 1179.64 45.7547 1180.46 46.072C1181.28 46.3707 1182.14 46.52 1183.04 46.52C1183.91 46.52 1184.72 46.3987 1185.47 46.156C1186.24 45.8947 1186.86 45.5027 1187.35 44.98C1187.83 44.4573 1188.08 43.832 1188.08 43.104C1188.08 42.2827 1187.8 41.648 1187.24 41.2C1186.69 40.7333 1186.01 40.3787 1185.19 40.136C1184.37 39.8933 1183.55 39.66 1182.73 39.436C1180.9 39.0253 1179.22 38.4653 1177.69 37.756C1176.18 37.028 1174.97 36.104 1174.08 34.984C1173.18 33.8453 1172.73 32.4547 1172.73 30.812C1172.73 29.02 1173.22 27.4707 1174.19 26.164C1175.16 24.8387 1176.43 23.8213 1178 23.112C1179.58 22.4027 1181.27 22.048 1183.06 22.048C1185.3 22.048 1187.36 22.524 1189.22 23.476C1191.09 24.428 1192.52 25.7347 1193.51 27.396L1188.89 30.14C1188.61 29.58 1188.19 29.076 1187.63 28.628C1187.07 28.18 1186.43 27.8253 1185.72 27.564C1185.01 27.284 1184.28 27.1253 1183.51 27.088C1182.56 27.0507 1181.67 27.1627 1180.85 27.424C1180.05 27.6667 1179.4 28.0587 1178.92 28.6C1178.43 29.1413 1178.19 29.832 1178.19 30.672C1178.19 31.4933 1178.48 32.1093 1179.06 32.52C1179.64 32.912 1180.37 33.2293 1181.24 33.472C1182.14 33.7147 1183.05 33.9853 1183.99 34.284C1185.65 34.8067 1187.21 35.4507 1188.66 36.216C1190.12 36.9627 1191.3 37.8867 1192.19 38.988C1193.09 40.0893 1193.52 41.4333 1193.48 43.02C1193.48 44.7747 1192.95 46.3147 1191.88 47.64C1190.84 48.9653 1189.48 49.9733 1187.8 50.664C1186.12 51.3547 1184.33 51.644 1182.45 51.532ZM1213.06 28.824H1207.18L1207.15 51H1201.33L1201.35 28.824H1196.9V23H1201.35L1201.33 14.208H1207.15L1207.18 23H1213.06V28.824ZM580.624 105.048L585.832 107.876C584.563 109.649 582.948 111.068 580.988 112.132C579.047 113.196 576.938 113.728 574.66 113.728C572.084 113.728 569.732 113.065 567.604 111.74C565.495 110.415 563.806 108.641 562.536 106.42C561.286 104.18 560.66 101.707 560.66 99C560.66 96.9467 561.024 95.0333 561.752 93.26C562.48 91.468 563.479 89.9 564.748 88.556C566.036 87.1933 567.53 86.1293 569.228 85.364C570.927 84.5987 572.738 84.216 574.66 84.216C576.938 84.216 579.047 84.748 580.988 85.812C582.948 86.876 584.563 88.304 585.832 90.096L580.624 92.924C579.84 91.9907 578.926 91.2813 577.88 90.796C576.835 90.292 575.762 90.04 574.66 90.04C573.13 90.04 571.739 90.46 570.488 91.3C569.256 92.1213 568.276 93.2133 567.548 94.576C566.839 95.92 566.484 97.3947 566.484 99C566.484 100.587 566.848 102.061 567.576 103.424C568.304 104.768 569.284 105.851 570.516 106.672C571.767 107.493 573.148 107.904 574.66 107.904C575.818 107.904 576.919 107.643 577.964 107.12C579.01 106.597 579.896 105.907 580.624 105.048ZM608.317 85H614.533L599.189 127H593.001L598.069 113L588.017 85H594.373L600.981 105.02L608.317 85ZM636.023 105.048L641.231 107.876C639.962 109.649 638.347 111.068 636.387 112.132C634.446 113.196 632.336 113.728 630.059 113.728C627.483 113.728 625.131 113.065 623.003 111.74C620.894 110.415 619.204 108.641 617.935 106.42C616.684 104.18 616.059 101.707 616.059 99C616.059 96.9467 616.423 95.0333 617.151 93.26C617.879 91.468 618.878 89.9 620.147 88.556C621.435 87.1933 622.928 86.1293 624.627 85.364C626.326 84.5987 628.136 84.216 630.059 84.216C632.336 84.216 634.446 84.748 636.387 85.812C638.347 86.876 639.962 88.304 641.231 90.096L636.023 92.924C635.239 91.9907 634.324 91.2813 633.279 90.796C632.234 90.292 631.16 90.04 630.059 90.04C628.528 90.04 627.138 90.46 625.887 91.3C624.655 92.1213 623.675 93.2133 622.947 94.576C622.238 95.92 621.883 97.3947 621.883 99C621.883 100.587 622.247 102.061 622.975 103.424C623.703 104.768 624.683 105.851 625.915 106.672C627.166 107.493 628.547 107.904 630.059 107.904C631.216 107.904 632.318 107.643 633.363 107.12C634.408 106.597 635.295 105.907 636.023 105.048ZM645.575 113V71H651.399V113H645.575ZM670.035 113.728C667.459 113.728 665.107 113.065 662.979 111.74C660.87 110.415 659.181 108.641 657.911 106.42C656.661 104.18 656.035 101.707 656.035 99C656.035 96.9467 656.399 95.0333 657.127 93.26C657.855 91.468 658.854 89.9 660.123 88.556C661.411 87.1933 662.905 86.1293 664.603 85.364C666.302 84.5987 668.113 84.216 670.035 84.216C672.182 84.216 674.151 84.664 675.943 85.56C677.735 86.4373 679.266 87.66 680.535 89.228C681.805 90.7773 682.738 92.5693 683.335 94.604C683.933 96.62 684.11 98.7667 683.867 101.044H662.279C662.522 102.332 662.989 103.499 663.679 104.544C664.389 105.571 665.285 106.383 666.367 106.98C667.469 107.577 668.691 107.885 670.035 107.904C671.454 107.904 672.742 107.549 673.899 106.84C675.075 106.131 676.037 105.151 676.783 103.9L682.691 105.272C681.571 107.755 679.882 109.789 677.623 111.376C675.365 112.944 672.835 113.728 670.035 113.728ZM662.083 96.592H677.987C677.801 95.248 677.325 94.0347 676.559 92.952C675.813 91.8507 674.87 90.9827 673.731 90.348C672.611 89.6947 671.379 89.368 670.035 89.368C668.71 89.368 667.478 89.6853 666.339 90.32C665.219 90.9547 664.286 91.8227 663.539 92.924C662.811 94.0067 662.326 95.2293 662.083 96.592ZM697.014 113.532C695.539 113.439 694.102 113.14 692.702 112.636C691.302 112.132 690.07 111.451 689.006 110.592C687.961 109.715 687.177 108.688 686.654 107.512L691.61 105.384C691.853 105.888 692.273 106.383 692.87 106.868C693.486 107.353 694.205 107.755 695.026 108.072C695.847 108.371 696.706 108.52 697.602 108.52C698.479 108.52 699.291 108.399 700.038 108.156C700.803 107.895 701.429 107.503 701.914 106.98C702.399 106.457 702.642 105.832 702.642 105.104C702.642 104.283 702.362 103.648 701.802 103.2C701.261 102.733 700.579 102.379 699.758 102.136C698.937 101.893 698.115 101.66 697.294 101.436C695.465 101.025 693.785 100.465 692.254 99.756C690.742 99.028 689.538 98.104 688.642 96.984C687.746 95.8453 687.298 94.4547 687.298 92.812C687.298 91.02 687.783 89.4707 688.754 88.164C689.725 86.8387 690.994 85.8213 692.562 85.112C694.149 84.4027 695.838 84.048 697.63 84.048C699.87 84.048 701.923 84.524 703.79 85.476C705.657 86.428 707.085 87.7347 708.074 89.396L703.454 92.14C703.174 91.58 702.754 91.076 702.194 90.628C701.634 90.18 700.999 89.8253 700.29 89.564C699.581 89.284 698.843 89.1253 698.078 89.088C697.126 89.0507 696.239 89.1627 695.418 89.424C694.615 89.6667 693.971 90.0587 693.486 90.6C693.001 91.1413 692.758 91.832 692.758 92.672C692.758 93.4933 693.047 94.1093 693.626 94.52C694.205 94.912 694.933 95.2293 695.81 95.472C696.706 95.7147 697.621 95.9853 698.554 96.284C700.215 96.8067 701.774 97.4507 703.23 98.216C704.686 98.9627 705.862 99.8867 706.758 100.988C707.654 102.089 708.083 103.433 708.046 105.02C708.046 106.775 707.514 108.315 706.45 109.64C705.405 110.965 704.042 111.973 702.362 112.664C700.682 113.355 698.899 113.644 697.014 113.532ZM714.554 113.728C713.695 113.728 712.967 113.429 712.37 112.832C711.791 112.235 711.502 111.507 711.502 110.648C711.502 109.808 711.791 109.089 712.37 108.492C712.967 107.895 713.695 107.596 714.554 107.596C715.412 107.596 716.14 107.895 716.738 108.492C717.335 109.089 717.634 109.808 717.634 110.648C717.634 111.507 717.335 112.235 716.738 112.832C716.14 113.429 715.412 113.728 714.554 113.728Z" fill="url(#paint0_linear_6_121)"/>
<defs>
<linearGradient id="paint0_linear_6_121" x1="306.006" y1="14.2039" x2="944.591" y2="15.7216" gradientUnits="userSpaceOnUse">
<stop offset="0.0104167" stop-color="#4E4BE4"/>
<stop offset="1" stop-color="#E862FE"/>
</linearGradient>
</defs>
</svg>
