<svg width="1247" height="84" viewBox="0 0 1247 84" fill="none" xmlns="http://www.w3.org/2000/svg">
<path d="M6.32713 25L0.599125 2.6H3.36713L7.87913 20.28L12.3751 2.6H14.7911L19.3031 20.28L23.7991 2.6H26.5671L20.8711 25H17.7351L13.5911 8.776L9.44713 25H6.32713ZM28.2169 9H30.9049V25H28.2169V9ZM29.5929 6.392C29.1662 6.392 28.8089 6.25333 28.5209 5.976C28.2329 5.69867 28.0889 5.352 28.0889 4.936C28.0889 4.52 28.2329 4.17333 28.5209 3.896C28.8089 3.61867 29.1609 3.48 29.5769 3.48C29.9929 3.48 30.3449 3.61867 30.6329 3.896C30.9209 4.17333 31.0649 4.52 31.0649 4.936C31.0649 5.352 30.9209 5.69867 30.6329 5.976C30.3555 6.25333 30.0089 6.392 29.5929 6.392ZM43.0361 11.688H39.4041L39.3881 25H36.7001L36.7161 11.688H33.9641V9H36.7161L36.7001 3.976H39.3881L39.4041 9H43.0361V11.688ZM60.0484 15.048V25H57.3604V15.64C57.3604 14.8293 57.163 14.0933 56.7684 13.432C56.3737 12.7707 55.8457 12.248 55.1844 11.864C54.523 11.4693 53.787 11.272 52.9764 11.272C52.1764 11.272 51.4404 11.4693 50.7684 11.864C50.107 12.248 49.579 12.7707 49.1844 13.432C48.7897 14.0933 48.5924 14.8293 48.5924 15.64V25H45.9044V0.999998H48.5924V11C49.1577 10.2533 49.8724 9.66133 50.7364 9.224C51.6004 8.776 52.539 8.552 53.5524 8.552C54.747 8.552 55.835 8.84533 56.8164 9.432C57.8084 10.008 58.5924 10.7867 59.1684 11.768C59.755 12.7493 60.0484 13.8427 60.0484 15.048ZM78.4396 2.6H81.6876L89.8316 25H86.9836L85.3196 20.424H74.8076L73.1596 25H70.2956L78.4396 2.6ZM75.7996 17.736H84.3276L80.0556 6.04L75.7996 17.736ZM93.2281 25V2.6H95.9161V25H93.2281ZM100.248 14.056H110.488V16.744H100.248V14.056ZM127.222 0.999998H129.91V25H127.222V22.28C126.678 23.2187 125.947 23.976 125.03 24.552C124.113 25.128 123.035 25.416 121.798 25.416C120.635 25.416 119.547 25.1973 118.534 24.76C117.521 24.3227 116.625 23.72 115.846 22.952C115.078 22.1733 114.475 21.2773 114.038 20.264C113.601 19.2507 113.382 18.1627 113.382 17C113.382 15.8373 113.601 14.7493 114.038 13.736C114.475 12.712 115.078 11.816 115.846 11.048C116.625 10.2693 117.521 9.66133 118.534 9.224C119.547 8.78667 120.635 8.568 121.798 8.568C123.035 8.568 124.113 8.856 125.03 9.432C125.947 10.008 126.678 10.7653 127.222 11.704V0.999998ZM121.83 22.808C122.886 22.808 123.798 22.552 124.566 22.04C125.345 21.5173 125.942 20.8133 126.358 19.928C126.785 19.0427 126.998 18.0667 126.998 17C126.998 15.912 126.785 14.9307 126.358 14.056C125.931 13.1707 125.329 12.472 124.55 11.96C123.782 11.4373 122.875 11.176 121.83 11.176C120.774 11.176 119.814 11.4373 118.95 11.96C118.097 12.4827 117.414 13.1867 116.902 14.072C116.39 14.9467 116.134 15.9227 116.134 17C116.134 18.0773 116.395 19.0587 116.918 19.944C117.441 20.8187 118.134 21.5173 118.998 22.04C119.862 22.552 120.806 22.808 121.83 22.808ZM133.748 25V9H136.436V11C137.001 10.2533 137.716 9.66133 138.58 9.224C139.444 8.776 140.383 8.552 141.396 8.552C142.015 8.552 142.612 8.632 143.188 8.792L142.1 11.48C141.663 11.3413 141.236 11.272 140.82 11.272C140.02 11.272 139.284 11.4693 138.612 11.864C137.951 12.248 137.423 12.7707 137.028 13.432C136.633 14.0933 136.436 14.8293 136.436 15.64V25H133.748ZM145.154 9H147.842V25H145.154V9ZM146.53 6.392C146.104 6.392 145.746 6.25333 145.458 5.976C145.17 5.69867 145.026 5.352 145.026 4.936C145.026 4.52 145.17 4.17333 145.458 3.896C145.746 3.61867 146.098 3.48 146.514 3.48C146.93 3.48 147.282 3.61867 147.57 3.896C147.858 4.17333 148.002 4.52 148.002 4.936C148.002 5.352 147.858 5.69867 147.57 5.976C147.293 6.25333 146.946 6.392 146.53 6.392ZM159.724 25H156.284L150.444 8.968H153.308L157.996 21.88L162.684 8.968H165.548L159.724 25ZM174.569 25.416C173.097 25.416 171.753 25.0373 170.537 24.28C169.332 23.5227 168.367 22.5093 167.641 21.24C166.927 19.96 166.569 18.5467 166.569 17C166.569 15.8267 166.777 14.7333 167.193 13.72C167.609 12.696 168.18 11.8 168.905 11.032C169.641 10.2533 170.495 9.64533 171.465 9.208C172.436 8.77067 173.471 8.552 174.569 8.552C175.775 8.552 176.879 8.79733 177.881 9.288C178.895 9.768 179.759 10.44 180.473 11.304C181.199 12.168 181.737 13.1707 182.089 14.312C182.452 15.4533 182.585 16.6747 182.489 17.976H169.433C169.561 18.8827 169.86 19.6933 170.329 20.408C170.799 21.112 171.396 21.672 172.121 22.088C172.857 22.504 173.673 22.7173 174.569 22.728C175.529 22.728 176.399 22.4827 177.177 21.992C177.956 21.4907 178.585 20.808 179.065 19.944L181.801 20.584C181.161 22.0027 180.196 23.1653 178.905 24.072C177.615 24.968 176.169 25.416 174.569 25.416ZM169.353 15.864H179.785C179.7 14.968 179.412 14.152 178.921 13.416C178.431 12.6693 177.807 12.072 177.049 11.624C176.292 11.176 175.465 10.952 174.569 10.952C173.673 10.952 172.852 11.1707 172.105 11.608C171.359 12.0453 170.74 12.6373 170.249 13.384C169.769 14.12 169.471 14.9467 169.353 15.864ZM199.33 15.048V25H196.642V15.64C196.642 14.8293 196.444 14.0933 196.05 13.432C195.655 12.7707 195.127 12.248 194.466 11.864C193.804 11.4693 193.068 11.272 192.258 11.272C191.458 11.272 190.722 11.4693 190.05 11.864C189.388 12.248 188.86 12.7707 188.466 13.432C188.071 14.0933 187.874 14.8293 187.874 15.64V25H185.186V9H187.874V11C188.439 10.2533 189.154 9.66133 190.018 9.224C190.882 8.776 191.82 8.552 192.834 8.552C194.028 8.552 195.116 8.84533 196.098 9.432C197.09 10.008 197.874 10.7867 198.45 11.768C199.036 12.7493 199.33 13.8427 199.33 15.048ZM218.505 11.688H214.873L214.857 25H212.169L212.185 11.688H209.433V9H212.185L212.169 3.976H214.857L214.873 9H218.505V11.688ZM228.007 25.416C226.535 25.416 225.191 25.0373 223.975 24.28C222.77 23.5227 221.804 22.5093 221.079 21.24C220.364 19.96 220.007 18.5467 220.007 17C220.007 15.8267 220.215 14.7333 220.631 13.72C221.047 12.696 221.618 11.8 222.343 11.032C223.079 10.2533 223.932 9.64533 224.903 9.208C225.874 8.77067 226.908 8.552 228.007 8.552C229.212 8.552 230.316 8.79733 231.319 9.288C232.332 9.768 233.196 10.44 233.911 11.304C234.636 12.168 235.175 13.1707 235.527 14.312C235.89 15.4533 236.023 16.6747 235.927 17.976H222.871C222.999 18.8827 223.298 19.6933 223.767 20.408C224.236 21.112 224.834 21.672 225.559 22.088C226.295 22.504 227.111 22.7173 228.007 22.728C228.967 22.728 229.836 22.4827 230.615 21.992C231.394 21.4907 232.023 20.808 232.503 19.944L235.239 20.584C234.599 22.0027 233.634 23.1653 232.343 24.072C231.052 24.968 229.607 25.416 228.007 25.416ZM222.791 15.864H233.223C233.138 14.968 232.85 14.152 232.359 13.416C231.868 12.6693 231.244 12.072 230.487 11.624C229.73 11.176 228.903 10.952 228.007 10.952C227.111 10.952 226.29 11.1707 225.543 11.608C224.796 12.0453 224.178 12.6373 223.687 13.384C223.207 14.12 222.908 14.9467 222.791 15.864ZM243.566 25.304C242.702 25.272 241.859 25.112 241.038 24.824C240.227 24.5253 239.512 24.1253 238.894 23.624C238.286 23.112 237.843 22.5253 237.566 21.864L239.87 20.872C240.03 21.2347 240.318 21.576 240.734 21.896C241.15 22.216 241.63 22.472 242.174 22.664C242.718 22.856 243.267 22.952 243.822 22.952C244.408 22.952 244.958 22.8613 245.47 22.68C245.982 22.4987 246.398 22.232 246.718 21.88C247.048 21.5173 247.214 21.0853 247.214 20.584C247.214 20.0507 247.032 19.6347 246.67 19.336C246.318 19.0267 245.87 18.7867 245.326 18.616C244.792 18.4347 244.248 18.264 243.694 18.104C242.595 17.8267 241.614 17.496 240.75 17.112C239.886 16.7173 239.203 16.2213 238.702 15.624C238.211 15.016 237.966 14.2427 237.966 13.304C237.966 12.312 238.238 11.4533 238.782 10.728C239.336 10.0027 240.062 9.44267 240.958 9.048C241.854 8.65333 242.814 8.456 243.838 8.456C245.128 8.456 246.307 8.73333 247.374 9.288C248.44 9.84267 249.235 10.5947 249.758 11.544L247.598 12.808C247.416 12.424 247.139 12.088 246.766 11.8C246.392 11.5013 245.966 11.2667 245.486 11.096C245.006 10.9253 244.515 10.8347 244.014 10.824C243.395 10.8027 242.814 10.8827 242.27 11.064C241.736 11.2453 241.304 11.5227 240.974 11.896C240.654 12.2587 240.494 12.712 240.494 13.256C240.494 13.7893 240.664 14.1947 241.006 14.472C241.358 14.7493 241.811 14.9733 242.366 15.144C242.931 15.304 243.544 15.4907 244.206 15.704C245.176 16.0133 246.083 16.3707 246.926 16.776C247.768 17.1813 248.446 17.688 248.958 18.296C249.48 18.904 249.736 19.656 249.726 20.552C249.726 21.5333 249.432 22.392 248.846 23.128C248.259 23.8533 247.496 24.408 246.558 24.792C245.63 25.176 244.632 25.3467 243.566 25.304ZM260.755 11.688H257.123L257.107 25H254.419L254.435 11.688H251.683V9H254.435L254.419 3.976H257.107L257.123 9H260.755V11.688ZM282.335 20.776L284.735 22.072C284.009 23.0853 283.087 23.896 281.967 24.504C280.857 25.112 279.652 25.416 278.351 25.416C276.879 25.416 275.535 25.0373 274.319 24.28C273.113 23.5227 272.148 22.5093 271.423 21.24C270.708 19.96 270.351 18.5467 270.351 17C270.351 15.8267 270.559 14.7333 270.975 13.72C271.391 12.696 271.961 11.8 272.687 11.032C273.423 10.2533 274.276 9.64533 275.247 9.208C276.217 8.77067 277.252 8.552 278.351 8.552C279.652 8.552 280.857 8.856 281.967 9.464C283.087 10.072 284.009 10.888 284.735 11.912L282.335 13.208C281.823 12.5787 281.215 12.0933 280.511 11.752C279.807 11.4107 279.087 11.24 278.351 11.24C277.359 11.24 276.457 11.5067 275.647 12.04C274.847 12.5627 274.212 13.2613 273.743 14.136C273.273 15.0107 273.039 15.9653 273.039 17C273.039 18.0347 273.273 18.9893 273.743 19.864C274.223 20.728 274.863 21.4213 275.663 21.944C276.473 22.4667 277.369 22.728 278.351 22.728C279.14 22.728 279.881 22.5467 280.575 22.184C281.268 21.8213 281.855 21.352 282.335 20.776ZM300.206 9H302.894V25H300.206L300.094 22.296C299.593 23.224 298.899 23.976 298.014 24.552C297.139 25.128 296.094 25.416 294.878 25.416C293.705 25.416 292.606 25.1973 291.582 24.76C290.558 24.312 289.651 23.6987 288.862 22.92C288.083 22.1307 287.475 21.224 287.038 20.2C286.601 19.176 286.382 18.072 286.382 16.888C286.382 15.7467 286.595 14.6693 287.022 13.656C287.449 12.6427 288.041 11.7573 288.798 11C289.566 10.232 290.451 9.63467 291.454 9.208C292.457 8.77067 293.534 8.552 294.686 8.552C295.945 8.552 297.049 8.85067 297.998 9.448C298.947 10.0347 299.715 10.7973 300.302 11.736L300.206 9ZM294.83 22.808C295.886 22.808 296.798 22.552 297.566 22.04C298.345 21.5173 298.942 20.8133 299.358 19.928C299.785 19.0427 299.998 18.0667 299.998 17C299.998 15.912 299.785 14.9307 299.358 14.056C298.931 13.1707 298.329 12.472 297.55 11.96C296.782 11.4373 295.875 11.176 294.83 11.176C293.774 11.176 292.814 11.4373 291.95 11.96C291.086 12.4827 290.398 13.1867 289.886 14.072C289.385 14.9467 289.134 15.9227 289.134 17C289.134 18.0773 289.395 19.0587 289.918 19.944C290.441 20.8187 291.134 21.5173 291.998 22.04C292.862 22.552 293.806 22.808 294.83 22.808ZM310.972 25.304C310.108 25.272 309.265 25.112 308.444 24.824C307.633 24.5253 306.919 24.1253 306.3 23.624C305.692 23.112 305.249 22.5253 304.972 21.864L307.276 20.872C307.436 21.2347 307.724 21.576 308.14 21.896C308.556 22.216 309.036 22.472 309.58 22.664C310.124 22.856 310.673 22.952 311.228 22.952C311.815 22.952 312.364 22.8613 312.876 22.68C313.388 22.4987 313.804 22.232 314.124 21.88C314.455 21.5173 314.62 21.0853 314.62 20.584C314.62 20.0507 314.439 19.6347 314.076 19.336C313.724 19.0267 313.276 18.7867 312.732 18.616C312.199 18.4347 311.655 18.264 311.1 18.104C310.001 17.8267 309.02 17.496 308.156 17.112C307.292 16.7173 306.609 16.2213 306.108 15.624C305.617 15.016 305.372 14.2427 305.372 13.304C305.372 12.312 305.644 11.4533 306.188 10.728C306.743 10.0027 307.468 9.44267 308.364 9.048C309.26 8.65333 310.22 8.456 311.244 8.456C312.535 8.456 313.713 8.73333 314.78 9.288C315.847 9.84267 316.641 10.5947 317.164 11.544L315.004 12.808C314.823 12.424 314.545 12.088 314.172 11.8C313.799 11.5013 313.372 11.2667 312.892 11.096C312.412 10.9253 311.921 10.8347 311.42 10.824C310.801 10.8027 310.22 10.8827 309.676 11.064C309.143 11.2453 308.711 11.5227 308.38 11.896C308.06 12.2587 307.9 12.712 307.9 13.256C307.9 13.7893 308.071 14.1947 308.412 14.472C308.764 14.7493 309.217 14.9733 309.772 15.144C310.337 15.304 310.951 15.4907 311.612 15.704C312.583 16.0133 313.489 16.3707 314.332 16.776C315.175 17.1813 315.852 17.688 316.364 18.296C316.887 18.904 317.143 19.656 317.132 20.552C317.132 21.5333 316.839 22.392 316.252 23.128C315.665 23.8533 314.903 24.408 313.964 24.792C313.036 25.176 312.039 25.3467 310.972 25.304ZM326.757 25.416C325.285 25.416 323.941 25.0373 322.725 24.28C321.52 23.5227 320.554 22.5093 319.829 21.24C319.114 19.96 318.757 18.5467 318.757 17C318.757 15.8267 318.965 14.7333 319.381 13.72C319.797 12.696 320.368 11.8 321.093 11.032C321.829 10.2533 322.682 9.64533 323.653 9.208C324.624 8.77067 325.658 8.552 326.757 8.552C327.962 8.552 329.066 8.79733 330.069 9.288C331.082 9.768 331.946 10.44 332.661 11.304C333.386 12.168 333.925 13.1707 334.277 14.312C334.64 15.4533 334.773 16.6747 334.677 17.976H321.621C321.749 18.8827 322.048 19.6933 322.517 20.408C322.986 21.112 323.584 21.672 324.309 22.088C325.045 22.504 325.861 22.7173 326.757 22.728C327.717 22.728 328.586 22.4827 329.365 21.992C330.144 21.4907 330.773 20.808 331.253 19.944L333.989 20.584C333.349 22.0027 332.384 23.1653 331.093 24.072C329.802 24.968 328.357 25.416 326.757 25.416ZM321.541 15.864H331.973C331.888 14.968 331.6 14.152 331.109 13.416C330.618 12.6693 329.994 12.072 329.237 11.624C328.48 11.176 327.653 10.952 326.757 10.952C325.861 10.952 325.04 11.1707 324.293 11.608C323.546 12.0453 322.928 12.6373 322.437 13.384C321.957 14.12 321.658 14.9467 321.541 15.864ZM357.775 9H360.463V25.512C360.463 26.568 360.234 27.5493 359.775 28.456C359.327 29.3733 358.719 30.168 357.951 30.84C357.183 31.5227 356.309 32.0507 355.327 32.424C354.346 32.808 353.322 33 352.255 33C351.146 33 350.074 32.7493 349.039 32.248C348.005 31.7573 347.098 31.096 346.319 30.264C345.551 29.4427 344.997 28.52 344.655 27.496L347.119 26.376C347.322 27.112 347.685 27.7733 348.207 28.36C348.741 28.9573 349.359 29.4267 350.063 29.768C350.778 30.12 351.509 30.296 352.255 30.296C352.959 30.296 353.637 30.1733 354.287 29.928C354.949 29.6827 355.541 29.3413 356.063 28.904C356.597 28.4773 357.013 27.9707 357.311 27.384C357.621 26.808 357.775 26.184 357.775 25.512V22.328C357.231 23.2453 356.511 23.992 355.615 24.568C354.73 25.1333 353.695 25.416 352.511 25.416C351.381 25.416 350.319 25.1973 349.327 24.76C348.335 24.3227 347.466 23.72 346.719 22.952C345.973 22.1733 345.386 21.2773 344.959 20.264C344.533 19.2507 344.319 18.1627 344.319 17C344.319 15.8373 344.533 14.7493 344.959 13.736C345.386 12.712 345.973 11.816 346.719 11.048C347.466 10.2693 348.335 9.66133 349.327 9.224C350.319 8.78667 351.381 8.568 352.511 8.568C353.695 8.568 354.73 8.85067 355.615 9.416C356.511 9.98133 357.231 10.728 357.775 11.656V9ZM352.527 22.808C353.562 22.808 354.458 22.5413 355.215 22.008C355.983 21.4747 356.575 20.7653 356.991 19.88C357.407 18.9947 357.615 18.0347 357.615 17C357.615 15.9333 357.402 14.9627 356.975 14.088C356.559 13.2027 355.967 12.4987 355.199 11.976C354.442 11.4427 353.551 11.176 352.527 11.176C351.525 11.176 350.607 11.4373 349.775 11.96C348.943 12.4827 348.282 13.1867 347.791 14.072C347.311 14.9467 347.071 15.9227 347.071 17C347.071 18.0773 347.317 19.0587 347.807 19.944C348.309 20.8187 348.97 21.5173 349.791 22.04C350.623 22.552 351.535 22.808 352.527 22.808ZM371.132 25.416C369.66 25.416 368.316 25.0373 367.1 24.28C365.895 23.5227 364.929 22.5093 364.204 21.24C363.489 19.96 363.132 18.5467 363.132 17C363.132 15.8267 363.34 14.7333 363.756 13.72C364.172 12.696 364.743 11.8 365.468 11.032C366.204 10.2533 367.057 9.64533 368.028 9.208C368.999 8.77067 370.033 8.552 371.132 8.552C372.337 8.552 373.441 8.79733 374.444 9.288C375.457 9.768 376.321 10.44 377.036 11.304C377.761 12.168 378.3 13.1707 378.652 14.312C379.015 15.4533 379.148 16.6747 379.052 17.976H365.996C366.124 18.8827 366.423 19.6933 366.892 20.408C367.361 21.112 367.959 21.672 368.684 22.088C369.42 22.504 370.236 22.7173 371.132 22.728C372.092 22.728 372.961 22.4827 373.74 21.992C374.519 21.4907 375.148 20.808 375.628 19.944L378.364 20.584C377.724 22.0027 376.759 23.1653 375.468 24.072C374.177 24.968 372.732 25.416 371.132 25.416ZM365.916 15.864H376.348C376.263 14.968 375.975 14.152 375.484 13.416C374.993 12.6693 374.369 12.072 373.612 11.624C372.855 11.176 372.028 10.952 371.132 10.952C370.236 10.952 369.415 11.1707 368.668 11.608C367.921 12.0453 367.303 12.6373 366.812 13.384C366.332 14.12 366.033 14.9467 365.916 15.864ZM395.892 15.048V25H393.204V15.64C393.204 14.8293 393.007 14.0933 392.612 13.432C392.217 12.7707 391.689 12.248 391.028 11.864C390.367 11.4693 389.631 11.272 388.82 11.272C388.02 11.272 387.284 11.4693 386.612 11.864C385.951 12.248 385.423 12.7707 385.028 13.432C384.633 14.0933 384.436 14.8293 384.436 15.64V25H381.748V9H384.436V11C385.001 10.2533 385.716 9.66133 386.58 9.224C387.444 8.776 388.383 8.552 389.396 8.552C390.591 8.552 391.679 8.84533 392.66 9.432C393.652 10.008 394.436 10.7867 395.012 11.768C395.599 12.7493 395.892 13.8427 395.892 15.048ZM405.819 25.416C404.347 25.416 403.003 25.0373 401.787 24.28C400.582 23.5227 399.617 22.5093 398.891 21.24C398.177 19.96 397.819 18.5467 397.819 17C397.819 15.8267 398.027 14.7333 398.443 13.72C398.859 12.696 399.43 11.8 400.155 11.032C400.891 10.2533 401.745 9.64533 402.715 9.208C403.686 8.77067 404.721 8.552 405.819 8.552C407.025 8.552 408.129 8.79733 409.131 9.288C410.145 9.768 411.009 10.44 411.723 11.304C412.449 12.168 412.987 13.1707 413.339 14.312C413.702 15.4533 413.835 16.6747 413.739 17.976H400.683C400.811 18.8827 401.11 19.6933 401.579 20.408C402.049 21.112 402.646 21.672 403.371 22.088C404.107 22.504 404.923 22.7173 405.819 22.728C406.779 22.728 407.649 22.4827 408.427 21.992C409.206 21.4907 409.835 20.808 410.315 19.944L413.051 20.584C412.411 22.0027 411.446 23.1653 410.155 24.072C408.865 24.968 407.419 25.416 405.819 25.416ZM400.603 15.864H411.035C410.95 14.968 410.662 14.152 410.171 13.416C409.681 12.6693 409.057 12.072 408.299 11.624C407.542 11.176 406.715 10.952 405.819 10.952C404.923 10.952 404.102 11.1707 403.355 11.608C402.609 12.0453 401.99 12.6373 401.499 13.384C401.019 14.12 400.721 14.9467 400.603 15.864ZM416.436 25V9H419.124V11C419.689 10.2533 420.404 9.66133 421.268 9.224C422.132 8.776 423.07 8.552 424.084 8.552C424.702 8.552 425.3 8.632 425.876 8.792L424.788 11.48C424.35 11.3413 423.924 11.272 423.508 11.272C422.708 11.272 421.972 11.4693 421.3 11.864C420.638 12.248 420.11 12.7707 419.716 13.432C419.321 14.0933 419.124 14.8293 419.124 15.64V25H416.436ZM439.893 9H442.581V25H439.893L439.781 22.296C439.28 23.224 438.587 23.976 437.701 24.552C436.827 25.128 435.781 25.416 434.565 25.416C433.392 25.416 432.293 25.1973 431.269 24.76C430.245 24.312 429.339 23.6987 428.549 22.92C427.771 22.1307 427.163 21.224 426.725 20.2C426.288 19.176 426.069 18.072 426.069 16.888C426.069 15.7467 426.283 14.6693 426.709 13.656C427.136 12.6427 427.728 11.7573 428.485 11C429.253 10.232 430.139 9.63467 431.141 9.208C432.144 8.77067 433.221 8.552 434.373 8.552C435.632 8.552 436.736 8.85067 437.685 9.448C438.635 10.0347 439.403 10.7973 439.989 11.736L439.893 9ZM434.517 22.808C435.573 22.808 436.485 22.552 437.253 22.04C438.032 21.5173 438.629 20.8133 439.045 19.928C439.472 19.0427 439.685 18.0667 439.685 17C439.685 15.912 439.472 14.9307 439.045 14.056C438.619 13.1707 438.016 12.472 437.237 11.96C436.469 11.4373 435.563 11.176 434.517 11.176C433.461 11.176 432.501 11.4373 431.637 11.96C430.773 12.4827 430.085 13.1867 429.573 14.072C429.072 14.9467 428.821 15.9227 428.821 17C428.821 18.0773 429.083 19.0587 429.605 19.944C430.128 20.8187 430.821 21.5173 431.685 22.04C432.549 22.552 433.493 22.808 434.517 22.808ZM454.067 11.688H450.435L450.419 25H447.731L447.747 11.688H444.995V9H447.747L447.731 3.976H450.419L450.435 9H454.067V11.688ZM456.779 9H459.467V25H456.779V9ZM458.155 6.392C457.729 6.392 457.371 6.25333 457.083 5.976C456.795 5.69867 456.651 5.352 456.651 4.936C456.651 4.52 456.795 4.17333 457.083 3.896C457.371 3.61867 457.723 3.48 458.139 3.48C458.555 3.48 458.907 3.61867 459.195 3.896C459.483 4.17333 459.627 4.52 459.627 4.936C459.627 5.352 459.483 5.69867 459.195 5.976C458.918 6.25333 458.571 6.392 458.155 6.392ZM470.132 25.416C468.66 25.416 467.316 25.0373 466.1 24.28C464.895 23.5227 463.929 22.5093 463.204 21.24C462.489 19.96 462.132 18.5467 462.132 17C462.132 15.8267 462.34 14.7333 462.756 13.72C463.172 12.696 463.743 11.8 464.468 11.032C465.204 10.2533 466.057 9.64533 467.028 9.208C467.999 8.77067 469.033 8.552 470.132 8.552C471.604 8.552 472.943 8.93067 474.148 9.688C475.364 10.4453 476.329 11.464 477.044 12.744C477.769 14.024 478.132 15.4427 478.132 17C478.132 18.1627 477.924 19.2507 477.508 20.264C477.092 21.2773 476.516 22.1733 475.78 22.952C475.055 23.72 474.207 24.3227 473.236 24.76C472.276 25.1973 471.241 25.416 470.132 25.416ZM470.132 22.728C471.135 22.728 472.036 22.4667 472.836 21.944C473.647 21.4107 474.281 20.712 474.74 19.848C475.209 18.9733 475.444 18.024 475.444 17C475.444 15.9547 475.204 14.9947 474.724 14.12C474.255 13.2453 473.62 12.5467 472.82 12.024C472.02 11.5013 471.124 11.24 470.132 11.24C469.129 11.24 468.228 11.5067 467.428 12.04C466.628 12.5627 465.993 13.2613 465.524 14.136C465.055 15.0107 464.82 15.9653 464.82 17C464.82 18.0667 465.06 19.0373 465.54 19.912C466.02 20.776 466.665 21.464 467.476 21.976C468.287 22.4773 469.172 22.728 470.132 22.728ZM494.923 15.048V25H492.235V15.64C492.235 14.8293 492.038 14.0933 491.643 13.432C491.249 12.7707 490.721 12.248 490.059 11.864C489.398 11.4693 488.662 11.272 487.851 11.272C487.051 11.272 486.315 11.4693 485.643 11.864C484.982 12.248 484.454 12.7707 484.059 13.432C483.665 14.0933 483.467 14.8293 483.467 15.64V25H480.779V9H483.467V11C484.033 10.2533 484.747 9.66133 485.611 9.224C486.475 8.776 487.414 8.552 488.427 8.552C489.622 8.552 490.71 8.84533 491.691 9.432C492.683 10.008 493.467 10.7867 494.043 11.768C494.63 12.7493 494.923 13.8427 494.923 15.048ZM518.675 9H521.363V25H518.675L518.563 22.296C518.061 23.224 517.368 23.976 516.483 24.552C515.608 25.128 514.563 25.416 513.347 25.416C512.173 25.416 511.075 25.1973 510.051 24.76C509.027 24.312 508.12 23.6987 507.331 22.92C506.552 22.1307 505.944 21.224 505.507 20.2C505.069 19.176 504.851 18.072 504.851 16.888C504.851 15.7467 505.064 14.6693 505.491 13.656C505.917 12.6427 506.509 11.7573 507.267 11C508.035 10.232 508.92 9.63467 509.923 9.208C510.925 8.77067 512.003 8.552 513.155 8.552C514.413 8.552 515.517 8.85067 516.467 9.448C517.416 10.0347 518.184 10.7973 518.771 11.736L518.675 9ZM513.299 22.808C514.355 22.808 515.267 22.552 516.035 22.04C516.813 21.5173 517.411 20.8133 517.827 19.928C518.253 19.0427 518.467 18.0667 518.467 17C518.467 15.912 518.253 14.9307 517.827 14.056C517.4 13.1707 516.797 12.472 516.019 11.96C515.251 11.4373 514.344 11.176 513.299 11.176C512.243 11.176 511.283 11.4373 510.419 11.96C509.555 12.4827 508.867 13.1867 508.355 14.072C507.853 14.9467 507.603 15.9227 507.603 17C507.603 18.0773 507.864 19.0587 508.387 19.944C508.909 20.8187 509.603 21.5173 510.467 22.04C511.331 22.552 512.275 22.808 513.299 22.808ZM538.705 15.048V25H536.017V15.64C536.017 14.8293 535.819 14.0933 535.425 13.432C535.03 12.7707 534.502 12.248 533.841 11.864C533.179 11.4693 532.443 11.272 531.633 11.272C530.833 11.272 530.097 11.4693 529.425 11.864C528.763 12.248 528.235 12.7707 527.841 13.432C527.446 14.0933 527.249 14.8293 527.249 15.64V25H524.561V9H527.249V11C527.814 10.2533 528.529 9.66133 529.393 9.224C530.257 8.776 531.195 8.552 532.209 8.552C533.403 8.552 534.491 8.84533 535.473 9.432C536.465 10.008 537.249 10.7867 537.825 11.768C538.411 12.7493 538.705 13.8427 538.705 15.048ZM554.472 0.999998H557.16V25H554.472V22.28C553.928 23.2187 553.197 23.976 552.28 24.552C551.363 25.128 550.285 25.416 549.048 25.416C547.885 25.416 546.797 25.1973 545.784 24.76C544.771 24.3227 543.875 23.72 543.096 22.952C542.328 22.1733 541.725 21.2773 541.288 20.264C540.851 19.2507 540.632 18.1627 540.632 17C540.632 15.8373 540.851 14.7493 541.288 13.736C541.725 12.712 542.328 11.816 543.096 11.048C543.875 10.2693 544.771 9.66133 545.784 9.224C546.797 8.78667 547.885 8.568 549.048 8.568C550.285 8.568 551.363 8.856 552.28 9.432C553.197 10.008 553.928 10.7653 554.472 11.704V0.999998ZM549.08 22.808C550.136 22.808 551.048 22.552 551.816 22.04C552.595 21.5173 553.192 20.8133 553.608 19.928C554.035 19.0427 554.248 18.0667 554.248 17C554.248 15.912 554.035 14.9307 553.608 14.056C553.181 13.1707 552.579 12.472 551.8 11.96C551.032 11.4373 550.125 11.176 549.08 11.176C548.024 11.176 547.064 11.4373 546.2 11.96C545.347 12.4827 544.664 13.1867 544.152 14.072C543.64 14.9467 543.384 15.9227 543.384 17C543.384 18.0773 543.645 19.0587 544.168 19.944C544.691 20.8187 545.384 21.5173 546.248 22.04C547.112 22.552 548.056 22.808 549.08 22.808ZM579.71 20.776L582.11 22.072C581.384 23.0853 580.462 23.896 579.342 24.504C578.232 25.112 577.027 25.416 575.726 25.416C574.254 25.416 572.91 25.0373 571.694 24.28C570.488 23.5227 569.523 22.5093 568.798 21.24C568.083 19.96 567.726 18.5467 567.726 17C567.726 15.8267 567.934 14.7333 568.35 13.72C568.766 12.696 569.336 11.8 570.062 11.032C570.798 10.2533 571.651 9.64533 572.622 9.208C573.592 8.77067 574.627 8.552 575.726 8.552C577.027 8.552 578.232 8.856 579.342 9.464C580.462 10.072 581.384 10.888 582.11 11.912L579.71 13.208C579.198 12.5787 578.59 12.0933 577.886 11.752C577.182 11.4107 576.462 11.24 575.726 11.24C574.734 11.24 573.832 11.5067 573.022 12.04C572.222 12.5627 571.587 13.2613 571.118 14.136C570.648 15.0107 570.414 15.9653 570.414 17C570.414 18.0347 570.648 18.9893 571.118 19.864C571.598 20.728 572.238 21.4213 573.038 21.944C573.848 22.4667 574.744 22.728 575.726 22.728C576.515 22.728 577.256 22.5467 577.95 22.184C578.643 21.8213 579.23 21.352 579.71 20.776ZM591.757 25.416C590.285 25.416 588.941 25.0373 587.725 24.28C586.52 23.5227 585.554 22.5093 584.829 21.24C584.114 19.96 583.757 18.5467 583.757 17C583.757 15.8267 583.965 14.7333 584.381 13.72C584.797 12.696 585.368 11.8 586.093 11.032C586.829 10.2533 587.682 9.64533 588.653 9.208C589.624 8.77067 590.658 8.552 591.757 8.552C593.229 8.552 594.568 8.93067 595.773 9.688C596.989 10.4453 597.954 11.464 598.669 12.744C599.394 14.024 599.757 15.4427 599.757 17C599.757 18.1627 599.549 19.2507 599.133 20.264C598.717 21.2773 598.141 22.1733 597.405 22.952C596.68 23.72 595.832 24.3227 594.861 24.76C593.901 25.1973 592.866 25.416 591.757 25.416ZM591.757 22.728C592.76 22.728 593.661 22.4667 594.461 21.944C595.272 21.4107 595.906 20.712 596.365 19.848C596.834 18.9733 597.069 18.024 597.069 17C597.069 15.9547 596.829 14.9947 596.349 14.12C595.88 13.2453 595.245 12.5467 594.445 12.024C593.645 11.5013 592.749 11.24 591.757 11.24C590.754 11.24 589.853 11.5067 589.053 12.04C588.253 12.5627 587.618 13.2613 587.149 14.136C586.68 15.0107 586.445 15.9653 586.445 17C586.445 18.0667 586.685 19.0373 587.165 19.912C587.645 20.776 588.29 21.464 589.101 21.976C589.912 22.4773 590.797 22.728 591.757 22.728ZM615.191 0.999998H617.879V25H615.191V22.28C614.647 23.2187 613.916 23.976 612.999 24.552C612.081 25.128 611.004 25.416 609.767 25.416C608.604 25.416 607.516 25.1973 606.503 24.76C605.489 24.3227 604.593 23.72 603.815 22.952C603.047 22.1733 602.444 21.2773 602.007 20.264C601.569 19.2507 601.351 18.1627 601.351 17C601.351 15.8373 601.569 14.7493 602.007 13.736C602.444 12.712 603.047 11.816 603.815 11.048C604.593 10.2693 605.489 9.66133 606.503 9.224C607.516 8.78667 608.604 8.568 609.767 8.568C611.004 8.568 612.081 8.856 612.999 9.432C613.916 10.008 614.647 10.7653 615.191 11.704V0.999998ZM609.799 22.808C610.855 22.808 611.767 22.552 612.535 22.04C613.313 21.5173 613.911 20.8133 614.327 19.928C614.753 19.0427 614.967 18.0667 614.967 17C614.967 15.912 614.753 14.9307 614.327 14.056C613.9 13.1707 613.297 12.472 612.519 11.96C611.751 11.4373 610.844 11.176 609.799 11.176C608.743 11.176 607.783 11.4373 606.919 11.96C606.065 12.4827 605.383 13.1867 604.871 14.072C604.359 14.9467 604.103 15.9227 604.103 17C604.103 18.0773 604.364 19.0587 604.887 19.944C605.409 20.8187 606.103 21.5173 606.967 22.04C607.831 22.552 608.775 22.808 609.799 22.808ZM628.601 25.416C627.129 25.416 625.785 25.0373 624.569 24.28C623.363 23.5227 622.398 22.5093 621.673 21.24C620.958 19.96 620.601 18.5467 620.601 17C620.601 15.8267 620.809 14.7333 621.225 13.72C621.641 12.696 622.211 11.8 622.937 11.032C623.673 10.2533 624.526 9.64533 625.497 9.208C626.467 8.77067 627.502 8.552 628.601 8.552C629.806 8.552 630.91 8.79733 631.913 9.288C632.926 9.768 633.79 10.44 634.505 11.304C635.23 12.168 635.769 13.1707 636.121 14.312C636.483 15.4533 636.617 16.6747 636.521 17.976H623.465C623.593 18.8827 623.891 19.6933 624.361 20.408C624.83 21.112 625.427 21.672 626.153 22.088C626.889 22.504 627.705 22.7173 628.601 22.728C629.561 22.728 630.43 22.4827 631.209 21.992C631.987 21.4907 632.617 20.808 633.097 19.944L635.833 20.584C635.193 22.0027 634.227 23.1653 632.937 24.072C631.646 24.968 630.201 25.416 628.601 25.416ZM623.385 15.864H633.817C633.731 14.968 633.443 14.152 632.953 13.416C632.462 12.6693 631.838 12.072 631.081 11.624C630.323 11.176 629.497 10.952 628.601 10.952C627.705 10.952 626.883 11.1707 626.137 11.608C625.39 12.0453 624.771 12.6373 624.281 13.384C623.801 14.12 623.502 14.9467 623.385 15.864ZM659.987 9H662.675V25H659.987L659.875 22.296C659.374 23.224 658.68 23.976 657.795 24.552C656.92 25.128 655.875 25.416 654.659 25.416C653.486 25.416 652.387 25.1973 651.363 24.76C650.339 24.312 649.432 23.6987 648.643 22.92C647.864 22.1307 647.256 21.224 646.819 20.2C646.382 19.176 646.163 18.072 646.163 16.888C646.163 15.7467 646.376 14.6693 646.803 13.656C647.23 12.6427 647.822 11.7573 648.579 11C649.347 10.232 650.232 9.63467 651.235 9.208C652.238 8.77067 653.315 8.552 654.467 8.552C655.726 8.552 656.83 8.85067 657.779 9.448C658.728 10.0347 659.496 10.7973 660.083 11.736L659.987 9ZM654.611 22.808C655.667 22.808 656.579 22.552 657.347 22.04C658.126 21.5173 658.723 20.8133 659.139 19.928C659.566 19.0427 659.779 18.0667 659.779 17C659.779 15.912 659.566 14.9307 659.139 14.056C658.712 13.1707 658.11 12.472 657.331 11.96C656.563 11.4373 655.656 11.176 654.611 11.176C653.555 11.176 652.595 11.4373 651.731 11.96C650.867 12.4827 650.179 13.1867 649.667 14.072C649.166 14.9467 648.915 15.9227 648.915 17C648.915 18.0773 649.176 19.0587 649.699 19.944C650.222 20.8187 650.915 21.5173 651.779 22.04C652.643 22.552 653.587 22.808 654.611 22.808ZM680.017 15.048V25H677.329V15.64C677.329 14.8293 677.132 14.0933 676.737 13.432C676.342 12.7707 675.814 12.248 675.153 11.864C674.492 11.4693 673.756 11.272 672.945 11.272C672.145 11.272 671.409 11.4693 670.737 11.864C670.076 12.248 669.548 12.7707 669.153 13.432C668.758 14.0933 668.561 14.8293 668.561 15.64V25H665.873V9H668.561V11C669.126 10.2533 669.841 9.66133 670.705 9.224C671.569 8.776 672.508 8.552 673.521 8.552C674.716 8.552 675.804 8.84533 676.785 9.432C677.777 10.008 678.561 10.7867 679.137 11.768C679.724 12.7493 680.017 13.8427 680.017 15.048ZM695.768 9H698.456V25H695.768L695.656 22.296C695.155 23.224 694.462 23.976 693.576 24.552C692.702 25.128 691.656 25.416 690.44 25.416C689.267 25.416 688.168 25.1973 687.144 24.76C686.12 24.312 685.214 23.6987 684.424 22.92C683.646 22.1307 683.038 21.224 682.6 20.2C682.163 19.176 681.944 18.072 681.944 16.888C681.944 15.7467 682.158 14.6693 682.584 13.656C683.011 12.6427 683.603 11.7573 684.36 11C685.128 10.232 686.014 9.63467 687.016 9.208C688.019 8.77067 689.096 8.552 690.248 8.552C691.507 8.552 692.611 8.85067 693.56 9.448C694.51 10.0347 695.278 10.7973 695.864 11.736L695.768 9ZM690.392 22.808C691.448 22.808 692.36 22.552 693.128 22.04C693.907 21.5173 694.504 20.8133 694.92 19.928C695.347 19.0427 695.56 18.0667 695.56 17C695.56 15.912 695.347 14.9307 694.92 14.056C694.494 13.1707 693.891 12.472 693.112 11.96C692.344 11.4373 691.438 11.176 690.392 11.176C689.336 11.176 688.376 11.4373 687.512 11.96C686.648 12.4827 685.96 13.1867 685.448 14.072C684.947 14.9467 684.696 15.9227 684.696 17C684.696 18.0773 684.958 19.0587 685.48 19.944C686.003 20.8187 686.696 21.5173 687.56 22.04C688.424 22.552 689.368 22.808 690.392 22.808ZM701.842 25V0.999998H704.53V25H701.842ZM718.708 9H721.556L712.804 33H709.956L712.852 25L707.108 9H710.052L714.196 21.304L718.708 9ZM729.034 25.304C728.17 25.272 727.328 25.112 726.506 24.824C725.696 24.5253 724.981 24.1253 724.362 23.624C723.754 23.112 723.312 22.5253 723.034 21.864L725.338 20.872C725.498 21.2347 725.786 21.576 726.202 21.896C726.618 22.216 727.098 22.472 727.642 22.664C728.186 22.856 728.736 22.952 729.29 22.952C729.877 22.952 730.426 22.8613 730.938 22.68C731.45 22.4987 731.866 22.232 732.186 21.88C732.517 21.5173 732.682 21.0853 732.682 20.584C732.682 20.0507 732.501 19.6347 732.138 19.336C731.786 19.0267 731.338 18.7867 730.794 18.616C730.261 18.4347 729.717 18.264 729.162 18.104C728.064 17.8267 727.082 17.496 726.218 17.112C725.354 16.7173 724.672 16.2213 724.17 15.624C723.68 15.016 723.434 14.2427 723.434 13.304C723.434 12.312 723.706 11.4533 724.25 10.728C724.805 10.0027 725.53 9.44267 726.426 9.048C727.322 8.65333 728.282 8.456 729.306 8.456C730.597 8.456 731.776 8.73333 732.842 9.288C733.909 9.84267 734.704 10.5947 735.226 11.544L733.066 12.808C732.885 12.424 732.608 12.088 732.234 11.8C731.861 11.5013 731.434 11.2667 730.954 11.096C730.474 10.9253 729.984 10.8347 729.482 10.824C728.864 10.8027 728.282 10.8827 727.738 11.064C727.205 11.2453 726.773 11.5227 726.442 11.896C726.122 12.2587 725.962 12.712 725.962 13.256C725.962 13.7893 726.133 14.1947 726.474 14.472C726.826 14.7493 727.28 14.9733 727.834 15.144C728.4 15.304 729.013 15.4907 729.674 15.704C730.645 16.0133 731.552 16.3707 732.394 16.776C733.237 17.1813 733.914 17.688 734.426 18.296C734.949 18.904 735.205 19.656 735.194 20.552C735.194 21.5333 734.901 22.392 734.314 23.128C733.728 23.8533 732.965 24.408 732.026 24.792C731.098 25.176 730.101 25.3467 729.034 25.304ZM737.717 9H740.405V25H737.717V9ZM739.093 6.392C738.666 6.392 738.309 6.25333 738.021 5.976C737.733 5.69867 737.589 5.352 737.589 4.936C737.589 4.52 737.733 4.17333 738.021 3.896C738.309 3.61867 738.661 3.48 739.077 3.48C739.493 3.48 739.845 3.61867 740.133 3.896C740.421 4.17333 740.565 4.52 740.565 4.936C740.565 5.352 740.421 5.69867 740.133 5.976C739.856 6.25333 739.509 6.392 739.093 6.392ZM748.972 25.304C748.108 25.272 747.265 25.112 746.444 24.824C745.633 24.5253 744.919 24.1253 744.3 23.624C743.692 23.112 743.249 22.5253 742.972 21.864L745.276 20.872C745.436 21.2347 745.724 21.576 746.14 21.896C746.556 22.216 747.036 22.472 747.58 22.664C748.124 22.856 748.673 22.952 749.228 22.952C749.815 22.952 750.364 22.8613 750.876 22.68C751.388 22.4987 751.804 22.232 752.124 21.88C752.455 21.5173 752.62 21.0853 752.62 20.584C752.62 20.0507 752.439 19.6347 752.076 19.336C751.724 19.0267 751.276 18.7867 750.732 18.616C750.199 18.4347 749.655 18.264 749.1 18.104C748.001 17.8267 747.02 17.496 746.156 17.112C745.292 16.7173 744.609 16.2213 744.108 15.624C743.617 15.016 743.372 14.2427 743.372 13.304C743.372 12.312 743.644 11.4533 744.188 10.728C744.743 10.0027 745.468 9.44267 746.364 9.048C747.26 8.65333 748.22 8.456 749.244 8.456C750.535 8.456 751.713 8.73333 752.78 9.288C753.847 9.84267 754.641 10.5947 755.164 11.544L753.004 12.808C752.823 12.424 752.545 12.088 752.172 11.8C751.799 11.5013 751.372 11.2667 750.892 11.096C750.412 10.9253 749.921 10.8347 749.42 10.824C748.801 10.8027 748.22 10.8827 747.676 11.064C747.143 11.2453 746.711 11.5227 746.38 11.896C746.06 12.2587 745.9 12.712 745.9 13.256C745.9 13.7893 746.071 14.1947 746.412 14.472C746.764 14.7493 747.217 14.9733 747.772 15.144C748.337 15.304 748.951 15.4907 749.612 15.704C750.583 16.0133 751.489 16.3707 752.332 16.776C753.175 17.1813 753.852 17.688 754.364 18.296C754.887 18.904 755.143 19.656 755.132 20.552C755.132 21.5333 754.839 22.392 754.252 23.128C753.665 23.8533 752.903 24.408 751.964 24.792C751.036 25.176 750.039 25.3467 748.972 25.304ZM757.139 26.792L758.131 21.384H760.819L758.931 26.792H757.139ZM775.03 33H772.342V9H775.03V11.736C775.574 10.7973 776.299 10.04 777.206 9.464C778.113 8.87733 779.19 8.584 780.438 8.584C781.601 8.584 782.689 8.80267 783.702 9.24C784.726 9.67733 785.622 10.2853 786.39 11.064C787.158 11.832 787.761 12.7227 788.198 13.736C788.635 14.7493 788.854 15.8373 788.854 17C788.854 18.1627 788.635 19.256 788.198 20.28C787.761 21.304 787.158 22.2053 786.39 22.984C785.622 23.752 784.726 24.3547 783.702 24.792C782.689 25.2293 781.601 25.448 780.438 25.448C779.19 25.448 778.113 25.16 777.206 24.584C776.299 23.9973 775.574 23.2347 775.03 22.296V33ZM780.406 11.192C779.371 11.192 778.465 11.4533 777.686 11.976C776.907 12.4987 776.305 13.1973 775.878 14.072C775.462 14.9467 775.254 15.9227 775.254 17C775.254 18.0667 775.462 19.0427 775.878 19.928C776.305 20.8133 776.902 21.5173 777.67 22.04C778.449 22.5627 779.361 22.824 780.406 22.824C781.441 22.824 782.39 22.568 783.254 22.056C784.118 21.5333 784.811 20.8347 785.334 19.96C785.857 19.0747 786.118 18.088 786.118 17C786.118 15.9333 785.862 14.9627 785.35 14.088C784.838 13.2027 784.15 12.4987 783.286 11.976C782.422 11.4533 781.462 11.192 780.406 11.192ZM791.529 25V9H794.217V11C794.783 10.2533 795.497 9.66133 796.361 9.224C797.225 8.776 798.164 8.552 799.177 8.552C799.796 8.552 800.393 8.632 800.969 8.792L799.881 11.48C799.444 11.3413 799.017 11.272 798.601 11.272C797.801 11.272 797.065 11.4693 796.393 11.864C795.732 12.248 795.204 12.7707 794.809 13.432C794.415 14.0933 794.217 14.8293 794.217 15.64V25H791.529ZM809.163 25.416C807.691 25.416 806.347 25.0373 805.131 24.28C803.926 23.5227 802.96 22.5093 802.235 21.24C801.52 19.96 801.163 18.5467 801.163 17C801.163 15.8267 801.371 14.7333 801.787 13.72C802.203 12.696 802.774 11.8 803.499 11.032C804.235 10.2533 805.088 9.64533 806.059 9.208C807.03 8.77067 808.064 8.552 809.163 8.552C810.635 8.552 811.974 8.93067 813.179 9.688C814.395 10.4453 815.36 11.464 816.075 12.744C816.8 14.024 817.163 15.4427 817.163 17C817.163 18.1627 816.955 19.2507 816.539 20.264C816.123 21.2773 815.547 22.1733 814.811 22.952C814.086 23.72 813.238 24.3227 812.267 24.76C811.307 25.1973 810.272 25.416 809.163 25.416ZM809.163 22.728C810.166 22.728 811.067 22.4667 811.867 21.944C812.678 21.4107 813.312 20.712 813.771 19.848C814.24 18.9733 814.475 18.024 814.475 17C814.475 15.9547 814.235 14.9947 813.755 14.12C813.286 13.2453 812.651 12.5467 811.851 12.024C811.051 11.5013 810.155 11.24 809.163 11.24C808.16 11.24 807.259 11.5067 806.459 12.04C805.659 12.5627 805.024 13.2613 804.555 14.136C804.086 15.0107 803.851 15.9653 803.851 17C803.851 18.0667 804.091 19.0373 804.571 19.912C805.051 20.776 805.696 21.464 806.507 21.976C807.318 22.4773 808.203 22.728 809.163 22.728ZM827.75 8.552C829.308 8.552 830.721 8.93067 831.99 9.688C833.27 10.4453 834.289 11.464 835.046 12.744C835.804 14.0133 836.182 15.4267 836.182 16.984C836.182 18.1467 835.964 19.24 835.526 20.264C835.089 21.2773 834.481 22.1733 833.702 22.952C832.934 23.72 832.038 24.3227 831.014 24.76C830.001 25.1973 828.913 25.416 827.75 25.416C826.513 25.416 825.436 25.128 824.518 24.552C823.612 23.9653 822.886 23.2027 822.342 22.264V25H819.654V0.999998H822.342V11.704C822.886 10.7653 823.612 10.008 824.518 9.432C825.436 8.84533 826.513 8.552 827.75 8.552ZM827.718 22.792C828.774 22.792 829.734 22.5307 830.598 22.008C831.462 21.4853 832.15 20.7867 832.662 19.912C833.174 19.0267 833.43 18.0507 833.43 16.984C833.43 15.896 833.169 14.9147 832.646 14.04C832.124 13.1547 831.43 12.456 830.566 11.944C829.702 11.4213 828.753 11.16 827.718 11.16C826.673 11.16 825.761 11.4213 824.982 11.944C824.214 12.4667 823.617 13.1707 823.19 14.056C822.774 14.9413 822.566 15.9173 822.566 16.984C822.566 18.0613 822.774 19.0427 823.19 19.928C823.617 20.8027 824.22 21.5013 824.998 22.024C825.777 22.536 826.684 22.792 827.718 22.792ZM838.686 25V0.999998H841.374V25H838.686ZM852.101 25.416C850.629 25.416 849.285 25.0373 848.069 24.28C846.863 23.5227 845.898 22.5093 845.173 21.24C844.458 19.96 844.101 18.5467 844.101 17C844.101 15.8267 844.309 14.7333 844.725 13.72C845.141 12.696 845.711 11.8 846.437 11.032C847.173 10.2533 848.026 9.64533 848.997 9.208C849.967 8.77067 851.002 8.552 852.101 8.552C853.306 8.552 854.41 8.79733 855.413 9.288C856.426 9.768 857.29 10.44 858.005 11.304C858.73 12.168 859.269 13.1707 859.621 14.312C859.983 15.4533 860.117 16.6747 860.021 17.976H846.965C847.093 18.8827 847.391 19.6933 847.861 20.408C848.33 21.112 848.927 21.672 849.653 22.088C850.389 22.504 851.205 22.7173 852.101 22.728C853.061 22.728 853.93 22.4827 854.709 21.992C855.487 21.4907 856.117 20.808 856.597 19.944L859.333 20.584C858.693 22.0027 857.727 23.1653 856.437 24.072C855.146 24.968 853.701 25.416 852.101 25.416ZM846.885 15.864H857.317C857.231 14.968 856.943 14.152 856.453 13.416C855.962 12.6693 855.338 12.072 854.581 11.624C853.823 11.176 852.997 10.952 852.101 10.952C851.205 10.952 850.383 11.1707 849.637 11.608C848.89 12.0453 848.271 12.6373 847.781 13.384C847.301 14.12 847.002 14.9467 846.885 15.864ZM862.717 25V9H865.405V11C865.97 10.2533 866.68 9.66133 867.533 9.224C868.397 8.776 869.336 8.552 870.349 8.552C871.533 8.552 872.616 8.84 873.597 9.416C874.578 9.992 875.352 10.7547 875.917 11.704C876.482 10.7547 877.25 9.992 878.221 9.416C879.202 8.84 880.28 8.552 881.453 8.552C882.658 8.552 883.752 8.84533 884.733 9.432C885.714 10.008 886.493 10.7867 887.069 11.768C887.656 12.7493 887.949 13.8427 887.949 15.048V25H885.261V15.688C885.261 14.8987 885.069 14.168 884.685 13.496C884.301 12.824 883.784 12.2853 883.133 11.88C882.482 11.4747 881.762 11.272 880.973 11.272C880.184 11.272 879.464 11.464 878.813 11.848C878.162 12.2213 877.645 12.744 877.261 13.416C876.877 14.0773 876.685 14.8347 876.685 15.688V25H873.997V15.688C873.997 14.8347 873.805 14.0773 873.421 13.416C873.037 12.744 872.514 12.2213 871.853 11.848C871.202 11.464 870.482 11.272 869.693 11.272C868.914 11.272 868.194 11.4747 867.533 11.88C866.882 12.2853 866.365 12.824 865.981 13.496C865.597 14.168 865.405 14.8987 865.405 15.688V25H862.717ZM896.034 25.304C895.17 25.272 894.328 25.112 893.506 24.824C892.696 24.5253 891.981 24.1253 891.362 23.624C890.754 23.112 890.312 22.5253 890.034 21.864L892.338 20.872C892.498 21.2347 892.786 21.576 893.202 21.896C893.618 22.216 894.098 22.472 894.642 22.664C895.186 22.856 895.736 22.952 896.29 22.952C896.877 22.952 897.426 22.8613 897.938 22.68C898.45 22.4987 898.866 22.232 899.186 21.88C899.517 21.5173 899.682 21.0853 899.682 20.584C899.682 20.0507 899.501 19.6347 899.138 19.336C898.786 19.0267 898.338 18.7867 897.794 18.616C897.261 18.4347 896.717 18.264 896.162 18.104C895.064 17.8267 894.082 17.496 893.218 17.112C892.354 16.7173 891.672 16.2213 891.17 15.624C890.68 15.016 890.434 14.2427 890.434 13.304C890.434 12.312 890.706 11.4533 891.25 10.728C891.805 10.0027 892.53 9.44267 893.426 9.048C894.322 8.65333 895.282 8.456 896.306 8.456C897.597 8.456 898.776 8.73333 899.842 9.288C900.909 9.84267 901.704 10.5947 902.226 11.544L900.066 12.808C899.885 12.424 899.608 12.088 899.234 11.8C898.861 11.5013 898.434 11.2667 897.954 11.096C897.474 10.9253 896.984 10.8347 896.482 10.824C895.864 10.8027 895.282 10.8827 894.738 11.064C894.205 11.2453 893.773 11.5227 893.442 11.896C893.122 12.2587 892.962 12.712 892.962 13.256C892.962 13.7893 893.133 14.1947 893.474 14.472C893.826 14.7493 894.28 14.9733 894.834 15.144C895.4 15.304 896.013 15.4907 896.674 15.704C897.645 16.0133 898.552 16.3707 899.394 16.776C900.237 17.1813 900.914 17.688 901.426 18.296C901.949 18.904 902.205 19.656 902.194 20.552C902.194 21.5333 901.901 22.392 901.314 23.128C900.728 23.8533 899.965 24.408 899.026 24.792C898.098 25.176 897.101 25.3467 896.034 25.304ZM912.623 25V9H915.311V11C915.876 10.2533 916.586 9.66133 917.439 9.224C918.303 8.776 919.242 8.552 920.255 8.552C921.439 8.552 922.522 8.84 923.503 9.416C924.484 9.992 925.258 10.7547 925.823 11.704C926.388 10.7547 927.156 9.992 928.127 9.416C929.108 8.84 930.186 8.552 931.359 8.552C932.564 8.552 933.658 8.84533 934.639 9.432C935.62 10.008 936.399 10.7867 936.975 11.768C937.562 12.7493 937.855 13.8427 937.855 15.048V25H935.167V15.688C935.167 14.8987 934.975 14.168 934.591 13.496C934.207 12.824 933.69 12.2853 933.039 11.88C932.388 11.4747 931.668 11.272 930.879 11.272C930.09 11.272 929.37 11.464 928.719 11.848C928.068 12.2213 927.551 12.744 927.167 13.416C926.783 14.0773 926.591 14.8347 926.591 15.688V25H923.903V15.688C923.903 14.8347 923.711 14.0773 923.327 13.416C922.943 12.744 922.42 12.2213 921.759 11.848C921.108 11.464 920.388 11.272 919.599 11.272C918.82 11.272 918.1 11.4747 917.439 11.88C916.788 12.2853 916.271 12.824 915.887 13.496C915.503 14.168 915.311 14.8987 915.311 15.688V25H912.623ZM953.612 9H956.3V25H953.612L953.5 22.296C952.999 23.224 952.305 23.976 951.42 24.552C950.545 25.128 949.5 25.416 948.284 25.416C947.111 25.416 946.012 25.1973 944.988 24.76C943.964 24.312 943.057 23.6987 942.268 22.92C941.489 22.1307 940.881 21.224 940.444 20.2C940.007 19.176 939.788 18.072 939.788 16.888C939.788 15.7467 940.001 14.6693 940.428 13.656C940.855 12.6427 941.447 11.7573 942.204 11C942.972 10.232 943.857 9.63467 944.86 9.208C945.863 8.77067 946.94 8.552 948.092 8.552C949.351 8.552 950.455 8.85067 951.404 9.448C952.353 10.0347 953.121 10.7973 953.708 11.736L953.612 9ZM948.236 22.808C949.292 22.808 950.204 22.552 950.972 22.04C951.751 21.5173 952.348 20.8133 952.764 19.928C953.191 19.0427 953.404 18.0667 953.404 17C953.404 15.912 953.191 14.9307 952.764 14.056C952.337 13.1707 951.735 12.472 950.956 11.96C950.188 11.4373 949.281 11.176 948.236 11.176C947.18 11.176 946.22 11.4373 945.356 11.96C944.492 12.4827 943.804 13.1867 943.292 14.072C942.791 14.9467 942.54 15.9227 942.54 17C942.54 18.0773 942.801 19.0587 943.324 19.944C943.847 20.8187 944.54 21.5173 945.404 22.04C946.268 22.552 947.212 22.808 948.236 22.808ZM969.958 9H972.806L964.054 33H961.206L964.102 25L958.358 9H961.302L965.446 21.304L969.958 9ZM991.782 8.552C993.339 8.552 994.752 8.93067 996.022 9.688C997.302 10.4453 998.32 11.464 999.078 12.744C999.835 14.0133 1000.21 15.4267 1000.21 16.984C1000.21 18.1467 999.995 19.24 999.558 20.264C999.12 21.2773 998.512 22.1733 997.734 22.952C996.966 23.72 996.07 24.3227 995.046 24.76C994.032 25.1973 992.944 25.416 991.782 25.416C990.544 25.416 989.467 25.128 988.55 24.552C987.643 23.9653 986.918 23.2027 986.374 22.264V25H983.686V0.999998H986.374V11.704C986.918 10.7653 987.643 10.008 988.55 9.432C989.467 8.84533 990.544 8.552 991.782 8.552ZM991.75 22.792C992.806 22.792 993.766 22.5307 994.63 22.008C995.494 21.4853 996.182 20.7867 996.694 19.912C997.206 19.0267 997.462 18.0507 997.462 16.984C997.462 15.896 997.2 14.9147 996.678 14.04C996.155 13.1547 995.462 12.456 994.598 11.944C993.734 11.4213 992.784 11.16 991.75 11.16C990.704 11.16 989.792 11.4213 989.014 11.944C988.246 12.4667 987.648 13.1707 987.222 14.056C986.806 14.9413 986.598 15.9173 986.598 16.984C986.598 18.0613 986.806 19.0427 987.222 19.928C987.648 20.8027 988.251 21.5013 989.03 22.024C989.808 22.536 990.715 22.792 991.75 22.792ZM1009.82 25.416C1008.35 25.416 1007 25.0373 1005.79 24.28C1004.58 23.5227 1003.62 22.5093 1002.89 21.24C1002.18 19.96 1001.82 18.5467 1001.82 17C1001.82 15.8267 1002.03 14.7333 1002.44 13.72C1002.86 12.696 1003.43 11.8 1004.16 11.032C1004.89 10.2533 1005.74 9.64533 1006.72 9.208C1007.69 8.77067 1008.72 8.552 1009.82 8.552C1011.02 8.552 1012.13 8.79733 1013.13 9.288C1014.14 9.768 1015.01 10.44 1015.72 11.304C1016.45 12.168 1016.99 13.1707 1017.34 14.312C1017.7 15.4533 1017.84 16.6747 1017.74 17.976H1004.68C1004.81 18.8827 1005.11 19.6933 1005.58 20.408C1006.05 21.112 1006.65 21.672 1007.37 22.088C1008.11 22.504 1008.92 22.7173 1009.82 22.728C1010.78 22.728 1011.65 22.4827 1012.43 21.992C1013.21 21.4907 1013.84 20.808 1014.32 19.944L1017.05 20.584C1016.41 22.0027 1015.45 23.1653 1014.16 24.072C1012.86 24.968 1011.42 25.416 1009.82 25.416ZM1004.6 15.864H1015.04C1014.95 14.968 1014.66 14.152 1014.17 13.416C1013.68 12.6693 1013.06 12.072 1012.3 11.624C1011.54 11.176 1010.72 10.952 1009.82 10.952C1008.92 10.952 1008.1 11.1707 1007.36 11.608C1006.61 12.0453 1005.99 12.6373 1005.5 13.384C1005.02 14.12 1004.72 14.9467 1004.6 15.864ZM1031.97 5.048V9H1036.66V11.688H1031.97V25H1029.29V11.688H1027.22V9H1029.29V5.048C1029.29 4.22666 1029.48 3.48533 1029.88 2.824C1030.28 2.152 1030.82 1.61867 1031.49 1.224C1032.18 0.818666 1032.92 0.615999 1033.73 0.615999C1034.33 0.615999 1034.91 0.738666 1035.48 0.983999C1036.04 1.21867 1036.54 1.57067 1036.98 2.04L1035.06 3.944C1034.91 3.74133 1034.72 3.58667 1034.47 3.48C1034.24 3.36267 1033.99 3.304 1033.73 3.304C1033.25 3.304 1032.84 3.47467 1032.49 3.816C1032.14 4.15733 1031.97 4.568 1031.97 5.048ZM1045.91 25.416C1044.44 25.416 1043.1 25.0373 1041.88 24.28C1040.68 23.5227 1039.71 22.5093 1038.99 21.24C1038.27 19.96 1037.91 18.5467 1037.91 17C1037.91 15.8267 1038.12 14.7333 1038.54 13.72C1038.95 12.696 1039.52 11.8 1040.25 11.032C1040.99 10.2533 1041.84 9.64533 1042.81 9.208C1043.78 8.77067 1044.81 8.552 1045.91 8.552C1047.39 8.552 1048.72 8.93067 1049.93 9.688C1051.15 10.4453 1052.11 11.464 1052.83 12.744C1053.55 14.024 1053.91 15.4427 1053.91 17C1053.91 18.1627 1053.71 19.2507 1053.29 20.264C1052.87 21.2773 1052.3 22.1733 1051.56 22.952C1050.84 23.72 1049.99 24.3227 1049.02 24.76C1048.06 25.1973 1047.02 25.416 1045.91 25.416ZM1045.91 22.728C1046.92 22.728 1047.82 22.4667 1048.62 21.944C1049.43 21.4107 1050.06 20.712 1050.52 19.848C1050.99 18.9733 1051.23 18.024 1051.23 17C1051.23 15.9547 1050.99 14.9947 1050.51 14.12C1050.04 13.2453 1049.4 12.5467 1048.6 12.024C1047.8 11.5013 1046.91 11.24 1045.91 11.24C1044.91 11.24 1044.01 11.5067 1043.21 12.04C1042.41 12.5627 1041.77 13.2613 1041.31 14.136C1040.84 15.0107 1040.6 15.9653 1040.6 17C1040.6 18.0667 1040.84 19.0373 1041.32 19.912C1041.8 20.776 1042.45 21.464 1043.26 21.976C1044.07 22.4773 1044.95 22.728 1045.91 22.728ZM1055.7 18.92V9H1058.39V18.328C1058.39 19.1387 1058.59 19.8747 1058.98 20.536C1059.38 21.1973 1059.9 21.7253 1060.57 22.12C1061.24 22.504 1061.97 22.696 1062.77 22.696C1063.58 22.696 1064.32 22.504 1064.97 22.12C1065.63 21.7253 1066.16 21.1973 1066.55 20.536C1066.94 19.8747 1067.14 19.1387 1067.14 18.328V9H1069.83L1069.85 25H1067.16L1067.14 22.968C1066.58 23.7147 1065.86 24.312 1065 24.76C1064.13 25.1973 1063.2 25.416 1062.2 25.416C1061 25.416 1059.91 25.128 1058.92 24.552C1057.94 23.9653 1057.15 23.1813 1056.57 22.2C1055.99 21.2187 1055.7 20.1253 1055.7 18.92ZM1087.2 15.048V25H1084.52V15.64C1084.52 14.8293 1084.32 14.0933 1083.92 13.432C1083.53 12.7707 1083 12.248 1082.34 11.864C1081.68 11.4693 1080.94 11.272 1080.13 11.272C1079.33 11.272 1078.6 11.4693 1077.92 11.864C1077.26 12.248 1076.74 12.7707 1076.34 13.432C1075.95 14.0933 1075.75 14.8293 1075.75 15.64V25H1073.06V9H1075.75V11C1076.31 10.2533 1077.03 9.66133 1077.89 9.224C1078.76 8.776 1079.7 8.552 1080.71 8.552C1081.9 8.552 1082.99 8.84533 1083.97 9.432C1084.96 10.008 1085.75 10.7867 1086.32 11.768C1086.91 12.7493 1087.2 13.8427 1087.2 15.048ZM1102.97 0.999998H1105.66V25H1102.97V22.28C1102.43 23.2187 1101.7 23.976 1100.78 24.552C1099.86 25.128 1098.79 25.416 1097.55 25.416C1096.39 25.416 1095.3 25.1973 1094.28 24.76C1093.27 24.3227 1092.37 23.72 1091.6 22.952C1090.83 22.1733 1090.23 21.2773 1089.79 20.264C1089.35 19.2507 1089.13 18.1627 1089.13 17C1089.13 15.8373 1089.35 14.7493 1089.79 13.736C1090.23 12.712 1090.83 11.816 1091.6 11.048C1092.37 10.2693 1093.27 9.66133 1094.28 9.224C1095.3 8.78667 1096.39 8.568 1097.55 8.568C1098.79 8.568 1099.86 8.856 1100.78 9.432C1101.7 10.008 1102.43 10.7653 1102.97 11.704V0.999998ZM1097.58 22.808C1098.64 22.808 1099.55 22.552 1100.32 22.04C1101.09 21.5173 1101.69 20.8133 1102.11 19.928C1102.53 19.0427 1102.75 18.0667 1102.75 17C1102.75 15.912 1102.53 14.9307 1102.11 14.056C1101.68 13.1707 1101.08 12.472 1100.3 11.96C1099.53 11.4373 1098.63 11.176 1097.58 11.176C1096.52 11.176 1095.56 11.4373 1094.7 11.96C1093.85 12.4827 1093.16 13.1867 1092.65 14.072C1092.14 14.9467 1091.88 15.9227 1091.88 17C1091.88 18.0773 1092.15 19.0587 1092.67 19.944C1093.19 20.8187 1093.88 21.5173 1094.75 22.04C1095.61 22.552 1096.56 22.808 1097.58 22.808ZM1130.05 9H1132.74V25H1130.05L1129.94 22.296C1129.44 23.224 1128.74 23.976 1127.86 24.552C1126.98 25.128 1125.94 25.416 1124.72 25.416C1123.55 25.416 1122.45 25.1973 1121.43 24.76C1120.4 24.312 1119.49 23.6987 1118.71 22.92C1117.93 22.1307 1117.32 21.224 1116.88 20.2C1116.44 19.176 1116.23 18.072 1116.23 16.888C1116.23 15.7467 1116.44 14.6693 1116.87 13.656C1117.29 12.6427 1117.88 11.7573 1118.64 11C1119.41 10.232 1120.29 9.63467 1121.3 9.208C1122.3 8.77067 1123.38 8.552 1124.53 8.552C1125.79 8.552 1126.89 8.85067 1127.84 9.448C1128.79 10.0347 1129.56 10.7973 1130.15 11.736L1130.05 9ZM1124.67 22.808C1125.73 22.808 1126.64 22.552 1127.41 22.04C1128.19 21.5173 1128.79 20.8133 1129.2 19.928C1129.63 19.0427 1129.84 18.0667 1129.84 17C1129.84 15.912 1129.63 14.9307 1129.2 14.056C1128.77 13.1707 1128.17 12.472 1127.39 11.96C1126.63 11.4373 1125.72 11.176 1124.67 11.176C1123.62 11.176 1122.66 11.4373 1121.79 11.96C1120.93 12.4827 1120.24 13.1867 1119.73 14.072C1119.23 14.9467 1118.98 15.9227 1118.98 17C1118.98 18.0773 1119.24 19.0587 1119.76 19.944C1120.28 20.8187 1120.98 21.5173 1121.84 22.04C1122.71 22.552 1123.65 22.808 1124.67 22.808ZM1150.08 15.048V25H1147.39V15.64C1147.39 14.8293 1147.19 14.0933 1146.8 13.432C1146.4 12.7707 1145.88 12.248 1145.22 11.864C1144.55 11.4693 1143.82 11.272 1143.01 11.272C1142.21 11.272 1141.47 11.4693 1140.8 11.864C1140.14 12.248 1139.61 12.7707 1139.22 13.432C1138.82 14.0933 1138.62 14.8293 1138.62 15.64V25H1135.94V9H1138.62V11C1139.19 10.2533 1139.9 9.66133 1140.77 9.224C1141.63 8.776 1142.57 8.552 1143.58 8.552C1144.78 8.552 1145.87 8.84533 1146.85 9.432C1147.84 10.008 1148.62 10.7867 1149.2 11.768C1149.79 12.7493 1150.08 13.8427 1150.08 15.048ZM1165.85 0.999998H1168.53V25H1165.85V22.28C1165.3 23.2187 1164.57 23.976 1163.65 24.552C1162.74 25.128 1161.66 25.416 1160.42 25.416C1159.26 25.416 1158.17 25.1973 1157.16 24.76C1156.15 24.3227 1155.25 23.72 1154.47 22.952C1153.7 22.1733 1153.1 21.2773 1152.66 20.264C1152.23 19.2507 1152.01 18.1627 1152.01 17C1152.01 15.8373 1152.23 14.7493 1152.66 13.736C1153.1 12.712 1153.7 11.816 1154.47 11.048C1155.25 10.2693 1156.15 9.66133 1157.16 9.224C1158.17 8.78667 1159.26 8.568 1160.42 8.568C1161.66 8.568 1162.74 8.856 1163.65 9.432C1164.57 10.008 1165.3 10.7653 1165.85 11.704V0.999998ZM1160.45 22.808C1161.51 22.808 1162.42 22.552 1163.19 22.04C1163.97 21.5173 1164.57 20.8133 1164.98 19.928C1165.41 19.0427 1165.62 18.0667 1165.62 17C1165.62 15.912 1165.41 14.9307 1164.98 14.056C1164.56 13.1707 1163.95 12.472 1163.17 11.96C1162.41 11.4373 1161.5 11.176 1160.45 11.176C1159.4 11.176 1158.44 11.4373 1157.57 11.96C1156.72 12.4827 1156.04 13.1867 1155.53 14.072C1155.01 14.9467 1154.76 15.9227 1154.76 17C1154.76 18.0773 1155.02 19.0587 1155.54 19.944C1156.07 20.8187 1156.76 21.5173 1157.62 22.04C1158.49 22.552 1159.43 22.808 1160.45 22.808ZM1183.69 5.048V9H1188.38V11.688H1183.69V25H1181V11.688H1178.94V9H1181V5.048C1181 4.22666 1181.2 3.48533 1181.6 2.824C1182 2.152 1182.54 1.61867 1183.21 1.224C1183.9 0.818666 1184.64 0.615999 1185.45 0.615999C1186.05 0.615999 1186.63 0.738666 1187.2 0.983999C1187.76 1.21867 1188.26 1.57067 1188.7 2.04L1186.78 3.944C1186.63 3.74133 1186.43 3.58667 1186.19 3.48C1185.95 3.36267 1185.71 3.304 1185.45 3.304C1184.97 3.304 1184.56 3.47467 1184.2 3.816C1183.86 4.15733 1183.69 4.568 1183.69 5.048ZM1190.84 9H1193.53V25H1190.84V9ZM1192.22 6.392C1191.79 6.392 1191.43 6.25333 1191.15 5.976C1190.86 5.69867 1190.71 5.352 1190.71 4.936C1190.71 4.52 1190.86 4.17333 1191.15 3.896C1191.43 3.61867 1191.79 3.48 1192.2 3.48C1192.62 3.48 1192.97 3.61867 1193.26 3.896C1193.55 4.17333 1193.69 4.52 1193.69 4.936C1193.69 5.352 1193.55 5.69867 1193.26 5.976C1192.98 6.25333 1192.63 6.392 1192.22 6.392ZM1196.3 25L1202.15 16.968L1196.33 8.968H1199.64L1203.82 14.664L1207.98 8.968H1211.29L1205.46 16.968L1211.32 25H1208.01L1203.82 19.24L1199.61 25H1196.3ZM1220.29 25.416C1218.82 25.416 1217.47 25.0373 1216.26 24.28C1215.05 23.5227 1214.09 22.5093 1213.36 21.24C1212.65 19.96 1212.29 18.5467 1212.29 17C1212.29 15.8267 1212.5 14.7333 1212.91 13.72C1213.33 12.696 1213.9 11.8 1214.62 11.032C1215.36 10.2533 1216.21 9.64533 1217.18 9.208C1218.15 8.77067 1219.19 8.552 1220.29 8.552C1221.49 8.552 1222.6 8.79733 1223.6 9.288C1224.61 9.768 1225.48 10.44 1226.19 11.304C1226.92 12.168 1227.46 13.1707 1227.81 14.312C1228.17 15.4533 1228.3 16.6747 1228.21 17.976H1215.15C1215.28 18.8827 1215.58 19.6933 1216.05 20.408C1216.52 21.112 1217.11 21.672 1217.84 22.088C1218.58 22.504 1219.39 22.7173 1220.29 22.728C1221.25 22.728 1222.12 22.4827 1222.9 21.992C1223.67 21.4907 1224.3 20.808 1224.78 19.944L1227.52 20.584C1226.88 22.0027 1225.91 23.1653 1224.62 24.072C1223.33 24.968 1221.89 25.416 1220.29 25.416ZM1215.07 15.864H1225.5C1225.42 14.968 1225.13 14.152 1224.64 13.416C1224.15 12.6693 1223.53 12.072 1222.77 11.624C1222.01 11.176 1221.18 10.952 1220.29 10.952C1219.39 10.952 1218.57 11.1707 1217.82 11.608C1217.08 12.0453 1216.46 12.6373 1215.97 13.384C1215.49 14.12 1215.19 14.9467 1215.07 15.864ZM1243.69 0.999998H1246.38V25H1243.69V22.28C1243.15 23.2187 1242.42 23.976 1241.5 24.552C1240.58 25.128 1239.5 25.416 1238.27 25.416C1237.1 25.416 1236.02 25.1973 1235 24.76C1233.99 24.3227 1233.09 23.72 1232.31 22.952C1231.55 22.1733 1230.94 21.2773 1230.51 20.264C1230.07 19.2507 1229.85 18.1627 1229.85 17C1229.85 15.8373 1230.07 14.7493 1230.51 13.736C1230.94 12.712 1231.55 11.816 1232.31 11.048C1233.09 10.2693 1233.99 9.66133 1235 9.224C1236.02 8.78667 1237.1 8.568 1238.27 8.568C1239.5 8.568 1240.58 8.856 1241.5 9.432C1242.42 10.008 1243.15 10.7653 1243.69 11.704V0.999998ZM1238.3 22.808C1239.35 22.808 1240.27 22.552 1241.03 22.04C1241.81 21.5173 1242.41 20.8133 1242.83 19.928C1243.25 19.0427 1243.47 18.0667 1243.47 17C1243.47 15.912 1243.25 14.9307 1242.83 14.056C1242.4 13.1707 1241.8 12.472 1241.02 11.96C1240.25 11.4373 1239.34 11.176 1238.3 11.176C1237.24 11.176 1236.28 11.4373 1235.42 11.96C1234.57 12.4827 1233.88 13.1867 1233.37 14.072C1232.86 14.9467 1232.6 15.9227 1232.6 17C1232.6 18.0773 1232.86 19.0587 1233.39 19.944C1233.91 20.8187 1234.6 21.5173 1235.47 22.04C1236.33 22.552 1237.27 22.808 1238.3 22.808ZM533.858 76V60H536.546V62C537.111 61.2533 537.82 60.6613 538.674 60.224C539.538 59.776 540.476 59.552 541.49 59.552C542.674 59.552 543.756 59.84 544.738 60.416C545.719 60.992 546.492 61.7547 547.058 62.704C547.623 61.7547 548.391 60.992 549.362 60.416C550.343 59.84 551.42 59.552 552.594 59.552C553.799 59.552 554.892 59.8453 555.874 60.432C556.855 61.008 557.634 61.7867 558.21 62.768C558.796 63.7493 559.09 64.8427 559.09 66.048V76H556.402V66.688C556.402 65.8987 556.21 65.168 555.826 64.496C555.442 63.824 554.924 63.2853 554.274 62.88C553.623 62.4747 552.903 62.272 552.114 62.272C551.324 62.272 550.604 62.464 549.954 62.848C549.303 63.2213 548.786 63.744 548.402 64.416C548.018 65.0773 547.826 65.8347 547.826 66.688V76H545.138V66.688C545.138 65.8347 544.946 65.0773 544.562 64.416C544.178 63.744 543.655 63.2213 542.994 62.848C542.343 62.464 541.623 62.272 540.834 62.272C540.055 62.272 539.335 62.4747 538.674 62.88C538.023 63.2853 537.506 63.824 537.122 64.496C536.738 65.168 536.546 65.8987 536.546 66.688V76H533.858ZM569.023 76.416C567.551 76.416 566.207 76.0373 564.991 75.28C563.785 74.5227 562.82 73.5093 562.095 72.24C561.38 70.96 561.023 69.5467 561.023 68C561.023 66.8267 561.231 65.7333 561.647 64.72C562.063 63.696 562.633 62.8 563.359 62.032C564.095 61.2533 564.948 60.6453 565.919 60.208C566.889 59.7707 567.924 59.552 569.023 59.552C570.495 59.552 571.833 59.9307 573.039 60.688C574.255 61.4453 575.22 62.464 575.935 63.744C576.66 65.024 577.023 66.4427 577.023 68C577.023 69.1627 576.815 70.2507 576.399 71.264C575.983 72.2773 575.407 73.1733 574.671 73.952C573.945 74.72 573.097 75.3227 572.127 75.76C571.167 76.1973 570.132 76.416 569.023 76.416ZM569.023 73.728C570.025 73.728 570.927 73.4667 571.727 72.944C572.537 72.4107 573.172 71.712 573.631 70.848C574.1 69.9733 574.335 69.024 574.335 68C574.335 66.9547 574.095 65.9947 573.615 65.12C573.145 64.2453 572.511 63.5467 571.711 63.024C570.911 62.5013 570.015 62.24 569.023 62.24C568.02 62.24 567.119 62.5067 566.319 63.04C565.519 63.5627 564.884 64.2613 564.415 65.136C563.945 66.0107 563.711 66.9653 563.711 68C563.711 69.0667 563.951 70.0373 564.431 70.912C564.911 71.776 565.556 72.464 566.367 72.976C567.177 73.4773 568.063 73.728 569.023 73.728ZM579.67 76V60H582.358V62C582.923 61.2533 583.638 60.6613 584.502 60.224C585.366 59.776 586.305 59.552 587.318 59.552C587.937 59.552 588.534 59.632 589.11 59.792L588.022 62.48C587.585 62.3413 587.158 62.272 586.742 62.272C585.942 62.272 585.206 62.4693 584.534 62.864C583.873 63.248 583.345 63.7707 582.95 64.432C582.555 65.0933 582.358 65.8293 582.358 66.64V76H579.67ZM597.304 76.416C595.832 76.416 594.488 76.0373 593.272 75.28C592.066 74.5227 591.101 73.5093 590.376 72.24C589.661 70.96 589.304 69.5467 589.304 68C589.304 66.8267 589.512 65.7333 589.928 64.72C590.344 63.696 590.914 62.8 591.64 62.032C592.376 61.2533 593.229 60.6453 594.2 60.208C595.17 59.7707 596.205 59.552 597.304 59.552C598.509 59.552 599.613 59.7973 600.616 60.288C601.629 60.768 602.493 61.44 603.208 62.304C603.933 63.168 604.472 64.1707 604.824 65.312C605.186 66.4533 605.32 67.6747 605.224 68.976H592.168C592.296 69.8827 592.594 70.6933 593.064 71.408C593.533 72.112 594.13 72.672 594.856 73.088C595.592 73.504 596.408 73.7173 597.304 73.728C598.264 73.728 599.133 73.4827 599.912 72.992C600.69 72.4907 601.32 71.808 601.8 70.944L604.536 71.584C603.896 73.0027 602.93 74.1653 601.64 75.072C600.349 75.968 598.904 76.416 597.304 76.416ZM592.088 66.864H602.52C602.434 65.968 602.146 65.152 601.656 64.416C601.165 63.6693 600.541 63.072 599.784 62.624C599.026 62.176 598.2 61.952 597.304 61.952C596.408 61.952 595.586 62.1707 594.84 62.608C594.093 63.0453 593.474 63.6373 592.984 64.384C592.504 65.12 592.205 65.9467 592.088 66.864ZM623.282 76.448C621.736 76.448 620.322 76.0693 619.042 75.312C617.773 74.5547 616.76 73.536 616.002 72.256C615.245 70.976 614.866 69.5573 614.866 68C614.866 66.8373 615.085 65.7493 615.522 64.736C615.96 63.7227 616.562 62.832 617.33 62.064C618.109 61.2853 619.005 60.6773 620.018 60.24C621.032 59.8027 622.12 59.584 623.282 59.584C624.52 59.584 625.592 59.8773 626.498 60.464C627.416 61.04 628.146 61.7973 628.69 62.736V60H631.378V84H628.69V73.296C628.146 74.2347 627.416 74.9973 626.498 75.584C625.592 76.16 624.52 76.448 623.282 76.448ZM623.314 62.192C622.258 62.192 621.298 62.4533 620.434 62.976C619.57 63.4987 618.882 64.2027 618.37 65.088C617.869 65.9627 617.618 66.9333 617.618 68C617.618 69.088 617.874 70.0747 618.386 70.96C618.909 71.8347 619.602 72.5333 620.466 73.056C621.33 73.568 622.28 73.824 623.314 73.824C624.37 73.824 625.282 73.5627 626.05 73.04C626.818 72.5173 627.41 71.8133 627.826 70.928C628.253 70.0427 628.466 69.0667 628.466 68C628.466 66.9227 628.253 65.9467 627.826 65.072C627.41 64.1973 626.813 63.4987 626.034 62.976C625.266 62.4533 624.36 62.192 623.314 62.192ZM634.311 69.92V60H636.999V69.328C636.999 70.1387 637.197 70.8747 637.591 71.536C637.986 72.1973 638.514 72.7253 639.175 73.12C639.847 73.504 640.583 73.696 641.383 73.696C642.194 73.696 642.925 73.504 643.575 73.12C644.237 72.7253 644.765 72.1973 645.159 71.536C645.554 70.8747 645.751 70.1387 645.751 69.328V60H648.439L648.455 76H645.767L645.751 73.968C645.186 74.7147 644.471 75.312 643.607 75.76C642.743 76.1973 641.81 76.416 640.807 76.416C639.613 76.416 638.519 76.128 637.527 75.552C636.546 74.9653 635.762 74.1813 635.175 73.2C634.599 72.2187 634.311 71.1253 634.311 69.92ZM651.67 60H654.358V76H651.67V60ZM653.046 57.392C652.619 57.392 652.262 57.2533 651.974 56.976C651.686 56.6987 651.542 56.352 651.542 55.936C651.542 55.52 651.686 55.1733 651.974 54.896C652.262 54.6187 652.614 54.48 653.03 54.48C653.446 54.48 653.798 54.6187 654.086 54.896C654.374 55.1733 654.518 55.52 654.518 55.936C654.518 56.352 654.374 56.6987 654.086 56.976C653.809 57.2533 653.462 57.392 653.046 57.392ZM669.007 71.776L671.407 73.072C670.681 74.0853 669.759 74.896 668.639 75.504C667.529 76.112 666.324 76.416 665.023 76.416C663.551 76.416 662.207 76.0373 660.991 75.28C659.785 74.5227 658.82 73.5093 658.095 72.24C657.38 70.96 657.023 69.5467 657.023 68C657.023 66.8267 657.231 65.7333 657.647 64.72C658.063 63.696 658.633 62.8 659.359 62.032C660.095 61.2533 660.948 60.6453 661.919 60.208C662.889 59.7707 663.924 59.552 665.023 59.552C666.324 59.552 667.529 59.856 668.639 60.464C669.759 61.072 670.681 61.888 671.407 62.912L669.007 64.208C668.495 63.5787 667.887 63.0933 667.183 62.752C666.479 62.4107 665.759 62.24 665.023 62.24C664.031 62.24 663.129 62.5067 662.319 63.04C661.519 63.5627 660.884 64.2613 660.415 65.136C659.945 66.0107 659.711 66.9653 659.711 68C659.711 69.0347 659.945 69.9893 660.415 70.864C660.895 71.728 661.535 72.4213 662.335 72.944C663.145 73.4667 664.041 73.728 665.023 73.728C665.812 73.728 666.553 73.5467 667.247 73.184C667.94 72.8213 668.527 72.352 669.007 71.776ZM686.99 76H683.902L679.646 68.656L676.702 72.176V76H674.014V52H676.702V68L683.406 60H686.91L681.47 66.48L686.99 76ZM690.108 76V52H692.796V76H690.108ZM706.974 60H709.822L701.07 84H698.222L701.118 76L695.374 60H698.318L702.462 72.304L706.974 60ZM712.642 76.416C712.237 76.416 711.89 76.272 711.602 75.984C711.325 75.696 711.186 75.344 711.186 74.928C711.186 74.5333 711.325 74.192 711.602 73.904C711.89 73.616 712.237 73.472 712.642 73.472C713.058 73.472 713.41 73.616 713.698 73.904C713.986 74.192 714.13 74.5333 714.13 74.928C714.13 75.344 713.986 75.696 713.698 75.984C713.41 76.272 713.058 76.416 712.642 76.416Z" fill="white"/>
</svg>
