<svg width="794" height="30" viewBox="0 0 794 30" fill="none" xmlns="http://www.w3.org/2000/svg">
<path d="M7.27625 4.02539C6.45496 4.02539 5.74695 4.25667 5.15222 4.71924C4.56694 5.1818 4.08549 5.81901 3.70789 6.63086C3.33972 7.43327 3.06596 8.35368 2.8866 9.39209C2.71667 10.4211 2.63171 11.5067 2.63171 12.6489C2.63171 14.4237 2.82524 15.953 3.21228 17.2368C3.60876 18.5207 4.16573 19.5119 4.88318 20.2104C5.60063 20.8996 6.44552 21.2441 7.41785 21.2441C8.00313 21.2441 8.55538 21.1686 9.07458 21.0176C9.59379 20.8665 10.0705 20.6825 10.5048 20.4653V22.5044C10.0516 22.7687 9.54659 22.9622 8.98962 23.085C8.43266 23.2171 7.82377 23.2832 7.16296 23.2832C5.75639 23.2832 4.53861 22.8584 3.50964 22.0088C2.48067 21.1592 1.6877 19.9414 1.13074 18.3555C0.573771 16.7601 0.295288 14.8485 0.295288 12.6206C0.295288 11.1574 0.43217 9.78385 0.705933 8.5C0.989136 7.21615 1.41394 6.08333 1.98035 5.10156C2.55619 4.11979 3.27836 3.35514 4.14685 2.80762C5.01534 2.25065 6.03487 1.97217 7.20544 1.97217C7.88513 1.97217 8.5365 2.06185 9.15955 2.24121C9.79203 2.41113 10.3962 2.6613 10.972 2.9917L10.1649 4.90332C9.73067 4.62956 9.27283 4.41715 8.79138 4.26611C8.30994 4.10563 7.80489 4.02539 7.27625 4.02539ZM23.9264 15.2119C23.9264 16.4391 23.8226 17.5483 23.6149 18.5396C23.4072 19.5308 23.091 20.3804 22.6662 21.0884C22.2414 21.7964 21.7033 22.3392 21.0519 22.7168C20.4005 23.0944 19.6312 23.2832 18.7438 23.2832C17.8942 23.2832 17.1484 23.0944 16.5065 22.7168C15.8646 22.3392 15.3312 21.8011 14.9064 21.1025C14.4816 20.3945 14.1606 19.5449 13.9435 18.5537C13.7264 17.5531 13.6178 16.4391 13.6178 15.2119C13.6178 13.4938 13.8019 12.04 14.1701 10.8506C14.5382 9.65169 15.1046 8.74072 15.8693 8.11768C16.6339 7.48519 17.6063 7.16895 18.7863 7.16895C19.8908 7.16895 20.8253 7.47575 21.59 8.08936C22.3546 8.69352 22.9352 9.59505 23.3317 10.7939C23.7282 11.9834 23.9264 13.4561 23.9264 15.2119ZM15.841 15.2119C15.841 16.5618 15.9448 17.6947 16.1525 18.6104C16.3602 19.526 16.6811 20.2152 17.1154 20.6777C17.5591 21.1403 18.1208 21.3716 18.8004 21.3716C19.4707 21.3716 20.0182 21.145 20.443 20.6919C20.8773 20.2388 21.1982 19.5591 21.4059 18.6528C21.6136 17.7371 21.7174 16.5902 21.7174 15.2119C21.7174 13.862 21.6136 12.7339 21.4059 11.8276C21.1982 10.9119 20.8773 10.2275 20.443 9.77441C20.0182 9.31185 19.466 9.08057 18.7863 9.08057C17.7479 9.08057 16.9974 9.59505 16.5348 10.624C16.0723 11.6436 15.841 13.1729 15.841 15.2119ZM33.3974 7.16895C34.8889 7.16895 36.017 7.83919 36.7817 9.17969C37.5558 10.5107 37.9428 12.5168 37.9428 15.1978C37.9428 16.9253 37.7682 18.3932 37.4189 19.6016C37.079 20.8005 36.5787 21.7161 35.9179 22.3486C35.2571 22.9717 34.4547 23.2832 33.5107 23.2832C32.982 23.2832 32.4911 23.1841 32.038 22.9858C31.5849 22.7782 31.1837 22.4902 30.8344 22.1221C30.4851 21.7445 30.1925 21.3055 29.9565 20.8052H29.8574C29.8762 21.1828 29.8951 21.5462 29.914 21.8955C29.9423 22.2448 29.9565 22.5752 29.9565 22.8867V29.9385H27.7758V7.45215H29.5458L29.8149 9.73193H29.9423C30.2066 9.15609 30.5087 8.67936 30.8486 8.30176C31.1979 7.92415 31.5849 7.64095 32.0097 7.45215C32.4345 7.26335 32.8971 7.16895 33.3974 7.16895ZM32.9301 9.05225C32.2693 9.05225 31.7171 9.25993 31.2734 9.67529C30.8391 10.0907 30.5087 10.7184 30.2822 11.5586C30.065 12.3893 29.9565 13.4372 29.9565 14.7021V15.4526C29.9565 16.7931 30.065 17.9023 30.2822 18.7803C30.5087 19.6582 30.8439 20.3096 31.2875 20.7344C31.7407 21.1592 32.2976 21.3716 32.9584 21.3716C33.5626 21.3716 34.0676 21.1545 34.4736 20.7202C34.8889 20.286 35.2005 19.6157 35.4081 18.7095C35.6158 17.8032 35.7197 16.6421 35.7197 15.2261C35.7197 13.1776 35.5025 11.6388 35.0683 10.6099C34.6435 9.57145 33.9308 9.05225 32.9301 9.05225ZM40.0505 7.45215H42.302L44.4968 16.543C44.5818 16.9395 44.662 17.3265 44.7375 17.7041C44.8225 18.0817 44.898 18.4593 44.9641 18.8369C45.0396 19.2051 45.101 19.578 45.1482 19.9556H45.2614C45.337 19.408 45.4314 18.8558 45.5446 18.2988C45.6579 17.7324 45.7901 17.1424 45.9411 16.5288L48.0793 7.45215H50.3166L45.7004 25.4922C45.4266 26.5306 45.1057 27.3802 44.7375 28.041C44.3694 28.7018 43.9351 29.188 43.4348 29.4995C42.9439 29.811 42.3586 29.9668 41.6789 29.9668C41.4524 29.9668 41.2258 29.9432 40.9992 29.896C40.7727 29.8488 40.532 29.7922 40.2771 29.7261V27.7861C40.4564 27.8522 40.6405 27.9041 40.8293 27.9419C41.0276 27.9797 41.2164 27.9985 41.3957 27.9985C41.7544 27.9985 42.0612 27.9041 42.3161 27.7153C42.571 27.536 42.7976 27.2339 42.9958 26.8091C43.1941 26.3843 43.3876 25.8037 43.5764 25.0674L44.1286 22.8867L40.0505 7.45215ZM58.2583 7.18311C58.4754 7.18311 58.6925 7.20199 58.9097 7.23975C59.1268 7.26807 59.3534 7.31999 59.5894 7.39551L59.2495 9.63281C59.0796 9.55729 58.9002 9.50537 58.7114 9.47705C58.5226 9.44873 58.3197 9.43457 58.1025 9.43457C57.6777 9.43457 57.286 9.57617 56.9272 9.85938C56.578 10.1331 56.2759 10.5202 56.021 11.0205C55.7661 11.5208 55.5679 12.1014 55.4263 12.7622C55.2941 13.423 55.2327 14.1357 55.2422 14.9004V23H53.0615V7.45215H54.7607L55.0581 10.2134H55.1997C55.4168 9.61865 55.6717 9.09473 55.9644 8.6416C56.257 8.18848 56.5921 7.83447 56.9697 7.57959C57.3568 7.31527 57.7863 7.18311 58.2583 7.18311ZM64.6707 7.45215V23H62.5042V7.45215H64.6707ZM63.6228 1.61816C64.0665 1.61816 64.3875 1.75977 64.5857 2.04297C64.7934 2.32617 64.8972 2.71794 64.8972 3.21826C64.8972 3.70915 64.7887 4.09619 64.5716 4.37939C64.3544 4.6626 64.0382 4.8042 63.6228 4.8042C63.2169 4.8042 62.8959 4.6626 62.6599 4.37939C62.4239 4.09619 62.3059 3.70915 62.3059 3.21826C62.3059 2.69906 62.4192 2.30257 62.6458 2.02881C62.8723 1.75505 63.198 1.61816 63.6228 1.61816ZM72.2725 29.9668C70.7904 29.9668 69.6246 29.5892 68.775 28.834C67.9253 28.0788 67.5005 27.0215 67.5005 25.6621C67.5005 24.5954 67.7554 23.7222 68.2652 23.0425C68.775 22.3628 69.431 21.9097 70.2335 21.6831C69.837 21.4943 69.5113 21.2111 69.2564 20.8335C69.011 20.4559 68.8882 20.0075 68.8882 19.4883C68.8882 18.9596 69.011 18.4782 69.2564 18.0439C69.5113 17.6097 69.8653 17.1943 70.3184 16.7979C69.7142 16.4391 69.2375 15.8633 68.8882 15.0703C68.539 14.2773 68.3643 13.3664 68.3643 12.3374C68.3643 11.2801 68.5342 10.3691 68.8741 9.60449C69.2234 8.8304 69.7237 8.23096 70.3751 7.80615C71.0264 7.38135 71.8052 7.16895 72.7115 7.16895C72.9947 7.16895 73.2448 7.18311 73.462 7.21143C73.6791 7.23975 73.8726 7.27751 74.0425 7.32471C74.2125 7.37191 74.3635 7.42855 74.4957 7.49463H78.3472V8.89648L76.2657 9.15137C76.53 9.57617 76.7235 10.0623 76.8462 10.6099C76.969 11.1479 77.0303 11.6955 77.0303 12.2524C77.0303 13.8478 76.6527 15.1034 75.8975 16.019C75.1423 16.9253 74.0756 17.3784 72.6973 17.3784C72.2725 17.3784 71.9327 17.3359 71.6778 17.251C71.4229 17.487 71.1963 17.756 70.9981 18.0581C70.8093 18.3602 70.7149 18.7331 70.7149 19.1768C70.7149 19.4505 70.7763 19.6912 70.899 19.8989C71.0311 20.1066 71.2199 20.2671 71.4654 20.3804C71.7108 20.4937 72.0129 20.5503 72.3716 20.5503H74.6089C75.7701 20.5503 76.6622 20.8854 77.2852 21.5557C77.9177 22.2259 78.2339 23.2454 78.2339 24.6143C78.2339 26.3135 77.7195 27.6304 76.6905 28.5649C75.671 29.4995 74.1983 29.9668 72.2725 29.9668ZM72.4424 28.2393C73.2637 28.2393 73.9481 28.1118 74.4957 27.8569C75.0526 27.6115 75.468 27.2339 75.7418 26.7241C76.025 26.2144 76.1666 25.5819 76.1666 24.8267C76.1666 24.2131 76.0674 23.741 75.8692 23.4106C75.6804 23.0802 75.4066 22.8537 75.0479 22.731C74.6892 22.6082 74.2597 22.5469 73.7593 22.5469H71.9044C71.4701 22.5469 71.0736 22.646 70.7149 22.8442C70.3656 23.033 70.0871 23.3398 69.8794 23.7646C69.6718 24.1895 69.5679 24.7559 69.5679 25.4639C69.5679 26.3796 69.8228 27.0687 70.3326 27.5312C70.8518 28.0033 71.5551 28.2393 72.4424 28.2393ZM72.7115 15.7642C73.3912 15.7642 73.9151 15.4715 74.2833 14.8862C74.6609 14.3009 74.8497 13.4419 74.8497 12.3091C74.8497 11.1196 74.6561 10.2323 74.2691 9.64697C73.8915 9.06169 73.3628 8.76904 72.6832 8.76904C72.0224 8.76904 71.5031 9.08529 71.1255 9.71777C70.7479 10.3408 70.5591 11.2188 70.5591 12.3516C70.5591 13.4372 70.7385 14.2773 71.0972 14.8721C71.4559 15.4668 71.994 15.7642 72.7115 15.7642ZM83.2869 0.966797V7.36719C83.2869 7.78255 83.2728 8.18376 83.2445 8.5708C83.2256 8.9484 83.1878 9.30713 83.1312 9.64697H83.2869C83.4758 9.13721 83.7354 8.69824 84.0658 8.33008C84.4056 7.96191 84.7974 7.67871 85.2411 7.48047C85.6847 7.27279 86.1615 7.16895 86.6712 7.16895C87.5397 7.16895 88.2524 7.37191 88.8094 7.77783C89.3664 8.17432 89.777 8.76432 90.0413 9.54785C90.3057 10.3219 90.4378 11.2848 90.4378 12.4365V23H88.2572V12.8613C88.2572 11.5208 88.0967 10.5627 87.7757 9.98682C87.4548 9.41097 86.9355 9.12305 86.2181 9.12305C85.5573 9.12305 85.0098 9.32601 84.5755 9.73193C84.1413 10.1379 83.8156 10.7656 83.5985 11.6152C83.3908 12.4554 83.2869 13.5363 83.2869 14.8579V23H81.1063V0.966797H83.2869ZM98.5636 21.3574C98.7996 21.3574 99.0356 21.3338 99.2716 21.2866C99.5076 21.23 99.7342 21.1545 99.9513 21.0601V22.8442C99.6587 22.9764 99.3424 23.0802 99.0026 23.1558C98.6627 23.2407 98.2851 23.2832 97.8698 23.2832C97.1995 23.2832 96.6473 23.1322 96.213 22.8301C95.7882 22.528 95.472 22.0796 95.2643 21.4849C95.066 20.8807 94.9669 20.1255 94.9669 19.2192V9.27881H93.5226V8.08936L95.066 7.50879L95.6466 3.92627H97.1476V7.45215H99.7814V9.27881H97.1476V18.9644C97.1476 19.7668 97.242 20.3662 97.4308 20.7627C97.629 21.1592 98.0066 21.3574 98.5636 21.3574ZM119.219 23.2832C117.586 23.2832 116.113 23.0047 114.801 22.4478C113.489 21.8908 112.37 21.1214 111.445 20.1396C110.52 19.1579 109.812 18.0298 109.321 16.7554C108.83 15.4715 108.585 14.1027 108.585 12.6489C108.585 11.063 108.858 9.61865 109.406 8.31592C109.953 7.01318 110.713 5.88981 111.686 4.9458C112.658 4.00179 113.786 3.2749 115.07 2.76514C116.363 2.25537 117.751 2.00049 119.233 2.00049C120.81 2.00049 122.249 2.27425 123.552 2.82178C124.855 3.35986 125.978 4.11507 126.922 5.0874C127.866 6.05029 128.593 7.17839 129.103 8.47168C129.622 9.76497 129.882 11.1574 129.882 12.6489C129.882 14.1877 129.617 15.6084 129.089 16.9111C128.56 18.2044 127.814 19.3278 126.851 20.2812C125.898 21.2347 124.77 21.9757 123.467 22.5044C122.174 23.0236 120.758 23.2832 119.219 23.2832ZM119.672 19.0918C117.85 19.0918 116.429 18.5396 115.41 17.4351C114.4 16.3306 113.895 14.7541 113.895 12.7056C113.895 11.3745 114.131 10.2275 114.603 9.26465C115.075 8.29232 115.75 7.54655 116.628 7.02734C117.506 6.4987 118.558 6.23438 119.785 6.23438C120.408 6.23438 121.022 6.30046 121.626 6.43262C122.23 6.56478 122.82 6.76774 123.396 7.0415L122.688 8.55664C122.197 8.32064 121.711 8.15072 121.23 8.04688C120.758 7.94303 120.29 7.89111 119.828 7.89111C118.582 7.89111 117.609 8.30176 116.911 9.12305C116.212 9.94434 115.863 11.1102 115.863 12.6206C115.863 14.2726 116.198 15.4904 116.868 16.2739C117.539 17.048 118.52 17.4351 119.814 17.4351C120.286 17.4351 120.781 17.3784 121.3 17.2651C121.82 17.1519 122.348 16.9772 122.886 16.7412V18.3979C122.386 18.6245 121.862 18.7992 121.315 18.9219C120.777 19.0352 120.229 19.0918 119.672 19.0918ZM119.219 21.8389C120.578 21.8389 121.815 21.6029 122.929 21.1309C124.043 20.6589 125.001 20.0075 125.803 19.1768C126.615 18.3366 127.238 17.3595 127.673 16.2456C128.107 15.1317 128.324 13.9328 128.324 12.6489C128.324 11.3179 128.097 10.0954 127.644 8.98145C127.191 7.85807 126.554 6.88574 125.733 6.06445C124.921 5.23372 123.963 4.5918 122.858 4.13867C121.754 3.68555 120.545 3.45898 119.233 3.45898C117.874 3.45898 116.637 3.69499 115.523 4.16699C114.409 4.62956 113.451 5.28092 112.649 6.12109C111.846 6.95182 111.223 7.92415 110.779 9.03809C110.345 10.152 110.128 11.3556 110.128 12.6489C110.128 14.0177 110.355 15.2638 110.808 16.3872C111.27 17.5106 111.912 18.4782 112.734 19.29C113.555 20.1019 114.518 20.7297 115.622 21.1733C116.727 21.617 117.926 21.8389 119.219 21.8389ZM149.05 23H139.081V21.3433L143.174 15.311C143.976 14.131 144.608 13.1115 145.071 12.2524C145.543 11.3934 145.878 10.5815 146.076 9.81689C146.284 9.04281 146.388 8.20264 146.388 7.29639C146.388 6.2863 146.142 5.48861 145.652 4.90332C145.17 4.31803 144.476 4.02539 143.57 4.02539C142.966 4.02539 142.414 4.13395 141.913 4.35107C141.422 4.5682 140.917 4.92692 140.398 5.42725L139.251 3.86963C139.723 3.42594 140.19 3.06722 140.653 2.79346C141.116 2.51969 141.597 2.32145 142.097 2.19873C142.607 2.06657 143.159 2.00049 143.754 2.00049C144.774 2.00049 145.647 2.21761 146.374 2.65186C147.11 3.0861 147.672 3.69499 148.059 4.47852C148.446 5.26204 148.639 6.17301 148.639 7.21143C148.639 8.31592 148.512 9.33073 148.257 10.2559C148.002 11.181 147.615 12.1014 147.096 13.0171C146.586 13.9233 145.94 14.9146 145.156 15.9907L141.715 20.876V20.9751H149.05V23ZM162.259 12.6489C162.259 14.3104 162.165 15.7972 161.976 17.1094C161.797 18.4215 161.509 19.5355 161.112 20.4512C160.716 21.3669 160.201 22.0654 159.569 22.5469C158.946 23.0283 158.195 23.269 157.317 23.269C156.27 23.269 155.377 22.9481 154.641 22.3062C153.905 21.6548 153.338 20.5597 152.942 19.021C152.555 17.4728 152.361 15.3488 152.361 12.6489C152.361 10.2889 152.541 8.32064 152.899 6.74414C153.268 5.16764 153.815 3.98291 154.542 3.18994C155.278 2.39697 156.203 2.00049 157.317 2.00049C158.45 2.00049 159.38 2.40169 160.107 3.2041C160.834 3.99707 161.372 5.1818 161.721 6.7583C162.08 8.3348 162.259 10.2983 162.259 12.6489ZM154.641 12.6489C154.641 14.5464 154.731 16.1323 154.91 17.4067C155.09 18.6717 155.377 19.6252 155.774 20.2671C156.17 20.909 156.685 21.23 157.317 21.23C157.95 21.23 158.464 20.909 158.861 20.2671C159.257 19.6157 159.545 18.6528 159.725 17.3784C159.913 16.104 160.008 14.5275 160.008 12.6489C160.008 10.7703 159.913 9.19385 159.725 7.91943C159.536 6.64502 159.243 5.68213 158.847 5.03076C158.46 4.37939 157.95 4.05371 157.317 4.05371C156.685 4.05371 156.17 4.37467 155.774 5.0166C155.377 5.65853 155.09 6.6167 154.91 7.89111C154.731 9.15609 154.641 10.742 154.641 12.6489ZM175.185 23H165.217V21.3433L169.309 15.311C170.111 14.131 170.744 13.1115 171.206 12.2524C171.678 11.3934 172.013 10.5815 172.212 9.81689C172.419 9.04281 172.523 8.20264 172.523 7.29639C172.523 6.2863 172.278 5.48861 171.787 4.90332C171.305 4.31803 170.612 4.02539 169.705 4.02539C169.101 4.02539 168.549 4.13395 168.049 4.35107C167.558 4.5682 167.053 4.92692 166.533 5.42725L165.387 3.86963C165.859 3.42594 166.326 3.06722 166.788 2.79346C167.251 2.51969 167.732 2.32145 168.233 2.19873C168.742 2.06657 169.295 2.00049 169.889 2.00049C170.909 2.00049 171.782 2.21761 172.509 2.65186C173.245 3.0861 173.807 3.69499 174.194 4.47852C174.581 5.26204 174.775 6.17301 174.775 7.21143C174.775 8.31592 174.647 9.33073 174.392 10.2559C174.137 11.181 173.75 12.1014 173.231 13.0171C172.721 13.9233 172.075 14.9146 171.291 15.9907L167.85 20.876V20.9751H175.185V23ZM187.885 7.0415C187.885 7.87223 187.753 8.62272 187.488 9.29297C187.224 9.96322 186.837 10.5391 186.327 11.0205C185.827 11.4925 185.209 11.8607 184.472 12.125V12.2383C185.681 12.5026 186.606 13.0785 187.248 13.9658C187.899 14.8438 188.225 15.9766 188.225 17.3643C188.225 18.5348 188.003 19.5685 187.559 20.4653C187.125 21.3527 186.488 22.0465 185.648 22.5469C184.817 23.0378 183.802 23.2832 182.603 23.2832C181.772 23.2832 181.017 23.2171 180.337 23.085C179.667 22.9528 179.025 22.7404 178.412 22.4478V20.2104C179.016 20.5692 179.658 20.8477 180.337 21.0459C181.017 21.2347 181.702 21.3291 182.391 21.3291C183.58 21.3291 184.458 20.9515 185.024 20.1963C185.6 19.4411 185.888 18.4593 185.888 17.251C185.888 16.3825 185.728 15.6556 185.407 15.0703C185.086 14.4756 184.609 14.0319 183.977 13.7393C183.344 13.4372 182.561 13.2861 181.626 13.2861H180.564V11.332H181.711C182.523 11.332 183.221 11.1621 183.807 10.8223C184.401 10.4824 184.859 10.0104 185.18 9.40625C185.501 8.79264 185.662 8.07992 185.662 7.26807C185.662 6.22021 185.412 5.40837 184.911 4.83252C184.411 4.25667 183.703 3.96875 182.787 3.96875C182.334 3.96875 181.919 4.02539 181.541 4.13867C181.163 4.25195 180.8 4.41715 180.451 4.63428C180.111 4.8514 179.762 5.12044 179.403 5.44141L178.313 3.88379C179.039 3.21354 179.781 2.7321 180.536 2.43945C181.291 2.14681 182.136 2.00049 183.07 2.00049C184.562 2.00049 185.737 2.45361 186.596 3.35986C187.455 4.25667 187.885 5.48389 187.885 7.0415ZM210.99 23H199.067V2.29785H210.99V5.89453H203.457V10.4399H210.466V14.0366H203.457V19.375H210.99V23ZM232.78 23H227.768L222.953 15.1694L218.139 23H213.437L220.305 12.3232L213.876 2.29785H218.719L223.18 9.74609L227.555 2.29785H232.285L225.785 12.564L232.78 23ZM254.896 12.6206C254.896 14.216 254.698 15.6698 254.301 16.9819C253.905 18.2847 253.301 19.408 252.489 20.3521C251.687 21.2961 250.667 22.0229 249.43 22.5327C248.194 23.033 246.73 23.2832 245.041 23.2832C243.351 23.2832 241.888 23.033 240.651 22.5327C239.414 22.0229 238.39 21.2961 237.578 20.3521C236.776 19.408 236.176 18.2799 235.78 16.9678C235.383 15.6556 235.185 14.1971 235.185 12.5923C235.185 10.4494 235.535 8.58496 236.233 6.99902C236.941 5.40365 238.027 4.16699 239.49 3.28906C240.953 2.41113 242.813 1.97217 245.069 1.97217C247.316 1.97217 249.161 2.41113 250.606 3.28906C252.059 4.16699 253.136 5.40365 253.834 6.99902C254.542 8.5944 254.896 10.4683 254.896 12.6206ZM239.787 12.6206C239.787 14.0649 239.967 15.311 240.325 16.3589C240.694 17.3973 241.265 18.1997 242.039 18.7661C242.813 19.3231 243.813 19.6016 245.041 19.6016C246.287 19.6016 247.297 19.3231 248.071 18.7661C248.845 18.1997 249.407 17.3973 249.756 16.3589C250.115 15.311 250.294 14.0649 250.294 12.6206C250.294 10.4494 249.888 8.74072 249.076 7.49463C248.265 6.24854 246.929 5.62549 245.069 5.62549C243.832 5.62549 242.822 5.90869 242.039 6.4751C241.265 7.03206 240.694 7.83447 240.325 8.88232C239.967 9.92074 239.787 11.1668 239.787 12.6206ZM268.7 5.65381C267.86 5.65381 267.114 5.81901 266.463 6.14941C265.821 6.47038 265.278 6.93766 264.834 7.55127C264.4 8.16488 264.07 8.90592 263.843 9.77441C263.617 10.6429 263.503 11.62 263.503 12.7056C263.503 14.1688 263.683 15.4196 264.041 16.458C264.41 17.487 264.976 18.2752 265.741 18.8228C266.505 19.3608 267.492 19.6299 268.7 19.6299C269.54 19.6299 270.381 19.5355 271.221 19.3467C272.07 19.1579 272.991 18.8888 273.982 18.5396V22.2212C273.066 22.5988 272.165 22.8678 271.277 23.0283C270.39 23.1982 269.394 23.2832 268.29 23.2832C266.156 23.2832 264.4 22.8442 263.022 21.9663C261.653 21.0789 260.638 19.8423 259.978 18.2563C259.317 16.661 258.986 14.8013 258.986 12.6772C258.986 11.1102 259.199 9.67529 259.624 8.37256C260.048 7.06982 260.671 5.94173 261.493 4.98828C262.314 4.03483 263.329 3.2985 264.537 2.7793C265.745 2.26009 267.133 2.00049 268.7 2.00049C269.729 2.00049 270.758 2.13265 271.787 2.39697C272.825 2.65186 273.817 3.00586 274.761 3.45898L273.345 7.02734C272.571 6.65918 271.792 6.33822 271.008 6.06445C270.225 5.79069 269.455 5.65381 268.7 5.65381ZM297.91 12.6206C297.91 14.216 297.712 15.6698 297.316 16.9819C296.919 18.2847 296.315 19.408 295.503 20.3521C294.701 21.2961 293.681 22.0229 292.445 22.5327C291.208 23.033 289.745 23.2832 288.055 23.2832C286.365 23.2832 284.902 23.033 283.665 22.5327C282.429 22.0229 281.404 21.2961 280.593 20.3521C279.79 19.408 279.191 18.2799 278.794 16.9678C278.398 15.6556 278.199 14.1971 278.199 12.5923C278.199 10.4494 278.549 8.58496 279.247 6.99902C279.955 5.40365 281.041 4.16699 282.504 3.28906C283.967 2.41113 285.827 1.97217 288.083 1.97217C290.33 1.97217 292.176 2.41113 293.62 3.28906C295.074 4.16699 296.15 5.40365 296.848 6.99902C297.556 8.5944 297.91 10.4683 297.91 12.6206ZM282.802 12.6206C282.802 14.0649 282.981 15.311 283.34 16.3589C283.708 17.3973 284.279 18.1997 285.053 18.7661C285.827 19.3231 286.828 19.6016 288.055 19.6016C289.301 19.6016 290.311 19.3231 291.085 18.7661C291.859 18.1997 292.421 17.3973 292.77 16.3589C293.129 15.311 293.308 14.0649 293.308 12.6206C293.308 10.4494 292.902 8.74072 292.091 7.49463C291.279 6.24854 289.943 5.62549 288.083 5.62549C286.847 5.62549 285.837 5.90869 285.053 6.4751C284.279 7.03206 283.708 7.83447 283.34 8.88232C282.981 9.92074 282.802 11.1668 282.802 12.6206ZM320.097 12.4507C320.097 14.7824 319.649 16.7318 318.752 18.2988C317.865 19.8564 316.576 21.0317 314.886 21.8247C313.196 22.6082 311.162 23 308.783 23H302.921V2.29785H309.42C311.592 2.29785 313.475 2.6849 315.07 3.45898C316.666 4.22363 317.902 5.36117 318.78 6.87158C319.658 8.37256 320.097 10.2323 320.097 12.4507ZM315.538 12.564C315.538 11.0347 315.311 9.77913 314.858 8.79736C314.414 7.80615 313.753 7.07454 312.876 6.60254C312.007 6.13053 310.931 5.89453 309.647 5.89453H307.311V19.375H309.194C311.337 19.375 312.927 18.8039 313.966 17.6616C315.014 16.5194 315.538 14.8201 315.538 12.564ZM337.031 23H325.108V2.29785H337.031V5.89453H329.497V10.4399H336.507V14.0366H329.497V19.375H337.031V23ZM358.323 23H353.933V5.95117H348.312V2.29785H363.945V5.95117H358.323V23ZM379.774 23H367.851V2.29785H379.774V5.89453H372.24V10.4399H379.25V14.0366H372.24V19.375H379.774V23ZM393.62 5.65381C392.78 5.65381 392.034 5.81901 391.383 6.14941C390.741 6.47038 390.198 6.93766 389.754 7.55127C389.32 8.16488 388.99 8.90592 388.763 9.77441C388.537 10.6429 388.423 11.62 388.423 12.7056C388.423 14.1688 388.603 15.4196 388.961 16.458C389.33 17.487 389.896 18.2752 390.661 18.8228C391.425 19.3608 392.412 19.6299 393.62 19.6299C394.46 19.6299 395.3 19.5355 396.141 19.3467C396.99 19.1579 397.911 18.8888 398.902 18.5396V22.2212C397.986 22.5988 397.085 22.8678 396.197 23.0283C395.31 23.1982 394.314 23.2832 393.209 23.2832C391.076 23.2832 389.32 22.8442 387.942 21.9663C386.573 21.0789 385.558 19.8423 384.897 18.2563C384.237 16.661 383.906 14.8013 383.906 12.6772C383.906 11.1102 384.119 9.67529 384.543 8.37256C384.968 7.06982 385.591 5.94173 386.413 4.98828C387.234 4.03483 388.249 3.2985 389.457 2.7793C390.665 2.26009 392.053 2.00049 393.62 2.00049C394.649 2.00049 395.678 2.13265 396.707 2.39697C397.745 2.65186 398.737 3.00586 399.681 3.45898L398.265 7.02734C397.49 6.65918 396.712 6.33822 395.928 6.06445C395.145 5.79069 394.375 5.65381 393.62 5.65381ZM421.004 23H416.628V14.0649H408.429V23H404.04V2.29785H408.429V10.4116H416.628V2.29785H421.004V23ZM445.329 23H439.75L430.744 7.33887H430.616C430.654 7.99023 430.687 8.64632 430.715 9.30713C430.744 9.96794 430.772 10.6287 430.8 11.2896C430.829 11.9409 430.857 12.597 430.885 13.2578V23H426.963V2.29785H432.5L441.491 17.8032H441.59C441.571 17.1613 441.548 16.5241 441.52 15.8916C441.491 15.2591 441.463 14.6266 441.435 13.9941C441.416 13.3617 441.397 12.7292 441.378 12.0967V2.29785H445.329V23ZM470.064 12.6206C470.064 14.216 469.866 15.6698 469.47 16.9819C469.073 18.2847 468.469 19.408 467.657 20.3521C466.855 21.2961 465.835 22.0229 464.598 22.5327C463.362 23.033 461.899 23.2832 460.209 23.2832C458.519 23.2832 457.056 23.033 455.819 22.5327C454.582 22.0229 453.558 21.2961 452.746 20.3521C451.944 19.408 451.345 18.2799 450.948 16.9678C450.552 15.6556 450.353 14.1971 450.353 12.5923C450.353 10.4494 450.703 8.58496 451.401 6.99902C452.109 5.40365 453.195 4.16699 454.658 3.28906C456.121 2.41113 457.981 1.97217 460.237 1.97217C462.484 1.97217 464.329 2.41113 465.774 3.28906C467.227 4.16699 468.304 5.40365 469.002 6.99902C469.71 8.5944 470.064 10.4683 470.064 12.6206ZM454.955 12.6206C454.955 14.0649 455.135 15.311 455.493 16.3589C455.862 17.3973 456.433 18.1997 457.207 18.7661C457.981 19.3231 458.982 19.6016 460.209 19.6016C461.455 19.6016 462.465 19.3231 463.239 18.7661C464.013 18.1997 464.575 17.3973 464.924 16.3589C465.283 15.311 465.462 14.0649 465.462 12.6206C465.462 10.4494 465.056 8.74072 464.244 7.49463C463.433 6.24854 462.097 5.62549 460.237 5.62549C459 5.62549 457.99 5.90869 457.207 6.4751C456.433 7.03206 455.862 7.83447 455.493 8.88232C455.135 9.92074 454.955 11.1668 454.955 12.6206ZM475.075 23V2.29785H479.464V19.375H487.861V23H475.075ZM510.983 12.6206C510.983 14.216 510.785 15.6698 510.388 16.9819C509.992 18.2847 509.387 19.408 508.576 20.3521C507.773 21.2961 506.754 22.0229 505.517 22.5327C504.28 23.033 502.817 23.2832 501.127 23.2832C499.438 23.2832 497.974 23.033 496.738 22.5327C495.501 22.0229 494.477 21.2961 493.665 20.3521C492.863 19.408 492.263 18.2799 491.867 16.9678C491.47 15.6556 491.272 14.1971 491.272 12.5923C491.272 10.4494 491.621 8.58496 492.32 6.99902C493.028 5.40365 494.113 4.16699 495.577 3.28906C497.04 2.41113 498.899 1.97217 501.156 1.97217C503.402 1.97217 505.248 2.41113 506.692 3.28906C508.146 4.16699 509.222 5.40365 509.921 6.99902C510.629 8.5944 510.983 10.4683 510.983 12.6206ZM495.874 12.6206C495.874 14.0649 496.053 15.311 496.412 16.3589C496.78 17.3973 497.351 18.1997 498.125 18.7661C498.899 19.3231 499.9 19.6016 501.127 19.6016C502.373 19.6016 503.384 19.3231 504.158 18.7661C504.932 18.1997 505.493 17.3973 505.843 16.3589C506.201 15.311 506.381 14.0649 506.381 12.6206C506.381 10.4494 505.975 8.74072 505.163 7.49463C504.351 6.24854 503.015 5.62549 501.156 5.62549C499.919 5.62549 498.909 5.90869 498.125 6.4751C497.351 7.03206 496.78 7.83447 496.412 8.88232C496.053 9.92074 495.874 11.1668 495.874 12.6206ZM523.852 11.3745H532.065V22.1079C530.979 22.4666 529.851 22.7546 528.681 22.9717C527.51 23.1794 526.184 23.2832 524.702 23.2832C522.644 23.2832 520.897 22.8773 519.463 22.0654C518.028 21.2536 516.937 20.0547 516.192 18.4688C515.446 16.8828 515.073 14.9334 515.073 12.6206C515.073 10.4494 515.488 8.5708 516.319 6.98486C517.159 5.39893 518.382 4.17171 519.986 3.30322C521.601 2.43473 523.569 2.00049 525.891 2.00049C526.986 2.00049 528.067 2.11849 529.134 2.35449C530.201 2.59049 531.168 2.8973 532.037 3.2749L530.578 6.78662C529.946 6.46566 529.224 6.19661 528.412 5.97949C527.6 5.76237 526.75 5.65381 525.863 5.65381C524.589 5.65381 523.479 5.94645 522.535 6.53174C521.601 7.11702 520.874 7.93831 520.355 8.99561C519.845 10.0435 519.59 11.2801 519.59 12.7056C519.59 14.0555 519.774 15.2544 520.142 16.3022C520.51 17.3407 521.091 18.1572 521.884 18.752C522.677 19.3372 523.711 19.6299 524.985 19.6299C525.608 19.6299 526.132 19.6016 526.557 19.5449C526.991 19.4788 527.397 19.4128 527.775 19.3467V15.0278H523.852V11.3745ZM537.727 23V2.29785H542.117V23H537.727ZM559.97 23H548.048V2.29785H559.97V5.89453H552.437V10.4399H559.446V14.0366H552.437V19.375H559.97V23ZM577.244 17.251C577.244 18.4782 576.946 19.5449 576.352 20.4512C575.757 21.3574 574.888 22.056 573.746 22.5469C572.613 23.0378 571.235 23.2832 569.611 23.2832C568.894 23.2832 568.191 23.236 567.501 23.1416C566.822 23.0472 566.166 22.9103 565.533 22.731C564.91 22.5422 564.315 22.3109 563.749 22.0371V17.959C564.731 18.3932 565.75 18.785 566.808 19.1343C567.865 19.4836 568.913 19.6582 569.951 19.6582C570.669 19.6582 571.244 19.5638 571.679 19.375C572.122 19.1862 572.443 18.9266 572.642 18.5962C572.84 18.2658 572.939 17.8882 572.939 17.4634C572.939 16.9442 572.764 16.5005 572.415 16.1323C572.066 15.7642 571.584 15.4196 570.971 15.0986C570.366 14.7777 569.682 14.4331 568.917 14.0649C568.436 13.8384 567.912 13.5646 567.346 13.2437C566.779 12.9132 566.241 12.512 565.731 12.04C565.222 11.568 564.802 10.9969 564.471 10.3267C564.15 9.64697 563.99 8.83512 563.99 7.89111C563.99 6.65446 564.273 5.59717 564.839 4.71924C565.406 3.84131 566.213 3.17106 567.261 2.7085C568.318 2.23649 569.564 2.00049 570.999 2.00049C572.075 2.00049 573.099 2.12793 574.072 2.38281C575.053 2.62826 576.078 2.98698 577.144 3.45898L575.728 6.87158C574.775 6.48454 573.921 6.18717 573.165 5.97949C572.41 5.76237 571.641 5.65381 570.857 5.65381C570.31 5.65381 569.843 5.74349 569.456 5.92285C569.068 6.09277 568.776 6.33822 568.578 6.65918C568.379 6.9707 568.28 7.33415 568.28 7.74951C568.28 8.2404 568.422 8.65576 568.705 8.99561C568.998 9.32601 569.432 9.64697 570.008 9.9585C570.593 10.27 571.32 10.6335 572.188 11.0488C573.246 11.5492 574.147 12.0731 574.893 12.6206C575.648 13.1587 576.229 13.7959 576.635 14.5322C577.041 15.2591 577.244 16.1654 577.244 17.251ZM590.026 0.867676H592.051V29.8818H590.026V0.867676ZM614.136 23L612.579 16.3447H607.665L606.107 23H603.7L608.699 2.29785H611.432L616.529 23H614.136ZM612.154 14.2632L610.568 7.23975C610.502 6.89046 610.436 6.55062 610.37 6.22021C610.313 5.88037 610.256 5.55469 610.2 5.24316C610.153 4.9222 610.105 4.61068 610.058 4.30859C610.03 4.61068 609.992 4.9222 609.945 5.24316C609.898 5.56413 609.841 5.88981 609.775 6.22021C609.709 6.54118 609.638 6.87158 609.563 7.21143L608.019 14.2632H612.154ZM621.328 23H619.147V0.966797H621.328V23ZM627.995 23H625.814V0.966797H627.995V23ZM643.779 7.18311C643.996 7.18311 644.213 7.20199 644.43 7.23975C644.647 7.26807 644.874 7.31999 645.11 7.39551L644.77 9.63281C644.6 9.55729 644.421 9.50537 644.232 9.47705C644.043 9.44873 643.84 9.43457 643.623 9.43457C643.198 9.43457 642.807 9.57617 642.448 9.85938C642.099 10.1331 641.797 10.5202 641.542 11.0205C641.287 11.5208 641.089 12.1014 640.947 12.7622C640.815 13.423 640.753 14.1357 640.763 14.9004V23H638.582V7.45215H640.281L640.579 10.2134H640.72C640.938 9.61865 641.192 9.09473 641.485 8.6416C641.778 8.18848 642.113 7.83447 642.49 7.57959C642.877 7.31527 643.307 7.18311 643.779 7.18311ZM650.191 7.45215V23H648.025V7.45215H650.191ZM649.144 1.61816C649.587 1.61816 649.908 1.75977 650.106 2.04297C650.314 2.32617 650.418 2.71794 650.418 3.21826C650.418 3.70915 650.309 4.09619 650.092 4.37939C649.875 4.6626 649.559 4.8042 649.144 4.8042C648.738 4.8042 648.417 4.6626 648.181 4.37939C647.945 4.09619 647.827 3.70915 647.827 3.21826C647.827 2.69906 647.94 2.30257 648.167 2.02881C648.393 1.75505 648.719 1.61816 649.144 1.61816ZM657.793 29.9668C656.311 29.9668 655.145 29.5892 654.296 28.834C653.446 28.0788 653.021 27.0215 653.021 25.6621C653.021 24.5954 653.276 23.7222 653.786 23.0425C654.296 22.3628 654.952 21.9097 655.754 21.6831C655.358 21.4943 655.032 21.2111 654.777 20.8335C654.532 20.4559 654.409 20.0075 654.409 19.4883C654.409 18.9596 654.532 18.4782 654.777 18.0439C655.032 17.6097 655.386 17.1943 655.839 16.7979C655.235 16.4391 654.758 15.8633 654.409 15.0703C654.06 14.2773 653.885 13.3664 653.885 12.3374C653.885 11.2801 654.055 10.3691 654.395 9.60449C654.744 8.8304 655.244 8.23096 655.896 7.80615C656.547 7.38135 657.326 7.16895 658.232 7.16895C658.515 7.16895 658.766 7.18311 658.983 7.21143C659.2 7.23975 659.393 7.27751 659.563 7.32471C659.733 7.37191 659.884 7.42855 660.016 7.49463H663.868V8.89648L661.786 9.15137C662.051 9.57617 662.244 10.0623 662.367 10.6099C662.49 11.1479 662.551 11.6955 662.551 12.2524C662.551 13.8478 662.173 15.1034 661.418 16.019C660.663 16.9253 659.596 17.3784 658.218 17.3784C657.793 17.3784 657.453 17.3359 657.198 17.251C656.944 17.487 656.717 17.756 656.519 18.0581C656.33 18.3602 656.236 18.7331 656.236 19.1768C656.236 19.4505 656.297 19.6912 656.42 19.8989C656.552 20.1066 656.741 20.2671 656.986 20.3804C657.232 20.4937 657.534 20.5503 657.892 20.5503H660.13C661.291 20.5503 662.183 20.8854 662.806 21.5557C663.438 22.2259 663.755 23.2454 663.755 24.6143C663.755 26.3135 663.24 27.6304 662.211 28.5649C661.192 29.4995 659.719 29.9668 657.793 29.9668ZM657.963 28.2393C658.784 28.2393 659.469 28.1118 660.016 27.8569C660.573 27.6115 660.989 27.2339 661.262 26.7241C661.546 26.2144 661.687 25.5819 661.687 24.8267C661.687 24.2131 661.588 23.741 661.39 23.4106C661.201 23.0802 660.927 22.8537 660.569 22.731C660.21 22.6082 659.78 22.5469 659.28 22.5469H657.425C656.991 22.5469 656.594 22.646 656.236 22.8442C655.886 23.033 655.608 23.3398 655.4 23.7646C655.192 24.1895 655.089 24.7559 655.089 25.4639C655.089 26.3796 655.344 27.0687 655.853 27.5312C656.372 28.0033 657.076 28.2393 657.963 28.2393ZM658.232 15.7642C658.912 15.7642 659.436 15.4715 659.804 14.8862C660.182 14.3009 660.37 13.4419 660.37 12.3091C660.37 11.1196 660.177 10.2323 659.79 9.64697C659.412 9.06169 658.884 8.76904 658.204 8.76904C657.543 8.76904 657.024 9.08529 656.646 9.71777C656.269 10.3408 656.08 11.2188 656.08 12.3516C656.08 13.4372 656.259 14.2773 656.618 14.8721C656.977 15.4668 657.515 15.7642 658.232 15.7642ZM668.808 0.966797V7.36719C668.808 7.78255 668.794 8.18376 668.765 8.5708C668.746 8.9484 668.709 9.30713 668.652 9.64697H668.808C668.996 9.13721 669.256 8.69824 669.586 8.33008C669.926 7.96191 670.318 7.67871 670.762 7.48047C671.205 7.27279 671.682 7.16895 672.192 7.16895C673.06 7.16895 673.773 7.37191 674.33 7.77783C674.887 8.17432 675.298 8.76432 675.562 9.54785C675.826 10.3219 675.959 11.2848 675.959 12.4365V23H673.778V12.8613C673.778 11.5208 673.617 10.5627 673.296 9.98682C672.975 9.41097 672.456 9.12305 671.739 9.12305C671.078 9.12305 670.53 9.32601 670.096 9.73193C669.662 10.1379 669.336 10.7656 669.119 11.6152C668.912 12.4554 668.808 13.5363 668.808 14.8579V23H666.627V0.966797H668.808ZM684.084 21.3574C684.32 21.3574 684.556 21.3338 684.792 21.2866C685.028 21.23 685.255 21.1545 685.472 21.0601V22.8442C685.179 22.9764 684.863 23.0802 684.523 23.1558C684.183 23.2407 683.806 23.2832 683.39 23.2832C682.72 23.2832 682.168 23.1322 681.734 22.8301C681.309 22.528 680.993 22.0796 680.785 21.4849C680.587 20.8807 680.488 20.1255 680.488 19.2192V9.27881H679.043V8.08936L680.587 7.50879L681.167 3.92627H682.668V7.45215H685.302V9.27881H682.668V18.9644C682.668 19.7668 682.763 20.3662 682.951 20.7627C683.15 21.1592 683.527 21.3574 684.084 21.3574ZM695.424 18.8936C695.424 19.8281 695.255 20.6258 694.915 21.2866C694.575 21.938 694.079 22.4336 693.428 22.7734C692.786 23.1133 692.002 23.2832 691.077 23.2832C690.36 23.2832 689.704 23.1982 689.109 23.0283C688.514 22.8584 688.009 22.6554 687.594 22.4194V20.1538C688.009 20.4937 688.524 20.7769 689.137 21.0034C689.751 21.2205 690.374 21.3291 691.006 21.3291C691.733 21.3291 692.29 21.1214 692.677 20.7061C693.074 20.2907 693.272 19.7101 693.272 18.9644C693.272 18.5207 693.192 18.1383 693.031 17.8174C692.871 17.487 692.611 17.1755 692.253 16.8828C691.903 16.5807 691.441 16.2645 690.865 15.9341C690.223 15.5376 689.652 15.127 689.151 14.7021C688.661 14.2773 688.278 13.7912 688.005 13.2437C687.731 12.6867 687.594 12.0117 687.594 11.2188C687.594 10.0104 687.986 9.03337 688.769 8.2876C689.562 7.54183 690.605 7.16895 691.899 7.16895C692.55 7.16895 693.164 7.25391 693.739 7.42383C694.325 7.58431 694.877 7.82975 695.396 8.16016L694.575 9.91602C694.178 9.64225 693.754 9.42513 693.3 9.26465C692.857 9.10417 692.399 9.02393 691.927 9.02393C691.238 9.02393 690.69 9.21745 690.284 9.60449C689.888 9.99154 689.69 10.5107 689.69 11.1621C689.69 11.5964 689.77 11.9692 689.93 12.2808C690.091 12.5923 690.355 12.8944 690.723 13.187C691.091 13.4797 691.578 13.8101 692.182 14.1782C692.824 14.5841 693.385 14.9995 693.867 15.4243C694.358 15.8397 694.74 16.3211 695.014 16.8687C695.288 17.4162 695.424 18.0911 695.424 18.8936ZM710.274 7.18311C710.491 7.18311 710.708 7.20199 710.925 7.23975C711.143 7.26807 711.369 7.31999 711.605 7.39551L711.265 9.63281C711.095 9.55729 710.916 9.50537 710.727 9.47705C710.538 9.44873 710.335 9.43457 710.118 9.43457C709.694 9.43457 709.302 9.57617 708.943 9.85938C708.594 10.1331 708.292 10.5202 708.037 11.0205C707.782 11.5208 707.584 12.1014 707.442 12.7622C707.31 13.423 707.249 14.1357 707.258 14.9004V23H705.077V7.45215H706.777L707.074 10.2134H707.216C707.433 9.61865 707.688 9.09473 707.98 8.6416C708.273 8.18848 708.608 7.83447 708.986 7.57959C709.373 7.31527 709.802 7.18311 710.274 7.18311ZM718.768 7.19727C719.825 7.19727 720.694 7.50407 721.373 8.11768C722.063 8.73128 722.572 9.55729 722.903 10.5957C723.243 11.6341 723.413 12.7905 723.413 14.0649V15.6084H716.007C716.026 17.5436 716.323 18.9974 716.899 19.9697C717.484 20.9421 718.362 21.4282 719.533 21.4282C720.09 21.4282 720.637 21.3433 721.175 21.1733C721.713 21.0034 722.27 20.7297 722.846 20.3521V22.3062C722.308 22.6366 721.746 22.882 721.161 23.0425C720.576 23.203 719.953 23.2832 719.292 23.2832C717.999 23.2832 716.951 22.9386 716.148 22.2495C715.346 21.5509 714.761 20.6022 714.393 19.4033C714.034 18.195 713.854 16.8309 713.854 15.311C713.854 13.5741 714.039 12.1014 714.407 10.8931C714.775 9.68473 715.322 8.76904 716.049 8.146C716.786 7.51351 717.692 7.19727 718.768 7.19727ZM718.768 8.98145C717.947 8.98145 717.305 9.38265 716.842 10.1851C716.38 10.978 716.111 12.2052 716.035 13.8667H721.373C721.373 12.9888 721.279 12.1816 721.09 11.4453C720.911 10.6995 720.628 10.1048 720.241 9.66113C719.863 9.20801 719.372 8.98145 718.768 8.98145ZM734.13 18.8936C734.13 19.8281 733.96 20.6258 733.62 21.2866C733.28 21.938 732.784 22.4336 732.133 22.7734C731.491 23.1133 730.708 23.2832 729.782 23.2832C729.065 23.2832 728.409 23.1982 727.814 23.0283C727.219 22.8584 726.714 22.6554 726.299 22.4194V20.1538C726.714 20.4937 727.229 20.7769 727.842 21.0034C728.456 21.2205 729.079 21.3291 729.712 21.3291C730.438 21.3291 730.995 21.1214 731.383 20.7061C731.779 20.2907 731.977 19.7101 731.977 18.9644C731.977 18.5207 731.897 18.1383 731.737 17.8174C731.576 17.487 731.316 17.1755 730.958 16.8828C730.608 16.5807 730.146 16.2645 729.57 15.9341C728.928 15.5376 728.357 15.127 727.857 14.7021C727.366 14.2773 726.983 13.7912 726.71 13.2437C726.436 12.6867 726.299 12.0117 726.299 11.2188C726.299 10.0104 726.691 9.03337 727.474 8.2876C728.267 7.54183 729.31 7.16895 730.604 7.16895C731.255 7.16895 731.869 7.25391 732.445 7.42383C733.03 7.58431 733.582 7.82975 734.101 8.16016L733.28 9.91602C732.883 9.64225 732.459 9.42513 732.006 9.26465C731.562 9.10417 731.104 9.02393 730.632 9.02393C729.943 9.02393 729.395 9.21745 728.989 9.60449C728.593 9.99154 728.395 10.5107 728.395 11.1621C728.395 11.5964 728.475 11.9692 728.635 12.2808C728.796 12.5923 729.06 12.8944 729.428 13.187C729.797 13.4797 730.283 13.8101 730.887 14.1782C731.529 14.5841 732.091 14.9995 732.572 15.4243C733.063 15.8397 733.445 16.3211 733.719 16.8687C733.993 17.4162 734.13 18.0911 734.13 18.8936ZM741.958 7.19727C743.015 7.19727 743.884 7.50407 744.563 8.11768C745.253 8.73128 745.762 9.55729 746.093 10.5957C746.433 11.6341 746.603 12.7905 746.603 14.0649V15.6084H739.197C739.216 17.5436 739.513 18.9974 740.089 19.9697C740.674 20.9421 741.552 21.4282 742.723 21.4282C743.28 21.4282 743.827 21.3433 744.365 21.1733C744.903 21.0034 745.46 20.7297 746.036 20.3521V22.3062C745.498 22.6366 744.936 22.882 744.351 23.0425C743.766 23.203 743.143 23.2832 742.482 23.2832C741.189 23.2832 740.141 22.9386 739.338 22.2495C738.536 21.5509 737.951 20.6022 737.583 19.4033C737.224 18.195 737.044 16.8309 737.044 15.311C737.044 13.5741 737.229 12.1014 737.597 10.8931C737.965 9.68473 738.512 8.76904 739.239 8.146C739.976 7.51351 740.882 7.19727 741.958 7.19727ZM741.958 8.98145C741.137 8.98145 740.495 9.38265 740.032 10.1851C739.57 10.978 739.301 12.2052 739.225 13.8667H744.563C744.563 12.9888 744.469 12.1816 744.28 11.4453C744.101 10.6995 743.818 10.1048 743.431 9.66113C743.053 9.20801 742.562 8.98145 741.958 8.98145ZM755.606 7.18311C755.823 7.18311 756.04 7.20199 756.258 7.23975C756.475 7.26807 756.701 7.31999 756.937 7.39551L756.597 9.63281C756.427 9.55729 756.248 9.50537 756.059 9.47705C755.871 9.44873 755.668 9.43457 755.45 9.43457C755.026 9.43457 754.634 9.57617 754.275 9.85938C753.926 10.1331 753.624 10.5202 753.369 11.0205C753.114 11.5208 752.916 12.1014 752.774 12.7622C752.642 13.423 752.581 14.1357 752.59 14.9004V23H750.409V7.45215H752.109L752.406 10.2134H752.548C752.765 9.61865 753.02 9.09473 753.312 8.6416C753.605 8.18848 753.94 7.83447 754.318 7.57959C754.705 7.31527 755.134 7.18311 755.606 7.18311ZM761.934 23L758.04 7.45215H760.277L762.415 16.897C762.547 17.4634 762.665 18.0439 762.769 18.6387C762.882 19.2334 762.986 19.8517 763.081 20.4937H763.194C763.241 20.1255 763.312 19.6818 763.406 19.1626C763.501 18.6434 763.623 18.0675 763.774 17.4351L766.068 7.45215H768.306L764.355 23H761.934ZM775.327 7.19727C776.384 7.19727 777.253 7.50407 777.932 8.11768C778.622 8.73128 779.131 9.55729 779.462 10.5957C779.802 11.6341 779.971 12.7905 779.971 14.0649V15.6084H772.566C772.585 17.5436 772.882 18.9974 773.458 19.9697C774.043 20.9421 774.921 21.4282 776.092 21.4282C776.649 21.4282 777.196 21.3433 777.734 21.1733C778.272 21.0034 778.829 20.7297 779.405 20.3521V22.3062C778.867 22.6366 778.305 22.882 777.72 23.0425C777.135 23.203 776.512 23.2832 775.851 23.2832C774.558 23.2832 773.51 22.9386 772.707 22.2495C771.905 21.5509 771.32 20.6022 770.951 19.4033C770.593 18.195 770.413 16.8309 770.413 15.311C770.413 13.5741 770.597 12.1014 770.966 10.8931C771.334 9.68473 771.881 8.76904 772.608 8.146C773.345 7.51351 774.251 7.19727 775.327 7.19727ZM775.327 8.98145C774.506 8.98145 773.864 9.38265 773.401 10.1851C772.939 10.978 772.67 12.2052 772.594 13.8667H777.932C777.932 12.9888 777.838 12.1816 777.649 11.4453C777.47 10.6995 777.187 10.1048 776.8 9.66113C776.422 9.20801 775.931 8.98145 775.327 8.98145ZM787.644 23.2832C786.162 23.2832 785.034 22.6035 784.26 21.2441C783.495 19.8753 783.113 17.8835 783.113 15.2686C783.113 12.6725 783.5 10.6759 784.274 9.27881C785.048 7.87223 786.148 7.16895 787.573 7.16895C788.074 7.16895 788.546 7.26807 788.989 7.46631C789.433 7.65511 789.83 7.92887 790.179 8.2876C790.538 8.63688 790.84 9.06169 791.085 9.56201H791.184C791.165 9.12777 791.146 8.74072 791.128 8.40088C791.118 8.0516 791.113 7.72591 791.113 7.42383V0.966797H793.28V23H791.538L791.241 20.9043H791.113C790.849 21.3952 790.547 21.82 790.207 22.1787C789.877 22.5374 789.499 22.8112 789.074 23C788.659 23.1888 788.182 23.2832 787.644 23.2832ZM788.126 21.4282C789.107 21.4282 789.848 20.9704 790.349 20.0547C790.859 19.139 791.113 17.7843 791.113 15.9907V14.9287C791.113 12.9557 790.868 11.4925 790.377 10.5391C789.896 9.58561 789.136 9.10889 788.097 9.10889C787.153 9.10889 786.455 9.63753 786.002 10.6948C785.558 11.7427 785.336 13.2673 785.336 15.2686C785.336 17.2887 785.558 18.8228 786.002 19.8706C786.455 20.909 787.163 21.4282 788.126 21.4282Z" fill="white"/>
</svg>
