<svg width="412" height="53" viewBox="0 0 412 53" fill="none" xmlns="http://www.w3.org/2000/svg">
<path d="M22.13 52.84C17.8833 52.84 14.1267 51.8367 10.86 49.83C7.59333 47.7767 5.05 44.8833 3.23 41.15C1.41 37.37 0.5 32.89 0.5 27.71C0.5 22.7167 1.41 18.3067 3.23 14.48C5.09667 10.6067 7.71 7.59667 11.07 5.45C14.4767 3.25667 18.4433 2.16 22.97 2.16C25.3033 2.16 27.4267 2.39333 29.34 2.86C31.2533 3.28 33.05 3.88666 34.73 4.68L32.7 10.28C31.2533 9.58 29.76 9.02 28.22 8.6C26.7267 8.18 24.9533 7.97 22.9 7.97C19.9133 7.97 17.23 8.74 14.85 10.28C12.5167 11.82 10.6733 14.0367 9.32 16.93C7.96667 19.8233 7.29 23.3233 7.29 27.43C7.29 31.35 7.94333 34.78 9.25 37.72C10.6033 40.66 12.4467 42.9467 14.78 44.58C17.16 46.2133 19.8667 47.03 22.9 47.03C25.1867 47.03 27.17 46.75 28.85 46.19C30.53 45.63 32.1633 44.9067 33.75 44.02L35.78 49.55C34.0533 50.4833 32.07 51.2767 29.83 51.93C27.6367 52.5367 25.07 52.84 22.13 52.84ZM58.7734 52.84C55.32 52.84 52.2167 52.0467 49.4634 50.46C46.71 48.8267 44.54 46.5867 42.9534 43.74C41.4134 40.8467 40.6434 37.5333 40.6434 33.8C40.6434 29.88 41.4367 26.4967 43.0234 23.65C44.61 20.8033 46.78 18.61 49.5334 17.07C52.2867 15.53 55.3667 14.76 58.7734 14.76C62.18 14.76 65.2367 15.53 67.9434 17.07C70.6967 18.61 72.8667 20.8033 74.4534 23.65C76.0867 26.45 76.9034 29.7867 76.9034 33.66C76.9034 37.5333 76.11 40.9167 74.5234 43.81C72.9367 46.6567 70.7667 48.8733 68.0134 50.46C65.3067 52.0467 62.2267 52.84 58.7734 52.84ZM58.7734 47.24C62.46 47.24 65.33 46.0033 67.3834 43.53C69.4367 41.01 70.4634 37.7667 70.4634 33.8C70.4634 31.3733 69.95 29.1567 68.9234 27.15C67.8967 25.0967 66.4967 23.4633 64.7234 22.25C62.9967 20.99 61.0134 20.36 58.7734 20.36C55.0867 20.36 52.2167 21.5733 50.1634 24C48.11 26.4267 47.0834 29.6467 47.0834 33.66C47.0834 36.0867 47.5967 38.35 48.6234 40.45C49.65 42.5033 51.0267 44.16 52.7534 45.42C54.5267 46.6333 56.5334 47.24 58.7734 47.24ZM100.469 52.84C97.4826 52.84 94.7526 52.07 92.2793 50.53C89.806 48.99 87.846 46.82 86.3993 44.02C84.9526 41.1733 84.2293 37.8367 84.2293 34.01C84.2293 30.3233 84.9526 27.0333 86.3993 24.14C87.8926 21.2467 89.8526 18.96 92.2793 17.28C94.7526 15.6 97.4593 14.76 100.399 14.76C102.826 14.76 104.903 15.25 106.629 16.23C108.403 17.21 109.779 18.2133 110.759 19.24V0.199999H117.059V43.18C117.059 44.9533 117.479 46.12 118.319 46.68C119.206 47.1933 120.163 47.45 121.189 47.45L119.859 52.35C115.426 52.35 112.719 50.5767 111.739 47.03C110.713 48.4767 109.266 49.8067 107.399 51.02C105.579 52.2333 103.269 52.84 100.469 52.84ZM101.869 47.24C103.596 47.24 105.229 46.8433 106.769 46.05C108.356 45.21 109.686 44.1367 110.759 42.83V24.77C109.873 23.65 108.636 22.6233 107.049 21.69C105.463 20.71 103.713 20.22 101.799 20.22C99.5593 20.22 97.5993 20.8267 95.9193 22.04C94.2393 23.2533 92.9326 24.8867 91.9993 26.94C91.1126 28.9467 90.6693 31.2333 90.6693 33.8C90.6693 36.3667 91.1593 38.6767 92.1393 40.73C93.1193 42.7367 94.4493 44.3233 96.1293 45.49C97.856 46.6567 99.7693 47.24 101.869 47.24ZM144.885 52.84C139.659 52.84 135.505 51.1833 132.425 47.87C129.392 44.51 127.875 39.82 127.875 33.8C127.875 30.16 128.552 26.9167 129.905 24.07C131.305 21.1767 133.242 18.9133 135.715 17.28C138.189 15.6 141.059 14.76 144.325 14.76C147.825 14.76 150.719 15.53 153.005 17.07C155.339 18.5633 157.089 20.5933 158.255 23.16C159.422 25.7267 160.005 28.55 160.005 31.63C160.005 33.2633 159.935 34.85 159.795 36.39H134.315C134.735 39.7967 135.925 42.4567 137.885 44.37C139.845 46.2833 142.435 47.24 145.655 47.24C147.755 47.24 149.645 47.03 151.325 46.61C153.005 46.1433 154.615 45.56 156.155 44.86L157.625 50.25C155.945 50.9967 154.055 51.6033 151.955 52.07C149.855 52.5833 147.499 52.84 144.885 52.84ZM134.245 31.28H154.195C154.195 27.7333 153.309 25.0033 151.535 23.09C149.762 21.1767 147.312 20.22 144.185 20.22C141.479 20.22 139.239 21.1767 137.465 23.09C135.692 24.9567 134.619 27.6867 134.245 31.28ZM205.768 52.56C203.108 52.56 200.775 52.49 198.768 52.35C196.808 52.21 194.848 52.0467 192.888 51.86V3.14C195.081 2.90667 197.228 2.74333 199.328 2.65C201.428 2.51 203.831 2.44 206.538 2.44C210.738 2.44 214.355 3.09333 217.388 4.4C220.468 5.70667 222.988 7.50333 224.948 9.79C226.955 12.0767 228.425 14.7367 229.358 17.77C230.338 20.7567 230.828 23.9767 230.828 27.43C230.828 30.8367 230.338 34.0567 229.358 37.09C228.378 40.1233 226.861 42.8067 224.808 45.14C222.801 47.4267 220.211 49.2467 217.038 50.6C213.911 51.9067 210.155 52.56 205.768 52.56ZM205.978 46.75C210.178 46.75 213.608 45.9333 216.268 44.3C218.928 42.6667 220.888 40.4033 222.148 37.51C223.408 34.57 224.038 31.21 224.038 27.43C224.038 24.07 223.408 20.92 222.148 17.98C220.888 15.04 218.951 12.6833 216.338 10.91C213.725 9.09 210.388 8.18 206.328 8.18C204.975 8.18 203.738 8.22666 202.618 8.32C201.498 8.36667 200.471 8.43666 199.538 8.53V46.4C200.518 46.54 201.545 46.6333 202.618 46.68C203.691 46.7267 204.811 46.75 205.978 46.75ZM256.633 52.84C253.179 52.84 250.076 52.0467 247.323 50.46C244.569 48.8267 242.399 46.5867 240.813 43.74C239.273 40.8467 238.503 37.5333 238.503 33.8C238.503 29.88 239.296 26.4967 240.883 23.65C242.469 20.8033 244.639 18.61 247.393 17.07C250.146 15.53 253.226 14.76 256.633 14.76C260.039 14.76 263.096 15.53 265.803 17.07C268.556 18.61 270.726 20.8033 272.313 23.65C273.946 26.45 274.763 29.7867 274.763 33.66C274.763 37.5333 273.969 40.9167 272.383 43.81C270.796 46.6567 268.626 48.8733 265.873 50.46C263.166 52.0467 260.086 52.84 256.633 52.84ZM256.633 47.24C260.319 47.24 263.189 46.0033 265.243 43.53C267.296 41.01 268.323 37.7667 268.323 33.8C268.323 31.3733 267.809 29.1567 266.783 27.15C265.756 25.0967 264.356 23.4633 262.583 22.25C260.856 20.99 258.873 20.36 256.633 20.36C252.946 20.36 250.076 21.5733 248.023 24C245.969 26.4267 244.943 29.6467 244.943 33.66C244.943 36.0867 245.456 38.35 246.483 40.45C247.509 42.5033 248.886 44.16 250.613 45.42C252.386 46.6333 254.393 47.24 256.633 47.24ZM299.239 52.84C295.785 52.84 292.752 52.0467 290.139 50.46C287.572 48.8267 285.589 46.5867 284.189 43.74C282.789 40.8467 282.089 37.5333 282.089 33.8C282.089 30.3 282.789 27.1033 284.189 24.21C285.635 21.3167 287.689 19.03 290.349 17.35C293.009 15.6233 296.135 14.76 299.729 14.76C301.782 14.76 303.579 14.9467 305.119 15.32C306.705 15.6933 308.222 16.23 309.669 16.93L307.779 22.25C306.472 21.5967 305.212 21.13 303.999 20.85C302.832 20.5233 301.525 20.36 300.079 20.36C296.812 20.36 294.059 21.55 291.819 23.93C289.625 26.2633 288.529 29.5067 288.529 33.66C288.529 36.18 288.995 38.4667 289.929 40.52C290.862 42.5733 292.145 44.2067 293.779 45.42C295.459 46.6333 297.419 47.24 299.659 47.24C301.432 47.24 302.949 47.0533 304.209 46.68C305.469 46.26 306.822 45.6767 308.269 44.93L310.229 50.25C308.782 51.0433 307.149 51.6733 305.329 52.14C303.555 52.6067 301.525 52.84 299.239 52.84ZM331.696 52.84C328.196 52.84 325.42 51.6967 323.366 49.41C321.36 47.0767 320.356 43.7633 320.356 39.47V22.39H314.056V16.93H320.496L321.826 5.45H326.656V16.93H336.736V22.39H326.656V39.96C326.656 42.6667 327.216 44.5567 328.336 45.63C329.503 46.7033 330.88 47.24 332.466 47.24C333.633 47.24 334.73 47.0533 335.756 46.68C336.83 46.3067 337.81 45.8633 338.696 45.35L340.446 50.39C339.513 50.95 338.253 51.4867 336.666 52C335.08 52.56 333.423 52.84 331.696 52.84ZM362.141 52.84C358.688 52.84 355.585 52.0467 352.831 50.46C350.078 48.8267 347.908 46.5867 346.321 43.74C344.781 40.8467 344.011 37.5333 344.011 33.8C344.011 29.88 344.805 26.4967 346.391 23.65C347.978 20.8033 350.148 18.61 352.901 17.07C355.655 15.53 358.735 14.76 362.141 14.76C365.548 14.76 368.605 15.53 371.311 17.07C374.065 18.61 376.235 20.8033 377.821 23.65C379.455 26.45 380.271 29.7867 380.271 33.66C380.271 37.5333 379.478 40.9167 377.891 43.81C376.305 46.6567 374.135 48.8733 371.381 50.46C368.675 52.0467 365.595 52.84 362.141 52.84ZM362.141 47.24C365.828 47.24 368.698 46.0033 370.751 43.53C372.805 41.01 373.831 37.7667 373.831 33.8C373.831 31.3733 373.318 29.1567 372.291 27.15C371.265 25.0967 369.865 23.4633 368.091 22.25C366.365 20.99 364.381 20.36 362.141 20.36C358.455 20.36 355.585 21.5733 353.531 24C351.478 26.4267 350.451 29.6467 350.451 33.66C350.451 36.0867 350.965 38.35 351.991 40.45C353.018 42.5033 354.395 44.16 356.121 45.42C357.895 46.6333 359.901 47.24 362.141 47.24ZM390.047 52V15.6H396.137V23.51C396.744 21.97 397.561 20.5467 398.587 19.24C399.614 17.8867 400.897 16.8133 402.437 16.02C403.977 15.18 405.774 14.76 407.827 14.76C408.527 14.76 409.227 14.8067 409.927 14.9C410.627 14.9467 411.211 15.04 411.677 15.18L409.787 21.69C408.901 21.3167 407.851 21.13 406.637 21.13C404.911 21.13 403.254 21.62 401.667 22.6C400.127 23.58 398.844 25.0967 397.817 27.15C396.837 29.2033 396.347 31.8167 396.347 34.99V52H390.047Z" fill="white"/>
</svg>
