<svg width="168" height="30" viewBox="0 0 168 30" fill="none" xmlns="http://www.w3.org/2000/svg">
<path d="M8.09659 12.1533H13.35V22.2778C12.5098 22.6082 11.6413 22.8584 10.7445 23.0283C9.84773 23.1982 8.94148 23.2832 8.02579 23.2832C6.33601 23.2832 4.94359 22.8206 3.84854 21.8955C2.76293 20.9609 1.9558 19.6912 1.42715 18.0864C0.907949 16.4722 0.648346 14.6455 0.648346 12.6064C0.648346 10.5391 0.931549 8.70768 1.49796 7.1123C2.0738 5.51693 2.93757 4.26611 4.08926 3.35986C5.2504 2.45361 6.70417 2.00049 8.45059 2.00049C9.3002 2.00049 10.1168 2.11377 10.9003 2.34033C11.6838 2.55745 12.4202 2.88786 13.1093 3.33154L12.3022 5.24316C11.6602 4.8278 11.023 4.521 10.3905 4.32275C9.76749 4.12451 9.135 4.02539 8.49307 4.02539C7.29418 4.02539 6.28881 4.36051 5.47696 5.03076C4.66511 5.70101 4.0515 6.67806 3.63614 7.96191C3.22077 9.24577 3.01309 10.8128 3.01309 12.6631C3.01309 14.2868 3.18773 15.75 3.53702 17.0527C3.89574 18.346 4.45743 19.3703 5.22208 20.1255C5.98672 20.8713 6.98266 21.2441 8.20987 21.2441C8.7574 21.2441 9.2766 21.2064 9.76749 21.1309C10.2678 21.0459 10.7304 20.9279 11.1552 20.7769V14.1782H8.09659V12.1533ZM21.8015 7.19727C22.8587 7.19727 23.7272 7.50407 24.4069 8.11768C25.096 8.73128 25.6058 9.55729 25.9362 10.5957C26.2761 11.6341 26.446 12.7905 26.446 14.0649V15.6084H19.0402C19.0591 17.5436 19.3565 18.9974 19.9323 19.9697C20.5176 20.9421 21.3955 21.4282 22.5661 21.4282C23.1231 21.4282 23.6706 21.3433 24.2087 21.1733C24.7468 21.0034 25.3037 20.7297 25.8796 20.3521V22.3062C25.3415 22.6366 24.7798 22.882 24.1945 23.0425C23.6092 23.203 22.9862 23.2832 22.3254 23.2832C21.0321 23.2832 19.9842 22.9386 19.1818 22.2495C18.3794 21.5509 17.7941 20.6022 17.426 19.4033C17.0672 18.195 16.8879 16.8309 16.8879 15.311C16.8879 13.5741 17.072 12.1014 17.4401 10.8931C17.8083 9.68473 18.3558 8.76904 19.0827 8.146C19.819 7.51351 20.7253 7.19727 21.8015 7.19727ZM21.8015 8.98145C20.9802 8.98145 20.3382 9.38265 19.8757 10.1851C19.4131 10.978 19.1441 12.2052 19.0685 13.8667H24.4069C24.4069 12.9888 24.3125 12.1816 24.1237 11.4453C23.9444 10.6995 23.6612 10.1048 23.2741 9.66113C22.8965 9.20801 22.4056 8.98145 21.8015 8.98145ZM33.9062 21.3574C34.1422 21.3574 34.3782 21.3338 34.6142 21.2866C34.8502 21.23 35.0768 21.1545 35.2939 21.0601V22.8442C35.0013 22.9764 34.685 23.0802 34.3452 23.1558C34.0053 23.2407 33.6277 23.2832 33.2124 23.2832C32.5421 23.2832 31.9899 23.1322 31.5556 22.8301C31.1308 22.528 30.8146 22.0796 30.6069 21.4849C30.4087 20.8807 30.3095 20.1255 30.3095 19.2192V9.27881H28.8652V8.08936L30.4087 7.50879L30.9892 3.92627H32.4902V7.45215H35.124V9.27881H32.4902V18.9644C32.4902 19.7668 32.5846 20.3662 32.7734 20.7627C32.9716 21.1592 33.3493 21.3574 33.9062 21.3574ZM52.8199 23H44.6778V2.29785H52.8199V4.30859H46.9292V11.1763H52.4659V13.2012H46.9292V20.9468H52.8199V23ZM60.9031 7.16895C62.338 7.16895 63.3623 7.62679 63.9759 8.54248C64.5895 9.45817 64.8963 10.7845 64.8963 12.5215V23H63.2396L62.9139 20.791H62.8572C62.6118 21.3197 62.3192 21.7728 61.9793 22.1504C61.6395 22.5186 61.2524 22.8018 60.8182 23C60.3839 23.1888 59.8836 23.2832 59.3172 23.2832C58.5148 23.2832 57.8587 23.0708 57.3489 22.646C56.8392 22.2212 56.4616 21.6642 56.2161 20.9751C55.9707 20.2765 55.848 19.526 55.848 18.7236C55.848 17.1849 56.2916 15.9907 57.179 15.1411C58.0664 14.2915 59.3266 13.8289 60.9598 13.7534L62.7298 13.6401V12.5781C62.7298 11.332 62.5599 10.4211 62.22 9.84521C61.8802 9.26937 61.3327 8.98145 60.5775 8.98145C60.1432 8.98145 59.6854 9.05697 59.2039 9.20801C58.7319 9.35905 58.2174 9.59977 57.6605 9.93018L56.9666 8.2876C57.5519 7.90999 58.1749 7.63151 58.8358 7.45215C59.506 7.26335 60.1951 7.16895 60.9031 7.16895ZM62.7581 15.2402L61.3138 15.3394C60.2187 15.4054 59.4022 15.717 58.8641 16.2739C58.3354 16.8215 58.0711 17.6191 58.0711 18.667C58.0711 19.6393 58.2457 20.3568 58.595 20.8193C58.9443 21.2819 59.4258 21.5132 60.0394 21.5132C60.8984 21.5132 61.5639 21.0978 62.0359 20.2671C62.5174 19.4364 62.7581 18.2894 62.7581 16.8262V15.2402ZM74.5797 7.18311C74.7968 7.18311 75.0139 7.20199 75.231 7.23975C75.4482 7.26807 75.6747 7.31999 75.9107 7.39551L75.5709 9.63281C75.401 9.55729 75.2216 9.50537 75.0328 9.47705C74.844 9.44873 74.641 9.43457 74.4239 9.43457C73.9991 9.43457 73.6074 9.57617 73.2486 9.85938C72.8993 10.1331 72.5973 10.5202 72.3424 11.0205C72.0875 11.5208 71.8893 12.1014 71.7477 12.7622C71.6155 13.423 71.5541 14.1357 71.5636 14.9004V23H69.3829V7.45215H71.0821L71.3795 10.2134H71.5211C71.7382 9.61865 71.9931 9.09473 72.2857 8.6416C72.5784 8.18848 72.9135 7.83447 73.2911 7.57959C73.6782 7.31527 74.1077 7.18311 74.5797 7.18311ZM80.9779 23H78.7972V0.966797H80.9779V23ZM83.737 7.45215H85.9884L88.1833 16.543C88.2682 16.9395 88.3485 17.3265 88.424 17.7041C88.5089 18.0817 88.5845 18.4593 88.6505 18.8369C88.7261 19.2051 88.7874 19.578 88.8346 19.9556H88.9479C89.0234 19.408 89.1178 18.8558 89.2311 18.2988C89.3444 17.7324 89.4766 17.1424 89.6276 16.5288L91.7658 7.45215H94.0031L89.3869 25.4922C89.1131 26.5306 88.7921 27.3802 88.424 28.041C88.0558 28.7018 87.6216 29.188 87.1212 29.4995C86.6304 29.811 86.0451 29.9668 85.3654 29.9668C85.1388 29.9668 84.9123 29.9432 84.6857 29.896C84.4591 29.8488 84.2184 29.7922 83.9635 29.7261V27.7861C84.1429 27.8522 84.327 27.9041 84.5158 27.9419C84.714 27.9797 84.9028 27.9985 85.0822 27.9985C85.4409 27.9985 85.7477 27.9041 86.0026 27.7153C86.2575 27.536 86.484 27.2339 86.6823 26.8091C86.8805 26.3843 87.074 25.8037 87.2628 25.0674L87.8151 22.8867L83.737 7.45215ZM111.387 23L109.83 16.3447H104.916L103.359 23H100.951L105.95 2.29785H108.683L113.78 23H111.387ZM109.405 14.2632L107.819 7.23975C107.753 6.89046 107.687 6.55062 107.621 6.22021C107.564 5.88037 107.508 5.55469 107.451 5.24316C107.404 4.9222 107.356 4.61068 107.309 4.30859C107.281 4.61068 107.243 4.9222 107.196 5.24316C107.149 5.56413 107.092 5.88981 107.026 6.22021C106.96 6.54118 106.889 6.87158 106.814 7.21143L105.27 14.2632H109.405ZM120.887 23.2832C119.744 23.2832 118.791 22.9858 118.026 22.3911C117.271 21.7964 116.705 20.909 116.327 19.729C115.95 18.549 115.761 17.0858 115.761 15.3394C115.761 13.6307 115.95 12.1675 116.327 10.9497C116.714 9.73193 117.295 8.79736 118.069 8.146C118.843 7.49463 119.811 7.16895 120.972 7.16895C121.557 7.16895 122.081 7.23031 122.543 7.35303C123.015 7.47575 123.454 7.65039 123.86 7.87695L123.167 9.67529C122.817 9.48649 122.468 9.34489 122.119 9.25049C121.779 9.15609 121.444 9.10889 121.113 9.10889C120.434 9.10889 119.862 9.34489 119.4 9.81689C118.937 10.2795 118.583 10.9686 118.338 11.8843C118.102 12.8 117.984 13.9422 117.984 15.311C117.984 16.6421 118.097 17.756 118.324 18.6528C118.56 19.5496 118.909 20.2293 119.372 20.6919C119.844 21.145 120.429 21.3716 121.127 21.3716C121.543 21.3716 121.963 21.3149 122.388 21.2017C122.822 21.0789 123.256 20.9043 123.69 20.6777V22.5186C123.294 22.764 122.831 22.9528 122.303 23.085C121.784 23.2171 121.312 23.2832 120.887 23.2832ZM131.575 23.2832C130.433 23.2832 129.48 22.9858 128.715 22.3911C127.96 21.7964 127.393 20.909 127.016 19.729C126.638 18.549 126.449 17.0858 126.449 15.3394C126.449 13.6307 126.638 12.1675 127.016 10.9497C127.403 9.73193 127.983 8.79736 128.758 8.146C129.532 7.49463 130.499 7.16895 131.66 7.16895C132.246 7.16895 132.77 7.23031 133.232 7.35303C133.704 7.47575 134.143 7.65039 134.549 7.87695L133.855 9.67529C133.506 9.48649 133.157 9.34489 132.807 9.25049C132.468 9.15609 132.132 9.10889 131.802 9.10889C131.122 9.10889 130.551 9.34489 130.089 9.81689C129.626 10.2795 129.272 10.9686 129.027 11.8843C128.791 12.8 128.673 13.9422 128.673 15.311C128.673 16.6421 128.786 17.756 129.012 18.6528C129.248 19.5496 129.598 20.2293 130.06 20.6919C130.532 21.145 131.118 21.3716 131.816 21.3716C132.232 21.3716 132.652 21.3149 133.076 21.2017C133.511 21.0789 133.945 20.9043 134.379 20.6777V22.5186C133.983 22.764 133.52 22.9528 132.991 23.085C132.472 23.2171 132 23.2832 131.575 23.2832ZM142.052 7.19727C143.109 7.19727 143.978 7.50407 144.657 8.11768C145.346 8.73128 145.856 9.55729 146.187 10.5957C146.526 11.6341 146.696 12.7905 146.696 14.0649V15.6084H139.291C139.309 17.5436 139.607 18.9974 140.183 19.9697C140.768 20.9421 141.646 21.4282 142.816 21.4282C143.373 21.4282 143.921 21.3433 144.459 21.1733C144.997 21.0034 145.554 20.7297 146.13 20.3521V22.3062C145.592 22.6366 145.03 22.882 144.445 23.0425C143.86 23.203 143.237 23.2832 142.576 23.2832C141.282 23.2832 140.235 22.9386 139.432 22.2495C138.63 21.5509 138.044 20.6022 137.676 19.4033C137.318 18.195 137.138 16.8309 137.138 15.311C137.138 13.5741 137.322 12.1014 137.69 10.8931C138.059 9.68473 138.606 8.76904 139.333 8.146C140.069 7.51351 140.976 7.19727 142.052 7.19727ZM142.052 8.98145C141.231 8.98145 140.589 9.38265 140.126 10.1851C139.663 10.978 139.394 12.2052 139.319 13.8667H144.657C144.657 12.9888 144.563 12.1816 144.374 11.4453C144.195 10.6995 143.912 10.1048 143.524 9.66113C143.147 9.20801 142.656 8.98145 142.052 8.98145ZM157.413 18.8936C157.413 19.8281 157.243 20.6258 156.904 21.2866C156.564 21.938 156.068 22.4336 155.417 22.7734C154.775 23.1133 153.991 23.2832 153.066 23.2832C152.349 23.2832 151.693 23.1982 151.098 23.0283C150.503 22.8584 149.998 22.6554 149.583 22.4194V20.1538C149.998 20.4937 150.513 20.7769 151.126 21.0034C151.74 21.2205 152.363 21.3291 152.995 21.3291C153.722 21.3291 154.279 21.1214 154.666 20.7061C155.063 20.2907 155.261 19.7101 155.261 18.9644C155.261 18.5207 155.181 18.1383 155.02 17.8174C154.86 17.487 154.6 17.1755 154.242 16.8828C153.892 16.5807 153.43 16.2645 152.854 15.9341C152.212 15.5376 151.641 15.127 151.14 14.7021C150.65 14.2773 150.267 13.7912 149.993 13.2437C149.72 12.6867 149.583 12.0117 149.583 11.2188C149.583 10.0104 149.975 9.03337 150.758 8.2876C151.551 7.54183 152.594 7.16895 153.888 7.16895C154.539 7.16895 155.152 7.25391 155.728 7.42383C156.314 7.58431 156.866 7.82975 157.385 8.16016L156.564 9.91602C156.167 9.64225 155.742 9.42513 155.289 9.26465C154.846 9.10417 154.388 9.02393 153.916 9.02393C153.227 9.02393 152.679 9.21745 152.273 9.60449C151.877 9.99154 151.679 10.5107 151.679 11.1621C151.679 11.5964 151.759 11.9692 151.919 12.2808C152.08 12.5923 152.344 12.8944 152.712 13.187C153.08 13.4797 153.567 13.8101 154.171 14.1782C154.813 14.5841 155.374 14.9995 155.856 15.4243C156.347 15.8397 156.729 16.3211 157.003 16.8687C157.277 17.4162 157.413 18.0911 157.413 18.8936ZM167.876 18.8936C167.876 19.8281 167.706 20.6258 167.366 21.2866C167.026 21.938 166.53 22.4336 165.879 22.7734C165.237 23.1133 164.454 23.2832 163.528 23.2832C162.811 23.2832 162.155 23.1982 161.56 23.0283C160.965 22.8584 160.46 22.6554 160.045 22.4194V20.1538C160.46 20.4937 160.975 20.7769 161.589 21.0034C162.202 21.2205 162.825 21.3291 163.458 21.3291C164.185 21.3291 164.741 21.1214 165.129 20.7061C165.525 20.2907 165.723 19.7101 165.723 18.9644C165.723 18.5207 165.643 18.1383 165.483 17.8174C165.322 17.487 165.062 17.1755 164.704 16.8828C164.354 16.5807 163.892 16.2645 163.316 15.9341C162.674 15.5376 162.103 15.127 161.603 14.7021C161.112 14.2773 160.729 13.7912 160.456 13.2437C160.182 12.6867 160.045 12.0117 160.045 11.2188C160.045 10.0104 160.437 9.03337 161.22 8.2876C162.013 7.54183 163.056 7.16895 164.35 7.16895C165.001 7.16895 165.615 7.25391 166.191 7.42383C166.776 7.58431 167.328 7.82975 167.847 8.16016L167.026 9.91602C166.63 9.64225 166.205 9.42513 165.752 9.26465C165.308 9.10417 164.85 9.02393 164.378 9.02393C163.689 9.02393 163.141 9.21745 162.735 9.60449C162.339 9.99154 162.141 10.5107 162.141 11.1621C162.141 11.5964 162.221 11.9692 162.381 12.2808C162.542 12.5923 162.806 12.8944 163.174 13.187C163.543 13.4797 164.029 13.8101 164.633 14.1782C165.275 14.5841 165.837 14.9995 166.318 15.4243C166.809 15.8397 167.191 16.3211 167.465 16.8687C167.739 17.4162 167.876 18.0911 167.876 18.8936Z" fill="white"/>
</svg>
