<svg width="1310" height="124" viewBox="0 0 1310 124" fill="none" xmlns="http://www.w3.org/2000/svg">
<path d="M28.3403 40L24.7095 29.6914H10.5161L6.88525 40H0.461426L14.2739 2.72656H21.0278L34.8149 40H28.3403ZM23.1353 24.4609L19.606 14.3047C19.4705 13.8646 19.2759 13.2467 19.022 12.4512C18.7681 11.6387 18.5142 10.8177 18.2603 9.98828C18.0063 9.14193 17.7948 8.43099 17.6255 7.85547C17.4562 8.54948 17.2446 9.32812 16.9907 10.1914C16.7537 11.0378 16.5168 11.8333 16.2798 12.5781C16.0597 13.3229 15.8905 13.8984 15.772 14.3047L12.2173 24.4609H23.1353ZM64.6479 11.8926V40H59.9506L59.1381 36.2168H58.8081C58.2156 37.1816 57.4624 37.9857 56.5483 38.6289C55.6342 39.2552 54.6186 39.7207 53.5014 40.0254C52.3842 40.347 51.2078 40.5078 49.9721 40.5078C47.8562 40.5078 46.045 40.1523 44.5385 39.4414C43.049 38.7135 41.9064 37.5964 41.1108 36.0898C40.3152 34.5833 39.9174 32.6367 39.9174 30.25V11.8926H45.9096V29.1328C45.9096 31.3164 46.3497 32.9499 47.2299 34.0332C48.1271 35.1165 49.5151 35.6582 51.394 35.6582C53.2052 35.6582 54.644 35.2858 55.7104 34.541C56.7768 33.7962 57.5301 32.696 57.9702 31.2402C58.4272 29.7845 58.6557 27.9987 58.6557 25.8828V11.8926H64.6479ZM84.7055 35.6836C85.4841 35.6836 86.2543 35.6159 87.016 35.4805C87.7778 35.3281 88.4718 35.1504 89.0981 34.9473V39.4668C88.4379 39.7546 87.5831 40 86.5336 40.2031C85.4841 40.4062 84.3923 40.5078 83.2582 40.5078C81.6671 40.5078 80.2367 40.2454 78.9672 39.7207C77.6977 39.179 76.6905 38.2565 75.9457 36.9531C75.2009 35.6497 74.8285 33.847 74.8285 31.5449V16.4375H70.9946V13.7715L75.1078 11.6641L77.0629 5.64648H80.8207V11.8926H88.8696V16.4375H80.8207V31.4688C80.8207 32.8906 81.1762 33.9486 81.8871 34.6426C82.5981 35.3366 83.5375 35.6836 84.7055 35.6836ZM120.734 25.8828C120.734 28.2188 120.429 30.2923 119.82 32.1035C119.21 33.9147 118.322 35.4466 117.154 36.6992C115.986 37.9349 114.581 38.8828 112.939 39.543C111.297 40.1862 109.443 40.5078 107.378 40.5078C105.449 40.5078 103.68 40.1862 102.072 39.543C100.464 38.8828 99.0671 37.9349 97.8822 36.6992C96.7142 35.4466 95.8086 33.9147 95.1654 32.1035C94.5222 30.2923 94.2006 28.2188 94.2006 25.8828C94.2006 22.7852 94.7338 20.1615 95.8002 18.0117C96.8835 15.8451 98.4239 14.1947 100.421 13.0605C102.419 11.9264 104.797 11.3594 107.556 11.3594C110.146 11.3594 112.431 11.9264 114.412 13.0605C116.392 14.1947 117.941 15.8451 119.058 18.0117C120.175 20.1784 120.734 22.8021 120.734 25.8828ZM100.345 25.8828C100.345 27.931 100.591 29.6829 101.081 31.1387C101.589 32.5944 102.368 33.7116 103.417 34.4902C104.467 35.252 105.821 35.6328 107.48 35.6328C109.139 35.6328 110.493 35.252 111.542 34.4902C112.592 33.7116 113.362 32.5944 113.853 31.1387C114.344 29.6829 114.589 27.931 114.589 25.8828C114.589 23.8346 114.344 22.0996 113.853 20.6777C113.362 19.2389 112.592 18.1471 111.542 17.4023C110.493 16.6406 109.13 16.2598 107.454 16.2598C104.983 16.2598 103.18 17.0892 102.046 18.748C100.912 20.4069 100.345 22.7852 100.345 25.8828ZM160.393 11.3594C163.541 11.3594 165.911 12.1719 167.502 13.7969C169.11 15.4219 169.914 18.0286 169.914 21.6172V40H163.948V22.6836C163.948 20.5508 163.533 18.9427 162.703 17.8594C161.874 16.776 160.613 16.2344 158.92 16.2344C156.55 16.2344 154.841 16.9961 153.791 18.5195C152.759 20.026 152.243 22.2181 152.243 25.0957V40H146.276V22.6836C146.276 21.2617 146.09 20.0768 145.717 19.1289C145.362 18.1641 144.812 17.4447 144.067 16.9707C143.322 16.4798 142.382 16.2344 141.248 16.2344C139.606 16.2344 138.295 16.6068 137.313 17.3516C136.348 18.0964 135.654 19.1966 135.231 20.6523C134.808 22.0911 134.596 23.86 134.596 25.959V40H128.629V11.8926H133.276L134.114 15.6758H134.444C135.019 14.694 135.73 13.89 136.577 13.2637C137.44 12.6204 138.396 12.1465 139.446 11.8418C140.495 11.5202 141.587 11.3594 142.721 11.3594C144.82 11.3594 146.589 11.7318 148.028 12.4766C149.466 13.2044 150.541 14.3216 151.252 15.8281H151.709C152.59 14.3047 153.817 13.179 155.391 12.4512C156.965 11.7233 158.632 11.3594 160.393 11.3594ZM190.302 11.3594C193.857 11.3594 196.54 12.1465 198.351 13.7207C200.179 15.2949 201.093 17.7493 201.093 21.084V40H196.853L195.71 36.0137H195.507C194.712 37.0293 193.891 37.8672 193.044 38.5273C192.198 39.1875 191.216 39.6784 190.099 40C188.999 40.3385 187.653 40.5078 186.062 40.5078C184.386 40.5078 182.888 40.2031 181.568 39.5938C180.247 38.9674 179.206 38.0195 178.445 36.75C177.683 35.4805 177.302 33.8724 177.302 31.9258C177.302 29.0312 178.377 26.8561 180.527 25.4004C182.693 23.9447 185.96 23.1406 190.327 22.9883L195.202 22.8105V21.3379C195.202 19.3913 194.745 18.0033 193.831 17.1738C192.934 16.3444 191.665 15.9297 190.023 15.9297C188.618 15.9297 187.255 16.1328 185.935 16.5391C184.615 16.9453 183.328 17.4447 182.075 18.0371L180.146 13.8223C181.517 13.0944 183.074 12.502 184.818 12.0449C186.578 11.5879 188.406 11.3594 190.302 11.3594ZM195.177 26.5684L191.546 26.6953C188.567 26.7969 186.477 27.3047 185.275 28.2188C184.073 29.1328 183.472 30.3854 183.472 31.9766C183.472 33.3646 183.887 34.3802 184.716 35.0234C185.546 35.6497 186.637 35.9629 187.992 35.9629C190.057 35.9629 191.766 35.3789 193.12 34.2109C194.492 33.026 195.177 31.291 195.177 29.0059V26.5684ZM220.948 35.6836C221.726 35.6836 222.496 35.6159 223.258 35.4805C224.02 35.3281 224.714 35.1504 225.34 34.9473V39.4668C224.68 39.7546 223.825 40 222.776 40.2031C221.726 40.4062 220.634 40.5078 219.5 40.5078C217.909 40.5078 216.479 40.2454 215.209 39.7207C213.94 39.179 212.933 38.2565 212.188 36.9531C211.443 35.6497 211.071 33.847 211.071 31.5449V16.4375H207.237V13.7715L211.35 11.6641L213.305 5.64648H217.063V11.8926H225.112V16.4375H217.063V31.4688C217.063 32.8906 217.418 33.9486 218.129 34.6426C218.84 35.3366 219.78 35.6836 220.948 35.6836ZM243.29 11.3594C245.795 11.3594 247.945 11.8757 249.739 12.9082C251.534 13.9408 252.913 15.4049 253.878 17.3008C254.843 19.1966 255.325 21.4648 255.325 24.1055V27.3047H236.562C236.629 30.0299 237.357 32.1289 238.745 33.6016C240.15 35.0742 242.114 35.8105 244.636 35.8105C246.43 35.8105 248.038 35.6413 249.46 35.3027C250.899 34.9473 252.38 34.431 253.904 33.7539V38.6035C252.499 39.2637 251.068 39.7461 249.613 40.0508C248.157 40.3555 246.413 40.5078 244.382 40.5078C241.623 40.5078 239.194 39.9746 237.095 38.9082C235.013 37.8249 233.379 36.2168 232.195 34.084C231.027 31.9512 230.443 29.3021 230.443 26.1367C230.443 22.9883 230.976 20.3138 232.042 18.1133C233.109 15.9128 234.607 14.237 236.536 13.0859C238.466 11.9349 240.717 11.3594 243.29 11.3594ZM243.29 15.8535C241.411 15.8535 239.888 16.4629 238.72 17.6816C237.569 18.9004 236.892 20.6862 236.689 23.0391H249.486C249.469 21.6341 249.232 20.39 248.775 19.3066C248.335 18.2233 247.657 17.377 246.743 16.7676C245.846 16.1582 244.695 15.8535 243.29 15.8535ZM288.661 11.3594C292.216 11.3594 294.899 12.1465 296.71 13.7207C298.538 15.2949 299.452 17.7493 299.452 21.084V40H295.212L294.069 36.0137H293.866C293.071 37.0293 292.25 37.8672 291.403 38.5273C290.557 39.1875 289.575 39.6784 288.458 40C287.358 40.3385 286.012 40.5078 284.421 40.5078C282.745 40.5078 281.247 40.2031 279.927 39.5938C278.607 38.9674 277.566 38.0195 276.804 36.75C276.042 35.4805 275.661 33.8724 275.661 31.9258C275.661 29.0312 276.736 26.8561 278.886 25.4004C281.053 23.9447 284.319 23.1406 288.687 22.9883L293.562 22.8105V21.3379C293.562 19.3913 293.105 18.0033 292.191 17.1738C291.293 16.3444 290.024 15.9297 288.382 15.9297C286.977 15.9297 285.614 16.1328 284.294 16.5391C282.974 16.9453 281.687 17.4447 280.435 18.0371L278.505 13.8223C279.876 13.0944 281.433 12.502 283.177 12.0449C284.937 11.5879 286.765 11.3594 288.661 11.3594ZM293.536 26.5684L289.905 26.6953C286.926 26.7969 284.836 27.3047 283.634 28.2188C282.432 29.1328 281.831 30.3854 281.831 31.9766C281.831 33.3646 282.246 34.3802 283.075 35.0234C283.905 35.6497 284.997 35.9629 286.351 35.9629C288.416 35.9629 290.125 35.3789 291.48 34.2109C292.851 33.026 293.536 31.291 293.536 29.0059V26.5684ZM314.838 40H308.846V0.492188H314.838V40ZM330.401 40H324.409V0.492188H330.401V40ZM365.54 11.3594C369.095 11.3594 371.778 12.1465 373.589 13.7207C375.417 15.2949 376.331 17.7493 376.331 21.084V40H372.091L370.948 36.0137H370.745C369.95 37.0293 369.129 37.8672 368.282 38.5273C367.436 39.1875 366.454 39.6784 365.337 40C364.237 40.3385 362.891 40.5078 361.3 40.5078C359.624 40.5078 358.126 40.2031 356.806 39.5938C355.485 38.9674 354.444 38.0195 353.683 36.75C352.921 35.4805 352.54 33.8724 352.54 31.9258C352.54 29.0312 353.615 26.8561 355.765 25.4004C357.931 23.9447 361.198 23.1406 365.565 22.9883L370.44 22.8105V21.3379C370.44 19.3913 369.983 18.0033 369.069 17.1738C368.172 16.3444 366.903 15.9297 365.261 15.9297C363.856 15.9297 362.493 16.1328 361.173 16.5391C359.853 16.9453 358.566 17.4447 357.313 18.0371L355.384 13.8223C356.755 13.0944 358.312 12.502 360.056 12.0449C361.816 11.5879 363.644 11.3594 365.54 11.3594ZM370.415 26.5684L366.784 26.6953C363.805 26.7969 361.714 27.3047 360.513 28.2188C359.311 29.1328 358.71 30.3854 358.71 31.9766C358.71 33.3646 359.125 34.3802 359.954 35.0234C360.783 35.6497 361.875 35.9629 363.229 35.9629C365.295 35.9629 367.004 35.3789 368.358 34.2109C369.729 33.026 370.415 31.291 370.415 29.0059V26.5684ZM404.615 31.9766C404.615 33.8216 404.167 35.3789 403.269 36.6484C402.372 37.918 401.06 38.8828 399.334 39.543C397.624 40.1862 395.525 40.5078 393.037 40.5078C391.074 40.5078 389.381 40.3639 387.959 40.0762C386.554 39.8053 385.225 39.3822 383.973 38.8066V33.6523C385.31 34.2786 386.808 34.8203 388.467 35.2773C390.143 35.7344 391.725 35.9629 393.215 35.9629C395.178 35.9629 396.592 35.6582 397.455 35.0488C398.318 34.4225 398.75 33.5931 398.75 32.5605C398.75 31.9512 398.572 31.4095 398.217 30.9355C397.878 30.4447 397.235 29.9453 396.287 29.4375C395.356 28.9128 393.985 28.2865 392.174 27.5586C390.396 26.8477 388.898 26.1367 387.68 25.4258C386.461 24.7148 385.538 23.86 384.912 22.8613C384.286 21.8457 383.973 20.5508 383.973 18.9766C383.973 16.4883 384.954 14.6009 386.918 13.3145C388.898 12.0111 391.514 11.3594 394.764 11.3594C396.49 11.3594 398.115 11.5371 399.639 11.8926C401.179 12.2311 402.685 12.7305 404.158 13.3906L402.279 17.8848C401.01 17.3262 399.732 16.8691 398.445 16.5137C397.176 16.1413 395.881 15.9551 394.56 15.9551C393.02 15.9551 391.844 16.1921 391.031 16.666C390.236 17.14 389.838 17.8171 389.838 18.6973C389.838 19.3574 390.032 19.916 390.422 20.373C390.811 20.8301 391.48 21.2871 392.428 21.7441C393.393 22.2012 394.73 22.7682 396.439 23.4453C398.115 24.0885 399.562 24.7656 400.781 25.4766C402.017 26.1706 402.965 27.0254 403.625 28.041C404.285 29.0566 404.615 30.3685 404.615 31.9766ZM426.526 11.3594C429.861 11.3594 432.535 12.5781 434.55 15.0156C436.581 17.4531 437.597 21.0755 437.597 25.8828C437.597 29.0651 437.123 31.748 436.175 33.9316C435.244 36.0983 433.932 37.7402 432.239 38.8574C430.563 39.9577 428.608 40.5078 426.374 40.5078C424.952 40.5078 423.716 40.3216 422.667 39.9492C421.617 39.5768 420.72 39.0944 419.975 38.502C419.231 37.8926 418.604 37.2324 418.097 36.5215H417.741C417.826 37.1986 417.902 37.9518 417.97 38.7812C418.054 39.5938 418.097 40.3385 418.097 41.0156V52.4668H412.104V11.8926H416.979L417.817 15.7773H418.097C418.621 14.9818 419.256 14.2454 420.001 13.5684C420.763 12.8913 421.677 12.3581 422.743 11.9688C423.826 11.5625 425.087 11.3594 426.526 11.3594ZM424.927 16.2344C423.285 16.2344 421.964 16.5645 420.966 17.2246C419.984 17.8678 419.265 18.8411 418.808 20.1445C418.367 21.4479 418.13 23.0814 418.097 25.0449V25.8828C418.097 27.9648 418.308 29.7337 418.731 31.1895C419.171 32.6283 419.891 33.7285 420.89 34.4902C421.905 35.235 423.276 35.6074 425.003 35.6074C426.459 35.6074 427.66 35.2096 428.608 34.4141C429.573 33.6185 430.293 32.4844 430.767 31.0117C431.24 29.5391 431.477 27.804 431.477 25.8066C431.477 22.7767 430.936 20.4238 429.852 18.748C428.786 17.0723 427.144 16.2344 424.927 16.2344ZM456.74 11.3594C459.245 11.3594 461.395 11.8757 463.189 12.9082C464.984 13.9408 466.363 15.4049 467.328 17.3008C468.293 19.1966 468.775 21.4648 468.775 24.1055V27.3047H450.012C450.079 30.0299 450.807 32.1289 452.195 33.6016C453.6 35.0742 455.564 35.8105 458.086 35.8105C459.88 35.8105 461.488 35.6413 462.91 35.3027C464.349 34.9473 465.83 34.431 467.353 33.7539V38.6035C465.948 39.2637 464.518 39.7461 463.062 40.0508C461.607 40.3555 459.863 40.5078 457.832 40.5078C455.073 40.5078 452.644 39.9746 450.545 38.9082C448.463 37.8249 446.829 36.2168 445.644 34.084C444.476 31.9512 443.892 29.3021 443.892 26.1367C443.892 22.9883 444.426 20.3138 445.492 18.1133C446.558 15.9128 448.057 14.237 449.986 13.0859C451.916 11.9349 454.167 11.3594 456.74 11.3594ZM456.74 15.8535C454.861 15.8535 453.338 16.4629 452.17 17.6816C451.019 18.9004 450.342 20.6862 450.139 23.0391H462.935C462.918 21.6341 462.682 20.39 462.224 19.3066C461.784 18.2233 461.107 17.377 460.193 16.7676C459.296 16.1582 458.145 15.8535 456.74 15.8535ZM487.868 40.5078C485.21 40.5078 482.908 39.9915 480.962 38.959C479.015 37.9264 477.517 36.3438 476.468 34.2109C475.418 32.0781 474.893 29.3698 474.893 26.0859C474.893 22.6667 475.469 19.8737 476.62 17.707C477.771 15.5404 479.362 13.9408 481.393 12.9082C483.442 11.8757 485.786 11.3594 488.427 11.3594C490.102 11.3594 491.617 11.5286 492.971 11.8672C494.343 12.1888 495.502 12.5866 496.45 13.0605L494.673 17.834C493.64 17.4108 492.582 17.0553 491.499 16.7676C490.416 16.4798 489.374 16.3359 488.376 16.3359C486.734 16.3359 485.363 16.6999 484.263 17.4277C483.179 18.1556 482.367 19.2389 481.825 20.6777C481.3 22.1165 481.038 23.9023 481.038 26.0352C481.038 28.1003 481.309 29.8438 481.85 31.2656C482.392 32.6706 483.196 33.737 484.263 34.4648C485.329 35.1758 486.641 35.5312 488.198 35.5312C489.738 35.5312 491.118 35.3451 492.337 34.9727C493.555 34.6003 494.707 34.1178 495.79 33.5254V38.7051C494.723 39.3145 493.581 39.763 492.362 40.0508C491.143 40.3555 489.645 40.5078 487.868 40.5078ZM513.892 35.6836C514.671 35.6836 515.441 35.6159 516.203 35.4805C516.965 35.3281 517.659 35.1504 518.285 34.9473V39.4668C517.625 39.7546 516.77 40 515.72 40.2031C514.671 40.4062 513.579 40.5078 512.445 40.5078C510.854 40.5078 509.424 40.2454 508.154 39.7207C506.885 39.179 505.877 38.2565 505.133 36.9531C504.388 35.6497 504.015 33.847 504.015 31.5449V16.4375H500.181V13.7715L504.295 11.6641L506.25 5.64648H510.008V11.8926H518.056V16.4375H510.008V31.4688C510.008 32.8906 510.363 33.9486 511.074 34.6426C511.785 35.3366 512.724 35.6836 513.892 35.6836ZM543.928 31.9766C543.928 33.8216 543.48 35.3789 542.583 36.6484C541.686 37.918 540.374 38.8828 538.647 39.543C536.938 40.1862 534.839 40.5078 532.35 40.5078C530.387 40.5078 528.694 40.3639 527.272 40.0762C525.867 39.8053 524.538 39.3822 523.286 38.8066V33.6523C524.623 34.2786 526.121 34.8203 527.78 35.2773C529.456 35.7344 531.038 35.9629 532.528 35.9629C534.492 35.9629 535.905 35.6582 536.768 35.0488C537.632 34.4225 538.063 33.5931 538.063 32.5605C538.063 31.9512 537.885 31.4095 537.53 30.9355C537.191 30.4447 536.548 29.9453 535.6 29.4375C534.669 28.9128 533.298 28.2865 531.487 27.5586C529.71 26.8477 528.212 26.1367 526.993 25.4258C525.774 24.7148 524.852 23.86 524.225 22.8613C523.599 21.8457 523.286 20.5508 523.286 18.9766C523.286 16.4883 524.268 14.6009 526.231 13.3145C528.212 12.0111 530.827 11.3594 534.077 11.3594C535.803 11.3594 537.428 11.5371 538.952 11.8926C540.492 12.2311 541.999 12.7305 543.471 13.3906L541.593 17.8848C540.323 17.3262 539.045 16.8691 537.759 16.5137C536.489 16.1413 535.194 15.9551 533.874 15.9551C532.333 15.9551 531.157 16.1921 530.344 16.666C529.549 17.14 529.151 17.8171 529.151 18.6973C529.151 19.3574 529.346 19.916 529.735 20.373C530.124 20.8301 530.793 21.2871 531.741 21.7441C532.706 22.2012 534.043 22.7682 535.753 23.4453C537.428 24.0885 538.876 24.7656 540.094 25.4766C541.33 26.1706 542.278 27.0254 542.938 28.041C543.598 29.0566 543.928 30.3685 543.928 31.9766ZM590.848 25.8828C590.848 28.2188 590.544 30.2923 589.934 32.1035C589.325 33.9147 588.436 35.4466 587.268 36.6992C586.1 37.9349 584.695 38.8828 583.053 39.543C581.411 40.1862 579.558 40.5078 577.493 40.5078C575.563 40.5078 573.794 40.1862 572.186 39.543C570.578 38.8828 569.182 37.9349 567.997 36.6992C566.829 35.4466 565.923 33.9147 565.28 32.1035C564.637 30.2923 564.315 28.2188 564.315 25.8828C564.315 22.7852 564.848 20.1615 565.915 18.0117C566.998 15.8451 568.538 14.1947 570.536 13.0605C572.533 11.9264 574.911 11.3594 577.671 11.3594C580.26 11.3594 582.546 11.9264 584.526 13.0605C586.507 14.1947 588.055 15.8451 589.173 18.0117C590.29 20.1784 590.848 22.8021 590.848 25.8828ZM570.46 25.8828C570.46 27.931 570.705 29.6829 571.196 31.1387C571.704 32.5944 572.482 33.7116 573.532 34.4902C574.581 35.252 575.936 35.6328 577.594 35.6328C579.253 35.6328 580.607 35.252 581.657 34.4902C582.706 33.7116 583.477 32.5944 583.967 31.1387C584.458 29.6829 584.704 27.931 584.704 25.8828C584.704 23.8346 584.458 22.0996 583.967 20.6777C583.477 19.2389 582.706 18.1471 581.657 17.4023C580.607 16.6406 579.245 16.2598 577.569 16.2598C575.098 16.2598 573.295 17.0892 572.161 18.748C571.027 20.4069 570.46 22.7852 570.46 25.8828ZM612.785 16.4375H605.955V40H599.988V16.4375H595.392V13.5684L599.988 11.8164V9.86133C599.988 7.47461 600.36 5.57878 601.105 4.17383C601.867 2.76888 602.95 1.76172 604.355 1.15234C605.777 0.526042 607.47 0.212891 609.433 0.212891C610.72 0.212891 611.896 0.322917 612.963 0.542969C614.029 0.746094 614.926 0.983073 615.654 1.25391L614.105 5.77344C613.53 5.58724 612.886 5.41797 612.175 5.26562C611.464 5.09635 610.703 5.01172 609.89 5.01172C608.536 5.01172 607.537 5.4349 606.894 6.28125C606.268 7.1276 605.955 8.36328 605.955 9.98828V11.8926H612.785V16.4375ZM628.931 11.8926H635.431L641.195 27.9395C641.449 28.6673 641.677 29.3867 641.88 30.0977C642.1 30.7917 642.287 31.4772 642.439 32.1543C642.608 32.8314 642.744 33.5085 642.845 34.1855H642.998C643.167 33.3053 643.404 32.3236 643.709 31.2402C644.03 30.14 644.386 29.0397 644.775 27.9395L650.31 11.8926H656.734L644.673 43.8594C643.979 45.6875 643.125 47.2448 642.109 48.5312C641.11 49.8346 639.925 50.8164 638.554 51.4766C637.183 52.1536 635.617 52.4922 633.857 52.4922C633.011 52.4922 632.274 52.4414 631.648 52.3398C631.022 52.2552 630.489 52.1621 630.048 52.0605V47.2871C630.404 47.3717 630.852 47.4479 631.394 47.5156C631.936 47.5833 632.494 47.6172 633.07 47.6172C634.136 47.6172 635.059 47.4056 635.837 46.9824C636.616 46.5592 637.276 45.9583 637.818 45.1797C638.36 44.418 638.808 43.5462 639.164 42.5645L640.154 39.9238L628.931 11.8926ZM686.922 25.8828C686.922 28.2188 686.618 30.2923 686.008 32.1035C685.399 33.9147 684.51 35.4466 683.342 36.6992C682.174 37.9349 680.769 38.8828 679.127 39.543C677.486 40.1862 675.632 40.5078 673.567 40.5078C671.637 40.5078 669.868 40.1862 668.26 39.543C666.652 38.8828 665.256 37.9349 664.071 36.6992C662.903 35.4466 661.997 33.9147 661.354 32.1035C660.711 30.2923 660.389 28.2188 660.389 25.8828C660.389 22.7852 660.922 20.1615 661.989 18.0117C663.072 15.8451 664.612 14.1947 666.61 13.0605C668.607 11.9264 670.986 11.3594 673.745 11.3594C676.334 11.3594 678.62 11.9264 680.6 13.0605C682.581 14.1947 684.129 15.8451 685.247 18.0117C686.364 20.1784 686.922 22.8021 686.922 25.8828ZM666.534 25.8828C666.534 27.931 666.779 29.6829 667.27 31.1387C667.778 32.5944 668.556 33.7116 669.606 34.4902C670.655 35.252 672.01 35.6328 673.668 35.6328C675.327 35.6328 676.681 35.252 677.731 34.4902C678.78 33.7116 679.551 32.5944 680.042 31.1387C680.532 29.6829 680.778 27.931 680.778 25.8828C680.778 23.8346 680.532 22.0996 680.042 20.6777C679.551 19.2389 678.78 18.1471 677.731 17.4023C676.681 16.6406 675.319 16.2598 673.643 16.2598C671.172 16.2598 669.369 17.0892 668.235 18.748C667.101 20.4069 666.534 22.7852 666.534 25.8828ZM719.32 11.8926V40H714.622L713.81 36.2168H713.48C712.887 37.1816 712.134 37.9857 711.22 38.6289C710.306 39.2552 709.29 39.7207 708.173 40.0254C707.056 40.347 705.88 40.5078 704.644 40.5078C702.528 40.5078 700.717 40.1523 699.21 39.4414C697.721 38.7135 696.578 37.5964 695.783 36.0898C694.987 34.5833 694.589 32.6367 694.589 30.25V11.8926H700.581V29.1328C700.581 31.3164 701.022 32.9499 701.902 34.0332C702.799 35.1165 704.187 35.6582 706.066 35.6582C707.877 35.6582 709.316 35.2858 710.382 34.541C711.449 33.7962 712.202 32.696 712.642 31.2402C713.099 29.7845 713.328 27.9987 713.328 25.8828V11.8926H719.32ZM743.161 11.3594C743.635 11.3594 744.151 11.3848 744.709 11.4355C745.268 11.4863 745.75 11.554 746.157 11.6387L745.598 17.2246C745.243 17.123 744.803 17.0469 744.278 16.9961C743.77 16.9453 743.313 16.9199 742.907 16.9199C741.84 16.9199 740.825 17.0977 739.86 17.4531C738.895 17.7917 738.04 18.3164 737.295 19.0273C736.551 19.7214 735.967 20.5931 735.543 21.6426C735.12 22.6921 734.909 23.9108 734.909 25.2988V40H728.916V11.8926H733.588L734.401 16.8438H734.68C735.239 15.8451 735.933 14.931 736.762 14.1016C737.592 13.2721 738.539 12.612 739.606 12.1211C740.689 11.6133 741.874 11.3594 743.161 11.3594ZM776.395 40.5078C773.043 40.5078 770.352 39.2891 768.321 36.8516C766.306 34.3971 765.299 30.7832 765.299 26.0098C765.299 21.1855 766.323 17.5378 768.371 15.0664C770.437 12.5951 773.153 11.3594 776.522 11.3594C777.944 11.3594 779.188 11.554 780.254 11.9434C781.321 12.3158 782.235 12.8236 782.996 13.4668C783.775 14.11 784.435 14.8294 784.977 15.625H785.256C785.172 15.1003 785.07 14.347 784.951 13.3652C784.85 12.3665 784.799 11.444 784.799 10.5977V0.492188H790.791V40H786.119L785.053 36.166H784.799C784.291 36.9785 783.648 37.7148 782.869 38.375C782.108 39.0182 781.194 39.5345 780.127 39.9238C779.078 40.3132 777.834 40.5078 776.395 40.5078ZM778.071 35.6582C780.627 35.6582 782.429 34.9219 783.479 33.4492C784.528 31.9766 785.07 29.7676 785.104 26.8223V26.0352C785.104 22.8867 784.596 20.4746 783.58 18.7988C782.565 17.1061 780.711 16.2598 778.02 16.2598C775.87 16.2598 774.228 17.1315 773.094 18.875C771.977 20.6016 771.418 23.0137 771.418 26.1113C771.418 29.209 771.977 31.5788 773.094 33.2207C774.228 34.8457 775.887 35.6582 778.071 35.6582ZM811.585 11.3594C814.09 11.3594 816.24 11.8757 818.034 12.9082C819.829 13.9408 821.208 15.4049 822.173 17.3008C823.138 19.1966 823.62 21.4648 823.62 24.1055V27.3047H804.857C804.924 30.0299 805.652 32.1289 807.04 33.6016C808.445 35.0742 810.409 35.8105 812.931 35.8105C814.725 35.8105 816.333 35.6413 817.755 35.3027C819.194 34.9473 820.675 34.431 822.199 33.7539V38.6035C820.794 39.2637 819.363 39.7461 817.908 40.0508C816.452 40.3555 814.708 40.5078 812.677 40.5078C809.918 40.5078 807.489 39.9746 805.39 38.9082C803.308 37.8249 801.674 36.2168 800.49 34.084C799.322 31.9512 798.738 29.3021 798.738 26.1367C798.738 22.9883 799.271 20.3138 800.337 18.1133C801.404 15.9128 802.902 14.237 804.831 13.0859C806.761 11.9349 809.012 11.3594 811.585 11.3594ZM811.585 15.8535C809.706 15.8535 808.183 16.4629 807.015 17.6816C805.864 18.9004 805.187 20.6862 804.984 23.0391H817.781C817.764 21.6341 817.527 20.39 817.07 19.3066C816.63 18.2233 815.952 17.377 815.038 16.7676C814.141 16.1582 812.99 15.8535 811.585 15.8535ZM837.381 40H831.389V0.492188H837.381V40ZM852.919 11.8926V40H846.952V11.8926H852.919ZM849.974 1.12695C850.888 1.12695 851.675 1.3724 852.335 1.86328C853.012 2.35417 853.351 3.20052 853.351 4.40234C853.351 5.58724 853.012 6.43359 852.335 6.94141C851.675 7.43229 850.888 7.67773 849.974 7.67773C849.026 7.67773 848.222 7.43229 847.562 6.94141C846.919 6.43359 846.597 5.58724 846.597 4.40234C846.597 3.20052 846.919 2.35417 847.562 1.86328C848.222 1.3724 849.026 1.12695 849.974 1.12695ZM868.94 40L858.25 11.8926H864.572L870.362 28.3965C870.734 29.446 871.072 30.5801 871.377 31.7988C871.682 33.0176 871.893 34.0417 872.012 34.8711H872.215C872.334 34.0078 872.562 32.9753 872.901 31.7734C873.239 30.5547 873.586 29.429 873.942 28.3965L879.731 11.8926H886.028L875.338 40H868.94ZM902.53 11.3594C905.036 11.3594 907.185 11.8757 908.98 12.9082C910.774 13.9408 912.153 15.4049 913.118 17.3008C914.083 19.1966 914.566 21.4648 914.566 24.1055V27.3047H895.802C895.87 30.0299 896.597 32.1289 897.985 33.6016C899.39 35.0742 901.354 35.8105 903.876 35.8105C905.67 35.8105 907.278 35.6413 908.7 35.3027C910.139 34.9473 911.62 34.431 913.144 33.7539V38.6035C911.739 39.2637 910.308 39.7461 908.853 40.0508C907.397 40.3555 905.653 40.5078 903.622 40.5078C900.863 40.5078 898.434 39.9746 896.335 38.9082C894.253 37.8249 892.62 36.2168 891.435 34.084C890.267 31.9512 889.683 29.3021 889.683 26.1367C889.683 22.9883 890.216 20.3138 891.282 18.1133C892.349 15.9128 893.847 14.237 895.776 13.0859C897.706 11.9349 899.957 11.3594 902.53 11.3594ZM902.53 15.8535C900.651 15.8535 899.128 16.4629 897.96 17.6816C896.809 18.9004 896.132 20.6862 895.929 23.0391H908.726C908.709 21.6341 908.472 20.39 908.015 19.3066C907.575 18.2233 906.898 17.377 905.984 16.7676C905.086 16.1582 903.935 15.8535 902.53 15.8535ZM936.578 11.3594C937.052 11.3594 937.568 11.3848 938.127 11.4355C938.686 11.4863 939.168 11.554 939.574 11.6387L939.016 17.2246C938.66 17.123 938.22 17.0469 937.695 16.9961C937.188 16.9453 936.731 16.9199 936.324 16.9199C935.258 16.9199 934.242 17.0977 933.277 17.4531C932.313 17.7917 931.458 18.3164 930.713 19.0273C929.968 19.7214 929.384 20.5931 928.961 21.6426C928.538 22.6921 928.326 23.9108 928.326 25.2988V40H922.334V11.8926H927.006L927.818 16.8438H928.098C928.656 15.8451 929.35 14.931 930.18 14.1016C931.009 13.2721 931.957 12.612 933.024 12.1211C934.107 11.6133 935.292 11.3594 936.578 11.3594ZM941.579 11.8926H948.079L953.843 27.9395C954.097 28.6673 954.325 29.3867 954.528 30.0977C954.748 30.7917 954.935 31.4772 955.087 32.1543C955.256 32.8314 955.392 33.5085 955.493 34.1855H955.646C955.815 33.3053 956.052 32.3236 956.357 31.2402C956.678 30.14 957.034 29.0397 957.423 27.9395L962.958 11.8926H969.382L957.321 43.8594C956.627 45.6875 955.773 47.2448 954.757 48.5312C953.758 49.8346 952.573 50.8164 951.202 51.4766C949.831 52.1536 948.265 52.4922 946.505 52.4922C945.659 52.4922 944.922 52.4414 944.296 52.3398C943.67 52.2552 943.136 52.1621 942.696 52.0605V47.2871C943.052 47.3717 943.5 47.4479 944.042 47.5156C944.584 47.5833 945.142 47.6172 945.718 47.6172C946.784 47.6172 947.707 47.4056 948.485 46.9824C949.264 46.5592 949.924 45.9583 950.466 45.1797C951.008 44.418 951.456 43.5462 951.812 42.5645L952.802 39.9238L941.579 11.8926ZM1003.66 11.3594C1006.99 11.3594 1009.67 12.5781 1011.68 15.0156C1013.71 17.4531 1014.73 21.0755 1014.73 25.8828C1014.73 29.0651 1014.25 31.748 1013.31 33.9316C1012.37 36.0983 1011.06 37.7402 1009.37 38.8574C1007.69 39.9577 1005.74 40.5078 1003.5 40.5078C1002.08 40.5078 1000.85 40.3216 999.798 39.9492C998.748 39.5768 997.851 39.0944 997.106 38.502C996.362 37.8926 995.735 37.2324 995.228 36.5215H994.872C994.957 37.1986 995.033 37.9518 995.101 38.7812C995.185 39.5938 995.228 40.3385 995.228 41.0156V52.4668H989.235V11.8926H994.11L994.948 15.7773H995.228C995.752 14.9818 996.387 14.2454 997.132 13.5684C997.894 12.8913 998.808 12.3581 999.874 11.9688C1000.96 11.5625 1002.22 11.3594 1003.66 11.3594ZM1002.06 16.2344C1000.42 16.2344 999.095 16.5645 998.097 17.2246C997.115 17.8678 996.396 18.8411 995.938 20.1445C995.498 21.4479 995.261 23.0814 995.228 25.0449V25.8828C995.228 27.9648 995.439 29.7337 995.862 31.1895C996.302 32.6283 997.022 33.7285 998.021 34.4902C999.036 35.235 1000.41 35.6074 1002.13 35.6074C1003.59 35.6074 1004.79 35.2096 1005.74 34.4141C1006.7 33.6185 1007.42 32.4844 1007.9 31.0117C1008.37 29.5391 1008.61 27.804 1008.61 25.8066C1008.61 22.7767 1008.07 20.4238 1006.98 18.748C1005.92 17.0723 1004.28 16.2344 1002.06 16.2344ZM1036.92 11.3594C1037.39 11.3594 1037.91 11.3848 1038.47 11.4355C1039.03 11.4863 1039.51 11.554 1039.91 11.6387L1039.36 17.2246C1039 17.123 1038.56 17.0469 1038.04 16.9961C1037.53 16.9453 1037.07 16.9199 1036.66 16.9199C1035.6 16.9199 1034.58 17.0977 1033.62 17.4531C1032.65 17.7917 1031.8 18.3164 1031.05 19.0273C1030.31 19.7214 1029.72 20.5931 1029.3 21.6426C1028.88 22.6921 1028.67 23.9108 1028.67 25.2988V40H1022.67V11.8926H1027.35L1028.16 16.8438H1028.44C1029 15.8451 1029.69 14.931 1030.52 14.1016C1031.35 13.2721 1032.3 12.612 1033.36 12.1211C1034.45 11.6133 1035.63 11.3594 1036.92 11.3594ZM1071.04 25.8828C1071.04 28.2188 1070.74 30.2923 1070.13 32.1035C1069.52 33.9147 1068.63 35.4466 1067.46 36.6992C1066.29 37.9349 1064.89 38.8828 1063.25 39.543C1061.61 40.1862 1059.75 40.5078 1057.69 40.5078C1055.76 40.5078 1053.99 40.1862 1052.38 39.543C1050.77 38.8828 1049.38 37.9349 1048.19 36.6992C1047.02 35.4466 1046.12 33.9147 1045.47 32.1035C1044.83 30.2923 1044.51 28.2188 1044.51 25.8828C1044.51 22.7852 1045.04 20.1615 1046.11 18.0117C1047.19 15.8451 1048.73 14.1947 1050.73 13.0605C1052.73 11.9264 1055.11 11.3594 1057.86 11.3594C1060.45 11.3594 1062.74 11.9264 1064.72 13.0605C1066.7 14.1947 1068.25 15.8451 1069.37 18.0117C1070.48 20.1784 1071.04 22.8021 1071.04 25.8828ZM1050.65 25.8828C1050.65 27.931 1050.9 29.6829 1051.39 31.1387C1051.9 32.5944 1052.68 33.7116 1053.73 34.4902C1054.77 35.252 1056.13 35.6328 1057.79 35.6328C1059.45 35.6328 1060.8 35.252 1061.85 34.4902C1062.9 33.7116 1063.67 32.5944 1064.16 31.1387C1064.65 29.6829 1064.9 27.931 1064.9 25.8828C1064.9 23.8346 1064.65 22.0996 1064.16 20.6777C1063.67 19.2389 1062.9 18.1471 1061.85 17.4023C1060.8 16.6406 1059.44 16.2598 1057.76 16.2598C1055.29 16.2598 1053.49 17.0892 1052.35 18.748C1051.22 20.4069 1050.65 22.7852 1050.65 25.8828ZM1090.26 40.5078C1087.6 40.5078 1085.3 39.9915 1083.36 38.959C1081.41 37.9264 1079.91 36.3438 1078.86 34.2109C1077.81 32.0781 1077.29 29.3698 1077.29 26.0859C1077.29 22.6667 1077.86 19.8737 1079.01 17.707C1080.16 15.5404 1081.76 13.9408 1083.79 12.9082C1085.84 11.8757 1088.18 11.3594 1090.82 11.3594C1092.5 11.3594 1094.01 11.5286 1095.37 11.8672C1096.74 12.1888 1097.9 12.5866 1098.84 13.0605L1097.07 17.834C1096.03 17.4108 1094.98 17.0553 1093.89 16.7676C1092.81 16.4798 1091.77 16.3359 1090.77 16.3359C1089.13 16.3359 1087.76 16.6999 1086.66 17.4277C1085.57 18.1556 1084.76 19.2389 1084.22 20.6777C1083.69 22.1165 1083.43 23.9023 1083.43 26.0352C1083.43 28.1003 1083.7 29.8438 1084.24 31.2656C1084.79 32.6706 1085.59 33.737 1086.66 34.4648C1087.72 35.1758 1089.03 35.5312 1090.59 35.5312C1092.13 35.5312 1093.51 35.3451 1094.73 34.9727C1095.95 34.6003 1097.1 34.1178 1098.18 33.5254V38.7051C1097.12 39.3145 1095.97 39.763 1094.76 40.0508C1093.54 40.3555 1092.04 40.5078 1090.26 40.5078ZM1117.02 11.3594C1119.53 11.3594 1121.68 11.8757 1123.47 12.9082C1125.27 13.9408 1126.65 15.4049 1127.61 17.3008C1128.58 19.1966 1129.06 21.4648 1129.06 24.1055V27.3047H1110.29C1110.36 30.0299 1111.09 32.1289 1112.48 33.6016C1113.88 35.0742 1115.85 35.8105 1118.37 35.8105C1120.16 35.8105 1121.77 35.6413 1123.19 35.3027C1124.63 34.9473 1126.11 34.431 1127.64 33.7539V38.6035C1126.23 39.2637 1124.8 39.7461 1123.34 40.0508C1121.89 40.3555 1120.15 40.5078 1118.11 40.5078C1115.36 40.5078 1112.93 39.9746 1110.83 38.9082C1108.74 37.8249 1107.11 36.2168 1105.93 34.084C1104.76 31.9512 1104.17 29.3021 1104.17 26.1367C1104.17 22.9883 1104.71 20.3138 1105.77 18.1133C1106.84 15.9128 1108.34 14.237 1110.27 13.0859C1112.2 11.9349 1114.45 11.3594 1117.02 11.3594ZM1117.02 15.8535C1115.14 15.8535 1113.62 16.4629 1112.45 17.6816C1111.3 18.9004 1110.62 20.6862 1110.42 23.0391H1123.22C1123.2 21.6341 1122.96 20.39 1122.51 19.3066C1122.07 18.2233 1121.39 17.377 1120.48 16.7676C1119.58 16.1582 1118.43 15.8535 1117.02 15.8535ZM1155.72 31.9766C1155.72 33.8216 1155.27 35.3789 1154.37 36.6484C1153.47 37.918 1152.16 38.8828 1150.44 39.543C1148.73 40.1862 1146.63 40.5078 1144.14 40.5078C1142.17 40.5078 1140.48 40.3639 1139.06 40.0762C1137.66 39.8053 1136.33 39.3822 1135.07 38.8066V33.6523C1136.41 34.2786 1137.91 34.8203 1139.57 35.2773C1141.24 35.7344 1142.83 35.9629 1144.32 35.9629C1146.28 35.9629 1147.69 35.6582 1148.56 35.0488C1149.42 34.4225 1149.85 33.5931 1149.85 32.5605C1149.85 31.9512 1149.67 31.4095 1149.32 30.9355C1148.98 30.4447 1148.34 29.9453 1147.39 29.4375C1146.46 28.9128 1145.09 28.2865 1143.28 27.5586C1141.5 26.8477 1140 26.1367 1138.78 25.4258C1137.56 24.7148 1136.64 23.86 1136.01 22.8613C1135.39 21.8457 1135.07 20.5508 1135.07 18.9766C1135.07 16.4883 1136.06 14.6009 1138.02 13.3145C1140 12.0111 1142.61 11.3594 1145.86 11.3594C1147.59 11.3594 1149.22 11.5371 1150.74 11.8926C1152.28 12.2311 1153.79 12.7305 1155.26 13.3906L1153.38 17.8848C1152.11 17.3262 1150.83 16.8691 1149.55 16.5137C1148.28 16.1413 1146.98 15.9551 1145.66 15.9551C1144.12 15.9551 1142.95 16.1921 1142.13 16.666C1141.34 17.14 1140.94 17.8171 1140.94 18.6973C1140.94 19.3574 1141.13 19.916 1141.52 20.373C1141.91 20.8301 1142.58 21.2871 1143.53 21.7441C1144.49 22.2012 1145.83 22.7682 1147.54 23.4453C1149.22 24.0885 1150.66 24.7656 1151.88 25.4766C1153.12 26.1706 1154.07 27.0254 1154.73 28.041C1155.39 29.0566 1155.72 30.3685 1155.72 31.9766ZM1182.1 31.9766C1182.1 33.8216 1181.65 35.3789 1180.75 36.6484C1179.85 37.918 1178.54 38.8828 1176.82 39.543C1175.11 40.1862 1173.01 40.5078 1170.52 40.5078C1168.55 40.5078 1166.86 40.3639 1165.44 40.0762C1164.04 39.8053 1162.71 39.3822 1161.45 38.8066V33.6523C1162.79 34.2786 1164.29 34.8203 1165.95 35.2773C1167.62 35.7344 1169.21 35.9629 1170.7 35.9629C1172.66 35.9629 1174.07 35.6582 1174.94 35.0488C1175.8 34.4225 1176.23 33.5931 1176.23 32.5605C1176.23 31.9512 1176.05 31.4095 1175.7 30.9355C1175.36 30.4447 1174.72 29.9453 1173.77 29.4375C1172.84 28.9128 1171.47 28.2865 1169.66 27.5586C1167.88 26.8477 1166.38 26.1367 1165.16 25.4258C1163.94 24.7148 1163.02 23.86 1162.39 22.8613C1161.77 21.8457 1161.45 20.5508 1161.45 18.9766C1161.45 16.4883 1162.44 14.6009 1164.4 13.3145C1166.38 12.0111 1168.99 11.3594 1172.24 11.3594C1173.97 11.3594 1175.6 11.5371 1177.12 11.8926C1178.66 12.2311 1180.17 12.7305 1181.64 13.3906L1179.76 17.8848C1178.49 17.3262 1177.21 16.8691 1175.93 16.5137C1174.66 16.1413 1173.36 15.9551 1172.04 15.9551C1170.5 15.9551 1169.32 16.1921 1168.51 16.666C1167.72 17.14 1167.32 17.8171 1167.32 18.6973C1167.32 19.3574 1167.51 19.916 1167.9 20.373C1168.29 20.8301 1168.96 21.2871 1169.91 21.7441C1170.87 22.2012 1172.21 22.7682 1173.92 23.4453C1175.6 24.0885 1177.04 24.7656 1178.26 25.4766C1179.5 26.1706 1180.45 27.0254 1181.11 28.041C1181.77 29.0566 1182.1 30.3685 1182.1 31.9766ZM1227.11 39.9746L1223.56 26.8984C1223.39 26.2552 1223.18 25.4766 1222.95 24.5625C1222.71 23.6484 1222.47 22.709 1222.24 21.7441C1222 20.7624 1221.78 19.8568 1221.58 19.0273C1221.39 18.1979 1221.25 17.5547 1221.15 17.0977H1220.94C1220.86 17.5547 1220.72 18.1979 1220.54 19.0273C1220.35 19.8568 1220.14 20.7624 1219.9 21.7441C1219.66 22.7259 1219.43 23.6823 1219.19 24.6133C1218.97 25.5443 1218.77 26.3398 1218.58 27L1214.85 39.9746H1208.3L1200.43 11.8672H1206.47L1210.13 25.832C1210.36 26.7799 1210.59 27.804 1210.81 28.9043C1211.05 30.0046 1211.25 31.054 1211.42 32.0527C1211.59 33.0514 1211.72 33.8724 1211.8 34.5156H1212C1212.07 34.0586 1212.17 33.4831 1212.28 32.7891C1212.4 32.0781 1212.54 31.3418 1212.69 30.5801C1212.84 29.8014 1212.99 29.0736 1213.15 28.3965C1213.3 27.7025 1213.44 27.1439 1213.58 26.7207L1217.9 11.8672H1224.42L1228.56 26.7207C1228.75 27.3639 1228.95 28.1764 1229.17 29.1582C1229.39 30.123 1229.58 31.0964 1229.75 32.0781C1229.94 33.043 1230.06 33.847 1230.11 34.4902H1230.31C1230.38 33.9147 1230.5 33.1361 1230.67 32.1543C1230.85 31.1556 1231.06 30.0977 1231.3 28.9805C1231.54 27.8464 1231.78 26.7969 1232.04 25.832L1235.77 11.8672H1241.71L1233.79 39.9746H1227.11ZM1253.54 11.8926V40H1247.58V11.8926H1253.54ZM1250.6 1.12695C1251.51 1.12695 1252.3 1.3724 1252.96 1.86328C1253.64 2.35417 1253.97 3.20052 1253.97 4.40234C1253.97 5.58724 1253.64 6.43359 1252.96 6.94141C1252.3 7.43229 1251.51 7.67773 1250.6 7.67773C1249.65 7.67773 1248.85 7.43229 1248.19 6.94141C1247.54 6.43359 1247.22 5.58724 1247.22 4.40234C1247.22 3.20052 1247.54 2.35417 1248.19 1.86328C1248.85 1.3724 1249.65 1.12695 1250.6 1.12695ZM1273.6 35.6836C1274.38 35.6836 1275.15 35.6159 1275.91 35.4805C1276.67 35.3281 1277.37 35.1504 1277.99 34.9473V39.4668C1277.33 39.7546 1276.48 40 1275.43 40.2031C1274.38 40.4062 1273.29 40.5078 1272.15 40.5078C1270.56 40.5078 1269.13 40.2454 1267.86 39.7207C1266.59 39.179 1265.59 38.2565 1264.84 36.9531C1264.1 35.6497 1263.72 33.847 1263.72 31.5449V16.4375H1259.89V13.7715L1264 11.6641L1265.96 5.64648H1269.72V11.8926H1277.76V16.4375H1269.72V31.4688C1269.72 32.8906 1270.07 33.9486 1270.78 34.6426C1271.49 35.3366 1272.43 35.6836 1273.6 35.6836ZM1290.71 0.492188V10.4199C1290.71 11.4525 1290.68 12.4596 1290.61 13.4414C1290.56 14.4232 1290.5 15.1849 1290.43 15.7266H1290.76C1291.36 14.7448 1292.08 13.9408 1292.95 13.3145C1293.81 12.6712 1294.77 12.1888 1295.84 11.8672C1296.92 11.5456 1298.08 11.3848 1299.29 11.3848C1301.44 11.3848 1303.27 11.7487 1304.78 12.4766C1306.29 13.1875 1307.44 14.2962 1308.23 15.8027C1309.04 17.3092 1309.45 19.2643 1309.45 21.668V40H1303.48V22.7852C1303.48 20.6016 1303.04 18.9681 1302.14 17.8848C1301.24 16.7845 1299.85 16.2344 1297.97 16.2344C1296.16 16.2344 1294.72 16.6152 1293.66 17.377C1292.61 18.1217 1291.85 19.2305 1291.4 20.7031C1290.94 22.1589 1290.71 23.9362 1290.71 26.0352V40H1284.75V0.492188H1290.71ZM541.681 111L538.05 100.691H523.857L520.226 111H513.802L527.614 73.7266H534.368L548.155 111H541.681ZM536.476 95.4609L532.946 85.3047C532.811 84.8646 532.616 84.2467 532.362 83.4512C532.109 82.6387 531.855 81.8177 531.601 80.9883C531.347 80.1419 531.135 79.431 530.966 78.8555C530.797 79.5495 530.585 80.3281 530.331 81.1914C530.094 82.0378 529.857 82.8333 529.62 83.5781C529.4 84.3229 529.231 84.8984 529.112 85.3047L525.558 95.4609H536.476ZM554.096 111V73.8789H560.19V111H554.096ZM603.859 102.977C603.859 104.822 603.411 106.379 602.514 107.648C601.617 108.918 600.305 109.883 598.578 110.543C596.869 111.186 594.77 111.508 592.281 111.508C590.318 111.508 588.625 111.364 587.203 111.076C585.798 110.805 584.469 110.382 583.217 109.807V104.652C584.554 105.279 586.052 105.82 587.711 106.277C589.387 106.734 590.969 106.963 592.459 106.963C594.423 106.963 595.836 106.658 596.699 106.049C597.563 105.423 597.994 104.593 597.994 103.561C597.994 102.951 597.816 102.41 597.461 101.936C597.122 101.445 596.479 100.945 595.531 100.438C594.6 99.9128 593.229 99.2865 591.418 98.5586C589.641 97.8477 588.143 97.1367 586.924 96.4258C585.705 95.7148 584.783 94.86 584.156 93.8613C583.53 92.8457 583.217 91.5508 583.217 89.9766C583.217 87.4883 584.199 85.6009 586.162 84.3145C588.143 83.0111 590.758 82.3594 594.008 82.3594C595.734 82.3594 597.359 82.5371 598.883 82.8926C600.423 83.2311 601.93 83.7305 603.402 84.3906L601.523 88.8848C600.254 88.3262 598.976 87.8691 597.69 87.5137C596.42 87.1413 595.125 86.9551 593.805 86.9551C592.264 86.9551 591.088 87.1921 590.275 87.666C589.48 88.14 589.082 88.8171 589.082 89.6973C589.082 90.3574 589.277 90.916 589.666 91.373C590.055 91.8301 590.724 92.2871 591.672 92.7441C592.637 93.2012 593.974 93.7682 595.684 94.4453C597.359 95.0885 598.807 95.7656 600.025 96.4766C601.261 97.1706 602.209 98.0254 602.869 99.041C603.529 100.057 603.859 101.368 603.859 102.977ZM635.851 82.8926V111H631.153L630.341 107.217H630.011C629.418 108.182 628.665 108.986 627.751 109.629C626.837 110.255 625.821 110.721 624.704 111.025C623.587 111.347 622.41 111.508 621.175 111.508C619.059 111.508 617.248 111.152 615.741 110.441C614.252 109.714 613.109 108.596 612.313 107.09C611.518 105.583 611.12 103.637 611.12 101.25V82.8926H617.112V100.133C617.112 102.316 617.552 103.95 618.433 105.033C619.33 106.117 620.718 106.658 622.597 106.658C624.408 106.658 625.847 106.286 626.913 105.541C627.979 104.796 628.733 103.696 629.173 102.24C629.63 100.785 629.858 98.9987 629.858 96.8828V82.8926H635.851ZM659.869 82.3594C663.204 82.3594 665.878 83.5781 667.893 86.0156C669.924 88.4531 670.939 92.0755 670.939 96.8828C670.939 100.065 670.465 102.748 669.518 104.932C668.587 107.098 667.275 108.74 665.582 109.857C663.906 110.958 661.951 111.508 659.717 111.508C658.295 111.508 657.059 111.322 656.01 110.949C654.96 110.577 654.063 110.094 653.318 109.502C652.574 108.893 651.947 108.232 651.439 107.521H651.084C651.169 108.199 651.245 108.952 651.312 109.781C651.397 110.594 651.439 111.339 651.439 112.016V123.467H645.447V82.8926H650.322L651.16 86.7773H651.439C651.964 85.9818 652.599 85.2454 653.344 84.5684C654.105 83.8913 655.02 83.3581 656.086 82.9688C657.169 82.5625 658.43 82.3594 659.869 82.3594ZM658.27 87.2344C656.628 87.2344 655.307 87.5645 654.309 88.2246C653.327 88.8678 652.607 89.8411 652.15 91.1445C651.71 92.4479 651.473 94.0814 651.439 96.0449V96.8828C651.439 98.9648 651.651 100.734 652.074 102.189C652.514 103.628 653.234 104.729 654.232 105.49C655.248 106.235 656.619 106.607 658.346 106.607C659.801 106.607 661.003 106.21 661.951 105.414C662.916 104.618 663.635 103.484 664.109 102.012C664.583 100.539 664.82 98.804 664.82 96.8066C664.82 93.7767 664.279 91.4238 663.195 89.748C662.129 88.0723 660.487 87.2344 658.27 87.2344ZM693.308 82.3594C696.642 82.3594 699.317 83.5781 701.331 86.0156C703.362 88.4531 704.378 92.0755 704.378 96.8828C704.378 100.065 703.904 102.748 702.956 104.932C702.025 107.098 700.713 108.74 699.02 109.857C697.345 110.958 695.39 111.508 693.155 111.508C691.733 111.508 690.498 111.322 689.448 110.949C688.399 110.577 687.502 110.094 686.757 109.502C686.012 108.893 685.386 108.232 684.878 107.521H684.522C684.607 108.199 684.683 108.952 684.751 109.781C684.836 110.594 684.878 111.339 684.878 112.016V123.467H678.886V82.8926H683.761L684.599 86.7773H684.878C685.403 85.9818 686.037 85.2454 686.782 84.5684C687.544 83.8913 688.458 83.3581 689.524 82.9688C690.608 82.5625 691.869 82.3594 693.308 82.3594ZM691.708 87.2344C690.066 87.2344 688.746 87.5645 687.747 88.2246C686.765 88.8678 686.046 89.8411 685.589 91.1445C685.149 92.4479 684.912 94.0814 684.878 96.0449V96.8828C684.878 98.9648 685.089 100.734 685.513 102.189C685.953 103.628 686.672 104.729 687.671 105.49C688.686 106.235 690.058 106.607 691.784 106.607C693.24 106.607 694.442 106.21 695.39 105.414C696.354 104.618 697.074 103.484 697.548 102.012C698.022 100.539 698.259 98.804 698.259 96.8066C698.259 93.7767 697.717 91.4238 696.634 89.748C695.567 88.0723 693.925 87.2344 691.708 87.2344ZM737.207 96.8828C737.207 99.2188 736.902 101.292 736.293 103.104C735.683 104.915 734.795 106.447 733.627 107.699C732.459 108.935 731.054 109.883 729.412 110.543C727.77 111.186 725.917 111.508 723.851 111.508C721.922 111.508 720.153 111.186 718.545 110.543C716.937 109.883 715.54 108.935 714.355 107.699C713.187 106.447 712.282 104.915 711.639 103.104C710.995 101.292 710.674 99.2188 710.674 96.8828C710.674 93.7852 711.207 91.1615 712.273 89.0117C713.357 86.8451 714.897 85.1947 716.894 84.0605C718.892 82.9264 721.27 82.3594 724.029 82.3594C726.619 82.3594 728.904 82.9264 730.885 84.0605C732.865 85.1947 734.414 86.8451 735.531 89.0117C736.648 91.1784 737.207 93.8021 737.207 96.8828ZM716.818 96.8828C716.818 98.931 717.064 100.683 717.555 102.139C718.062 103.594 718.841 104.712 719.891 105.49C720.94 106.252 722.294 106.633 723.953 106.633C725.612 106.633 726.966 106.252 728.016 105.49C729.065 104.712 729.835 103.594 730.326 102.139C730.817 100.683 731.062 98.931 731.062 96.8828C731.062 94.8346 730.817 93.0996 730.326 91.6777C729.835 90.2389 729.065 89.1471 728.016 88.4023C726.966 87.6406 725.603 87.2598 723.928 87.2598C721.456 87.2598 719.654 88.0892 718.519 89.748C717.385 91.4069 716.818 93.7852 716.818 96.8828ZM759.347 82.3594C759.821 82.3594 760.337 82.3848 760.895 82.4355C761.454 82.4863 761.936 82.554 762.343 82.6387L761.784 88.2246C761.429 88.123 760.988 88.0469 760.464 87.9961C759.956 87.9453 759.499 87.9199 759.093 87.9199C758.026 87.9199 757.011 88.0977 756.046 88.4531C755.081 88.7917 754.226 89.3164 753.481 90.0273C752.737 90.7214 752.153 91.5931 751.729 92.6426C751.306 93.6921 751.095 94.9108 751.095 96.2988V111H745.102V82.8926H749.774L750.587 87.8438H750.866C751.425 86.8451 752.119 85.931 752.948 85.1016C753.778 84.2721 754.725 83.612 755.792 83.1211C756.875 82.6133 758.06 82.3594 759.347 82.3594ZM779.049 106.684C779.827 106.684 780.597 106.616 781.359 106.48C782.121 106.328 782.815 106.15 783.441 105.947V110.467C782.781 110.755 781.926 111 780.877 111.203C779.827 111.406 778.735 111.508 777.601 111.508C776.01 111.508 774.58 111.245 773.31 110.721C772.041 110.179 771.034 109.257 770.289 107.953C769.544 106.65 769.172 104.847 769.172 102.545V87.4375H765.338V84.7715L769.451 82.6641L771.406 76.6465H775.164V82.8926H783.213V87.4375H775.164V102.469C775.164 103.891 775.519 104.949 776.23 105.643C776.941 106.337 777.881 106.684 779.049 106.684ZM789.331 107.852C789.331 106.464 789.686 105.49 790.397 104.932C791.125 104.356 792.005 104.068 793.038 104.068C794.07 104.068 794.951 104.356 795.678 104.932C796.423 105.49 796.796 106.464 796.796 107.852C796.796 109.206 796.423 110.188 795.678 110.797C794.951 111.389 794.07 111.686 793.038 111.686C792.005 111.686 791.125 111.389 790.397 110.797C789.686 110.188 789.331 109.206 789.331 107.852Z" fill="url(#paint0_linear_6_154)"/>
<defs>
<linearGradient id="paint0_linear_6_154" x1="0" y1="55" x2="1314" y2="54.9999" gradientUnits="userSpaceOnUse">
<stop stop-color="#FF3BFF"/>
<stop offset="0.380208" stop-color="#ECBFBF"/>
<stop offset="0.758263" stop-color="#5C24FF"/>
<stop offset="1" stop-color="#D94FD5"/>
</linearGradient>
</defs>
</svg>
