<svg width="176" height="70" viewBox="0 0 176 70" fill="none" xmlns="http://www.w3.org/2000/svg">
<rect x="1" y="1" width="174" height="68" rx="34" fill="black"/>
<path d="M32.8783 42.5L37.3983 35.44L32.9383 28.5H34.9183L38.4783 34.28H38.7383L42.3183 28.5H44.2783L39.8383 35.44L44.3583 42.5H42.3983L38.7383 36.6H38.4783L34.8383 42.5H32.8783ZM46.5922 42.5V28.5H55.2122V30.02H48.2722V34.7H54.6522V36.22H48.2722V40.98H55.3122V42.5H46.5922ZM57.8617 42.5V28.5H63.5217C64.3884 28.5 65.1484 28.6533 65.8017 28.96C66.4684 29.2533 66.9884 29.68 67.3617 30.24C67.7351 30.7867 67.9217 31.4467 67.9217 32.22V32.44C67.9217 33.36 67.7017 34.0867 67.2617 34.62C66.8217 35.1533 66.3017 35.5133 65.7017 35.7V35.98C66.1817 35.9933 66.5751 36.1533 66.8817 36.46C67.2017 36.7533 67.3617 37.2 67.3617 37.8V42.5H65.7017V38C65.7017 37.6 65.5884 37.2933 65.3617 37.08C65.1484 36.8667 64.8217 36.76 64.3817 36.76H59.5417V42.5H57.8617ZM59.5417 35.24H63.3617C64.2817 35.24 64.9884 35.02 65.4817 34.58C65.9884 34.1267 66.2417 33.5 66.2417 32.7V32.56C66.2417 31.76 65.9951 31.14 65.5017 30.7C65.0084 30.2467 64.2951 30.02 63.3617 30.02H59.5417V35.24ZM75.5589 42.78C73.8922 42.78 72.5589 42.3 71.5589 41.34C70.5722 40.3667 70.0789 38.9533 70.0789 37.1V33.9C70.0789 32.0467 70.5722 30.64 71.5589 29.68C72.5589 28.7067 73.8922 28.22 75.5589 28.22C77.2389 28.22 78.5722 28.7067 79.5589 29.68C80.5589 30.64 81.0589 32.0467 81.0589 33.9V37.1C81.0589 38.9533 80.5589 40.3667 79.5589 41.34C78.5722 42.3 77.2389 42.78 75.5589 42.78ZM75.5589 41.28C76.7722 41.28 77.7122 40.92 78.3789 40.2C79.0456 39.4667 79.3789 38.4533 79.3789 37.16V33.84C79.3789 32.5467 79.0456 31.54 78.3789 30.82C77.7122 30.0867 76.7722 29.72 75.5589 29.72C74.3589 29.72 73.4256 30.0867 72.7589 30.82C72.0922 31.54 71.7589 32.5467 71.7589 33.84V37.16C71.7589 38.4533 72.0922 39.4667 72.7589 40.2C73.4256 40.92 74.3589 41.28 75.5589 41.28ZM88.9178 42.78C87.2511 42.78 85.9245 42.3 84.9378 41.34C83.9511 40.3667 83.4578 38.9533 83.4578 37.1V33.9C83.4578 32.0467 83.9511 30.64 84.9378 29.68C85.9245 28.7067 87.2511 28.22 88.9178 28.22C90.5711 28.22 91.8378 28.68 92.7178 29.6C93.6111 30.52 94.0578 31.78 94.0578 33.38V33.48H92.3978V33.32C92.3978 32.2667 92.1111 31.4067 91.5378 30.74C90.9778 30.06 90.1045 29.72 88.9178 29.72C87.7311 29.72 86.8045 30.0867 86.1378 30.82C85.4711 31.54 85.1378 32.5533 85.1378 33.86V37.14C85.1378 38.4467 85.4711 39.4667 86.1378 40.2C86.8045 40.92 87.7311 41.28 88.9178 41.28C90.1045 41.28 90.9778 40.9467 91.5378 40.28C92.1111 39.6 92.3978 38.7333 92.3978 37.68V37.36H94.0578V37.62C94.0578 39.22 93.6111 40.48 92.7178 41.4C91.8378 42.32 90.5711 42.78 88.9178 42.78ZM101.77 42.78C100.103 42.78 98.7698 42.3 97.7698 41.34C96.7832 40.3667 96.2898 38.9533 96.2898 37.1V33.9C96.2898 32.0467 96.7832 30.64 97.7698 29.68C98.7698 28.7067 100.103 28.22 101.77 28.22C103.45 28.22 104.783 28.7067 105.77 29.68C106.77 30.64 107.27 32.0467 107.27 33.9V37.1C107.27 38.9533 106.77 40.3667 105.77 41.34C104.783 42.3 103.45 42.78 101.77 42.78ZM101.77 41.28C102.983 41.28 103.923 40.92 104.59 40.2C105.257 39.4667 105.59 38.4533 105.59 37.16V33.84C105.59 32.5467 105.257 31.54 104.59 30.82C103.923 30.0867 102.983 29.72 101.77 29.72C100.57 29.72 99.6365 30.0867 98.9698 30.82C98.3032 31.54 97.9698 32.5467 97.9698 33.84V37.16C97.9698 38.4533 98.3032 39.4667 98.9698 40.2C99.6365 40.92 100.57 41.28 101.77 41.28ZM108.901 42.5V41H110.861V30H108.901V28.5H114.361C116.201 28.5 117.621 28.9667 118.621 29.9C119.634 30.8333 120.141 32.2667 120.141 34.2V36.8C120.141 38.7467 119.634 40.1867 118.621 41.12C117.621 42.04 116.201 42.5 114.361 42.5H108.901ZM112.541 40.98H114.361C115.721 40.98 116.748 40.6467 117.441 39.98C118.134 39.3133 118.481 38.28 118.481 36.88V34.14C118.481 32.7133 118.134 31.6733 117.441 31.02C116.748 30.3667 115.721 30.04 114.361 30.04H112.541V40.98ZM122.823 42.5V28.5H131.443V30.02H124.503V34.7H130.883V36.22H124.503V40.98H131.543V42.5H122.823ZM134.092 42.5V28.5H142.712V30.02H135.772V34.7H142.152V36.22H135.772V40.98H142.812V42.5H134.092Z" fill="white"/>
<rect x="1" y="1" width="174" height="68" rx="34" stroke="white" stroke-width="2"/>
</svg>
